<svg id="Layer_1" data-name="Layer 1" xmlns="http://www.w3.org/2000/svg" viewBox="0 0 703.97 973.79"><defs><style>.cls-1{fill:#fff;} .cls-2{fill:#000;}</style></defs><title>blmbadge</title><path class="cls-1" d="M149,13.92H853v973.8H149ZM500.19,938.58q70.7,0,141.4-.08a63.35,63.35,0,0,0,13.75-1.78c9.37-2.12,11.67-5,11.62-14.69-.17-37.06-.56-74.11-.71-111.17-.13-32.81-.17-65.63.11-98.45a16.77,16.77,0,0,1,4-9.79c6.62-7.76,14-14.89,20.8-22.47a100.21,100.21,0,0,0,10.23-13c5.7-8.95,10.87-18.23,16.31-27.34,6.62-11.07,10.83-23.16,14.88-35.31,2-6.07,3.75-12.23,5.53-18.37,2.4-8.32,5.06-16.57,7-25,3-13.1,5.66-26.28,8.14-39.49,2.31-12.35,4.14-24.79,6.32-37.16.95-5.42,2.18-10.8,3.38-16.18.49-2.2-1.87-8.32-3.91-9.22a2.84,2.84,0,0,0-2.37.16c-4.62,3.19-9.21,6.46-13.73,9.8-6.25,4.61-12.39,9.36-18.67,13.92-4.35,3.16-9,6-13.27,9.18-7,5.26-13.8,10.86-20.85,16.08-6.25,4.62-12.74,8.91-19.13,13.36-7.53,5.24-15.36,6-22-1.23-9-9.79-18.32-19.37-27.59-28.95-1.63-1.69-3.95-2.72-5.57-4.41-5.05-5.27-9.78-10.85-14.93-16a27.17,27.17,0,0,0-7.67-5.36c-16-7.47-32.11-14.68-48.14-22.09-10.05-4.65-20-9.59-30-14.19-8.45-3.87-17.54-5.35-26.68-6.47-7.4-.89-14.81-1.6-22.21-2.47-7.15-.83-9.47,1.93-7,8.44a15.3,15.3,0,0,0,1.33,2.69c3.91,6.29,8,12.47,11.72,18.86,5.71,9.77,11.18,19.67,16.73,29.53,2.4,4.27,4.6,8.65,7.12,12.85,4.2,7,8.66,13.81,12.87,20.78,3.5,5.8,6.73,11.77,10.21,17.59,4.51,7.53,9.18,15,13.71,22.49s8.78,14.94,13.24,22.37c5.8,9.65,11.71,19.23,17.51,28.89,4.51,7.51,8.72,15.21,13.4,22.62,5.58,8.81,4.9,17.58.49,26.43-1.3,2.62-3.58,2.67-5.44.37-3.3-4.11-6.68-8.15-9.83-12.37-4-5.43-8.31-10.75-11.75-16.55-9.94-16.75-19.53-33.7-29.22-50.59q-8.07-14.07-16-28.2c-2.64-4.68-5.07-9.48-7.75-14.14-5.89-10.23-11.88-20.4-17.8-30.61-3.47-6-6.75-12.05-10.32-18-5.72-9.44-11.75-18.69-17.39-28.18-6.62-11.16-12.49-22.81-19.64-33.61-3.56-5.4-7.26-11.55-14.85-13.06-3.66-.73-7.14-2.43-10.65-3.81-6.68-2.62-13.28-5.47-20-8-13.56-5-27.21-9.8-40.76-14.85a21,21,0,0,1-6-3.82c-2.53-2.17-2.4-5.33.56-6.88a39.77,39.77,0,0,1,10.15-3.51c6.41-1.32,13-1.8,19.34-3.31,6.59-1.58,9.69-6.62,7.58-13-2-6-5.79-11.4-7.81-17.39a209.4,209.4,0,0,1-6.15-23.93c-.31-1.49,1.39-4.43,2.81-4.95s4.2.56,5.49,1.84c4.29,4.24,7.95,9.12,12.27,13.32,7.47,7.27,14.36,15,23.19,21s18.49,9.25,28.6,9.24c11.14,0,22.31-2.22,33.43-3.74,14.5-2,28.95-4.27,43.43-6.31,10.43-1.47,12.88-3.34,15.24-13.69,1.48-6.49,2.35-13.13,3.34-19.73,1-6.86,1.82-13.75,2.82-20.61,1-7.11-5.44-16.51-13.85-20.1-15.38-6.58-30.79-13.1-46.08-19.88-14.94-6.63-29.71-13.62-44.62-20.31-6.77-3-13.72-5.64-20.52-8.6-10.22-4.45-20.38-9-30.55-13.59-12-5.41-24.08-10.8-36.06-16.31a11.78,11.78,0,0,0-12.26.72c-5.59,3.45-8.15,9.08-11.79,13.93-5.1,6.78-9.92,13.77-14.87,20.67-2.69,3.75-5.44,7.45-8.08,11.23-5.21,7.48-10.36,15-15.52,22.52q-6.36,9.25-12.67,18.55c-2.73,4-5.28,8.17-8.12,12.12-2.72,3.78-5.82,7.3-8.55,11.08-3.14,4.36-6,8.91-9.09,13.3-3.73,5.31-7.59,10.52-11.34,15.8-4.63,6.53-9.2,13.09-13.81,19.62-2.68,3.78-5.48,7.47-8.07,11.3-4.69,6.93-8.79,14.32-14,20.79-5.08,6.28-6.08,12.4-2.37,19.33,3.34,6.25,6.81,12.45,10.45,18.52,3.09,5.14,6.42,10.14,9.81,15.09,4.66,6.79,9.57,13.4,14.2,20.21,6.32,9.3,12.43,18.73,18.72,28.05,6.09,9,12.32,17.93,18.44,26.93,4.77,7,9.4,14.16,14.19,21.18,6.35,9.28,12.83,18.47,19.17,27.76,4.58,6.71,8.91,13.6,13.55,20.27,5.49,7.9,11.3,15.58,16.76,23.5,6.86,10,13.53,20.09,20.25,30.16,5.06,7.58,10.07,15.2,15.1,22.8,2.55,3.84,4.73,8,7.78,11.42a21,21,0,0,1,5.64,16.29c-.65,8.16-1.8,16.29-3,24.38-2.7,17.92-5.64,35.8-8.35,53.71-.83,5.48-1.09,11-1.86,16.55-1,7.1-2.33,14.16-3.32,21.27-1.44,10.23-2.58,20.5-4.06,30.72-1.54,10.57-3.42,21.09-5,31.66-1.88,12.56-3.57,25.16-5.4,37.74-1.27,8.71-2.68,17.41-3.95,26.12-1.41,9.61,2.37,14.91,11.83,15C402.12,938.69,451.15,938.57,500.19,938.58Zm92.62-488.86.47.69c3.12-1.72,6.92-2.8,9.22-5.28,9.4-10.12,18.31-20.7,27.46-31.06q10.88-12.3,21.91-24.46c1.92-2.13,4.19-4,6-6.17,5.09-6.17,9.86-12.62,15.08-18.68s11-11.8,16.34-17.82c5.08-5.7,9.89-11.65,15-17.37,7.58-8.56,15.26-17,23-25.51a12.48,12.48,0,0,0,.16-16.84c-3.14-3.47-6.31-6.9-9.62-10.19q-15.37-15.22-30.87-30.32c-8.22-8.05-16.38-16.17-24.75-24.07-3-2.84-6.07-2.72-9.47-.08a28.94,28.94,0,0,0-5.36,5.36c-5.76,7.7-11.25,15.6-17,23.29-8.17,10.9-16.52,21.66-24.74,32.52-7.76,10.24-15.41,20.56-23.17,30.8-4.37,5.78-8.89,11.45-13.3,17.21-5.39,7-10.7,14.14-16.12,21.16-3.68,4.76-7.63,9.33-11.22,14.16-6.5,8.75-12.94,17.55-19.15,26.5-3.42,4.93-6.42,10.18-9.38,15.41-.53.94-.48,3,.18,3.66,2.42,2.33,4.94,4.84,7.91,6.25,13,6.17,26.21,12,39.39,17.89,9.19,4.08,18.46,8,27.73,11.9A26.62,26.62,0,0,0,592.81,449.72Zm68.94,60.89c2.61-1.28,5-2,6.72-3.37q27.88-22.25,55.58-44.72c11.13-9.06,22.05-18.37,33.05-27.59,6.44-5.41,12.82-10.89,19.25-16.3,7.78-6.55,15.59-13.05,23.37-19.59,2-1.66,3.75-3.64,5.89-5.06,4.7-3.14,6.12-7.36,3-11.89-5.36-7.83-10.77-15.67-16.72-23-7.51-9.33-15.57-18.22-23.42-27.27-5.2-6-10.32-12.08-15.75-17.86-1.22-1.3-4.22-2.63-5.34-2a36.17,36.17,0,0,0-8.36,6.83c-2.81,2.95-5,6.43-7.72,9.52-3.54,4.11-7.24,8.07-10.88,12.08q-13.59,14.94-27.19,29.86c-4,4.32-8,8.54-11.93,12.85-9.16,10-18.34,20-27.41,30.06-5.29,5.87-10.28,12-15.59,17.88-6.74,7.44-13.61,14.76-20.54,22-3,3.13-4.08,11.18-1.06,14.17q8.47,8.42,16.78,17c7.1,7.37,14,14.93,21.22,22.18C656.54,508.2,659.24,509.14,661.75,510.61Zm-213-454.15c-1.46,1-4.56,2.68-6.89,5.07a126.45,126.45,0,0,0-8.68,10.82C429.41,77.2,425.65,82,422,87c-5.06,6.82-10,13.73-15,20.59-3.1,4.24-6.24,8.45-9.3,12.71-3.51,4.87-6.91,9.81-10.45,14.66-3.24,4.45-6.63,8.8-9.92,13.21-4.18,5.61-8.4,11.19-12.46,16.89-2.29,3.23-5.19,6.61-2.83,10.9,1.11,2,2.86,4.22,4.86,5.1,12.51,5.49,25.16,10.66,37.79,15.88,7.42,3.07,14.91,6,22.33,9.06,10.13,4.21,20.25,8.45,30.3,12.83,3.17,1.37,5.47.19,7.38-2a67.27,67.27,0,0,0,5.56-7.52c6.76-10.26,13.36-20.61,20.16-30.84,6.09-9.15,12.39-18.16,18.52-27.29,5.23-7.79,10.26-15.72,15.56-23.47,3.53-5.16,4.23-11.91.62-15.17C514.54,103,504,93.45,493,84.42c-9.3-7.66-19.15-14.63-28.78-21.88C460.19,59.49,456.09,56.52,448.73,56.46Zm93.87,272.9c3.29-1.27,6.38-1.5,7.73-3.15,6.76-8.24,13-16.86,19.54-25.32,5.13-6.67,10.33-13.28,15.48-19.94,2.83-3.67,5.59-7.39,8.42-11.06,5.29-6.85,10.64-13.65,15.89-20.53,4.35-5.68,8.62-11.41,12.88-17.16,5.15-6.95,10.41-13.83,15.34-20.94,2.84-4.08,2.43-6-1.17-9.56-4.89-4.77-9.91-9.4-14.8-14.16q-16.53-16.12-33-32.31c-7.06-6.9-14.06-13.87-21.28-20.6a31,31,0,0,0-7.8-5.22,15.14,15.14,0,0,0-7-1.32c-7.57.43-10.4,6.87-14,12-5.38,7.69-10.22,15.75-15.41,23.57-3.2,4.81-6.75,9.38-9.9,14.22s-5.75,9.88-8.87,14.67c-5.6,8.61-11.44,17.07-17.1,25.65a48.23,48.23,0,0,0-4.25,7.49c-1.39,3.28-.09,6.28,2.94,8,2.4,1.33,4.76,2.72,7.2,4,5.81,3,11.62,5.94,17.51,8.75,9.29,4.42,18.72,8.55,27.93,13.12,6.79,3.38,10.39,12.56,8.22,19.6a16.33,16.33,0,0,0-.52,3c-1,9-2,18.07-2.84,27.13C543.22,315.43,543,321.72,542.6,329.36Zm-59.3,75.69c2.53-1.24,5.81-2.08,8-4.1a171.48,171.48,0,0,0,12-13.07C510,380.33,516.1,372.51,520,363c2.11-5.23-1.49-9.41-6.48-8.56-8.07,1.36-16.22,2.18-24.24,3.75-10.35,2-20.54,5-30.92,6.79-12.44,2.18-25.05,3.45-37.69,2.36A118.74,118.74,0,0,1,402.55,364c-3.93-1-6.35-.24-7.85,3.51-.86,2.15,1.2,5.73,4,6.74,8.37,3,16.78,6,25.14,9.07,14.6,5.37,29.18,10.81,43.78,16.19C472.66,401.35,477.77,403.09,483.3,405.05Z" transform="translate(-149.02 -13.92)"/><path class="cls-2" d="M500.19,938.57c-49,0-98.07.12-147.11-.11-9.46-.05-13.24-5.35-11.83-15,1.27-8.71,2.68-17.41,3.95-26.12,1.83-12.58,3.52-25.18,5.4-37.74,1.58-10.57,3.46-21.09,5-31.66,1.48-10.22,2.62-20.49,4.06-30.72,1-7.11,2.33-14.17,3.32-21.27.77-5.5,1-11.07,1.86-16.55,2.71-17.91,5.65-35.79,8.35-53.71,1.22-8.09,2.37-16.22,3-24.38a21,21,0,0,0-5.64-16.29c-3.05-3.39-5.23-7.58-7.78-11.42-5-7.6-10-15.22-15.1-22.8-6.72-10.07-13.39-20.18-20.25-30.16-5.46-7.92-11.27-15.6-16.76-23.5-4.64-6.67-9-13.56-13.55-20.27-6.34-9.29-12.82-18.48-19.17-27.76-4.79-7-9.42-14.15-14.19-21.18-6.12-9-12.35-17.92-18.44-26.93-6.29-9.32-12.4-18.75-18.72-28.05-4.63-6.81-9.54-13.42-14.2-20.21-3.39-4.95-6.72-9.95-9.81-15.09-3.64-6.07-7.11-12.27-10.45-18.52-3.71-6.93-2.71-13.05,2.37-19.33,5.24-6.47,9.34-13.86,14-20.79,2.59-3.83,5.39-7.52,8.07-11.3,4.61-6.53,9.18-13.09,13.81-19.62,3.75-5.28,7.61-10.49,11.34-15.8,3.08-4.39,5.95-8.94,9.09-13.3,2.73-3.78,5.83-7.3,8.55-11.08,2.84-3.95,5.39-8.09,8.12-12.12q6.3-9.3,12.67-18.55c5.16-7.52,10.31-15,15.52-22.52,2.64-3.78,5.39-7.48,8.08-11.23,4.95-6.9,9.77-13.89,14.87-20.67,3.64-4.85,6.2-10.48,11.79-13.93a11.78,11.78,0,0,1,12.26-.72c12,5.51,24,10.9,36.06,16.31,10.17,4.56,20.33,9.14,30.55,13.59,6.8,3,13.75,5.57,20.52,8.6,14.91,6.69,29.68,13.68,44.62,20.31,15.29,6.78,30.7,13.3,46.08,19.88,8.41,3.59,14.89,13,13.85,20.1-1,6.86-1.79,13.75-2.82,20.61-1,6.6-1.86,13.24-3.34,19.73-2.36,10.35-4.81,12.22-15.24,13.69-14.48,2-28.93,4.33-43.43,6.31-11.12,1.52-22.29,3.74-33.43,3.74-10.11,0-19.74-3.25-28.6-9.24s-15.72-13.74-23.19-21c-4.32-4.2-8-9.08-12.27-13.32-1.29-1.28-4-2.37-5.49-1.84s-3.12,3.46-2.81,4.95a209.4,209.4,0,0,0,6.15,23.93c2,6,5.83,11.39,7.81,17.39,2.11,6.36-1,11.4-7.58,13-6.34,1.51-12.93,2-19.34,3.31a39.77,39.77,0,0,0-10.15,3.51c-3,1.55-3.09,4.71-.56,6.88a21,21,0,0,0,6,3.82c13.55,5.05,27.2,9.83,40.76,14.85,6.72,2.49,13.32,5.34,20,8,3.51,1.38,7,3.08,10.65,3.81,7.59,1.51,11.29,7.66,14.85,13.06,7.15,10.8,13,22.45,19.64,33.61,5.64,9.49,11.67,18.74,17.39,28.18,3.57,5.91,6.85,12,10.32,18,5.92,10.21,11.91,20.38,17.8,30.61,2.68,4.66,5.11,9.46,7.75,14.14q8,14.13,16,28.2c9.69,16.89,19.28,33.84,29.22,50.59,3.44,5.8,7.71,11.12,11.75,16.55,3.15,4.22,6.53,8.26,9.83,12.37,1.86,2.3,4.14,2.25,5.44-.37,4.41-8.85,5.09-17.62-.49-26.43-4.68-7.41-8.89-15.11-13.4-22.62-5.8-9.66-11.71-19.24-17.51-28.89-4.46-7.43-8.78-14.94-13.24-22.37s-9.2-15-13.71-22.49c-3.48-5.82-6.71-11.79-10.21-17.59-4.21-7-8.67-13.8-12.87-20.78-2.52-4.2-4.72-8.58-7.12-12.85-5.55-9.86-11-19.76-16.73-29.53-3.73-6.39-7.81-12.57-11.72-18.86a15.3,15.3,0,0,1-1.33-2.69c-2.51-6.51-.19-9.27,7-8.44,7.4.87,14.81,1.58,22.21,2.47,9.14,1.12,18.23,2.6,26.68,6.47,10.07,4.6,20,9.54,30,14.19,16,7.41,32.15,14.62,48.14,22.09a27.17,27.17,0,0,1,7.67,5.36c5.15,5.17,9.88,10.75,14.93,16,1.62,1.69,3.94,2.72,5.57,4.41C630.69,501,640,510.59,649,520.38c6.67,7.21,14.5,6.47,22,1.23,6.39-4.45,12.88-8.74,19.13-13.36C697.22,503,704,497.43,711,492.17c4.3-3.22,8.92-6,13.27-9.18,6.28-4.56,12.42-9.31,18.67-13.92,4.52-3.34,9.11-6.61,13.73-9.8a2.84,2.84,0,0,1,2.37-.16c2,.9,4.4,7,3.91,9.22-1.2,5.38-2.43,10.76-3.38,16.18-2.18,12.37-4,24.81-6.32,37.16-2.48,13.21-5.14,26.39-8.14,39.49-1.94,8.43-4.6,16.68-7,25-1.78,6.14-3.51,12.3-5.53,18.37-4.05,12.15-8.26,24.24-14.88,35.31-5.44,9.11-10.61,18.39-16.31,27.34a100.21,100.21,0,0,1-10.23,13c-6.84,7.58-14.18,14.71-20.8,22.47a16.77,16.77,0,0,0-4,9.79c-.28,32.82-.24,65.64-.11,98.45.15,37.06.54,74.11.71,111.17,0,9.7-2.25,12.57-11.62,14.69a63.35,63.35,0,0,1-13.75,1.78Q570.9,938.68,500.19,938.57Z" transform="translate(-149.02 -13.92)"/><path class="cls-2" d="M592.81,449.72a26.62,26.62,0,0,1-4.4-1.05c-9.27-3.91-18.54-7.82-27.73-11.9-13.18-5.85-26.36-11.72-39.39-17.89-3-1.41-5.49-3.92-7.91-6.25-.66-.64-.71-2.72-.18-3.66,3-5.23,6-10.48,9.38-15.41,6.21-8.95,12.65-17.75,19.15-26.5,3.59-4.83,7.54-9.4,11.22-14.16,5.42-7,10.73-14.12,16.12-21.16,4.41-5.76,8.93-11.43,13.3-17.21,7.76-10.24,15.41-20.56,23.17-30.8,8.22-10.86,16.57-21.62,24.74-32.52,5.77-7.69,11.26-15.59,17-23.29a28.94,28.94,0,0,1,5.36-5.36c3.4-2.64,6.46-2.76,9.47.08,8.37,7.9,16.53,16,24.75,24.07q15.47,15.14,30.87,30.32c3.31,3.29,6.48,6.72,9.62,10.19a12.48,12.48,0,0,1-.16,16.84c-7.69,8.47-15.37,16.95-23,25.51-5.07,5.72-9.88,11.67-15,17.37-5.37,6-11.09,11.72-16.34,17.82s-10,12.51-15.08,18.68c-1.82,2.21-4.09,4-6,6.17q-11,12.18-21.91,24.46c-9.15,10.36-18.06,20.94-27.46,31.06-2.3,2.48-6.1,3.56-9.22,5.28Z" transform="translate(-149.02 -13.92)"/><path class="cls-2" d="M661.75,510.61c-2.51-1.47-5.21-2.41-7-4.23-7.22-7.25-14.12-14.81-21.22-22.18q-8.29-8.59-16.78-17c-3-3-1.92-11,1.06-14.17,6.93-7.28,13.8-14.6,20.54-22,5.31-5.86,10.3-12,15.59-17.88C663,403,672.16,393,681.32,383c3.95-4.31,8-8.53,11.93-12.85q13.62-14.91,27.19-29.86c3.64-4,7.34-8,10.88-12.08,2.67-3.09,4.91-6.57,7.72-9.52a36.17,36.17,0,0,1,8.36-6.83c1.12-.62,4.12.71,5.34,2,5.43,5.78,10.55,11.86,15.75,17.86,7.85,9.05,15.91,17.94,23.42,27.27,6,7.38,11.36,15.22,16.72,23,3.1,4.53,1.68,8.75-3,11.89-2.14,1.42-3.9,3.4-5.89,5.06-7.78,6.54-15.59,13-23.37,19.59-6.43,5.41-12.81,10.89-19.25,16.3-11,9.22-21.92,18.53-33.05,27.59Q696.39,485,668.47,507.24C666.71,508.65,664.36,509.33,661.75,510.61Z" transform="translate(-149.02 -13.92)"/><path class="cls-2" d="M448.73,56.46c7.36.06,11.46,3,15.51,6.08,9.63,7.25,19.48,14.22,28.78,21.88,11,9,21.52,18.57,32.07,28.1,3.61,3.26,2.91,10-.62,15.17-5.3,7.75-10.33,15.68-15.56,23.47-6.13,9.13-12.43,18.14-18.52,27.29-6.8,10.23-13.4,20.58-20.16,30.84a67.27,67.27,0,0,1-5.56,7.52c-1.91,2.17-4.21,3.35-7.38,2-10.05-4.38-20.17-8.62-30.3-12.83-7.42-3.09-14.91-6-22.33-9.06C392,191.68,379.38,186.51,366.87,181c-2-.88-3.75-3.09-4.86-5.1-2.36-4.29.54-7.67,2.83-10.9,4.06-5.7,8.28-11.28,12.46-16.89,3.29-4.41,6.68-8.76,9.92-13.21,3.54-4.85,6.94-9.79,10.45-14.66,3.06-4.26,6.2-8.47,9.3-12.71,5-6.86,10-13.77,15-20.59,3.65-4.92,7.41-9.76,11.16-14.61a126.45,126.45,0,0,1,8.68-10.82C444.17,59.14,447.27,57.5,448.73,56.46Z" transform="translate(-149.02 -13.92)"/><path class="cls-2" d="M542.6,329.36c.43-7.64.62-13.93,1.18-20.19.8-9.06,1.87-18.09,2.84-27.13a16.33,16.33,0,0,1,.52-3c2.17-7-1.43-16.22-8.22-19.6-9.21-4.57-18.64-8.7-27.93-13.12-5.89-2.81-11.7-5.79-17.51-8.75-2.44-1.24-4.8-2.63-7.2-4-3-1.68-4.33-4.68-2.94-8a48.23,48.23,0,0,1,4.25-7.49c5.66-8.58,11.5-17,17.1-25.65,3.12-4.79,5.76-9.88,8.87-14.67s6.7-9.41,9.9-14.22c5.19-7.82,10-15.88,15.41-23.57,3.58-5.12,6.41-11.56,14-12a15.14,15.14,0,0,1,7,1.32,31,31,0,0,1,7.8,5.22c7.22,6.73,14.22,13.7,21.28,20.6q16.5,16.14,33,32.31c4.89,4.76,9.91,9.39,14.8,14.16,3.6,3.51,4,5.48,1.17,9.56-4.93,7.11-10.19,14-15.34,20.94-4.26,5.75-8.53,11.48-12.88,17.16-5.25,6.88-10.6,13.68-15.89,20.53-2.83,3.67-5.59,7.39-8.42,11.06-5.15,6.66-10.35,13.27-15.48,19.94-6.49,8.46-12.78,17.08-19.54,25.32C549,327.86,545.89,328.09,542.6,329.36Z" transform="translate(-149.02 -13.92)"/><path class="cls-2" d="M483.3,405.05c-5.53-2-10.64-3.7-15.7-5.56-14.6-5.38-29.18-10.82-43.78-16.19-8.36-3.07-16.77-6-25.14-9.07-2.78-1-4.84-4.59-4-6.74,1.5-3.75,3.92-4.47,7.85-3.51a118.74,118.74,0,0,0,18.07,3.36c12.64,1.09,25.25-.18,37.69-2.36,10.38-1.83,20.57-4.76,30.92-6.79,8-1.57,16.17-2.39,24.24-3.75,5-.85,8.59,3.33,6.48,8.56-3.85,9.51-10,17.33-16.62,24.88a171.48,171.48,0,0,1-12,13.07C489.11,403,485.83,403.81,483.3,405.05Z" transform="translate(-149.02 -13.92)"/></svg>
