<svg version="1.1" id="Layer_1" xmlns="http://www.w3.org/2000/svg" x="0" y="0" viewBox="0 0 256 256" xml:space="preserve"><style>.st0{fill:#f4efed}.st1{fill:#d6d1cf}.st2{fill:#690589}.st3{fill:#fff}.st4{fill:#7bac51}.st8{fill:#99ca6f}</style><path class="st0" d="M180.726 177.066a68.045 68.045 0 00-8.923-33.771l26.944-26.944-20.492-20.492-25.812 25.812a68.131 68.131 0 00-22.634-10.739v-93.32H94.851v93.321c-29.305 7.725-50.918 34.402-50.918 66.134 0 20.915 9.398 39.625 24.189 52.171H53.81c-5.455 0-9.877 4.422-9.877 9.877V252h136.793v-12.886c0-5.455-4.422-9.877-9.877-9.877h-14.312c14.791-12.546 24.189-31.256 24.189-52.171z"/><path class="st4" d="M68.122 229.237h88.415c12.507-10.609 21.133-25.634 23.506-42.664-17.774-2.951-43.824-4.391-67.014 5.522-24.599 10.515-50.881 5.405-67.447-.073 3.301 14.778 11.383 27.751 22.54 37.215z"/><path class="st3" d="M94.851 110.933c-29.305 7.725-50.918 34.402-50.918 66.134 0 20.915 9.398 39.625 24.189 52.171h9.877c-14.791-12.546-24.189-31.256-24.189-52.171 0-28.299 17.19-52.578 41.695-62.979 1.645-.699 1.133-3.155-.654-3.155z"/><path class="st0" d="M162.32 121.671l20.874-20.874-4.938-4.938-21.938 21.938a68.608 68.608 0 016.002 3.874z"/><path class="st3" d="M63.687 229.237H53.81c-5.455 0-9.877 4.422-9.877 9.877V252h9.877v-12.886c0-5.455 4.422-9.877 9.877-9.877z"/><path class="st1" d="M193.809 111.412l-29.298 29.298a4.945 4.945 0 00-.904 5.726 68.049 68.049 0 017.242 30.63c0 20.915-9.398 39.625-24.189 52.171h9.877c14.791-12.546 24.189-31.256 24.189-52.171a68.045 68.045 0 00-8.923-33.771l26.944-26.944-4.938-4.939z"/><path class="st8" d="M122.906 189.046c.961-.444 1.928-.86 2.897-1.263-4.307 1.107-8.588 2.522-12.774 4.312a72.579 72.579 0 01-4.658 1.802c4.852-1.056 9.726-2.627 14.535-4.851zM57.033 195.241a131.163 131.163 0 01-11.451-3.219c3.301 14.779 11.383 27.752 22.54 37.215h9.877c-9.672-8.878-17.027-20.612-20.966-33.996z"/><path d="M159.876 226.187a70.12 70.12 0 001.571-1.562c.324-.335.641-.677.959-1.018a71.844 71.844 0 002.31-2.609c.383-.456.757-.921 1.128-1.387.343-.431.689-.861 1.022-1.301.316-.417.618-.845.925-1.27a68.203 68.203 0 004.005-6.226c.116-.203.236-.402.35-.606.403-.727.788-1.465 1.165-2.208.113-.222.227-.442.338-.665.381-.771.747-1.55 1.1-2.337l.229-.519c.373-.853.735-1.713 1.074-2.583l.023-.062a68.068 68.068 0 003.968-15.26c-3.01-.5-6.261-.954-9.691-1.319-2.1 17.575-10.861 33.1-23.692 43.983h9.877a68.744 68.744 0 002.515-2.25c.279-.263.549-.535.824-.801z" fill="#5d8e33"/><path class="st0" d="M134.686 4H89.973a6.806 6.806 0 100 13.612h44.713a6.806 6.806 0 100-13.612zM175.318 92.922l26.366 26.366a6.082 6.082 0 008.601-8.601l-26.366-26.366a6.082 6.082 0 00-8.601 8.601z"/><path class="st1" d="M170.849 229.237h-9.877c5.455 0 9.877 4.422 9.877 9.877V252h9.877v-12.886c0-5.455-4.422-9.877-9.877-9.877zM134.686 4h-9.877a6.806 6.806 0 110 13.612h9.877a6.806 6.806 0 100-13.612z"/><path class="st3" d="M89.973 17.612h9.877A6.806 6.806 0 1199.85 4h-9.877a6.806 6.806 0 100 13.612z"/><path class="st1" d="M210.285 110.686l-9.877-9.877a6.082 6.082 0 01-8.601 8.601l9.877 9.877a6.082 6.082 0 008.601 0 6.08 6.08 0 000-8.601z"/><path class="st2" d="M180.726 254H43.933a2 2 0 01-2-2v-12.886c0-6.549 5.328-11.877 11.877-11.877h9.159a70.269 70.269 0 01-21.036-50.17c0-31.426 20.859-59.027 50.918-67.657V17.612a2 2 0 012-2h34.957a2 2 0 012 2v91.797a69.79 69.79 0 0120.412 9.656l24.621-24.62a2 2 0 012.828 0l20.492 20.492a2 2 0 010 2.828l-25.878 25.878a70.408 70.408 0 018.443 33.423 70.267 70.267 0 01-21.036 50.17h9.159c6.549 0 11.877 5.328 11.877 11.877V252a2 2 0 01-2 2zm-134.793-4h132.793v-10.886c0-4.343-3.534-7.877-7.877-7.877h-14.312a1.998 1.998 0 01-1.293-3.525c14.923-12.658 23.482-31.118 23.482-50.645a66.37 66.37 0 00-8.662-32.782 2 2 0 01.324-2.403l25.53-25.53-17.664-17.663-24.398 24.398a2 2 0 01-2.588.205 65.89 65.89 0 00-21.97-10.424 2 2 0 01-1.49-1.934V19.612H96.851v91.321a2 2 0 01-1.49 1.934c-29.103 7.671-49.428 34.071-49.428 64.2 0 19.527 8.559 37.987 23.483 50.645a2.002 2.002 0 01-1.294 3.525H53.81c-4.343 0-7.877 3.534-7.877 7.877V250z"/><path class="st2" d="M102.851 65.047a2 2 0 01-2-2v-12a2 2 0 014 0v12a2 2 0 01-2 2zM180.726 254H43.933a2 2 0 01-2-2v-12.886c0-6.549 5.328-11.877 11.877-11.877h9.165c-9.612-9.477-16.412-21.651-19.345-34.779a2.001 2.001 0 012.579-2.335c17.064 5.644 42.373 10.247 66.033.133 23.629-10.101 50.091-8.65 68.128-5.656a2 2 0 011.653 2.249 70.198 70.198 0 01-20.334 40.388h9.16c6.549 0 11.877 5.328 11.877 11.877V252a2 2 0 01-2 2zm-134.793-4h132.793v-10.886c0-4.343-3.534-7.877-7.877-7.877h-14.312a1.998 1.998 0 01-1.294-3.525c11.966-10.15 19.913-24.107 22.52-39.478-17.429-2.684-42.039-3.665-63.948 5.7-23.249 9.938-47.834 6.384-65.417 1.076 3.558 12.638 10.933 24.147 21.018 32.702a2.002 2.002 0 01-1.294 3.525H53.81c-4.343 0-7.877 3.534-7.877 7.877V250z"/><path class="st2" d="M109.582 230.929a2 2 0 010-4c.798 0 1.447-.649 1.447-1.447V205.54a2 2 0 014 0v19.942a5.453 5.453 0 01-5.447 5.447zM134.686 19.612H89.973c-4.855 0-8.806-3.95-8.806-8.806C81.167 5.95 85.118 2 89.973 2h44.713c4.855 0 8.806 3.95 8.806 8.806 0 4.856-3.95 8.806-8.806 8.806zM89.973 6c-2.65 0-4.806 2.156-4.806 4.806s2.156 4.806 4.806 4.806h44.713c2.65 0 4.806-2.156 4.806-4.806S137.336 6 134.686 6H89.973zM205.984 123.069a8.029 8.029 0 01-5.715-2.368l-26.366-26.366c-3.151-3.151-3.151-8.278 0-11.429a8.027 8.027 0 015.715-2.368c2.159 0 4.188.841 5.715 2.368l26.365 26.366a8.026 8.026 0 012.368 5.714 8.029 8.029 0 01-2.368 5.715 8.017 8.017 0 01-5.714 2.368zm-29.252-31.561l26.366 26.366a4.055 4.055 0 002.886 1.196c1.09 0 2.116-.425 2.886-1.196a4.056 4.056 0 001.196-2.887c0-1.09-.425-2.115-1.196-2.886l-26.366-26.366c-.771-.771-1.796-1.196-2.887-1.196s-2.115.425-2.887 1.196a4.09 4.09 0 00.002 5.773z"/><path class="st2" d="M156.537 231.237H68.122a2 2 0 010-4h88.415a2 2 0 010 4z"/><path class="st4" d="M131.88 205.892a44.376 44.376 0 00-6.935-.973c-1.075-.063-1.35-1.515-.38-1.984 6.682-3.234 13.907-8.405 20.643-15.141 10.903-10.902 17.731-23.098 18.839-32.179-9.081 1.108-21.277 7.936-32.179 18.839-3.751 3.751-7.005 7.654-9.725 11.531 1.858-7.534 2.915-16.171 2.915-25.356 0-19.662-4.84-36.817-12.029-46.004C105.84 123.812 101 140.967 101 160.629c0 9.185 1.057 17.822 2.915 25.356-2.719-3.877-5.974-7.78-9.725-11.531-10.902-10.903-23.099-17.731-32.179-18.839 1.108 9.081 7.936 21.277 18.839 32.179 6.735 6.736 13.961 11.907 20.643 15.141.969.469.694 1.922-.38 1.984a44.538 44.538 0 00-6.93.973c-7.617 1.675-13.85 5.012-16.797 8.58 4.172 2.002 11.23 2.416 18.847.741 7.617-1.675 13.85-5.012 16.797-8.58l.007-.001-.003.001c2.947 3.568 9.18 6.904 16.797 8.58 7.617 1.675 14.675 1.262 18.847-.741-2.948-3.568-9.181-6.905-16.798-8.58z"/><g><path class="st2" d="M139.025 218.26c-3.026 0-6.296-.362-9.625-1.094-6.791-1.494-12.717-4.285-16.369-7.646-3.653 3.361-9.579 6.152-16.37 7.646-7.853 1.726-15.382 1.394-20.142-.891a1.999 1.999 0 01-.677-3.077c3.362-4.071 10.058-7.532 17.91-9.259a48.05 48.05 0 013.976-.702c-6.235-3.438-12.504-8.24-18.292-14.029-10.941-10.94-18.197-23.408-19.41-33.351a2 2 0 012.227-2.227c9.943 1.213 22.411 8.469 33.351 19.41a92.87 92.87 0 014.71 5.073C99.448 172.506 99 166.585 99 160.628c0-19.612 4.656-37.271 12.454-47.237.759-.969 2.392-.969 3.15 0 7.798 9.966 12.454 27.625 12.454 47.237 0 5.957-.449 11.878-1.314 17.484a92.504 92.504 0 014.71-5.073c10.94-10.941 23.408-18.197 33.351-19.41a1.998 1.998 0 012.227 2.227c-1.214 9.943-8.47 22.411-19.41 33.351-5.789 5.789-12.057 10.59-18.292 14.028 1.319.176 2.649.41 3.979.703 7.852 1.727 14.547 5.188 17.91 9.259a1.999 1.999 0 01-.677 3.077c-2.742 1.317-6.404 1.986-10.517 1.986zm-25.989-13.628c.597 0 1.16.268 1.54.728 2.771 3.354 8.78 6.381 15.685 7.9 5.427 1.193 10.743 1.31 14.675.39-3.183-2.484-8.058-4.61-13.485-5.804a42.47 42.47 0 00-6.622-.93 2.998 2.998 0 01-2.8-2.438 3.015 3.015 0 011.666-3.343c6.776-3.28 13.727-8.382 20.1-14.754 9.176-9.176 15.77-19.739 17.777-28.29-8.55 2.007-19.113 8.601-28.29 17.777-3.556 3.556-6.752 7.346-9.501 11.265a2 2 0 01-3.579-1.628c1.869-7.577 2.857-16.179 2.857-24.877 0-17.073-3.8-33.024-10.029-42.564-6.23 9.54-10.03 25.491-10.03 42.564 0 8.698.988 17.3 2.857 24.877a2.002 2.002 0 01-1.114 2.3 2.002 2.002 0 01-2.465-.672c-2.749-3.919-5.945-7.709-9.501-11.265-9.176-9.176-19.739-15.77-28.29-17.777 2.007 8.55 8.601 19.113 17.777 28.29 6.373 6.372 13.323 11.474 20.1 14.754a3.016 3.016 0 011.665 3.343 2.997 2.997 0 01-2.799 2.438 42.47 42.47 0 00-6.618.93c-5.427 1.194-10.302 3.319-13.485 5.804 3.932.919 9.248.803 14.675-.39 6.904-1.519 12.914-4.546 15.685-7.9a2 2 0 011.549-.728z"/></g></svg>