<?xml version="1.0" encoding="utf-8"?>
<!-- Generator: Adobe Illustrator 24.0.0, SVG Export Plug-In . SVG Version: 6.00 Build 0)  -->
<svg version="1.1" id="Layer_1" xmlns="http://www.w3.org/2000/svg" xmlns:xlink="http://www.w3.org/1999/xlink" x="0px" y="0px"
	 viewBox="0 0 256 256" enable-background="new 0 0 256 256" xml:space="preserve">
<g>
	<path fill="#8AC5DC" d="M202.438,109.73c-0.49,4.71-1.17,9.34-2,13.89c13.12,2.97,22.95,14.74,22.95,28.75
		c0,16.26-13.23,29.49-29.49,29.49c-4.71,0-9.17-1.11-13.13-3.1c-2.31,4.19-4.74,8.19-7.27,12c6.09,3.26,13.03,5.1,20.4,5.1
		c23.98,0,43.49-19.51,43.49-43.49C237.388,131.31,222.348,113.7,202.438,109.73z"/>
	<path fill="#3A312A" d="M193.898,197.36c-7.358,0-14.656-1.825-21.108-5.278c-0.372-0.199-0.643-0.547-0.747-0.956
		c-0.103-0.41-0.028-0.844,0.206-1.196c2.533-3.814,4.958-7.816,7.205-11.894c0.389-0.706,1.268-0.979,1.987-0.616
		c3.883,1.951,8.073,2.94,12.456,2.94c15.434,0,27.99-12.557,27.99-27.99c0-12.954-9.16-24.431-21.781-27.287
		c-0.784-0.178-1.289-0.941-1.145-1.732c0.852-4.667,1.519-9.302,1.983-13.775c0.044-0.42,0.263-0.802,0.603-1.052
		c0.34-0.252,0.771-0.347,1.183-0.264c20.951,4.177,36.157,22.728,36.157,44.11C238.888,177.178,218.705,197.36,193.898,197.36z
		 M175.671,190.184c5.646,2.737,11.912,4.177,18.227,4.177c23.153,0,41.99-18.837,41.99-41.99c0-19.407-13.419-36.314-32.14-40.816
		c-0.408,3.583-0.94,7.255-1.588,10.953c13.252,3.667,22.727,16.001,22.727,29.863c0,17.088-13.902,30.99-30.99,30.99
		c-4.369,0-8.568-0.889-12.502-2.644C179.582,183.944,177.663,187.118,175.671,190.184z"/>
	<path fill="#8AC5DC" d="M47.701,86.851H31.126c-4.986,0-8.959,4.129-8.821,9.114C23.808,150.341,51.465,196.79,79.013,220h68.903
		c27.686-23.221,53.967-69.704,55.444-124.114c0.135-4.952-3.873-9.035-8.827-9.035H62.734H47.701z"/>
	<path fill="#3A312A" d="M147.916,221.5H79.013c-0.354,0-0.696-0.125-0.967-0.352c-25.401-21.402-55.634-67.018-57.24-125.142
		c-0.079-2.833,0.964-5.509,2.934-7.534c1.957-2.012,4.581-3.12,7.387-3.12h16.575c0.828,0,1.5,0.672,1.5,1.5
		c0,0.828-0.672,1.5-1.5,1.5H31.126c-1.989,0-3.849,0.785-5.236,2.212c-1.4,1.439-2.142,3.344-2.086,5.36
		c1.57,56.814,30.919,101.429,55.759,122.576h67.806c24.256-20.572,52.923-64.861,54.493-122.655c0.054-1.976-0.68-3.847-2.063-5.27
		c-1.396-1.434-3.266-2.224-5.266-2.224H62.734c-0.828,0-1.5-0.672-1.5-1.5c0-0.828,0.672-1.5,1.5-1.5h131.798
		c2.816,0,5.45,1.112,7.415,3.132c1.954,2.008,2.988,4.651,2.912,7.443c-1.605,59.119-31.159,104.405-55.98,125.223
		C148.609,221.376,148.269,221.5,147.916,221.5z"/>
	<path fill="#D6DF58" d="M49.523,26.178c0,0,3.408,12.659,13.222,13.246c0,0-13.1,4.525-13.321,14.202
		c0,0-2.578-13.572-12.925-14.059C36.499,39.568,48.549,37.742,49.523,26.178z"/>
	<path fill="#3A312A" d="M49.423,55.126c-0.713,0-1.335-0.506-1.473-1.218c-0.023-0.124-2.494-12.417-11.521-12.842
		c-0.771-0.036-1.388-0.65-1.428-1.421c-0.04-0.77,0.511-1.444,1.273-1.561c0.441-0.068,10.895-1.817,11.754-12.032
		c0.062-0.726,0.635-1.301,1.359-1.367c0.734-0.06,1.394,0.399,1.584,1.102c0.031,0.116,3.259,11.626,11.863,12.141
		c0.714,0.042,1.297,0.583,1.396,1.292c0.098,0.708-0.318,1.388-0.994,1.622c-0.121,0.042-12.119,4.311-12.313,12.819
		c-0.018,0.767-0.61,1.396-1.375,1.46C49.507,55.124,49.465,55.126,49.423,55.126z M41.683,39.396
		c3.878,1.97,6.23,5.746,7.586,8.876c2.026-4.021,5.941-6.786,8.949-8.426c-4.135-1.843-6.783-5.651-8.334-8.723
		C48.091,35.484,44.613,37.992,41.683,39.396z"/>
	<path fill="#D6DF58" d="M27.824,43.159c0,0,2.411,8.954,9.352,9.369c0,0-9.266,3.201-9.422,10.045c0,0-1.824-9.6-9.142-9.944
		C18.612,52.63,27.136,51.338,27.824,43.159z"/>
	<path fill="#3A312A" d="M27.753,64.074c-0.714,0-1.337-0.508-1.473-1.22c-0.016-0.082-1.703-8.442-7.738-8.727
		c-0.771-0.036-1.388-0.65-1.428-1.421c-0.04-0.77,0.511-1.444,1.273-1.561c0.296-0.047,7.363-1.243,7.941-8.113
		c0.062-0.726,0.636-1.303,1.361-1.368c0.724-0.063,1.392,0.399,1.581,1.102l0,0c0.022,0.079,2.229,7.92,7.995,8.265
		c0.714,0.042,1.299,0.584,1.396,1.293c0.097,0.709-0.32,1.389-0.996,1.622c-0.081,0.028-8.283,2.953-8.413,8.662
		c-0.018,0.768-0.611,1.397-1.377,1.461C27.836,64.072,27.794,64.074,27.753,64.074z M23.234,52.546
		c2.107,1.333,3.523,3.395,4.447,5.28c1.376-2.232,3.515-3.872,5.364-4.973c-2.286-1.27-3.884-3.35-4.941-5.224
		C26.932,49.917,25.09,51.505,23.234,52.546z"/>
	<path fill="#D6DF58" d="M27.824,16.501c0,0,2.411,8.954,9.352,9.37c0,0-9.266,3.201-9.422,10.045c0,0-1.824-9.6-9.142-9.944
		C18.612,25.972,27.136,24.681,27.824,16.501z"/>
	<path fill="#3A312A" d="M27.753,37.416c-0.714,0-1.337-0.508-1.473-1.22c-0.016-0.082-1.703-8.442-7.738-8.727
		c-0.771-0.036-1.388-0.65-1.428-1.421c-0.04-0.769,0.511-1.444,1.273-1.56c0.296-0.047,7.363-1.242,7.941-8.112
		c0.062-0.726,0.636-1.303,1.361-1.368c0.724-0.062,1.392,0.399,1.581,1.102l0,0c0.022,0.079,2.229,7.919,7.995,8.265
		c0.714,0.043,1.299,0.584,1.396,1.293c0.097,0.709-0.32,1.389-0.996,1.622c-0.081,0.028-8.283,2.953-8.413,8.661
		c-0.018,0.768-0.611,1.397-1.377,1.461C27.836,37.414,27.794,37.416,27.753,37.416z M23.234,25.889
		c2.107,1.332,3.523,3.394,4.447,5.279c1.376-2.231,3.516-3.871,5.365-4.972c-2.288-1.27-3.885-3.35-4.942-5.224
		C26.932,23.259,25.09,24.848,23.234,25.889z"/>
	<path fill="#87796F" d="M157.414,239.499h31.851c10.728,0,19.426-8.697,19.426-19.426H34.377c0,10.728,8.697,19.426,19.426,19.426
		h89.349H157.414z"/>
	<path fill="#3A312A" d="M189.265,240.998h-31.851c-0.828,0-1.5-0.672-1.5-1.5c0-0.828,0.672-1.5,1.5-1.5h31.851
		c9.379,0,17.1-7.24,17.863-16.425H35.94c0.764,9.185,8.483,16.425,17.862,16.425h89.35c0.828,0,1.5,0.672,1.5,1.5
		c0,0.828-0.672,1.5-1.5,1.5h-89.35c-11.538,0-20.925-9.387-20.925-20.925c0-0.828,0.672-1.5,1.5-1.5H208.69
		c0.828,0,1.5,0.672,1.5,1.5C210.19,231.611,200.803,240.998,189.265,240.998z"/>
	<path fill="#3A312A" d="M92.256,78.62c-0.384,0-0.768-0.146-1.061-0.439l-0.245-0.245c-2.935-2.935-4.542-6.836-4.526-10.985
		c0.015-4.149,1.651-8.039,4.608-10.951c2.37-2.336,3.688-5.454,3.713-8.781c0.024-3.326-1.248-6.464-3.584-8.834l-0.434-0.439
		c-5.938-6.026-5.903-15.796,0.078-21.777l0.071-0.071c0.586-0.586,1.535-0.586,2.121,0c0.586,0.586,0.586,1.535,0,2.121
		l-0.071,0.071c-4.819,4.821-4.849,12.693-0.063,17.55l0.434,0.439c2.899,2.941,4.479,6.835,4.448,10.963
		c-0.03,4.128-1.667,7.998-4.607,10.896c-2.382,2.348-3.701,5.481-3.713,8.826c-0.013,3.344,1.283,6.487,3.647,8.853l0.245,0.245
		c0.586,0.586,0.586,1.535,0,2.121C93.023,78.474,92.64,78.62,92.256,78.62z"/>
	<path fill="#3A312A" d="M112.384,78.62c-0.384,0-0.768-0.146-1.061-0.439l-0.245-0.245c-2.935-2.935-4.542-6.836-4.526-10.985
		c0.015-4.149,1.651-8.039,4.607-10.951c2.37-2.336,3.688-5.454,3.713-8.781c0.024-3.326-1.248-6.464-3.583-8.834l-0.434-0.438
		c-5.939-6.027-5.903-15.797,0.078-21.778l0.063-0.064c0.582-0.589,1.53-0.597,2.122-0.015c0.59,0.582,0.596,1.532,0.015,2.122
		l-0.07,0.071c-4.828,4.827-4.857,12.7-0.072,17.557l0.434,0.439c5.983,6.072,5.911,15.877-0.159,21.859
		c-2.382,2.348-3.701,5.481-3.713,8.826c-0.013,3.344,1.283,6.487,3.647,8.853l0.245,0.245c0.586,0.586,0.586,1.535,0,2.121
		C113.151,78.474,112.768,78.62,112.384,78.62z"/>
	<path fill="#3A312A" d="M131.173,78.62c-0.384,0-0.768-0.146-1.061-0.439l-0.245-0.245c-2.935-2.935-4.543-6.836-4.527-10.986
		c0.016-4.149,1.652-8.038,4.608-10.95c2.37-2.335,3.689-5.454,3.713-8.78c0.024-3.327-1.249-6.465-3.584-8.835l-0.434-0.439
		c-5.939-6.026-5.904-15.796,0.078-21.777l0.063-0.064c0.582-0.589,1.53-0.597,2.122-0.015c0.59,0.582,0.596,1.532,0.015,2.122
		l-0.07,0.071c-4.828,4.828-4.857,12.7-0.071,17.557l0.434,0.439c5.983,6.071,5.911,15.877-0.159,21.858
		c-2.382,2.347-3.701,5.481-3.714,8.825c-0.013,3.344,1.283,6.488,3.648,8.854l0.245,0.245c0.586,0.586,0.586,1.535,0,2.121
		C131.94,78.474,131.557,78.62,131.173,78.62z"/>
	<path fill="#3A312A" d="M151.301,78.62c-0.384,0-0.768-0.146-1.061-0.439l-0.245-0.245c-2.935-2.935-4.542-6.835-4.526-10.985
		c0.015-4.149,1.65-8.038,4.606-10.951c2.37-2.335,3.689-5.454,3.714-8.781c0.024-3.326-1.249-6.464-3.584-8.834l-0.434-0.439
		c-5.939-6.026-5.904-15.796,0.078-21.777l0.063-0.064c0.583-0.589,1.53-0.597,2.122-0.015c0.59,0.582,0.596,1.532,0.015,2.122
		l-0.07,0.071c-4.828,4.828-4.857,12.7-0.071,17.557l0.434,0.439c5.983,6.071,5.911,15.877-0.159,21.858
		c-2.382,2.348-3.701,5.481-3.713,8.826c-0.013,3.344,1.283,6.487,3.647,8.853l0.245,0.245c0.586,0.586,0.586,1.535,0,2.121
		C152.068,78.474,151.685,78.62,151.301,78.62z"/>
	<path fill="#68A7BB" d="M201.858,95.85c-1.57,57.79-30.23,102.08-54.49,122.65h-15.94c24.26-20.57,52.92-64.86,54.49-122.65
		c0.06-1.98-0.68-3.85-2.06-5.27c-1.4-1.44-3.27-2.23-5.27-2.23h15.94c2,0,3.87,0.79,5.27,2.23
		C201.178,92,201.918,93.87,201.858,95.85z"/>
	<path fill="#695B51" d="M207.128,221.57c-0.76,9.19-8.48,16.43-17.86,16.43h-15.7c9.38,0,17.1-7.24,17.86-16.43H207.128z"/>
	
		<ellipse transform="matrix(0.1602 -0.9871 0.9871 0.1602 -56.9779 240.7587)" fill="#FAE6CA" cx="113" cy="153.864" rx="43.787" ry="43.787"/>
	<path fill="#3A312A" d="M113,199.15c-24.971,0-45.286-20.315-45.286-45.286c0-24.972,20.315-45.287,45.286-45.287
		s45.286,20.315,45.286,45.287C158.286,178.835,137.971,199.15,113,199.15z M113,111.577c-23.316,0-42.286,18.97-42.286,42.287
		c0,23.316,18.97,42.286,42.286,42.286s42.286-18.97,42.286-42.286C155.286,130.547,136.316,111.577,113,111.577z"/>
	<ellipse fill="#87796F" cx="113" cy="153.976" rx="17.488" ry="27.747"/>
	<path fill="#3A312A" d="M113,183.224c-10.47,0-18.987-13.12-18.987-29.247c0-16.127,8.518-29.248,18.987-29.248
		s18.988,13.121,18.988,29.248C131.988,170.104,123.47,183.224,113,183.224z M113,127.729c-8.815,0-15.987,11.774-15.987,26.248
		c0,14.473,7.172,26.247,15.987,26.247c8.816,0,15.988-11.774,15.988-26.247C128.988,139.503,121.816,127.729,113,127.729z"/>
	<path fill="#3A312A" d="M113.251,183.224c-0.43,0-0.855-0.184-1.152-0.538c-0.531-0.636-0.446-1.582,0.189-2.113
		c4.011-3.351,6.238-7.805,6.272-12.54c0.034-4.718-2.115-9.182-6.052-12.569l-0.712-0.611c-4.596-3.955-7.116-9.211-7.096-14.8
		c0.021-5.598,2.585-10.847,7.222-14.778l0.115-0.098c0.633-0.534,1.578-0.458,2.114,0.175c0.535,0.632,0.457,1.578-0.175,2.114
		l-0.115,0.098c-3.956,3.355-6.145,7.794-6.161,12.5c-0.017,4.697,2.133,9.142,6.053,12.515l0.712,0.611
		c4.615,3.973,7.135,9.252,7.095,14.865c-0.041,5.632-2.65,10.896-7.349,14.821C113.932,183.109,113.59,183.224,113.251,183.224z"/>
</g>
</svg>
