<?xml version="1.0" encoding="utf-8"?>
<!-- Generator: Adobe Illustrator 22.0.0, SVG Export Plug-In . SVG Version: 6.00 Build 0)  -->
<svg version="1.1" id="Layer_1" xmlns="http://www.w3.org/2000/svg" xmlns:xlink="http://www.w3.org/1999/xlink" x="0px" y="0px"
	 viewBox="0 0 500 500" style="enable-background:new 0 0 500 500;" xml:space="preserve">
<style type="text/css">
	.st0{fill:#7A7979;}
	.st1{fill:#C9C9C9;}
	.st2{fill:#71CCFF;}
	.st3{fill:#FFFFFF;}
	.st4{fill:#F9B630;}
	.st5{fill:#08B26C;}
	.st6{fill:#FFEDCC;}
	.st7{fill:#C0E7F9;}
	.st8{fill:#F9F9F9;}
	.st9{fill:#231F20;}
	.st10{fill:#FC3A6D;}
	.st11{fill:#35EF9F;}
	.st12{fill:none;stroke:#C0E7F9;stroke-width:10;stroke-linecap:round;stroke-linejoin:round;stroke-miterlimit:10;}
	.st13{fill:#FFA9C8;}
	.st14{fill:none;}
	.st15{fill:none;stroke:#231F20;stroke-width:10;stroke-linecap:round;stroke-linejoin:round;stroke-miterlimit:10;}
	.st16{fill:none;stroke:#FFEDCC;stroke-width:10;stroke-linecap:round;stroke-linejoin:round;stroke-miterlimit:10;}
</style>
<g>
	<g>
		<rect x="5" y="421.826" class="st0" width="490" height="73.174"/>
	</g>
</g>
<g>
	<g>
		<path class="st1" d="M403.877,426.939c-0.053-1.124-0.243-2.266-0.581-3.407l-15.752-53.112H257.601l-16.62-56.04
			c-14.77-49.801-60.531-83.96-112.477-83.96H5v211.406v29.507h355.21c10.746,0,19.457-8.711,19.457-19.457v-10.05h9.973
			c1.19,0,2.339-0.143,3.432-0.412c1.093-0.268,2.131-0.662,3.1-1.163C401.017,437.747,404.144,432.561,403.877,426.939z"/>
	</g>
</g>
<g>
	<g>
		<path class="st2" d="M370.923,314.38c-1.385-4.669-3.042-9.2-4.951-13.579c-7-16.055-17.387-30.057-30.153-41.253
			c-2.321-2.036-4.721-3.979-7.193-5.824c-2.472-1.845-5.018-3.594-7.629-5.24c-11.752-7.41-24.852-12.758-38.748-15.633
			c-3.088-0.639-6.215-1.156-9.376-1.546c-4.741-0.585-9.556-0.886-14.426-0.886H128.504c51.945,0,97.706,34.159,112.477,83.96
			l16.62,56.04h129.942L370.923,314.38z"/>
	</g>
</g>
<g>
	<path class="st3" d="M5,230.42h249.312v0c0-13.887-11.258-25.145-25.145-25.145H5"/>
</g>
<g>
	<g>
		<path class="st4" d="M300.346,5c-22.191,0-40.994,14.433-47.528,34.402c5.766,4.295,9.5,11.157,9.5,18.89
			c0,2.309-0.339,4.538-0.959,6.647c6.024-3.364,12.963-5.289,20.356-5.289c22.338,0,40.579,17.504,41.705,39.519
			c0.054-0.028,0.109-0.055,0.164-0.083c1.055-11.33,10.017-20.368,21.327-21.563c3.468-6.792,5.436-14.475,5.436-22.62
			C350.347,27.342,327.961,5,300.346,5z"/>
	</g>
</g>
<g>
	<g>
		<path class="st2" d="M238.715,34.735h-0.52c0-9.434-7.663-17.082-17.116-17.082s-17.116,7.648-17.116,17.082
			C203.963,18.313,190.623,5,174.168,5c-16.455,0-29.794,13.313-29.794,29.735h-1.097c-13.036,0-23.603,10.547-23.603,23.557
			s10.568,23.556,23.603,23.556h95.438c2.291,0,4.504-0.332,6.598-0.94c3.773-6.684,9.336-12.223,16.045-15.969
			c0.621-2.109,0.959-4.338,0.959-6.647C262.318,45.282,251.751,34.735,238.715,34.735z"/>
	</g>
</g>
<g>
	<g>
		<g>
			<path class="st5" d="M440.015,416.235c0.403-1.253,0.624-2.588,0.624-3.976c0-7.153-5.793-12.952-12.939-12.952
				c-7.146,0-12.939,5.799-12.939,12.952c0,1.387,0.22,2.723,0.624,3.976c-5.789,1.289-10.118,6.457-10.118,12.639
				c0,7.153,5.793,12.952,12.939,12.952c3.753,0,7.131-1.601,9.494-4.156c2.364,2.555,5.741,4.156,9.494,4.156
				c7.146,0,12.939-5.799,12.939-12.952C450.133,422.692,445.804,417.524,440.015,416.235z"/>
		</g>
	</g>
	<g>
		<g>
			<path class="st5" d="M484.882,416.235c0.403-1.253,0.624-2.588,0.624-3.976c0-7.153-5.793-12.952-12.939-12.952
				s-12.939,5.799-12.939,12.952c0,1.387,0.22,2.723,0.624,3.976c-5.789,1.289-10.118,6.457-10.118,12.639
				c0,7.153,5.793,12.952,12.939,12.952c3.753,0,7.131-1.601,9.494-4.156c2.364,2.555,5.741,4.156,9.494,4.156
				c7.146,0,12.939-5.799,12.939-12.952C495,422.692,490.671,417.524,484.882,416.235z"/>
		</g>
	</g>
</g>
<g>
	<g>
		<path class="st6" d="M300.347,19.961c-1.376,0-2.764,0.081-4.125,0.241c-2.742,0.323-4.704,2.808-4.381,5.551
			c0.3,2.544,2.459,4.416,4.96,4.416c0.194,0,0.392-0.011,0.591-0.035c0.975-0.115,1.969-0.173,2.955-0.173c2.762,0,5-2.239,5-5
			C305.347,22.199,303.108,19.961,300.347,19.961z"/>
	</g>
</g>
<g>
	<g>
		<path class="st6" d="M284.617,28.933c-1.799-2.097-4.954-2.338-7.051-0.541c-7.766,6.659-12.22,16.321-12.22,26.509
			c0,2.762,2.238,5,5,5s5-2.238,5-5c0-7.266,3.182-14.161,8.729-18.918C286.172,34.186,286.414,31.029,284.617,28.933z"/>
	</g>
</g>
<g>
	<g>
		<path class="st7" d="M185.24,22.601c-3.417-3.111-8.023-4.646-12.643-4.213c-8.34,0.783-14.873,8.111-14.873,16.681v10.144
			c0,1.564-1.28,2.837-2.853,2.837h-11.595c-2.761,0-5,2.238-5,5s2.239,5,5,5h11.595c7.087,0,12.853-5.759,12.853-12.837V35.069
			c0-3.465,2.551-6.419,5.809-6.725c1.853-0.173,3.614,0.413,4.975,1.651c1.357,1.236,2.104,2.919,2.104,4.74c0,2.762,2.239,5,5,5
			s5-2.238,5-5C190.612,30.133,188.654,25.71,185.24,22.601z"/>
	</g>
</g>
<g>
	<g>
		<path class="st2" d="M372.184,101.328h-0.729c0-13.223-10.741-23.943-23.99-23.943c-13.249,0-23.99,10.72-23.99,23.943
			c0-23.018-18.697-41.678-41.76-41.678c-23.064,0-41.76,18.66-41.76,41.678h-1.537c-18.271,0-33.082,14.782-33.082,33.017
			c0,18.235,14.811,33.017,33.082,33.017h133.767c18.271,0,33.082-14.782,33.082-33.017
			C405.267,116.11,390.455,101.328,372.184,101.328z"/>
	</g>
</g>
<g>
	<g>
		<path class="st7" d="M300.281,82.102c-5.292-5.096-12.271-7.749-19.596-7.472c-14.429,0.545-25.731,12.507-25.731,27.232v10.118
			c0,2.375-1.94,4.308-4.326,4.308h-12.211c-2.761,0-5,2.238-5,5c0,2.761,2.239,5,5,5h12.211c7.899,0,14.326-6.419,14.326-14.308
			v-10.118c0-9.17,7.227-16.903,16.108-17.239c4.623-0.172,8.967,1.489,12.283,4.682c3.308,3.185,5.129,7.455,5.129,12.022
			c0,2.762,2.238,5,5,5s5-2.238,5-5C308.475,94.017,305.565,87.189,300.281,82.102z"/>
	</g>
</g>
<g>
	<g>
		<path class="st8" d="M218.667,416.826H25c-2.761,0-5,2.239-5,5s2.239,5,5,5h193.667c2.761,0,5-2.239,5-5
			S221.428,416.826,218.667,416.826z"/>
	</g>
</g>
<g>
	<g>
		<path class="st8" d="M250,416.826h-10.333c-2.761,0-5,2.239-5,5s2.239,5,5,5H250c2.762,0,5-2.239,5-5S252.762,416.826,250,416.826
			z"/>
	</g>
</g>
<g>
	<g>
		<path class="st8" d="M148.427,245.42h-8.094c-2.761,0-5,2.238-5,5s2.239,5,5,5h8.094c2.761,0,5-2.238,5-5
			S151.188,245.42,148.427,245.42z"/>
	</g>
</g>
<g>
	<g>
		<path class="st8" d="M120.333,245.42H25c-2.761,0-5,2.238-5,5s2.239,5,5,5h95.333c2.761,0,5-2.238,5-5
			S123.095,245.42,120.333,245.42z"/>
	</g>
</g>
<g>
	<g>
		<path class="st7" d="M363.531,342.212l-6.989-23.566c-6.32-21.311-19.077-39.604-36.89-52.901
			c-17.813-13.297-38.978-20.325-61.206-20.325h-9.113c-2.761,0-5,2.239-5,5c0,2.762,2.239,5,5,5h9.113
			c20.056,0,39.151,6.342,55.224,18.339s27.582,28.502,33.284,47.73l6.989,23.566c0.645,2.173,2.635,3.58,4.792,3.58
			c0.471,0,0.949-0.067,1.424-0.208C362.807,347.642,364.316,344.859,363.531,342.212z"/>
	</g>
</g>
<g>
	<g>
		<path class="st7" d="M231,245.42h-5.869c-2.761,0-5,2.239-5,5c0,2.762,2.239,5,5,5H231c2.761,0,5-2.238,5-5
			C236,247.659,233.761,245.42,231,245.42z"/>
	</g>
</g>
<g>
	<g>
		<path class="st2" d="M202.632,325.754c-9.663-32.58-40.145-55.334-74.128-55.334H5v98.5h210.434L202.632,325.754z"/>
	</g>
</g>
<g>
	<g>
		<path class="st7" d="M193.435,347.499l-1.568-5.287c-0.786-2.647-3.567-4.157-6.215-3.372c-2.647,0.785-4.157,3.568-3.372,6.215
			l1.568,5.287c0.645,2.173,2.635,3.58,4.792,3.58c0.471,0,0.949-0.067,1.424-0.208C192.711,352.929,194.22,350.146,193.435,347.499
			z"/>
	</g>
</g>
<g>
	<g>
		<path class="st7" d="M186.587,325.164c-9.274-23.772-32.616-39.744-58.083-39.744H25c-2.761,0-5,2.239-5,5c0,2.762,2.239,5,5,5
			h103.504c21.38,0,40.979,13.414,48.767,33.378c0.771,1.976,2.659,3.185,4.66,3.185c0.604,0,1.219-0.11,1.816-0.344
			C186.319,330.635,187.591,327.736,186.587,325.164z"/>
	</g>
</g>
<g>
	<g>
		<path class="st3" d="M352.63,414.174c-1.071-3.61-4.388-6.087-8.154-6.087h-17.379c-3.479,0-5.978,3.348-4.989,6.684l8.024,27.056
			h30.699L352.63,414.174z"/>
	</g>
</g>
<g>
	<g>
		<path class="st4" d="M298.849,388.493l-5.36-18.073h-35.888l10.38,35h18.232C295.025,405.42,301.354,396.941,298.849,388.493z"/>
	</g>
</g>
<g>
	<g>
		<path class="st4" d="M387.553,370.42h-29.887l6.309,21.271c2.415,8.144,9.898,13.729,18.392,13.729h15.567L387.553,370.42z"/>
	</g>
</g>
<g>
	<g>
		<path class="st9" d="M94.733,86.848h1.745c2.761,0,5-2.239,5-5s-2.239-5-5-5h-1.745c-2.761,0-5,2.239-5,5
			S91.972,86.848,94.733,86.848z M5,363.92c-2.761,0-5,2.239-5,5c0,2.762,2.239,5,5,5h210.435c1.578,0,3.063-0.744,4.007-2.009
			s1.235-2.9,0.787-4.413l-12.803-43.167c-10.288-34.687-42.742-58.912-78.921-58.912H5c-2.761,0-5,2.239-5,5c0,2.762,2.239,5,5,5
			h30v88.5H5z M123,275.42h5.504c31.785,0,60.296,21.283,69.334,51.756l10.898,36.744H123V275.42z M45,275.42h68v88.5H45V275.42z
			 M490.489,413.039c0.011-0.259,0.017-0.519,0.017-0.779c0-9.898-8.048-17.952-17.939-17.952s-17.938,8.054-17.938,17.952
			c0,0.26,0.006,0.52,0.017,0.779c-1.688,0.908-3.205,2.084-4.511,3.456c-1.306-1.372-2.823-2.548-4.512-3.457
			c0.011-0.259,0.017-0.518,0.017-0.778c0-9.898-8.047-17.952-17.938-17.952s-17.939,8.054-17.939,17.952
			c0,0.26,0.006,0.52,0.017,0.779c-1.315,0.708-2.524,1.581-3.614,2.578l-3.401-11.469c-0.013-0.05-0.02-0.1-0.035-0.15l-10.381-35
			c-0.01-0.035-0.028-0.065-0.039-0.1l-16.591-55.939c-2.361-7.961-5.474-15.57-9.288-22.755
			c-8.39-15.806-20.173-29.557-34.813-40.486c-21.176-15.807-46.315-24.195-72.725-24.289
			c-2.386-14.254-14.803-25.154-29.724-25.154H5c-2.761,0-5,2.239-5,5s2.239,5,5,5h224.167c9.382,0,17.288,6.448,19.517,15.145H5
			c-2.761,0-5,2.239-5,5c0,2.762,2.239,5,5,5h123.504c49.366,0,93.646,33.055,107.683,80.382l19.603,66.097l7.397,24.943
			c0,0.001,0.001,0.003,0.002,0.004l8.892,29.98H5c-2.761,0-5,2.239-5,5s2.239,5,5,5h369.667v5.05
			c0,7.971-6.485,14.457-14.457,14.457H5c-2.761,0-5,2.239-5,5s2.239,5,5,5h355.21c13.485,0,24.457-10.971,24.457-24.457v-5.05
			h4.973c5.692,0,10.941-2.432,14.6-6.711c3.291,4.086,8.325,6.711,13.966,6.711c3.376,0,6.668-0.965,9.494-2.727
			c2.826,1.762,6.118,2.727,9.494,2.727c5.085,0,9.672-2.138,12.939-5.55c3.267,3.413,7.854,5.55,12.939,5.55
			c3.376,0,6.668-0.965,9.494-2.727c2.826,1.762,6.118,2.727,9.494,2.727c9.892,0,17.939-8.053,17.939-17.952
			C500,422.178,496.196,416.108,490.489,413.039z M391.225,400.42h-8.859c-6.233,0-11.826-4.174-13.599-10.151l-4.404-14.849h19.447
			L391.225,400.42z M261.333,365.42l-15.56-52.461c-7.556-25.477-22.805-47.345-44.1-63.241
			c-7.726-5.767-15.978-10.547-24.627-14.298h81.4c49.365,0,93.646,33.055,107.683,80.382l14.716,49.618H261.333z M271.714,400.42
			l-7.415-25h25.456l4.299,14.495c0.741,2.499,0.272,5.13-1.286,7.218c-1.56,2.089-3.948,3.287-6.555,3.287H271.714z
			 M333.864,436.826l-6.963-23.478c-0.013-0.041-0.029-0.098,0.032-0.18c0.062-0.082,0.12-0.082,0.163-0.082h17.379
			c1.541,0,2.923,1.031,3.36,2.509l6.297,21.231H333.864z M397.048,433.112c-1.763,2.361-4.463,3.715-7.408,3.715h-25.076
			l-7.14-24.074c-1.688-5.691-7.012-9.666-12.948-9.666h-17.379c-3.251,0-6.231,1.494-8.177,4.1s-2.53,5.888-1.606,9.005
			l6.12,20.634h-40.922l-7.832-26.406h11.534c5.793,0,11.103-2.663,14.568-7.305c3.465-4.643,4.508-10.49,2.86-16.044v0
			l-3.456-11.652h53.746l5.247,17.693c3.023,10.19,12.559,17.307,23.187,17.307h11.825l4.311,14.534
			c0.209,0.706,0.333,1.421,0.374,2.134C398.998,429.226,398.369,431.341,397.048,433.112z M437.194,436.826
			c-2.233,0-4.302-0.906-5.824-2.551c-0.946-1.023-2.276-1.605-3.67-1.605s-2.724,0.582-3.67,1.605
			c-1.522,1.645-3.591,2.551-5.824,2.551c-4.378,0-7.939-3.567-7.939-7.952c0-3.695,2.609-6.958,6.205-7.759
			c1.372-0.305,2.553-1.175,3.252-2.395s0.852-2.678,0.421-4.017c-0.255-0.791-0.384-1.613-0.384-2.444
			c0-4.385,3.562-7.952,7.939-7.952c4.377,0,7.938,3.567,7.938,7.952c0,0.833-0.129,1.655-0.383,2.444
			c-0.431,1.338-0.278,2.797,0.421,4.017s1.879,2.09,3.252,2.396c3.596,0.801,6.205,4.064,6.205,7.759
			C445.134,433.259,441.572,436.826,437.194,436.826z M482.061,436.826c-2.233,0-4.302-0.906-5.824-2.551
			c-0.946-1.023-2.276-1.605-3.67-1.605s-2.724,0.582-3.67,1.605c-1.522,1.645-3.591,2.551-5.824,2.551
			c-4.377,0-7.938-3.567-7.938-7.952c0-3.695,2.609-6.958,6.204-7.759c1.372-0.306,2.553-1.175,3.252-2.395s0.852-2.678,0.421-4.017
			c-0.254-0.789-0.383-1.611-0.383-2.444c0-4.385,3.562-7.952,7.938-7.952c4.378,0,7.939,3.567,7.939,7.952
			c0,0.831-0.129,1.653-0.384,2.444c-0.431,1.339-0.278,2.797,0.421,4.017c0.699,1.22,1.88,2.09,3.252,2.395
			c3.596,0.801,6.205,4.064,6.205,7.759C490,433.259,486.438,436.826,482.061,436.826z M147.205,162.361c-2.761,0-5,2.238-5,5
			c0,2.761,2.239,5,5,5h2.446c2.761,0,5-2.239,5-5c0-2.762-2.239-5-5-5H147.205z M113.012,86.848H237.27
			c-1.009,3.079-1.717,6.292-2.063,9.613c-19.501,1.633-34.872,18-34.872,37.883c0,11.078,4.773,21.062,12.372,28.017h-39.883
			c-2.761,0-5,2.238-5,5c0,2.761,2.239,5,5,5h199.361c20.998,0,38.082-17.055,38.082-38.017c0-19.659-15.023-35.88-34.211-37.822
			c-2.033-12.1-11.615-21.671-23.726-23.724c1.991-5.729,3.017-11.718,3.017-17.897c0-30.272-24.673-54.901-55-54.901
			c-21.81,0-41.23,12.709-50.066,32.178c-2.38-1.055-4.929-1.798-7.595-2.169c-2.173-9.913-11.036-17.356-21.606-17.356
			c-6.165,0-11.749,2.532-15.763,6.608C199.605,7.853,187.788,0,174.168,0c-17.563,0-32.128,13.056-34.466,29.957
			c-14.09,1.763-25.028,13.798-25.028,28.335c0,7.08,2.6,13.561,6.889,18.556h-8.551c-2.761,0-5,2.239-5,5
			S110.25,86.848,113.012,86.848z M300.347,10c24.813,0,45,20.143,45,44.901c0,6.312-1.282,12.386-3.815,18.095
			c-0.069,0.014-0.135,0.037-0.203,0.052c-0.751,0.162-1.493,0.347-2.221,0.566c-0.062,0.019-0.122,0.041-0.184,0.06
			c-0.678,0.209-1.344,0.446-2,0.703c-0.133,0.052-0.266,0.102-0.398,0.156c-0.69,0.282-1.367,0.587-2.029,0.919
			c-0.1,0.05-0.198,0.105-0.297,0.156c-0.604,0.312-1.195,0.644-1.773,0.996c-0.096,0.058-0.193,0.113-0.289,0.173
			c-0.629,0.393-1.241,0.811-1.837,1.25c-0.103,0.076-0.203,0.154-0.305,0.231c-0.565,0.428-1.116,0.872-1.648,1.339
			c-0.039,0.034-0.08,0.066-0.119,0.101c-0.562,0.499-1.101,1.023-1.623,1.564c-0.09,0.093-0.178,0.187-0.266,0.281
			c-0.516,0.549-1.018,1.111-1.491,1.699c-7.088-16.866-23.782-28.593-43.133-28.593c-0.685,0-1.369,0.019-2.052,0.049
			c-0.262,0.011-0.521,0.031-0.782,0.046c-0.404,0.024-0.807,0.051-1.21,0.086c-0.338,0.029-0.674,0.063-1.009,0.1
			c-0.306,0.033-0.611,0.069-0.916,0.109c-0.39,0.05-0.779,0.102-1.166,0.161c-0.215,0.033-0.43,0.072-0.645,0.108
			c-1.632,0.274-3.236,0.628-4.807,1.067c-0.035,0.009-0.07,0.018-0.105,0.028c-0.444,0.125-0.882,0.261-1.321,0.399
			c-0.139,0.043-0.279,0.082-0.417,0.126c-0.261-5.526-2.108-10.643-5.089-14.915c-0.031-0.044-0.062-0.089-0.093-0.133
			c-0.194-0.275-0.393-0.547-0.597-0.816c-0.095-0.126-0.192-0.251-0.289-0.376c-0.137-0.175-0.277-0.348-0.419-0.519
			c-0.163-0.199-0.329-0.396-0.497-0.592c-0.073-0.083-0.147-0.166-0.221-0.249c-0.443-0.5-0.898-0.989-1.376-1.458
			C265.582,21.072,281.925,10,300.347,10z M258.917,72.588c0.35-0.277,0.702-0.551,1.062-0.815c0.443-0.324,0.891-0.642,1.349-0.947
			c0.269-0.18,0.544-0.351,0.818-0.523c0.378-0.238,0.76-0.469,1.147-0.693c0.255-0.148,0.508-0.298,0.767-0.44
			c0.574-0.314,1.153-0.618,1.742-0.9c0.14-0.067,0.284-0.126,0.425-0.192c0.518-0.24,1.04-0.471,1.569-0.687
			c0.181-0.074,0.364-0.144,0.546-0.215c0.535-0.208,1.074-0.406,1.618-0.589c0.133-0.045,0.265-0.091,0.398-0.135
			c1.412-0.458,2.85-0.832,4.307-1.116c0.079-0.015,0.158-0.027,0.237-0.042c0.625-0.118,1.254-0.217,1.885-0.303
			c0.174-0.023,0.348-0.045,0.522-0.066c0.557-0.067,1.115-0.119,1.675-0.161c0.187-0.014,0.373-0.032,0.561-0.043
			c0.71-0.042,1.422-0.067,2.135-0.068c0.012,0,0.024,0,0.036,0c0.626,0,1.249,0.016,1.868,0.047
			c0.12,0.006,0.237,0.019,0.357,0.026c0.501,0.03,1,0.064,1.495,0.114c0.112,0.011,0.222,0.028,0.334,0.041
			c0.505,0.056,1.009,0.116,1.507,0.192c0.072,0.011,0.143,0.026,0.215,0.037c0.539,0.085,1.076,0.178,1.608,0.287
			c0.028,0.006,0.056,0.013,0.084,0.019c16.7,3.453,29.291,18.244,29.291,35.915c0,2.761,2.238,5,5,5s5-2.239,5-5
			c0-0.614,0.035-1.219,0.092-1.818c0.025-0.264,0.072-0.521,0.108-0.781c0.046-0.335,0.09-0.671,0.154-1
			c0.051-0.263,0.117-0.52,0.179-0.779c0.076-0.319,0.153-0.637,0.245-0.949c0.074-0.253,0.158-0.501,0.243-0.75
			c0.106-0.31,0.217-0.617,0.338-0.919c0.095-0.237,0.194-0.472,0.298-0.705c0.137-0.306,0.284-0.607,0.437-0.904
			c0.11-0.215,0.22-0.43,0.338-0.641c0.177-0.314,0.369-0.62,0.563-0.923c0.115-0.179,0.224-0.361,0.344-0.536
			c0.254-0.369,0.526-0.724,0.805-1.074c0.078-0.097,0.148-0.2,0.227-0.295c0.369-0.444,0.759-0.872,1.166-1.28
			c0.083-0.083,0.174-0.158,0.258-0.24c0.329-0.318,0.666-0.628,1.017-0.922c0.143-0.12,0.293-0.23,0.44-0.345
			c0.307-0.242,0.618-0.479,0.94-0.702c0.171-0.118,0.347-0.229,0.521-0.342c0.313-0.202,0.631-0.396,0.956-0.58
			c0.188-0.106,0.379-0.209,0.571-0.309c0.328-0.171,0.663-0.33,1.001-0.482c0.198-0.089,0.396-0.179,0.597-0.261
			c0.353-0.144,0.714-0.271,1.077-0.394c0.197-0.066,0.391-0.139,0.591-0.199c0.406-0.122,0.82-0.223,1.236-0.318
			c0.166-0.038,0.328-0.086,0.495-0.12c1.214-0.244,2.467-0.375,3.752-0.375c10.472,0,18.99,8.498,18.99,18.943c0,2.761,2.238,5,5,5
			h0.729c15.484,0,28.082,12.568,28.082,28.017c0,15.448-12.598,28.017-28.082,28.017H238.417
			c-15.484,0-28.082-12.568-28.082-28.017c0-15.449,12.598-28.017,28.082-28.017h1.537c2.761,0,5-2.239,5-5
			c0-6.699,1.818-12.978,4.974-18.389c0.246-0.423,0.501-0.839,0.764-1.25c0.154-0.242,0.305-0.485,0.465-0.723
			c0.365-0.545,0.744-1.08,1.137-1.603c0.204-0.271,0.418-0.533,0.629-0.798c0.234-0.294,0.471-0.586,0.714-0.874
			c0.244-0.289,0.49-0.575,0.743-0.855c0.241-0.268,0.49-0.527,0.739-0.788c0.433-0.454,0.878-0.896,1.333-1.327
			c0.247-0.233,0.493-0.467,0.747-0.694c0.291-0.26,0.586-0.514,0.885-0.765C258.357,73.033,258.636,72.81,258.917,72.588z
			 M143.277,39.735h1.097c2.761,0,5-2.238,5-5c0-13.639,11.123-24.735,24.794-24.735s24.794,11.096,24.794,24.735
			c0,2.762,2.239,5,5,5s5-2.238,5-5c0-6.662,5.436-12.082,12.116-12.082s12.116,5.42,12.116,12.082c0,2.762,2.239,5,5,5h0.521
			c8.966,0,16.469,6.36,18.218,14.795c0.004,0.018,0.007,0.035,0.011,0.053c0.117,0.573,0.206,1.156,0.268,1.747
			c0.007,0.063,0.01,0.126,0.016,0.19c0.056,0.583,0.09,1.173,0.09,1.771c0,0.518-0.029,1.035-0.072,1.55
			c-0.014,0.16-0.034,0.319-0.052,0.479c-0.041,0.367-0.092,0.733-0.154,1.098c-0.017,0.099-0.035,0.198-0.054,0.297
			c-0.455,0.283-0.894,0.588-1.338,0.886c-0.143,0.096-0.289,0.187-0.43,0.285c-0.464,0.319-0.918,0.652-1.37,0.987
			c-0.154,0.114-0.309,0.229-0.462,0.345c-0.464,0.354-0.922,0.715-1.372,1.085c-0.096,0.079-0.19,0.16-0.286,0.24
			c-2.021,1.688-3.893,3.542-5.602,5.544c-0.106,0.125-0.212,0.249-0.317,0.375c-0.366,0.438-0.726,0.881-1.076,1.333
			c-0.121,0.155-0.237,0.314-0.356,0.471c-0.799,1.06-1.57,2.142-2.279,3.27c-1.117,0.207-2.249,0.311-3.384,0.311h-95.438
			c-10.258,0-18.603-8.324-18.603-18.556C124.674,48.06,133.019,39.735,143.277,39.735z"/>
	</g>
</g>
</svg>
