<svg xmlns="http://www.w3.org/2000/svg" viewBox="0 0 64 64"><g id="_08-message" data-name="08-message"><path d="M51,55v2a6,6,0,0,1-6,6H19a6,6,0,0,1-6-6V55Z" style="fill:#ed8497"/><polygon points="40 1 38 4 26 4 24 1 40 1" style="fill:#ed8497"/><path d="M51,7V55H13V7a6,6,0,0,1,6-6h5l2,3H38l2-3h5A6,6,0,0,1,51,7Z" style="fill:#ede9e1"/><path d="M45,1H40L38,4H26L24,1H19a5.963,5.963,0,0,0-1.993.347C17.166,23.3,32.306,41,51,41V7A6,6,0,0,0,45,1Z" style="fill:#f7f3eb"/><path d="M45,61H19a6,6,0,0,1-6-6v2a6,6,0,0,0,6,6H45a6,6,0,0,0,6-6V55A6,6,0,0,1,45,61Z" style="fill:#db375a"/><path d="M54.5,9A2.358,2.358,0,0,1,57,11.4C57,15,52.83,17,52,17c-.42,0-5-2-5-5.6A2.358,2.358,0,0,1,49.5,9,2.619,2.619,0,0,1,52,11,2.619,2.619,0,0,1,54.5,9Z" style="fill:#ff8aa3"/><path d="M45,26V21a4,4,0,0,1-4-4V9.554A3.982,3.982,0,0,0,39,13v9a4,4,0,0,0,4,4v5l8-5V22.25Z" style="fill:#ded9d0"/><path d="M14.5,48A2.358,2.358,0,0,1,17,50.4C17,54,12.83,56,12,56c-.42,0-5-2-5-5.6A2.358,2.358,0,0,1,9.5,48,2.619,2.619,0,0,1,12,50,2.619,2.619,0,0,1,14.5,48Z" style="fill:#ff8aa3"/><path d="M63,8v9a4,4,0,0,1-4,4H53l-8,5V21a4,4,0,0,1-4-4V8a4,4,0,0,1,4-4H59A4,4,0,0,1,63,8Zm-6,3.4A2.358,2.358,0,0,0,54.5,9,2.619,2.619,0,0,0,52,11a2.619,2.619,0,0,0-2.5-2A2.358,2.358,0,0,0,47,11.4C47,15,51.58,17,52,17,52.83,17,57,15,57,11.4Z" style="fill:#7fdeda"/><path d="M22,44.379V41l-3,1.875V43A3.971,3.971,0,0,1,22,44.379Z" style="fill:#ded9d0"/><path d="M23,55h3V50a3.994,3.994,0,0,0-3.108-3.892A3.974,3.974,0,0,1,23,47Z" style="fill:#ded9d0"/><path d="M37,23a5.764,5.764,0,0,1,6,6c0,8.1-9,12-11,12S21,37.1,21,29a5.764,5.764,0,0,1,6-6c2,0,4,1,5,4C33,24,35,23,37,23Z" style="fill:#ff8aa3"/><path d="M26,59V55H23v1a4,4,0,0,1-4,4H13.811A6,6,0,0,0,19,63h3A4,4,0,0,0,26,59Z" style="fill:#db375a"/><path d="M23,55v1a4,4,0,0,1-4,4H5a4,4,0,0,1-4-4V47a4,4,0,0,1,4-4h6l8-5v5a4,4,0,0,1,4,4Zm-6-4.6A2.358,2.358,0,0,0,14.5,48,2.619,2.619,0,0,0,12,50a2.619,2.619,0,0,0-2.5-2A2.358,2.358,0,0,0,7,50.4C7,54,11.58,56,12,56,12.83,56,17,54,17,50.4Z" style="fill:#7fdeda"/><path d="M37,23a5.764,5.764,0,0,1,6,6c0,8.1-9,12-11,12S21,37.1,21,29a5.764,5.764,0,0,1,6-6c2,0,4,1,5,4C33,24,35,23,37,23Z" style="fill:#ff8aa3"/><path d="M32,38c-1.862,0-9.782-3.385-10.868-10.387A7.092,7.092,0,0,0,21,29c0,8.1,9,12,11,12s11-3.9,11-12a7.092,7.092,0,0,0-.132-1.387C41.782,34.615,33.862,38,32,38Z" style="fill:#f57188"/><path d="M25,25A10,10,0,0,0,35,35a7.964,7.964,0,0,0,5.487-2.189,10.866,10.866,0,0,0,2.381-5.2A5.748,5.748,0,0,0,37,23c-2,0-4,1-5,4-1-3-3-4-5-4A2,2,0,0,0,25,25Z" style="fill:#ffacbc"/><ellipse cx="38" cy="27" rx="2.475" ry="3.445" transform="translate(-7.959 34.794) rotate(-45.02)" style="fill:#f6fafd"/><ellipse cx="37.795" cy="31.679" rx="0.825" ry="1.148" transform="translate(-11.329 36.021) rotate(-45.02)" style="fill:#f6fafd"/><ellipse cx="54.795" cy="11.679" rx="0.825" ry="1.148" transform="translate(7.801 42.183) rotate(-45.02)" style="fill:#f6fafd"/><ellipse cx="13.795" cy="50.679" rx="0.825" ry="1.148" transform="translate(-31.804 24.614) rotate(-45.02)" style="fill:#f6fafd"/><path d="M59,3H50.728A7.015,7.015,0,0,0,45,0H19a7.008,7.008,0,0,0-7,7V33h2V7a5.006,5.006,0,0,1,5-5h4.465l1.7,2.555A1,1,0,0,0,26,5H38a1,1,0,0,0,.832-.445L40.535,2H45a5.006,5.006,0,0,1,2.991,1H45a5.006,5.006,0,0,0-5,5v9a5.008,5.008,0,0,0,4,4.9V26a1,1,0,0,0,1.53.848L53.287,22H59a5.006,5.006,0,0,0,5-5V8A5.006,5.006,0,0,0,59,3ZM37.465,3H26.535l-.667-1H38.132ZM62,17a3,3,0,0,1-3,3H53a1,1,0,0,0-.53.152L46,24.2V21a1,1,0,0,0-1-1,3,3,0,0,1-3-3V8a3,3,0,0,1,3-3H59a3,3,0,0,1,3,3Z"/><path d="M54.5,8A3.351,3.351,0,0,0,52,9.062,3.493,3.493,0,0,0,46,11.4c0,4.222,5.059,6.6,6,6.6,1.285,0,6-2.4,6-6.6A3.345,3.345,0,0,0,54.5,8Zm-2.447,7.985C51.344,15.73,48,14.07,48,11.4A1.4,1.4,0,0,1,49.5,10c.271,0,1.094,0,1.555,1.328a1,1,0,0,0,1.89,0C53.406,10,54.229,10,54.5,10A1.4,1.4,0,0,1,56,11.4C56,14.163,52.808,15.8,52.053,15.985Z"/><path d="M14.5,47A3.351,3.351,0,0,0,12,48.062,3.351,3.351,0,0,0,9.5,47,3.345,3.345,0,0,0,6,50.4c0,4.222,5.059,6.6,6,6.6,1.285,0,6-2.4,6-6.6A3.345,3.345,0,0,0,14.5,47Zm-2.447,7.985C11.344,54.73,8,53.07,8,50.4A1.4,1.4,0,0,1,9.5,49c.271,0,1.094,0,1.555,1.328a1,1,0,0,0,1.89,0C13.406,49,14.229,49,14.5,49A1.4,1.4,0,0,1,16,50.4C16,53.163,12.808,54.8,12.053,54.985Z"/><path d="M32,42c2.375,0,12-4.181,12-13a6.778,6.778,0,0,0-7-7,5.8,5.8,0,0,0-5,2.684A5.8,5.8,0,0,0,27,22a6.778,6.778,0,0,0-7,7C20,37.819,29.625,42,32,42ZM27,24c1.955,0,3.318,1.116,4.051,3.316a1,1,0,0,0,1.9,0C33.682,25.116,35.045,24,37,24a4.792,4.792,0,0,1,5,5c0,7.307-8.311,11-10,11S22,36.307,22,29A4.792,4.792,0,0,1,27,24Z"/><rect x="12" y="35" width="2" height="2"/><path d="M50,54H25v2H50v1a5.006,5.006,0,0,1-5,5H19a5.008,5.008,0,0,1-2.991-1H19a5.006,5.006,0,0,0,5-5V47a5.008,5.008,0,0,0-4-4.9V38a1,1,0,0,0-1.53-.848L10.713,42H5a5.006,5.006,0,0,0-5,5v9a5.006,5.006,0,0,0,5,5h8.272A7.019,7.019,0,0,0,19,64H45a7.008,7.008,0,0,0,7-7V26H50ZM2,56V47a3,3,0,0,1,3-3h6a1,1,0,0,0,.53-.152L18,39.8V43a1,1,0,0,0,1,1,3,3,0,0,1,3,3v9a3,3,0,0,1-3,3H5A3,3,0,0,1,2,56Z"/><rect x="30" y="58" width="6" height="2"/></g></svg>