<?xml version="1.0" encoding="utf-8"?>
<!-- Generator: Adobe Illustrator 22.0.1, SVG Export Plug-In . SVG Version: 6.00 Build 0)  -->
<svg version="1.1" xmlns="http://www.w3.org/2000/svg" xmlns:xlink="http://www.w3.org/1999/xlink" x="0px" y="0px"
	 viewBox="0 0 445 353.8" style="enable-background:new 0 0 445 353.8;" xml:space="preserve">
<style type="text/css">
	.st0{display:none;}
	.st1{display:inline;fill:#A4DFF4;}
	.st2{display:inline;opacity:0.2;}
	.st3{fill:#FFFFFF;}
	.st4{fill:#FFB205;}
	.st5{fill:#281C1C;}
	.st6{fill:#EFA003;}
	.st7{display:inline;fill:#FFB205;}
	.st8{display:inline;fill:#281C1C;}
	.st9{display:inline;fill:#FFFFFF;}
	.st10{display:inline;fill:#EFA003;}
	.st11{fill:#FFCCEE;}
	.st12{display:inline;fill:#FFCCEE;}
	.st13{display:inline;}
	.st14{fill:#F4ABD6;}
	.st15{fill:#D64D4D;}
	.st16{opacity:0.1;fill:#281C1C;}
	.st17{display:inline;fill:#D37DBB;}
	.st18{display:inline;fill:#BF2828;}
	.st19{display:inline;fill:#D63838;}
	.st20{display:inline;fill:#4695D1;}
	.st21{display:inline;fill:#BC5858;}
	.st22{display:inline;fill:#D16B6B;}
	.st23{display:inline;fill:#E27D7D;}
	.st24{display:inline;fill:#6BB7DD;}
	.st25{display:inline;fill:#E25454;}
	.st26{display:inline;fill:#55ACCE;}
	.st27{fill:#E891C1;}
	.st28{fill:#6BB7DD;}
	.st29{fill:#DD3A3A;}
	.st30{display:inline;fill:#D12424;}
	.st31{fill:#F44845;}
</style>
<g id="Layer_2" class="st0">
	<rect x="-69" y="-17.7" class="st1" width="1000" height="1000"/>
</g>
<g id="Layer_3" class="st0">
	<g class="st2">
		<g>
			<path class="st3" d="M390.3,391.6c-10.1,0-18.3-8.2-18.3-18.3s8.2-18.3,18.3-18.3c10.1,0,18.3,8.2,18.3,18.3
				S400.4,391.6,390.3,391.6z M390.3,357c-9,0-16.2,7.3-16.2,16.2s7.3,16.2,16.2,16.2c9,0,16.2-7.3,16.2-16.2S399.3,357,390.3,357z"
				/>
		</g>
		<g>
			<path class="st3" d="M430.1,305.5c-2-2.5-5.8-3-8.3-0.9l-22.4,9.8v-10l17.6-13.2c2.1-2.5,1.7-6.2-0.8-8.3
				c-2.5-2.1-6.2-1.7-8.3,0.8l-8.5,6.1v-15.5c0-4.8-3.9-8.6-8.6-8.6c-4.8,0-8.6,3.9-8.6,8.6v17.3l-11-7.8c-2.1-2.5-5.8-2.9-8.3-0.8
				c-2.5,2.1-2.8,5.8-0.8,8.3l20.1,15.1v8.5l-23.3-10.2c-2.5-2-6.3-1.6-8.3,0.9c-2,2.5-1.6,6.3,0.9,8.3l30.6,14.4v23.4
				c0,4.8,3.9,8.6,8.6,8.6c4.8,0,8.6-3.9,8.6-8.6v-23.8l29.7-14C431.7,311.8,432.1,308.1,430.1,305.5z"/>
		</g>
		<g>
			<path class="st3" d="M351.6,305c-3.2,0.5-5.4,3.5-5,6.7l-2.7,24.3l-8.7-5l-2.6-21.9c-1.1-3.1-4.5-4.6-7.6-3.5
				c-3.1,1.1-4.6,4.5-3.5,7.6l1,10.4l-13.4-7.8c-4.1-2.4-9.4-1-11.8,3.2c-2.4,4.1-1,9.4,3.2,11.8l15,8.6l-12.3,5.6
				c-3.2,0.6-5.4,3.6-4.8,6.8c0.6,3.2,3.6,5.4,6.8,4.8l23.1-9.9l7.4,4.3l-20.5,15c-3,1.2-4.5,4.6-3.3,7.7c1.2,3,4.6,4.5,7.7,3.3
				l27.8-19.3l20.2,11.7c4.1,2.4,9.4,1,11.8-3.2c2.4-4.1,1-9.4-3.2-11.8l-20.6-11.9l2.7-32.7C357.8,306.7,354.8,304.5,351.6,305z"/>
		</g>
		<g>
			<path class="st3" d="M311.8,372.7c-1.2,3,0.3,6.5,3.3,7.7l19.7,14.4l-8.7,5l-20.3-8.7c-3.2-0.6-6.3,1.6-6.8,4.8
				c-0.6,3.2,1.6,6.3,4.8,6.8l9.5,4.4l-13.4,7.8c-4.1,2.4-5.5,7.7-3.2,11.8c2.4,4.1,7.7,5.5,11.8,3.2l15-8.6l-1.3,13.5
				c-1.1,3.1,0.4,6.5,3.5,7.6c3.1,1.1,6.5-0.4,7.6-3.5l3-25l7.4-4.3l2.8,25.3c-0.5,3.2,1.7,6.2,5,6.7c3.2,0.5,6.2-1.7,6.7-5
				l-2.8-33.8l20.2-11.7c4.1-2.4,5.5-7.7,3.2-11.8c-2.4-4.1-7.7-5.5-11.8-3.2l-20.6,11.9l-27-18.7
				C316.4,368.1,313,369.6,311.8,372.7z"/>
		</g>
		<g>
			<path class="st3" d="M350.6,440.9c2,2.5,5.8,3,8.3,0.9l22.4-9.8l0,10l-17.6,13.2c-2.1,2.5-1.7,6.2,0.8,8.3
				c2.5,2.1,6.2,1.7,8.3-0.8l8.5-6.1l0,15.5c0,4.8,3.9,8.6,8.6,8.6c4.8,0,8.6-3.9,8.6-8.6l0-17.3l11,7.8c2.1,2.5,5.8,2.9,8.3,0.8
				c2.5-2.1,2.8-5.8,0.8-8.3l-20.1-15.1v-8.5l23.3,10.2c2.5,2,6.3,1.6,8.3-0.9c2-2.5,1.6-6.3-0.9-8.3l-30.6-14.4v-23.4
				c0-4.8-3.9-8.6-8.6-8.6s-8.6,3.9-8.6,8.6l0,23.8l-29.7,14C349,434.7,348.6,438.4,350.6,440.9z"/>
		</g>
		<g>
			<path class="st3" d="M429.1,441.5c3.2-0.5,5.4-3.5,5-6.7l2.7-24.3l8.7,5l2.6,21.9c1.1,3.1,4.5,4.6,7.6,3.5
				c3.1-1.1,4.6-4.5,3.5-7.6l-1-10.4l13.4,7.8c4.1,2.4,9.4,1,11.8-3.2c2.4-4.1,1-9.4-3.2-11.8l-15-8.6l12.3-5.6
				c3.2-0.6,5.4-3.6,4.8-6.8c-0.6-3.2-3.6-5.4-6.8-4.8l-23.1,9.9l-7.4-4.3l20.5-15c3-1.2,4.5-4.6,3.3-7.7c-1.2-3-4.6-4.5-7.7-3.3
				l-27.8,19.3L413.1,377c-4.1-2.4-9.4-1-11.8,3.2c-2.4,4.1-1,9.4,3.2,11.8l20.6,11.9l-2.7,32.7C422.9,439.8,425.9,442,429.1,441.5z
				"/>
		</g>
		<g>
			<path class="st3" d="M468.8,373.8c1.2-3-0.3-6.5-3.3-7.7l-19.7-14.4l8.7-5l20.3,8.7c3.2,0.6,6.3-1.6,6.8-4.8
				c0.6-3.2-1.6-6.3-4.8-6.8l-9.5-4.4l13.4-7.8c4.1-2.4,5.5-7.7,3.2-11.8c-2.4-4.1-7.7-5.5-11.8-3.2l-15,8.6l1.3-13.5
				c1.1-3.1-0.4-6.5-3.5-7.6c-3.1-1.1-6.5,0.4-7.6,3.5l-3,25l-7.4,4.3l-2.8-25.3c0.5-3.2-1.7-6.2-5-6.7c-3.2-0.5-6.2,1.7-6.7,5
				l2.8,33.8L405,355.4c-4.1,2.4-5.5,7.7-3.2,11.8c2.4,4.1,7.7,5.5,11.8,3.2l20.6-11.9l27,18.7C464.2,378.3,467.6,376.8,468.8,373.8
				z"/>
		</g>
	</g>
	<g class="st2">
		<g>
			<path class="st3" d="M797.7,435.7c-7.4,0-13.5-6-13.5-13.5s6-13.5,13.5-13.5c7.4,0,13.5,6,13.5,13.5S805.1,435.7,797.7,435.7z
				 M797.7,410.4c-6.6,0-11.9,5.3-11.9,11.9s5.3,11.9,11.9,11.9c6.6,0,11.9-5.3,11.9-11.9S804.2,410.4,797.7,410.4z"/>
		</g>
		<g>
			<path class="st3" d="M826.8,372.6c-1.5-1.9-4.2-2.2-6.1-0.7l-16.4,7.2v-7.3l12.9-9.7c1.5-1.8,1.3-4.6-0.6-6.1
				c-1.8-1.5-4.6-1.3-6.1,0.6l-6.3,4.4v-11.4c0-3.5-2.8-6.3-6.3-6.3c-3.5,0-6.3,2.8-6.3,6.3v12.7l-8.1-5.7c-1.5-1.8-4.3-2.1-6.1-0.6
				c-1.8,1.5-2.1,4.3-0.6,6.1l14.8,11.1v6.3l-17.1-7.5c-1.9-1.5-4.6-1.2-6.1,0.7c-1.5,1.9-1.2,4.6,0.7,6.1l22.5,10.6v17.1
				c0,3.5,2.8,6.3,6.3,6.3c3.5,0,6.3-2.8,6.3-6.3V389l21.8-10.3C828,377.2,828.3,374.5,826.8,372.6z"/>
		</g>
		<g>
			<path class="st3" d="M769.2,372.2c-2.4,0.4-4,2.6-3.6,4.9l-2,17.8l-6.4-3.7l-1.9-16c-0.8-2.2-3.3-3.4-5.6-2.6
				c-2.2,0.8-3.4,3.3-2.6,5.6l0.7,7.6l-9.9-5.7c-3-1.7-6.9-0.7-8.6,2.3c-1.7,3-0.7,6.9,2.3,8.6l11,6.3l-9,4.1
				c-2.4,0.4-3.9,2.6-3.5,5c0.4,2.4,2.6,3.9,5,3.5l17-7.2l5.4,3.1l-15,11c-2.2,0.9-3.3,3.4-2.5,5.6c0.9,2.2,3.4,3.3,5.6,2.5
				l20.4-14.2l14.8,8.6c3,1.7,6.9,0.7,8.6-2.3c1.7-3,0.7-6.9-2.3-8.6l-15.1-8.7l2-24C773.8,373.5,771.6,371.9,769.2,372.2z"/>
		</g>
		<g>
			<path class="st3" d="M740.1,421.9c-0.9,2.2,0.2,4.7,2.5,5.6l14.4,10.6l-6.4,3.7l-14.9-6.3c-2.4-0.4-4.6,1.2-5,3.5
				c-0.4,2.4,1.2,4.6,3.5,5l7,3.2l-9.9,5.7c-3,1.7-4.1,5.6-2.3,8.6c1.7,3,5.6,4.1,8.6,2.3l11-6.3l-0.9,9.9c-0.8,2.2,0.3,4.7,2.6,5.6
				c2.2,0.8,4.7-0.3,5.6-2.6l2.2-18.3l5.4-3.1l2,18.5c-0.4,2.4,1.3,4.6,3.6,4.9c2.4,0.4,4.6-1.3,4.9-3.6l-2.1-24.8l14.8-8.6
				c3-1.7,4.1-5.6,2.3-8.6c-1.7-3-5.6-4.1-8.6-2.3l-15.1,8.7l-19.8-13.7C743.5,418.6,741,419.7,740.1,421.9z"/>
		</g>
		<g>
			<path class="st3" d="M768.5,472c1.5,1.9,4.2,2.2,6.1,0.7l16.4-7.2l0,7.3l-12.9,9.7c-1.5,1.8-1.3,4.6,0.6,6.1
				c1.8,1.5,4.6,1.3,6.1-0.6l6.3-4.4l0,11.4c0,3.5,2.8,6.3,6.3,6.3c3.5,0,6.3-2.8,6.3-6.3l0-12.7l8.1,5.7c1.5,1.8,4.3,2.1,6.1,0.6
				c1.8-1.5,2.1-4.3,0.6-6.1l-14.8-11.1v-6.3l17.1,7.5c1.9,1.5,4.6,1.2,6.1-0.7c1.5-1.9,1.2-4.6-0.7-6.1l-22.5-10.6v-17.1
				c0-3.5-2.8-6.3-6.3-6.3c-3.5,0-6.3,2.8-6.3,6.3l0,17.5l-21.8,10.3C767.3,467.4,767,470.1,768.5,472z"/>
		</g>
		<g>
			<path class="st3" d="M826.1,472.4c2.4-0.4,4-2.6,3.6-4.9l2-17.8l6.4,3.7l1.9,16c0.8,2.2,3.3,3.4,5.6,2.6c2.2-0.8,3.4-3.3,2.6-5.6
				l-0.7-7.6l9.9,5.7c3,1.7,6.9,0.7,8.6-2.3c1.7-3,0.7-6.9-2.3-8.6l-11-6.3l9-4.1c2.4-0.4,3.9-2.6,3.5-5c-0.4-2.4-2.6-3.9-5-3.5
				l-17,7.2l-5.4-3.1l15-11c2.2-0.9,3.3-3.4,2.5-5.6c-0.9-2.2-3.4-3.3-5.6-2.5l-20.4,14.2l-14.8-8.6c-3-1.7-6.9-0.7-8.6,2.3
				c-1.7,3-0.7,6.9,2.3,8.6l15.1,8.7l-2,24C821.5,471.1,823.7,472.7,826.1,472.4z"/>
		</g>
		<g>
			<path class="st3" d="M855.3,422.7c0.9-2.2-0.2-4.7-2.5-5.6l-14.4-10.6l6.4-3.7l14.9,6.3c2.4,0.4,4.6-1.2,5-3.5
				c0.4-2.4-1.2-4.6-3.5-5l-7-3.2l9.9-5.7c3-1.7,4.1-5.6,2.3-8.6c-1.7-3-5.6-4.1-8.6-2.3l-11,6.3l0.9-9.9c0.8-2.2-0.3-4.7-2.6-5.6
				c-2.2-0.8-4.7,0.3-5.6,2.6l-2.2,18.3l-5.4,3.1l-2-18.5c0.4-2.4-1.3-4.6-3.6-4.9c-2.4-0.4-4.6,1.3-4.9,3.6l2.1,24.8l-14.8,8.6
				c-3,1.7-4.1,5.6-2.3,8.6c1.7,3,5.6,4.1,8.6,2.3l15.1-8.7l19.8,13.7C851.9,426,854.4,424.9,855.3,422.7z"/>
		</g>
	</g>
	<g class="st2">
		<g>
			<path class="st3" d="M243.6,746.5c-5.8,0-10.6-4.7-10.6-10.6s4.7-10.6,10.6-10.6c5.8,0,10.6,4.7,10.6,10.6
				S249.4,746.5,243.6,746.5z M243.6,726.6c-5.2,0-9.3,4.2-9.3,9.3s4.2,9.3,9.3,9.3s9.3-4.2,9.3-9.3S248.7,726.6,243.6,726.6z"/>
		</g>
		<g>
			<path class="st3" d="M266.5,697c-1.2-1.5-3.3-1.7-4.8-0.5l-12.9,5.7v-5.8l10.1-7.6c1.2-1.4,1-3.6-0.4-4.8c-1.4-1.2-3.6-1-4.8,0.4
				l-4.9,3.5v-8.9c0-2.7-2.2-5-5-5c-2.7,0-5,2.2-5,5v9.9l-6.4-4.5c-1.2-1.4-3.3-1.6-4.8-0.4c-1.4,1.2-1.6,3.3-0.4,4.8l11.6,8.7v4.9
				l-13.4-5.9c-1.5-1.2-3.6-0.9-4.8,0.5c-1.2,1.5-0.9,3.6,0.5,4.8l17.6,8.3v13.4c0,2.7,2.2,5,5,5c2.7,0,5-2.2,5-5v-13.7l17.1-8.1
				C267.4,700.6,267.6,698.4,266.5,697z"/>
		</g>
		<g>
			<path class="st3" d="M221.3,696.7c-1.9,0.3-3.1,2-2.9,3.9l-1.5,14l-5-2.9l-1.5-12.6c-0.6-1.8-2.6-2.7-4.4-2
				c-1.8,0.6-2.7,2.6-2,4.4l0.6,6l-7.7-4.5c-2.4-1.4-5.4-0.6-6.8,1.8c-1.4,2.4-0.6,5.4,1.8,6.8l8.6,5l-7.1,3.2
				c-1.9,0.3-3.1,2.1-2.8,3.9c0.3,1.8,2.1,3.1,3.9,2.8l13.3-5.7l4.3,2.5l-11.8,8.7c-1.7,0.7-2.6,2.7-1.9,4.4
				c0.7,1.7,2.7,2.6,4.4,1.9l16-11.1l11.6,6.7c2.4,1.4,5.4,0.6,6.8-1.8c1.4-2.4,0.6-5.4-1.8-6.8l-11.9-6.8l1.6-18.8
				C224.9,697.6,223.1,696.4,221.3,696.7z"/>
		</g>
		<g>
			<path class="st3" d="M198.4,735.6c-0.7,1.7,0.2,3.7,1.9,4.4l11.3,8.3l-5,2.9l-11.7-5c-1.8-0.3-3.6,0.9-3.9,2.8
				c-0.3,1.9,0.9,3.6,2.8,3.9l5.5,2.5l-7.7,4.5c-2.4,1.4-3.2,4.4-1.8,6.8c1.4,2.4,4.4,3.2,6.8,1.8l8.6-5l-0.7,7.8
				c-0.6,1.8,0.3,3.7,2,4.4c1.8,0.6,3.7-0.3,4.4-2l1.7-14.4l4.3-2.5l1.6,14.5c-0.3,1.9,1,3.6,2.9,3.9c1.9,0.3,3.6-1,3.9-2.9
				l-1.6-19.4l11.6-6.7c2.4-1.4,3.2-4.4,1.8-6.8c-1.4-2.4-4.4-3.2-6.8-1.8l-11.9,6.8l-15.5-10.8C201.1,733,199.1,733.9,198.4,735.6z
				"/>
		</g>
		<g>
			<path class="st3" d="M220.7,774.9c1.2,1.5,3.3,1.7,4.8,0.5l12.9-5.7l0,5.8l-10.1,7.6c-1.2,1.4-1,3.6,0.4,4.8
				c1.4,1.2,3.6,1,4.8-0.4l4.9-3.5l0,8.9c0,2.7,2.2,5,5,5c2.7,0,5-2.2,5-5l0-9.9l6.4,4.5c1.2,1.4,3.3,1.6,4.8,0.4
				c1.4-1.2,1.6-3.3,0.4-4.8l-11.6-8.7v-4.9l13.4,5.9c1.5,1.2,3.6,0.9,4.8-0.5c1.2-1.5,0.9-3.6-0.5-4.8l-17.6-8.3v-13.4
				c0-2.7-2.2-5-5-5s-5,2.2-5,5l0,13.7l-17.1,8.1C219.8,771.3,219.5,773.4,220.7,774.9z"/>
		</g>
		<g>
			<path class="st3" d="M265.9,775.2c1.9-0.3,3.1-2,2.9-3.9l1.5-14l5,2.9l1.5,12.6c0.6,1.8,2.6,2.7,4.4,2c1.8-0.6,2.7-2.6,2-4.4
				l-0.6-6l7.7,4.5c2.4,1.4,5.4,0.6,6.8-1.8c1.4-2.4,0.6-5.4-1.8-6.8l-8.6-5l7.1-3.2c1.9-0.3,3.1-2.1,2.8-3.9
				c-0.3-1.8-2.1-3.1-3.9-2.8l-13.3,5.7l-4.3-2.5l11.8-8.7c1.7-0.7,2.6-2.7,1.9-4.4c-0.7-1.7-2.7-2.6-4.4-1.9l-16,11.1l-11.6-6.7
				c-2.4-1.4-5.4-0.6-6.8,1.8c-1.4,2.4-0.6,5.4,1.8,6.8l11.9,6.8l-1.6,18.8C262.3,774.2,264,775.5,265.9,775.2z"/>
		</g>
		<g>
			<path class="st3" d="M288.8,736.3c0.7-1.7-0.2-3.7-1.9-4.4l-11.3-8.3l5-2.9l11.7,5c1.8,0.3,3.6-0.9,3.9-2.8
				c0.3-1.9-0.9-3.6-2.8-3.9l-5.5-2.5l7.7-4.5c2.4-1.4,3.2-4.4,1.8-6.8c-1.4-2.4-4.4-3.2-6.8-1.8l-8.6,5l0.7-7.8
				c0.6-1.8-0.3-3.7-2-4.4c-1.8-0.6-3.7,0.3-4.4,2l-1.7,14.4l-4.3,2.5l-1.6-14.5c0.3-1.9-1-3.6-2.9-3.9c-1.9-0.3-3.6,1-3.9,2.9
				l1.6,19.4l-11.6,6.7c-2.4,1.4-3.2,4.4-1.8,6.8c1.4,2.4,4.4,3.2,6.8,1.8l11.9-6.8l15.5,10.8C286.1,738.9,288.1,738,288.8,736.3z"
				/>
		</g>
	</g>
	<g class="st2">
		<g>
			<path class="st3" d="M42.2,182.3c-8.1,0-14.8-6.6-14.8-14.8s6.6-14.8,14.8-14.8S57,159.4,57,167.6S50.3,182.3,42.2,182.3z
				 M42.2,154.5c-7.2,0-13.1,5.9-13.1,13.1s5.9,13.1,13.1,13.1s13.1-5.9,13.1-13.1S49.4,154.5,42.2,154.5z"/>
		</g>
		<g>
			<path class="st3" d="M74.2,113.1c-1.6-2.1-4.6-2.4-6.7-0.7l-18,7.9v-8.1l14.2-10.6c1.7-2,1.4-5-0.6-6.7c-2-1.7-5-1.4-6.7,0.6
				l-6.9,4.9V87.9c0-3.8-3.1-6.9-6.9-6.9c-3.8,0-6.9,3.1-6.9,6.9v13.9l-8.9-6.3c-1.7-2-4.7-2.3-6.7-0.6c-2,1.7-2.3,4.7-0.6,6.7
				l16.2,12.1v6.9l-18.7-8.2c-2.1-1.6-5-1.3-6.7,0.7c-1.6,2.1-1.3,5,0.7,6.7l24.7,11.6v18.8c0,3.8,3.1,6.9,6.9,6.9
				c3.8,0,6.9-3.1,6.9-6.9V131l23.9-11.3C75.5,118.1,75.8,115.1,74.2,113.1z"/>
		</g>
		<g>
			<path class="st3" d="M11,112.6c-2.6,0.4-4.4,2.8-4,5.4l-2.1,19.5l-7-4l-2.1-17.6c-0.9-2.5-3.6-3.7-6.1-2.8
				c-2.5,0.9-3.7,3.6-2.8,6.1l0.8,8.4l-10.8-6.2c-3.3-1.9-7.6-0.8-9.5,2.5c-1.9,3.3-0.8,7.6,2.5,9.5l12,7l-9.9,4.5
				c-2.6,0.4-4.3,2.9-3.9,5.5c0.4,2.6,2.9,4.3,5.5,3.9l18.6-8l6,3.4l-16.5,12.1c-2.4,1-3.6,3.7-2.7,6.2c1,2.4,3.7,3.6,6.2,2.7
				l22.4-15.5l16.3,9.4c3.3,1.9,7.6,0.8,9.5-2.5c1.9-3.3,0.8-7.6-2.5-9.5L14.2,143l2.2-26.3C16,114,13.6,112.2,11,112.6z"/>
		</g>
		<g>
			<path class="st3" d="M-21,167.1c-1,2.4,0.2,5.2,2.7,6.2l15.8,11.6l-7,4l-16.3-7c-2.6-0.4-5,1.3-5.5,3.9c-0.4,2.6,1.3,5,3.9,5.5
				l7.7,3.5l-10.8,6.2c-3.3,1.9-4.5,6.2-2.5,9.5c1.9,3.3,6.2,4.5,9.5,2.5l12-7l-1,10.8c-0.9,2.5,0.4,5.2,2.8,6.1
				c2.5,0.9,5.2-0.4,6.1-2.8l2.4-20.1l6-3.4L7,217.1c-0.4,2.6,1.4,5,4,5.4c2.6,0.4,5-1.4,5.4-4l-2.3-27.2l16.3-9.4
				c3.3-1.9,4.5-6.2,2.5-9.5c-1.9-3.3-6.2-4.5-9.5-2.5l-16.6,9.6l-21.7-15.1C-17.3,163.4-20,164.7-21,167.1z"/>
		</g>
		<g>
			<path class="st3" d="M10.2,222c1.6,2.1,4.6,2.4,6.7,0.7l18-7.9l0,8.1l-14.2,10.6c-1.7,2-1.4,5,0.6,6.7c2,1.7,5,1.4,6.7-0.6
				l6.9-4.9l0,12.5c0,3.8,3.1,6.9,6.9,6.9c3.8,0,6.9-3.1,6.9-6.9l0-13.9l8.9,6.3c1.7,2,4.7,2.3,6.7,0.6c2-1.7,2.3-4.7,0.6-6.7
				l-16.2-12.1v-6.9l18.7,8.2c2.1,1.6,5,1.3,6.7-0.7c1.6-2.1,1.3-5-0.7-6.7l-24.7-11.6v-18.8c0-3.8-3.1-6.9-6.9-6.9
				s-6.9,3.1-6.9,6.9l0,19.1L11,215.4C8.9,217,8.6,220,10.2,222z"/>
		</g>
		<g>
			<path class="st3" d="M73.4,222.5c2.6-0.4,4.4-2.8,4-5.4l2.1-19.5l7,4l2.1,17.6c0.9,2.5,3.6,3.7,6.1,2.8c2.5-0.9,3.7-3.6,2.8-6.1
				l-0.8-8.4l10.8,6.2c3.3,1.9,7.6,0.8,9.5-2.5c1.9-3.3,0.8-7.6-2.5-9.5l-12-7l9.9-4.5c2.6-0.4,4.3-2.9,3.9-5.5
				c-0.4-2.6-2.9-4.3-5.5-3.9l-18.6,8l-6-3.4l16.5-12.1c2.4-1,3.6-3.7,2.7-6.2c-1-2.4-3.7-3.6-6.2-2.7L76.8,180l-16.3-9.4
				c-3.3-1.9-7.6-0.8-9.5,2.5c-1.9,3.3-0.8,7.6,2.5,9.5l16.6,9.6L68,218.5C68.4,221.1,70.8,222.9,73.4,222.5z"/>
		</g>
		<g>
			<path class="st3" d="M105.4,168c1-2.4-0.2-5.2-2.7-6.2l-15.8-11.6l7-4l16.3,7c2.6,0.4,5-1.3,5.5-3.9c0.4-2.6-1.3-5-3.9-5.5
				l-7.7-3.5l10.8-6.2c3.3-1.9,4.5-6.2,2.5-9.5c-1.9-3.3-6.2-4.5-9.5-2.5l-12,7l1-10.8c0.9-2.5-0.4-5.2-2.8-6.1
				c-2.5-0.9-5.2,0.4-6.1,2.8l-2.4,20.1l-6,3.4L77.4,118c0.4-2.6-1.4-5-4-5.4c-2.6-0.4-5,1.4-5.4,4l2.3,27.2L54,153.2
				c-3.3,1.9-4.5,6.2-2.5,9.5c1.9,3.3,6.2,4.5,9.5,2.5l16.6-9.6l21.7,15.1C101.7,171.7,104.4,170.4,105.4,168z"/>
		</g>
	</g>
	<g class="st2">
		<g>
			<g>
				<path class="st3" d="M675.3,108.6c0.9-1.7,0.3-3.9-1.4-4.8l-15.6-8.4c-1.7-0.9-3.9-0.3-4.8,1.4l0,0c-0.9,1.7-0.3,3.9,1.4,4.8
					l15.6,8.4C672.2,111,674.4,110.4,675.3,108.6L675.3,108.6z"/>
				<path class="st3" d="M669.2,108.6c-0.9-1.7-0.3-3.9,1.4-4.8l15.6-8.4c1.7-0.9,3.9-0.3,4.8,1.4l0,0c0.9,1.7,0.3,3.9-1.4,4.8
					l-15.6,8.4C672.3,111,670.1,110.4,669.2,108.6L669.2,108.6z"/>
			</g>
			<g>
				<path class="st3" d="M675.3,97.5c0.9-1.7,0.3-3.9-1.4-4.8l-15.6-8.4c-1.7-0.9-3.9-0.3-4.8,1.4l0,0c-0.9,1.7-0.3,3.9,1.4,4.8
					l15.6,8.4C672.2,99.9,674.4,99.2,675.3,97.5L675.3,97.5z"/>
				<path class="st3" d="M669.2,97.5c-0.9-1.7-0.3-3.9,1.4-4.8l15.6-8.4c1.7-0.9,3.9-0.3,4.8,1.4l0,0c0.9,1.7,0.3,3.9-1.4,4.8
					L674,98.9C672.3,99.9,670.1,99.2,669.2,97.5L669.2,97.5z"/>
			</g>
			<g>
				<path class="st3" d="M669,61.2c0-3.9,1.4-7,3.2-7c1.8,0,3.2,3.1,3.2,7c0,2.2-1.6,57.4-1.6,57.4h-3.2
					C670.6,118.6,669,63.6,669,61.2z"/>
				<path class="st3" d="M691.6,67.7c-1.2-0.5-3.1,1.1-5,3.4c-0.4,0.5-5.4,7.1-14.3,10.4c-8.9-3.3-13.9-9.8-14.3-10.4
					c-1.9-2.2-3.9-3.8-5-3.4c-1.2,0.4-0.9,3.1,1.1,5.7c0.5,0.8,7.4,8.7,18.1,11.6c0,0,0,0,0,0c0,0,0,0,0,0c0,0,0,0,0,0c0,0,0,0,0,0
					c10.7-2.9,17.6-10.8,18.1-11.6C692.6,70.8,692.8,68.1,691.6,67.7z"/>
			</g>
		</g>
		<g>
			<g>
				<path class="st3" d="M657.2,115.5c-1-1.7-3.2-2.2-4.9-1.2l-15.1,9.3c-1.7,1-2.2,3.2-1.2,4.9l0,0c1,1.7,3.2,2.2,4.9,1.2l15.1-9.3
					C657.7,119.4,658.3,117.2,657.2,115.5L657.2,115.5z"/>
				<path class="st3" d="M654.2,120.8c-2-0.1-3.5-1.7-3.4-3.6l0.5-17.7c0.1-2,1.7-3.5,3.6-3.4l0,0c2,0.1,3.5,1.7,3.4,3.6l-0.5,17.7
					C657.8,119.4,656.1,120.9,654.2,120.8L654.2,120.8z"/>
			</g>
			<g>
				<path class="st3" d="M647.6,110c-1-1.7-3.2-2.2-4.9-1.2l-15.1,9.3c-1.7,1-2.2,3.2-1.2,4.9l0,0c1,1.7,3.2,2.2,4.9,1.2l15.1-9.3
					C648.1,113.8,648.6,111.6,647.6,110L647.6,110z"/>
				<path class="st3" d="M644.5,115.3c-2-0.1-3.5-1.7-3.4-3.6l0.5-17.7c0.1-2,1.7-3.5,3.6-3.4l0,0c2,0.1,3.5,1.7,3.4,3.6l-0.5,17.7
					C648.1,113.8,646.5,115.3,644.5,115.3L644.5,115.3z"/>
			</g>
			<g>
				<path class="st3" d="M613,97.2c-3.4-1.9-5.4-4.7-4.5-6.3c0.9-1.5,4.3-1.2,7.7,0.8c1.9,1.1,48.9,30.1,48.9,30.1l-1.6,2.8
					C663.5,124.6,615.1,98.5,613,97.2z"/>
				<path class="st3" d="M629.9,80.9c-1,0.8-0.6,3.3,0.4,6.1c0.3,0.6,3.4,8.2,1.8,17.5c-7.3,6-15.4,7.1-16.1,7.2
					c-2.9,0.5-5.3,1.4-5.4,2.7c-0.2,1.2,2.2,2.4,5.5,1.9c1,0,11.3-2,19.1-9.9c0,0,0,0,0,0c0,0,0,0,0,0c0,0,0,0,0,0c0,0,0,0,0,0
					c2.8-10.7-0.6-20.7-1-21.5C633.1,81.7,630.9,80.2,629.9,80.9z"/>
			</g>
		</g>
		<g>
			<g>
				<path class="st3" d="M654.2,134.7c-2,0.1-3.5,1.7-3.4,3.6l0.5,17.7c0.1,2,1.7,3.5,3.6,3.4l0,0c2-0.1,3.5-1.7,3.4-3.6l-0.5-17.7
					C657.8,136.1,656.1,134.6,654.2,134.7L654.2,134.7z"/>
				<path class="st3" d="M657.2,139.9c-1,1.7-3.2,2.2-4.9,1.2l-15.1-9.3c-1.7-1-2.2-3.2-1.2-4.9l0,0c1-1.7,3.2-2.2,4.9-1.2l15.1,9.3
					C657.7,136.1,658.3,138.3,657.2,139.9L657.2,139.9z"/>
			</g>
			<g>
				<path class="st3" d="M644.5,140.2c-2,0.1-3.5,1.7-3.4,3.6l0.5,17.7c0.1,2,1.7,3.5,3.6,3.4l0,0c2-0.1,3.5-1.7,3.4-3.6l-0.5-17.7
					C648.1,141.7,646.5,140.2,644.5,140.2L644.5,140.2z"/>
				<path class="st3" d="M647.6,145.5c-1,1.7-3.2,2.2-4.9,1.2l-15.1-9.3c-1.7-1-2.2-3.2-1.2-4.9l0,0c1-1.7,3.2-2.2,4.9-1.2l15.1,9.3
					C648.1,141.7,648.6,143.8,647.6,145.5L647.6,145.5z"/>
			</g>
			<g>
				<path class="st3" d="M616.2,163.8c-3.4,1.9-6.8,2.3-7.7,0.8c-0.9-1.5,1.1-4.3,4.5-6.3c1.9-1.1,50.5-27.3,50.5-27.3l1.6,2.8
					C665.1,133.7,618.4,162.6,616.2,163.8z"/>
				<path class="st3" d="M610.6,141c0.2,1.2,2.5,2.2,5.4,2.7c0.7,0.1,8.8,1.1,16.1,7.2c1.6,9.3-1.6,16.9-1.8,17.5
					c-1,2.8-1.4,5.3-0.4,6.1c1,0.8,3.2-0.7,4.4-3.9c0.5-0.8,3.9-10.8,1-21.5c0,0,0,0,0,0c0,0,0,0,0,0c0,0,0,0,0,0c0,0,0,0,0,0
					c-7.9-7.8-18.2-9.8-19.1-9.9C612.8,138.6,610.4,139.8,610.6,141z"/>
			</g>
		</g>
		<g>
			<g>
				<path class="st3" d="M669.2,146.9c-0.9,1.7-0.3,3.9,1.4,4.8l15.6,8.4c1.7,0.9,3.9,0.3,4.8-1.4l0,0c0.9-1.7,0.3-3.9-1.4-4.8
					l-15.6-8.4C672.3,144.5,670.1,145.1,669.2,146.9L669.2,146.9z"/>
				<path class="st3" d="M675.3,146.9c0.9,1.7,0.3,3.9-1.4,4.8l-15.6,8.4c-1.7,0.9-3.9,0.3-4.8-1.4l0,0c-0.9-1.7-0.3-3.9,1.4-4.8
					l15.6-8.4C672.2,144.5,674.4,145.1,675.3,146.9L675.3,146.9z"/>
			</g>
			<g>
				<path class="st3" d="M669.2,158c-0.9,1.7-0.3,3.9,1.4,4.8l15.6,8.4c1.7,0.9,3.9,0.3,4.8-1.4l0,0c0.9-1.7,0.3-3.9-1.4-4.8
					l-15.6-8.4C672.3,155.6,670.1,156.3,669.2,158L669.2,158z"/>
				<path class="st3" d="M675.3,158c0.9,1.7,0.3,3.9-1.4,4.8l-15.6,8.4c-1.7,0.9-3.9,0.3-4.8-1.4l0,0c-0.9-1.7-0.3-3.9,1.4-4.8
					l15.6-8.4C672.2,155.6,674.4,156.3,675.3,158L675.3,158z"/>
			</g>
			<g>
				<path class="st3" d="M675.5,194.3c0,3.9-1.4,7-3.2,7c-1.8,0-3.2-3.1-3.2-7c0-2.2,1.6-57.4,1.6-57.4l3.2,0
					C673.9,136.9,675.5,191.9,675.5,194.3z"/>
				<path class="st3" d="M652.9,187.8c1.2,0.5,3.1-1.1,5-3.4c0.4-0.5,5.4-7.1,14.3-10.4c8.9,3.3,13.9,9.8,14.3,10.4
					c1.9,2.2,3.9,3.8,5,3.4c1.2-0.4,0.9-3.1-1.1-5.7c-0.5-0.8-7.4-8.7-18.1-11.6c0,0,0,0,0,0c0,0,0,0,0,0c0,0,0,0,0,0c0,0,0,0,0,0
					c-10.7,2.9-17.6,10.8-18.1,11.6C651.9,184.7,651.7,187.4,652.9,187.8z"/>
			</g>
		</g>
		<g>
			<g>
				<path class="st3" d="M687.3,139.9c1,1.7,3.2,2.2,4.9,1.2l15.1-9.3c1.7-1,2.2-3.2,1.2-4.9l0,0c-1-1.7-3.2-2.2-4.9-1.2l-15.1,9.3
					C686.8,136.1,686.3,138.3,687.3,139.9L687.3,139.9z"/>
				<path class="st3" d="M690.3,134.7c2,0.1,3.5,1.7,3.4,3.6l-0.5,17.7c-0.1,2-1.7,3.5-3.6,3.4l0,0c-2-0.1-3.5-1.7-3.4-3.6l0.5-17.7
					C686.8,136.1,688.4,134.6,690.3,134.7L690.3,134.7z"/>
			</g>
			<g>
				<path class="st3" d="M696.9,145.5c1,1.7,3.2,2.2,4.9,1.2l15.1-9.3c1.7-1,2.2-3.2,1.2-4.9l0,0c-1-1.7-3.2-2.2-4.9-1.2l-15.1,9.3
					C696.4,141.7,695.9,143.8,696.9,145.5L696.9,145.5z"/>
				<path class="st3" d="M700,140.2c2,0.1,3.5,1.7,3.4,3.6l-0.5,17.7c-0.1,2-1.7,3.5-3.6,3.4l0,0c-2-0.1-3.5-1.7-3.4-3.6l0.5-17.7
					C696.4,141.7,698,140.2,700,140.2L700,140.2z"/>
			</g>
			<g>
				<path class="st3" d="M731.5,158.2c3.4,1.9,5.4,4.7,4.5,6.3c-0.9,1.5-4.3,1.2-7.7-0.8c-1.9-1.1-48.9-30.1-48.9-30.1l1.6-2.8
					C681,130.9,729.4,157,731.5,158.2z"/>
				<path class="st3" d="M714.6,174.6c1-0.8,0.6-3.3-0.4-6.1c-0.3-0.6-3.4-8.2-1.8-17.5c7.3-6,15.4-7.1,16.1-7.2
					c2.9-0.5,5.3-1.4,5.4-2.7c0.2-1.2-2.2-2.4-5.5-1.9c-1,0-11.3,2-19.1,9.9c0,0,0,0,0,0c0,0,0,0,0,0c0,0,0,0,0,0c0,0,0,0,0,0
					c-2.8,10.7,0.6,20.7,1,21.5C711.4,173.8,713.6,175.3,714.6,174.6z"/>
			</g>
		</g>
		<g>
			<g>
				<path class="st3" d="M690.3,120.8c2-0.1,3.5-1.7,3.4-3.6l-0.5-17.7c-0.1-2-1.7-3.5-3.6-3.4l0,0c-2,0.1-3.5,1.7-3.4,3.6l0.5,17.7
					C686.8,119.4,688.4,120.9,690.3,120.8L690.3,120.8z"/>
				<path class="st3" d="M687.3,115.5c1-1.7,3.2-2.2,4.9-1.2l15.1,9.3c1.7,1,2.2,3.2,1.2,4.9l0,0c-1,1.7-3.2,2.2-4.9,1.2l-15.1-9.3
					C686.8,119.4,686.3,117.2,687.3,115.5L687.3,115.5z"/>
			</g>
			<g>
				<path class="st3" d="M700,115.3c2-0.1,3.5-1.7,3.4-3.6l-0.5-17.7c-0.1-2-1.7-3.5-3.6-3.4l0,0c-2,0.1-3.5,1.7-3.4,3.6l0.5,17.7
					C696.4,113.8,698,115.3,700,115.3L700,115.3z"/>
				<path class="st3" d="M696.9,110c1-1.7,3.2-2.2,4.9-1.2l15.1,9.3c1.7,1,2.2,3.2,1.2,4.9l0,0c-1,1.7-3.2,2.2-4.9,1.2l-15.1-9.3
					C696.4,113.8,695.9,111.6,696.9,110L696.9,110z"/>
			</g>
			<g>
				<path class="st3" d="M728.3,91.7c3.4-1.9,6.8-2.3,7.7-0.8c0.9,1.5-1.1,4.3-4.5,6.3c-1.9,1.1-50.5,27.3-50.5,27.3l-1.6-2.8
					C679.4,121.7,726.2,92.9,728.3,91.7z"/>
				<path class="st3" d="M734,114.5c-0.2-1.2-2.5-2.2-5.4-2.7c-0.7-0.1-8.8-1.1-16.1-7.2c-1.6-9.3,1.6-16.9,1.8-17.5
					c1-2.8,1.4-5.3,0.4-6.1c-1-0.8-3.2,0.7-4.4,3.9c-0.5,0.8-3.9,10.8-1,21.5c0,0,0,0,0,0c0,0,0,0,0,0c0,0,0,0,0,0c0,0,0,0,0,0
					c7.9,7.8,18.2,9.8,19.1,9.9C731.7,116.9,734.2,115.7,734,114.5z"/>
			</g>
		</g>
	</g>
	<g class="st2">
		<g>
			<g>
				<path class="st3" d="M528.1,665.9c1.4-2.6,0.4-5.8-2.1-7.2L502.5,646c-2.6-1.4-5.8-0.4-7.2,2.1l0,0c-1.4,2.6-0.4,5.8,2.1,7.2
					l23.5,12.7C523.5,669.5,526.7,668.5,528.1,665.9L528.1,665.9z"/>
				<path class="st3" d="M518.9,665.9c-1.4-2.6-0.4-5.8,2.1-7.2l23.5-12.7c2.6-1.4,5.8-0.4,7.2,2.1l0,0c1.4,2.6,0.4,5.8-2.1,7.2
					l-23.5,12.7C523.5,669.5,520.3,668.5,518.9,665.9L518.9,665.9z"/>
			</g>
			<g>
				<path class="st3" d="M528.1,649.2c1.4-2.6,0.4-5.8-2.1-7.2l-23.5-12.7c-2.6-1.4-5.8-0.4-7.2,2.1l0,0c-1.4,2.6-0.4,5.8,2.1,7.2
					l23.5,12.7C523.5,652.7,526.7,651.8,528.1,649.2L528.1,649.2z"/>
				<path class="st3" d="M518.9,649.2c-1.4-2.6-0.4-5.8,2.1-7.2l23.5-12.7c2.6-1.4,5.8-0.4,7.2,2.1l0,0c1.4,2.6,0.4,5.8-2.1,7.2
					l-23.5,12.7C523.5,652.7,520.3,651.8,518.9,649.2L518.9,649.2z"/>
			</g>
			<g>
				<path class="st3" d="M518.6,594.5c0-5.8,2.1-10.6,4.8-10.6c2.6,0,4.8,4.7,4.8,10.6c0,3.2-2.4,86.3-2.4,86.3H521
					C521,680.9,518.6,598.3,518.6,594.5z"/>
				<path class="st3" d="M552.6,604.3c-1.8-0.7-4.7,1.7-7.6,5.1c-0.6,0.8-8.1,10.6-21.4,15.6c-13.3-5-20.8-14.7-21.4-15.6
					c-2.9-3.4-5.8-5.8-7.6-5.1c-1.7,0.7-1.4,4.7,1.7,8.6c0.7,1.2,11.1,13.1,27.2,17.5c0,0,0,0,0,0c0,0,0,0,0.1,0c0,0,0,0,0.1,0
					c0,0,0,0,0,0c16.1-4.4,26.5-16.3,27.2-17.5C554,609,554.3,605,552.6,604.3z"/>
			</g>
		</g>
		<g>
			<g>
				<path class="st3" d="M500.9,676.3c-1.5-2.5-4.8-3.3-7.3-1.7l-22.7,14c-2.5,1.5-3.3,4.8-1.7,7.3l0,0c1.5,2.5,4.8,3.3,7.3,1.7
					l22.7-14C501.7,682.1,502.4,678.8,500.9,676.3L500.9,676.3z"/>
				<path class="st3" d="M496.3,684.3c-2.9-0.1-5.3-2.5-5.2-5.5l0.7-26.7c0.1-2.9,2.5-5.3,5.5-5.2l0,0c2.9,0.1,5.3,2.5,5.2,5.5
					l-0.7,26.7C501.7,682,499.3,684.3,496.3,684.3L496.3,684.3z"/>
			</g>
			<g>
				<path class="st3" d="M486.4,667.9c-1.5-2.5-4.8-3.3-7.3-1.7l-22.7,14c-2.5,1.5-3.3,4.8-1.7,7.3l0,0c1.5,2.5,4.8,3.3,7.3,1.7
					l22.7-14C487.2,673.7,487.9,670.4,486.4,667.9L486.4,667.9z"/>
				<path class="st3" d="M481.8,675.9c-2.9-0.1-5.3-2.5-5.2-5.5l0.7-26.7c0.1-2.9,2.5-5.3,5.5-5.2l0,0c2.9,0.1,5.3,2.5,5.2,5.5
					l-0.7,26.7C487.2,673.7,484.8,676,481.8,675.9L481.8,675.9z"/>
			</g>
			<g>
				<path class="st3" d="M434.4,648.8c-5.1-2.9-8.1-7.1-6.8-9.4c1.3-2.3,6.5-1.8,11.5,1.2c2.8,1.6,73.6,45.2,73.6,45.2l-2.4,4.1
					C510.3,689.9,437.6,650.7,434.4,648.8z"/>
				<path class="st3" d="M459.8,624.3c-1.5,1.2-0.9,4.9,0.6,9.1c0.4,0.9,5.1,12.3,2.8,26.3c-10.9,9.1-23.2,10.7-24.2,10.8
					c-4.3,0.8-7.9,2.2-8.2,4c-0.3,1.8,3.3,3.6,8.3,2.8c1.4,0,16.9-3.1,28.8-14.8c0,0,0,0,0.1,0c0,0,0,0,0-0.1c0,0,0,0,0,0
					c0,0,0,0,0,0c4.3-16.1-0.8-31.1-1.5-32.3C464.6,625.4,461.3,623.1,459.8,624.3z"/>
			</g>
		</g>
		<g>
			<g>
				<path class="st3" d="M496.3,705c-2.9,0.1-5.3,2.5-5.2,5.5l0.7,26.7c0.1,2.9,2.5,5.3,5.5,5.2l0,0c2.9-0.1,5.3-2.5,5.2-5.5
					l-0.7-26.7C501.7,707.3,499.2,705,496.3,705L496.3,705z"/>
				<path class="st3" d="M500.9,713c-1.5,2.5-4.8,3.3-7.3,1.7l-22.7-14c-2.5-1.5-3.3-4.8-1.7-7.3l0,0c1.5-2.5,4.8-3.3,7.3-1.7
					l22.7,14C501.7,707.2,502.4,710.5,500.9,713L500.9,713z"/>
			</g>
			<g>
				<path class="st3" d="M481.8,713.4c-2.9,0.1-5.3,2.5-5.2,5.5l0.7,26.7c0.1,2.9,2.5,5.3,5.5,5.2l0,0c2.9-0.1,5.3-2.5,5.2-5.5
					l-0.7-26.7C487.2,715.6,484.8,713.3,481.8,713.4L481.8,713.4z"/>
				<path class="st3" d="M486.4,721.4c-1.5,2.5-4.8,3.3-7.3,1.7l-22.7-14c-2.5-1.5-3.3-4.8-1.7-7.3l0,0c1.5-2.5,4.8-3.3,7.3-1.7
					l22.7,14C487.2,715.6,487.9,718.9,486.4,721.4L486.4,721.4z"/>
			</g>
			<g>
				<path class="st3" d="M439.2,748.9c-5.1,2.9-10.2,3.4-11.5,1.2c-1.3-2.3,1.7-6.5,6.8-9.4c2.8-1.6,76-41.1,76-41.1l2.4,4.1
					C512.8,703.7,442.4,747.1,439.2,748.9z"/>
				<path class="st3" d="M430.7,714.6c0.3,1.9,3.8,3.3,8.2,4c1,0.1,13.2,1.7,24.2,10.8c2.4,14-2.4,25.4-2.8,26.3
					c-1.5,4.2-2.1,7.9-0.6,9.1c1.5,1.2,4.8-1.1,6.6-5.8c0.7-1.3,5.8-16.2,1.5-32.3c0,0,0,0,0,0c0,0,0,0,0,0c0,0,0,0,0-0.1
					c0,0,0,0-0.1,0c-11.8-11.8-27.3-14.8-28.8-14.8C434,711,430.4,712.8,430.7,714.6z"/>
			</g>
		</g>
		<g>
			<g>
				<path class="st3" d="M518.9,723.4c-1.4,2.6-0.4,5.8,2.1,7.2l23.5,12.7c2.6,1.4,5.8,0.4,7.2-2.1l0,0c1.4-2.6,0.4-5.8-2.1-7.2
					l-23.5-12.7C523.5,719.8,520.3,720.8,518.9,723.4L518.9,723.4z"/>
				<path class="st3" d="M528.1,723.4c1.4,2.6,0.4,5.8-2.1,7.2l-23.5,12.7c-2.6,1.4-5.8,0.4-7.2-2.1l0,0c-1.4-2.6-0.4-5.8,2.1-7.2
					l23.5-12.7C523.5,719.8,526.7,720.8,528.1,723.4L528.1,723.4z"/>
			</g>
			<g>
				<path class="st3" d="M518.9,740.1c-1.4,2.6-0.4,5.8,2.1,7.2l23.5,12.7c2.6,1.4,5.8,0.4,7.2-2.1l0,0c1.4-2.6,0.4-5.8-2.1-7.2
					L526.1,738C523.5,736.6,520.3,737.5,518.9,740.1L518.9,740.1z"/>
				<path class="st3" d="M528.1,740.1c1.4,2.6,0.4,5.8-2.1,7.2L502.5,760c-2.6,1.4-5.8,0.4-7.2-2.1l0,0c-1.4-2.6-0.4-5.8,2.1-7.2
					l23.5-12.7C523.5,736.6,526.7,737.5,528.1,740.1L528.1,740.1z"/>
			</g>
			<g>
				<path class="st3" d="M528.3,794.8c0,5.8-2.1,10.6-4.8,10.6c-2.6,0-4.8-4.7-4.8-10.6c0-3.2,2.4-86.3,2.4-86.3l4.8,0
					C526,708.4,528.3,791,528.3,794.8z"/>
				<path class="st3" d="M494.4,785c1.8,0.7,4.7-1.7,7.6-5.1c0.6-0.8,8.1-10.6,21.4-15.6c13.3,5,20.8,14.7,21.4,15.6
					c2.9,3.4,5.8,5.8,7.6,5.1c1.7-0.7,1.4-4.7-1.7-8.6c-0.7-1.2-11.1-13.1-27.2-17.5c0,0,0,0,0,0c0,0,0,0-0.1,0c0,0,0,0-0.1,0
					c0,0,0,0,0,0c-16.1,4.4-26.5,16.3-27.2,17.5C492.9,780.3,492.6,784.3,494.4,785z"/>
			</g>
		</g>
		<g>
			<g>
				<path class="st3" d="M546.1,713c1.5,2.5,4.8,3.3,7.3,1.7l22.7-14c2.5-1.5,3.3-4.8,1.7-7.3l0,0c-1.5-2.5-4.8-3.3-7.3-1.7
					l-22.7,14C545.3,707.2,544.5,710.5,546.1,713L546.1,713z"/>
				<path class="st3" d="M550.7,705c2.9,0.1,5.3,2.5,5.2,5.5l-0.7,26.7c-0.1,2.9-2.5,5.3-5.5,5.2l0,0c-2.9-0.1-5.3-2.5-5.2-5.5
					l0.7-26.7C545.3,707.3,547.7,705,550.7,705L550.7,705z"/>
			</g>
			<g>
				<path class="st3" d="M560.6,721.4c1.5,2.5,4.8,3.3,7.3,1.7l22.7-14c2.5-1.5,3.3-4.8,1.7-7.3l0,0c-1.5-2.5-4.8-3.3-7.3-1.7
					l-22.7,14C559.8,715.6,559,718.9,560.6,721.4L560.6,721.4z"/>
				<path class="st3" d="M565.2,713.4c2.9,0.1,5.3,2.5,5.2,5.5l-0.7,26.7c-0.1,2.9-2.5,5.3-5.5,5.2l0,0c-2.9-0.1-5.3-2.5-5.2-5.5
					l0.7-26.7C559.8,715.6,562.2,713.3,565.2,713.4L565.2,713.4z"/>
			</g>
			<g>
				<path class="st3" d="M612.6,740.5c5.1,2.9,8.1,7.1,6.8,9.4c-1.3,2.3-6.5,1.8-11.5-1.2c-2.8-1.6-73.6-45.2-73.6-45.2l2.4-4.1
					C536.7,699.4,609.4,738.6,612.6,740.5z"/>
				<path class="st3" d="M587.2,765c1.5-1.2,0.9-4.9-0.6-9.1c-0.4-0.9-5.1-12.3-2.8-26.3c10.9-9.1,23.2-10.7,24.2-10.8
					c4.3-0.8,7.9-2.2,8.2-4c0.3-1.8-3.3-3.6-8.3-2.8c-1.4,0-16.9,3.1-28.8,14.8c0,0,0,0-0.1,0c0,0,0,0,0,0.1c0,0,0,0,0,0
					c0,0,0,0,0,0c-4.3,16.1,0.8,31.1,1.5,32.3C582.4,763.9,585.7,766.2,587.2,765z"/>
			</g>
		</g>
		<g>
			<g>
				<path class="st3" d="M550.7,684.3c2.9-0.1,5.3-2.5,5.2-5.5l-0.7-26.7c-0.1-2.9-2.5-5.3-5.5-5.2l0,0c-2.9,0.1-5.3,2.5-5.2,5.5
					l0.7,26.7C545.3,682,547.7,684.4,550.7,684.3L550.7,684.3z"/>
				<path class="st3" d="M546.1,676.3c1.5-2.5,4.8-3.3,7.3-1.7l22.7,14c2.5,1.5,3.3,4.8,1.7,7.3l0,0c-1.5,2.5-4.8,3.3-7.3,1.7
					l-22.7-14C545.3,682.1,544.5,678.8,546.1,676.3L546.1,676.3z"/>
			</g>
			<g>
				<path class="st3" d="M565.2,675.9c2.9-0.1,5.3-2.5,5.2-5.5l-0.7-26.7c-0.1-2.9-2.5-5.3-5.5-5.2l0,0c-2.9,0.1-5.3,2.5-5.2,5.5
					l0.7,26.7C559.8,673.7,562.2,676,565.2,675.9L565.2,675.9z"/>
				<path class="st3" d="M560.6,667.9c1.5-2.5,4.8-3.3,7.3-1.7l22.7,14c2.5,1.5,3.3,4.8,1.7,7.3l0,0c-1.5,2.5-4.8,3.3-7.3,1.7
					l-22.7-14C559.8,673.7,559,670.4,560.6,667.9L560.6,667.9z"/>
			</g>
			<g>
				<path class="st3" d="M607.8,640.4c5.1-2.9,10.2-3.4,11.5-1.2c1.3,2.3-1.7,6.5-6.8,9.4c-2.8,1.6-76,41.1-76,41.1l-2.4-4.1
					C534.2,685.6,604.5,642.3,607.8,640.4z"/>
				<path class="st3" d="M616.3,674.7c-0.3-1.9-3.8-3.3-8.2-4c-1-0.1-13.2-1.7-24.2-10.8c-2.4-14,2.4-25.4,2.8-26.3
					c1.5-4.2,2.1-7.9,0.6-9.1c-1.5-1.2-4.8,1.1-6.6,5.8c-0.7,1.3-5.8,16.2-1.5,32.3c0,0,0,0,0,0c0,0,0,0,0,0c0,0,0,0,0,0.1
					c0,0,0,0,0.1,0c11.8,11.8,27.3,14.8,28.8,14.8C612.9,678.3,616.6,676.6,616.3,674.7z"/>
			</g>
		</g>
	</g>
	<g class="st2">
		<g>
			<g>
				<path class="st3" d="M777.6,841.6c1-1.8,0.3-4-1.5-4.9l-16-8.6c-1.8-1-4-0.3-4.9,1.5l0,0c-1,1.8-0.3,4,1.5,4.9l16,8.6
					C774.5,844,776.7,843.3,777.6,841.6L777.6,841.6z"/>
				<path class="st3" d="M771.4,841.6c-1-1.8-0.3-4,1.5-4.9l16-8.6c1.8-1,4-0.3,4.9,1.5l0,0c1,1.8,0.3,4-1.5,4.9l-16,8.6
					C774.5,844,772.3,843.3,771.4,841.6L771.4,841.6z"/>
			</g>
			<g>
				<path class="st3" d="M777.6,830.2c1-1.8,0.3-4-1.5-4.9l-16-8.6c-1.8-1-4-0.3-4.9,1.5l0,0c-1,1.8-0.3,4,1.5,4.9l16,8.6
					C774.5,832.6,776.7,831.9,777.6,830.2L777.6,830.2z"/>
				<path class="st3" d="M771.4,830.2c-1-1.8-0.3-4,1.5-4.9l16-8.6c1.8-1,4-0.3,4.9,1.5l0,0c1,1.8,0.3,4-1.5,4.9l-16,8.6
					C774.5,832.6,772.3,831.9,771.4,830.2L771.4,830.2z"/>
			</g>
			<g>
				<path class="st3" d="M771.2,793c0-4,1.5-7.2,3.3-7.2c1.8,0,3.3,3.2,3.3,7.2c0,2.2-1.6,58.8-1.6,58.8h-3.3
					C772.8,851.8,771.2,795.5,771.2,793z"/>
				<path class="st3" d="M794.3,799.6c-1.2-0.5-3.2,1.1-5.2,3.4c-0.4,0.6-5.5,7.2-14.6,10.6c-9.1-3.4-14.2-10-14.6-10.6
					c-1.9-2.3-4-3.9-5.2-3.4c-1.2,0.5-1,3.2,1.2,5.9c0.5,0.8,7.6,8.9,18.5,11.9c0,0,0,0,0,0c0,0,0,0,0,0c0,0,0,0,0,0c0,0,0,0,0,0
					c11-3,18-11.1,18.5-11.9C795.3,802.8,795.5,800.1,794.3,799.6z"/>
			</g>
		</g>
		<g>
			<g>
				<path class="st3" d="M759.1,848.7c-1-1.7-3.3-2.2-5-1.2l-15.5,9.5c-1.7,1-2.2,3.3-1.2,5l0,0c1,1.7,3.3,2.2,5,1.2l15.5-9.5
					C759.7,852.6,760.2,850.4,759.1,848.7L759.1,848.7z"/>
				<path class="st3" d="M756,854.1c-2-0.1-3.6-1.7-3.5-3.7l0.5-18.2c0.1-2,1.7-3.6,3.7-3.5l0,0c2,0.1,3.6,1.7,3.5,3.7l-0.5,18.2
					C759.7,852.5,758,854.1,756,854.1L756,854.1z"/>
			</g>
			<g>
				<path class="st3" d="M749.3,843c-1-1.7-3.3-2.2-5-1.2l-15.5,9.5c-1.7,1-2.2,3.3-1.2,5l0,0c1,1.7,3.3,2.2,5,1.2l15.5-9.5
					C749.8,846.9,750.3,844.7,749.3,843L749.3,843z"/>
				<path class="st3" d="M746.1,848.4c-2-0.1-3.6-1.7-3.5-3.7l0.5-18.2c0.1-2,1.7-3.6,3.7-3.5l0,0c2,0.1,3.6,1.7,3.5,3.7l-0.5,18.2
					C749.8,846.9,748.1,848.4,746.1,848.4L746.1,848.4z"/>
			</g>
			<g>
				<path class="st3" d="M713.8,829.9c-3.4-2-5.5-4.9-4.6-6.4c0.9-1.6,4.4-1.2,7.9,0.8c1.9,1.1,50.1,30.8,50.1,30.8l-1.6,2.8
					C765.6,857.9,716,831.2,713.8,829.9z"/>
				<path class="st3" d="M731.2,813.2c-1,0.8-0.6,3.4,0.4,6.2c0.3,0.6,3.5,8.4,1.9,17.9c-7.5,6.2-15.8,7.3-16.5,7.3
					c-3,0.5-5.4,1.5-5.6,2.7c-0.2,1.3,2.3,2.4,5.7,1.9c1,0,11.5-2.1,19.6-10.1c0,0,0,0,0,0c0,0,0,0,0,0c0,0,0,0,0,0c0,0,0,0,0,0
					c2.9-11-0.6-21.1-1-22C734.4,814,732.2,812.4,731.2,813.2z"/>
			</g>
		</g>
		<g>
			<g>
				<path class="st3" d="M756,868.2c-2,0.1-3.6,1.7-3.5,3.7l0.5,18.2c0.1,2,1.7,3.6,3.7,3.5l0,0c2-0.1,3.6-1.7,3.5-3.7l-0.5-18.2
					C759.7,869.7,758,868.2,756,868.2L756,868.2z"/>
				<path class="st3" d="M759.1,873.6c-1,1.7-3.3,2.2-5,1.2l-15.5-9.5c-1.7-1-2.2-3.3-1.2-5l0,0c1-1.7,3.3-2.2,5-1.2l15.5,9.5
					C759.7,869.7,760.2,871.9,759.1,873.6L759.1,873.6z"/>
			</g>
			<g>
				<path class="st3" d="M746.1,873.9c-2,0.1-3.6,1.7-3.5,3.7l0.5,18.2c0.1,2,1.7,3.6,3.7,3.5l0,0c2-0.1,3.6-1.7,3.5-3.7l-0.5-18.2
					C749.8,875.4,748.1,873.9,746.1,873.9L746.1,873.9z"/>
				<path class="st3" d="M749.3,879.3c-1,1.7-3.3,2.2-5,1.2l-15.5-9.5c-1.7-1-2.2-3.3-1.2-5l0,0c1-1.7,3.3-2.2,5-1.2l15.5,9.5
					C749.8,875.4,750.3,877.6,749.3,879.3L749.3,879.3z"/>
			</g>
			<g>
				<path class="st3" d="M717.1,898.1c-3.4,2-7,2.3-7.9,0.8c-0.9-1.6,1.2-4.4,4.6-6.4c1.9-1.1,51.7-28,51.7-28l1.6,2.8
					C767.2,867.3,719.3,896.8,717.1,898.1z"/>
				<path class="st3" d="M711.4,874.7c0.2,1.3,2.6,2.2,5.6,2.7c0.7,0.1,9,1.2,16.5,7.3c1.6,9.5-1.6,17.3-1.9,17.9
					c-1,2.8-1.4,5.4-0.4,6.2c1,0.8,3.2-0.8,4.5-3.9c0.5-0.9,4-11,1-22c0,0,0,0,0,0c0,0,0,0,0,0c0,0,0,0,0,0c0,0,0,0,0,0
					c-8.1-8-18.6-10.1-19.6-10.1C713.6,872.3,711.2,873.5,711.4,874.7z"/>
			</g>
		</g>
		<g>
			<g>
				<path class="st3" d="M771.4,880.7c-1,1.8-0.3,4,1.5,4.9l16,8.6c1.8,1,4,0.3,4.9-1.5l0,0c1-1.8,0.3-4-1.5-4.9l-16-8.6
					C774.5,878.3,772.3,878.9,771.4,880.7L771.4,880.7z"/>
				<path class="st3" d="M777.6,880.7c1,1.8,0.3,4-1.5,4.9l-16,8.6c-1.8,1-4,0.3-4.9-1.5l0,0c-1-1.8-0.3-4,1.5-4.9l16-8.6
					C774.5,878.3,776.7,878.9,777.6,880.7L777.6,880.7z"/>
			</g>
			<g>
				<path class="st3" d="M771.4,892.1c-1,1.8-0.3,4,1.5,4.9l16,8.6c1.8,1,4,0.3,4.9-1.5l0,0c1-1.8,0.3-4-1.5-4.9l-16-8.6
					C774.5,889.7,772.3,890.3,771.4,892.1L771.4,892.1z"/>
				<path class="st3" d="M777.6,892.1c1,1.8,0.3,4-1.5,4.9l-16,8.6c-1.8,1-4,0.3-4.9-1.5l0,0c-1-1.8-0.3-4,1.5-4.9l16-8.6
					C774.5,889.7,776.7,890.3,777.6,892.1L777.6,892.1z"/>
			</g>
			<g>
				<path class="st3" d="M777.8,929.3c0,4-1.5,7.2-3.3,7.2c-1.8,0-3.3-3.2-3.3-7.2c0-2.2,1.6-58.8,1.6-58.8l3.3,0
					C776.2,870.5,777.8,926.8,777.8,929.3z"/>
				<path class="st3" d="M754.7,922.6c1.2,0.5,3.2-1.1,5.2-3.4c0.4-0.6,5.5-7.2,14.6-10.6c9.1,3.4,14.2,10,14.6,10.6
					c1.9,2.3,4,3.9,5.2,3.4c1.2-0.5,1-3.2-1.2-5.9c-0.5-0.8-7.6-8.9-18.5-11.9c0,0,0,0,0,0c0,0,0,0,0,0c0,0,0,0,0,0c0,0,0,0,0,0
					c-11,3-18,11.1-18.5,11.9C753.7,919.4,753.5,922.2,754.7,922.6z"/>
			</g>
		</g>
		<g>
			<g>
				<path class="st3" d="M789.9,873.6c1,1.7,3.3,2.2,5,1.2l15.5-9.5c1.7-1,2.2-3.3,1.2-5l0,0c-1-1.7-3.3-2.2-5-1.2l-15.5,9.5
					C789.4,869.7,788.8,871.9,789.9,873.6L789.9,873.6z"/>
				<path class="st3" d="M793,868.2c2,0.1,3.6,1.7,3.5,3.7l-0.5,18.2c-0.1,2-1.7,3.6-3.7,3.5l0,0c-2-0.1-3.6-1.7-3.5-3.7l0.5-18.2
					C789.4,869.7,791,868.2,793,868.2L793,868.2z"/>
			</g>
			<g>
				<path class="st3" d="M799.8,879.3c1,1.7,3.3,2.2,5,1.2l15.5-9.5c1.7-1,2.2-3.3,1.2-5l0,0c-1-1.7-3.3-2.2-5-1.2l-15.5,9.5
					C799.2,875.4,798.7,877.6,799.8,879.3L799.8,879.3z"/>
				<path class="st3" d="M802.9,873.9c2,0.1,3.6,1.7,3.5,3.7l-0.5,18.2c-0.1,2-1.7,3.6-3.7,3.5l0,0c-2-0.1-3.6-1.7-3.5-3.7l0.5-18.2
					C799.2,875.4,800.9,873.9,802.9,873.9L802.9,873.9z"/>
			</g>
			<g>
				<path class="st3" d="M835.2,892.4c3.4,2,5.5,4.9,4.6,6.4c-0.9,1.6-4.4,1.2-7.9-0.8c-1.9-1.1-50.1-30.8-50.1-30.8l1.6-2.8
					C783.5,864.4,833,891.1,835.2,892.4z"/>
				<path class="st3" d="M817.9,909.1c1-0.8,0.6-3.4-0.4-6.2c-0.3-0.6-3.5-8.4-1.9-17.9c7.5-6.2,15.8-7.3,16.5-7.3
					c3-0.5,5.4-1.5,5.6-2.7c0.2-1.3-2.3-2.4-5.7-1.9c-1,0-11.5,2.1-19.6,10.1c0,0,0,0,0,0c0,0,0,0,0,0c0,0,0,0,0,0c0,0,0,0,0,0
					c-2.9,11,0.6,21.1,1,22C814.6,908.3,816.9,909.8,817.9,909.1z"/>
			</g>
		</g>
		<g>
			<g>
				<path class="st3" d="M793,854.1c2-0.1,3.6-1.7,3.5-3.7l-0.5-18.2c-0.1-2-1.7-3.6-3.7-3.5l0,0c-2,0.1-3.6,1.7-3.5,3.7l0.5,18.2
					C789.4,852.5,791,854.1,793,854.1L793,854.1z"/>
				<path class="st3" d="M789.9,848.7c1-1.7,3.3-2.2,5-1.2l15.5,9.5c1.7,1,2.2,3.3,1.2,5l0,0c-1,1.7-3.3,2.2-5,1.2l-15.5-9.5
					C789.4,852.6,788.8,850.4,789.9,848.7L789.9,848.7z"/>
			</g>
			<g>
				<path class="st3" d="M802.9,848.4c2-0.1,3.6-1.7,3.5-3.7l-0.5-18.2c-0.1-2-1.7-3.6-3.7-3.5l0,0c-2,0.1-3.6,1.7-3.5,3.7l0.5,18.2
					C799.2,846.9,800.9,848.4,802.9,848.4L802.9,848.4z"/>
				<path class="st3" d="M799.8,843c1-1.7,3.3-2.2,5-1.2l15.5,9.5c1.7,1,2.2,3.3,1.2,5l0,0c-1,1.7-3.3,2.2-5,1.2l-15.5-9.5
					C799.2,846.9,798.7,844.7,799.8,843L799.8,843z"/>
			</g>
			<g>
				<path class="st3" d="M831.9,824.2c3.4-2,7-2.3,7.9-0.8c0.9,1.6-1.2,4.4-4.6,6.4c-1.9,1.1-51.7,28-51.7,28l-1.6-2.8
					C781.8,855,829.7,825.5,831.9,824.2z"/>
				<path class="st3" d="M837.7,847.6c-0.2-1.3-2.6-2.2-5.6-2.7c-0.7-0.1-9-1.2-16.5-7.3c-1.6-9.5,1.6-17.3,1.9-17.9
					c1-2.8,1.4-5.4,0.4-6.2c-1-0.8-3.2,0.8-4.5,3.9c-0.5,0.9-4,11-1,22c0,0,0,0,0,0c0,0,0,0,0,0c0,0,0,0,0,0c0,0,0,0,0,0
					c8.1,8,18.6,10.1,19.6,10.1C835.4,850,837.9,848.8,837.7,847.6z"/>
			</g>
		</g>
	</g>
</g>
<g id="Layer_1">
	<g>
		<path class="st4" d="M167.1,339.4c-1.7,7.2-14.2,10.3-26.3,7.4c-12.2-2.9-17-10.2-15.3-17.3c1.7-7.2,9.3-11.5,21.5-8.6
			S168.8,332.3,167.1,339.4z"/>
		<path class="st4" d="M69.1,339.4c1.7,7.2,14.2,10.3,26.3,7.4c12.2-2.9,17-10.2,15.3-17.3c-1.7-7.2-9.3-11.5-21.5-8.6
			S67.4,332.3,69.1,339.4z"/>
		<path class="st5" d="M199.8,256.4c0,59.1-38.1,77.6-82,77.6s-81.4-18.5-81.4-77.6s37.5-105.8,81.4-105.8S199.8,197.3,199.8,256.4z
			"/>
		<path class="st3" d="M117.8,318.3c-20.6,0-36.5-4.4-47.3-13.2c-12.4-10-18.4-26-18.4-48.8c0-25,6.2-52.3,22.5-68.3
			c14.9-14.7,43.3,5.7,43.3,5.7s28.7-20,43.7-5.6c16.5,15.9,22.7,43.3,22.7,68.3c0,22.7-6.1,38.7-18.7,48.7
			C154.5,313.9,138.5,318.3,117.8,318.3z"/>
		<path class="st6" d="M134.4,217.8c0-3.3-7.3-6-16.3-6s-16.3,2.7-16.3,6c0,3.3,7.3,12.8,16.3,12.8S134.4,221.1,134.4,217.8z"/>
		<ellipse class="st4" cx="118.1" cy="217.8" rx="16.3" ry="6"/>
		<circle class="st5" cx="93.1" cy="205" r="4.2"/>
		<circle class="st5" cx="143.1" cy="205" r="4.2"/>
		<path class="st5" d="M45.7,217.2c0,0-33.3,30.3-35.7,48.3c-2.4,18,9.2,24.4,16.9,19.4c7.7-5,22.7-26.1,22.7-26.1L45.7,217.2z"/>
		<path class="st5" d="M190.5,217.2c0,0,33.3,30.3,35.7,48.3c2.4,18-9.2,24.4-16.9,19.4c-7.7-5-22.7-26.1-22.7-26.1L190.5,217.2z"/>
	</g>
	<g class="st0">
		<path class="st7" d="M822.7,301c-1.7,7.2-14.2,10.3-26.3,7.4s-17-10.2-15.3-17.3s9.3-11.5,21.5-8.6
			C814.7,285.4,824.4,293.8,822.7,301z"/>
		<path class="st7" d="M724.6,301c1.7,7.2,14.2,10.3,26.3,7.4s17-10.2,15.3-17.3s-9.3-11.5-21.5-8.6
			C732.6,285.4,722.9,293.8,724.6,301z"/>
		<path class="st8" d="M855.4,217.9c0,59.1-38.1,77.6-82,77.6s-81.4-18.5-81.4-77.6s37.5-105.8,81.4-105.8S855.4,158.8,855.4,217.9z
			"/>
		<path class="st9" d="M773.3,279.9c-20.6,0-36.5-4.4-47.3-13.2c-12.4-10-18.4-26-18.4-48.8c0-25,6.2-52.3,22.5-68.3
			c14.9-14.7,43.3,5.7,43.3,5.7s28.7-20,43.7-5.6c16.5,15.9,22.7,43.3,22.7,68.3c0,22.7-6.1,38.7-18.7,48.7
			C810.1,275.4,794,279.9,773.3,279.9z"/>
		<path class="st10" d="M790,179.4c0-3.3-7.3-6-16.3-6c-9,0-16.3,2.7-16.3,6s7.3,12.8,16.3,12.8C782.7,192.2,790,182.7,790,179.4z"
			/>
		<ellipse class="st7" cx="773.7" cy="179.4" rx="16.3" ry="6"/>
		<circle class="st8" cx="748.6" cy="166.6" r="4.2"/>
		<circle class="st8" cx="798.7" cy="166.6" r="4.2"/>
		<path class="st8" d="M702.7,182.4c0,0-36,0.5-49.8,12.2c-13.8,11.8-9.4,24.4-0.3,25.8c9.1,1.4,43.3-4.3,43.3-4.3L702.7,182.4z"/>
		<path class="st8" d="M844,182.4c0,0,36,0.5,49.8,12.2c13.8,11.8,9.4,24.4,0.3,25.8c-9.1,1.4-43.3-4.3-43.3-4.3L844,182.4z"/>
	</g>
	<g>
		<path class="st4" d="M376.1,339.4c-1.7,7.2-14.2,10.3-26.3,7.4c-12.2-2.9-17-10.2-15.3-17.3c1.7-7.2,9.3-11.5,21.5-8.6
			C368.1,323.8,377.8,332.3,376.1,339.4z"/>
		<path class="st4" d="M278.1,339.4c1.7,7.2,14.2,10.3,26.3,7.4c12.2-2.9,17-10.2,15.3-17.3c-1.7-7.2-9.3-11.5-21.5-8.6
			C286,323.8,276.4,332.3,278.1,339.4z"/>
		<path class="st5" d="M408.8,256.4c0,59.1-38.1,77.6-82,77.6s-81.4-18.5-81.4-77.6s37.5-105.8,81.4-105.8S408.8,197.3,408.8,256.4z
			"/>
		<path class="st3" d="M326.8,318.3c-20.6,0-36.5-4.4-47.3-13.2c-12.4-10-18.4-26-18.4-48.8c0-25,6.2-52.3,22.5-68.3
			c14.9-14.7,43.3,5.7,43.3,5.7s28.7-20,43.7-5.6c16.5,15.9,22.7,43.3,22.7,68.3c0,22.7-6.1,38.7-18.7,48.7
			C363.5,313.9,347.5,318.3,326.8,318.3z"/>
		<path class="st6" d="M343.4,217.8c0-3.3-7.3-6-16.3-6s-16.3,2.7-16.3,6c0,3.3,7.3,12.8,16.3,12.8S343.4,221.1,343.4,217.8z"/>
		<ellipse class="st4" cx="327.1" cy="217.8" rx="16.3" ry="6"/>
		<circle class="st5" cx="302.1" cy="205" r="4.2"/>
		<circle class="st5" cx="352.1" cy="205" r="4.2"/>
		<path class="st5" d="M254.7,217.2c0,0-33.3,30.3-35.7,48.3c-2.4,18,9.2,24.4,16.9,19.4c7.7-5,22.7-26.1,22.7-26.1L254.7,217.2z"/>
		<path class="st5" d="M399.5,265.6c0,0,33.3-30.3,35.7-48.3s-9.2-24.4-16.9-19.4c-7.7,5-22.7,26.1-22.7,26.1L399.5,265.6z"/>
		<ellipse class="st11" cx="292.1" cy="221.3" rx="12.1" ry="6.4"/>
		<ellipse class="st11" cx="362.1" cy="221.3" rx="12.1" ry="6.4"/>
	</g>
	<g class="st0">
		<path class="st7" d="M547.8,922.9c-1.7,7.2-14.2,10.3-26.3,7.4c-12.2-2.9-17-10.2-15.3-17.3s9.3-11.5,21.5-8.6
			C539.8,907.4,549.5,915.8,547.8,922.9z"/>
		<path class="st7" d="M449.8,922.9c1.7,7.2,14.2,10.3,26.3,7.4c12.2-2.9,17-10.2,15.3-17.3s-9.3-11.5-21.5-8.6
			C457.8,907.4,448.1,915.8,449.8,922.9z"/>
		<path class="st8" d="M580.5,839.9c0,59.1-38.1,77.6-82,77.6s-81.4-18.5-81.4-77.6s37.5-105.8,81.4-105.8S580.5,780.8,580.5,839.9z
			"/>
		<path class="st9" d="M498.5,901.8c-20.6,0-36.5-4.4-47.3-13.2c-12.4-10-18.4-26-18.4-48.8c0-25,6.2-52.3,22.5-68.3
			c14.9-14.7,43.3,5.7,43.3,5.7s28.7-20,43.7-5.6c16.5,15.9,22.7,43.3,22.7,68.3c0,22.7-6.1,38.7-18.7,48.7
			C535.2,897.4,519.2,901.8,498.5,901.8z"/>
		<path class="st10" d="M515.1,801.3c0-3.3-7.3-6-16.3-6s-16.3,2.7-16.3,6c0,3.3,7.3,12.8,16.3,12.8S515.1,804.6,515.1,801.3z"/>
		<ellipse class="st7" cx="498.8" cy="801.3" rx="16.3" ry="6"/>
		<circle class="st8" cx="473.8" cy="788.5" r="4.2"/>
		<circle class="st8" cx="523.8" cy="788.5" r="4.2"/>
		<path class="st8" d="M426.4,844.1c0,0-33.3-30.3-35.7-48.3c-2.4-18,9.2-24.4,16.9-19.4c7.7,5,22.7,26.1,22.7,26.1L426.4,844.1z"/>
		<path class="st8" d="M571.2,849.1c0,0,33.3-30.3,35.7-48.3c2.4-18-9.2-24.4-16.9-19.4c-7.7,5-22.7,26.1-22.7,26.1L571.2,849.1z"/>
		<ellipse class="st12" cx="463.8" cy="804.8" rx="12.1" ry="6.4"/>
		<ellipse class="st12" cx="533.8" cy="804.8" rx="12.1" ry="6.4"/>
	</g>
	<g class="st0">
		<path class="st7" d="M756.3,695.7c-1.7,7.2-14.2,10.3-26.3,7.4c-12.2-2.9-17-10.2-15.3-17.3s9.3-11.5,21.5-8.6
			S758,688.5,756.3,695.7z"/>
		<path class="st7" d="M658.2,695.7c1.7,7.2,14.2,10.3,26.3,7.4c12.2-2.9,17-10.2,15.3-17.3s-9.3-11.5-21.5-8.6
			S656.5,688.5,658.2,695.7z"/>
		<path class="st8" d="M789,612.6c0,59.1-38.1,77.6-82,77.6s-81.4-18.5-81.4-77.6S663,506.8,707,506.8S789,553.5,789,612.6z"/>
		<path class="st9" d="M707,674.6c-20.6,0-36.5-4.4-47.3-13.2c-12.4-10-18.4-26-18.4-48.8c0-25,6.2-52.3,22.5-68.3
			c14.9-14.7,43.3,5.7,43.3,5.7s28.7-20,43.7-5.6c16.5,15.9,22.7,43.3,22.7,68.3c0,22.7-6.1,38.7-18.7,48.7
			C743.7,670.1,727.7,674.6,707,674.6z"/>
		<path class="st10" d="M723.6,574.1c0-3.3-7.3-6-16.3-6c-9,0-16.3,2.7-16.3,6c0,3.3,7.3,12.8,16.3,12.8
			C716.3,586.9,723.6,577.3,723.6,574.1z"/>
		<ellipse class="st7" cx="707.3" cy="574.1" rx="16.3" ry="6"/>
		<circle class="st8" cx="682.2" cy="561.2" r="4.2"/>
		<circle class="st8" cx="732.3" cy="561.2" r="4.2"/>
		<path class="st8" d="M634.9,573.4c0,0-33.3,30.3-35.7,48.3c-2.4,18,9.2,24.4,16.9,19.4s22.7-26.1,22.7-26.1L634.9,573.4z"/>
		<ellipse class="st12" cx="672.3" cy="577.5" rx="12.1" ry="6.4"/>
		<ellipse class="st12" cx="742.3" cy="577.5" rx="12.1" ry="6.4"/>
		<path class="st8" d="M777.7,579.4c0,0,36,0.5,49.8,12.2c13.8,11.8,9.4,24.4,0.3,25.8c-9.1,1.4-43.3-4.3-43.3-4.3L777.7,579.4z"/>
		<g class="st13">
			<path class="st14" d="M776.2,530.9c-4.5-28.4-27.7-51.2-57.6-53.9c-29.9-2.7-56.9,15.6-66.3,42.7L776.2,530.9z"/>
			<path class="st15" d="M778.4,557.4l-132.9-11.9c-3.2-0.3-5.6-3.1-5.3-6.3l1.3-14.5c0.3-3.2,3.1-5.6,6.3-5.3l132.9,11.9
				c3.2,0.3,5.6,3.1,5.3,6.3l-1.3,14.5C784.4,555.3,781.6,557.7,778.4,557.4z"/>
			<path class="st16" d="M706.5,524.6l69.8,6.3c-0.4-2.6-1-5.2-1.7-7.7L706.5,524.6z"/>
		</g>
	</g>
	<g class="st0">
		<path class="st17" d="M697.1,183.8L697.1,183.8c-5-1.2-8.1-6.2-6.9-11.1l6-26c1.2-5,6.2-8.1,11.1-6.9l0,0c5,1.2,8.1,6.2,6.9,11.1
			l-6,26C707,181.8,702,184.9,697.1,183.8z"/>
		<path class="st17" d="M849.3,183.8L849.3,183.8c5-1.2,8.1-6.2,6.9-11.1l-6-26c-1.2-5-6.2-8.1-11.1-6.9l0,0
			c-5,1.2-8.1,6.2-6.9,11.1l6,26C839.4,181.8,844.4,184.9,849.3,183.8z"/>
		<path class="st17" d="M709.8,155.1c4.5-31.1,31.2-55,63.5-55c32.3,0,59.1,23.9,63.5,55h6c-4.5-34.4-34-61-69.6-61
			c-35.6,0-65.1,26.6-69.6,61H709.8z"/>
	</g>
	<g class="st0">
		<path class="st7" d="M178.2,905.9c-1.7,7.2-14.2,10.3-26.3,7.4c-12.2-2.9-17-10.2-15.3-17.3s9.3-11.5,21.5-8.6
			C170.2,890.3,179.9,898.7,178.2,905.9z"/>
		<path class="st7" d="M80.2,905.9c1.7,7.2,14.2,10.3,26.3,7.4c12.2-2.9,17-10.2,15.3-17.3s-9.3-11.5-21.5-8.6
			C88.1,890.3,78.5,898.7,80.2,905.9z"/>
		<path class="st8" d="M210.9,822.8c0,59.1-38.1,77.6-82,77.6s-81.4-18.5-81.4-77.6s37.5-105.8,81.4-105.8S210.9,763.7,210.9,822.8z
			"/>
		<path class="st9" d="M128.9,884.8c-20.6,0-36.5-4.4-47.3-13.2c-12.4-10-18.4-26-18.4-48.8c0-25,6.2-52.3,22.5-68.3
			c14.9-14.7,43.3,5.7,43.3,5.7s28.7-20,43.7-5.6c16.5,15.9,22.7,43.3,22.7,68.3c0,22.7-6.1,38.7-18.7,48.7
			C165.6,880.3,149.6,884.8,128.9,884.8z"/>
		<path class="st10" d="M145.5,784.3c0-3.3-7.3-6-16.3-6s-16.3,2.7-16.3,6c0,3.3,7.3,12.8,16.3,12.8S145.5,787.6,145.5,784.3z"/>
		<ellipse class="st7" cx="129.2" cy="784.3" rx="16.3" ry="6"/>
		<circle class="st8" cx="104.2" cy="771.5" r="4.2"/>
		<circle class="st8" cx="154.2" cy="771.5" r="4.2"/>
		<path class="st8" d="M58.2,787.3c0,0-36,0.5-49.8,12.2s-9.4,24.4-0.3,25.8c9.1,1.4,43.3-4.3,43.3-4.3L58.2,787.3z"/>
		<path class="st8" d="M199.5,787.3c0,0,36,0.5,49.8,12.2s9.4,24.4,0.3,25.8c-9.1,1.4-43.3-4.3-43.3-4.3L199.5,787.3z"/>
		<path class="st18" d="M82.7,814.6c-1.5,0-5.5,16.8-5.8,17.8c-1.3,5.8-2,11.8-2,17.7c0,3,0.2,6.1,0.6,9.1c0.4,2.8,0.8,4.5,4.1,4.3
			c4.3-0.3,8.6-0.8,12.8-1.2c3.1-0.3,3-2.5,2.2-5.1c-1.9-6.4-2-13.3-1.9-19.9c0.1-3.8,0.4-7.7,1.3-11.5c0.3-1.4,2.2-9.9,4.1-9.7
			C98.2,816.2,82.7,814.6,82.7,814.6z"/>
		<path class="st19" d="M97.5,816.2c0,0-0.7,20.6-0.7,22.2c-0.2,10.8,2.3,21.1,6.6,30.9c0.8,1.8,2,3.6,3.9,4.2
			c1.3,0.4,2.6,0.2,3.9,0.1c2.8-0.4,5.7-0.8,8.5-1.1c1.5-0.2,3-0.4,4.2-1.3c2.9-2.2,1.4-5.8-0.1-8.3c-2.7-4.5-5.4-9-7.3-13.9
			c-3.8-9.7-2.5-20.5-2.5-30.7L97.5,816.2z"/>
		<path class="st19" d="M210,791.1c0-3.4-3.4-5.8-6.6-4.7c-22.3,8.2-49.3,13-78.5,13c-26.3,0-50.9-3.9-71.8-10.7
			c-3.2-1-6.5,1.4-6.5,4.7V804c0,2.2,1.4,4.1,3.5,4.7c22.6,6.9,48.3,10.7,74.8,10.7c29.3,0,57.5-4.5,81.8-12.9
			c2-0.7,3.4-2.6,3.4-4.7V791.1z"/>
	</g>
	<g class="st0">
		<path class="st20" d="M52.6,788.7L52.6,788.7c-5-1.2-8.1-6.2-6.9-11.1l6-26c1.2-5,6.2-8.1,11.1-6.9l0,0c5,1.2,8.1,6.2,6.9,11.1
			l-6,26C62.6,786.7,57.6,789.8,52.6,788.7z"/>
		<path class="st20" d="M204.8,788.7L204.8,788.7c5-1.2,8.1-6.2,6.9-11.1l-6-26c-1.2-5-6.2-8.1-11.1-6.9l0,0
			c-5,1.2-8.1,6.2-6.9,11.1l6,26C194.9,786.7,199.9,789.8,204.8,788.7z"/>
		<path class="st20" d="M65.3,760c4.5-31.1,31.2-55,63.5-55c32.3,0,59.1,23.9,63.5,55h6c-4.5-34.4-34-61-69.6-61
			c-35.6,0-65.1,26.6-69.6,61H65.3z"/>
	</g>
	<g class="st0">
		<g class="st13">
			<path class="st4" d="M326.3,639.8c-1.7,7.2-14.2,10.3-26.3,7.4s-17-10.2-15.3-17.3s9.3-11.5,21.5-8.6
				C318.3,624.2,328,632.6,326.3,639.8z"/>
			<path class="st4" d="M228.2,639.8c1.7,7.2,14.2,10.3,26.3,7.4c12.2-2.9,17-10.2,15.3-17.3s-9.3-11.5-21.5-8.6
				C236.2,624.2,226.5,632.6,228.2,639.8z"/>
			<path class="st5" d="M359,556.7c0,59.1-38.1,77.6-82,77.6s-81.4-18.5-81.4-77.6S233,451,277,451S359,497.6,359,556.7z"/>
			<path class="st3" d="M277,618.7c-20.6,0-36.5-4.4-47.3-13.2c-12.4-10-18.4-26-18.4-48.8c0-25,6.2-52.3,22.5-68.3
				c14.9-14.7,43.3,5.7,43.3,5.7s28.7-20,43.7-5.6c16.5,15.9,22.7,43.3,22.7,68.3c0,22.7-6.1,38.7-18.7,48.7
				C313.7,614.2,297.7,618.7,277,618.7z"/>
			<path class="st6" d="M293.6,518.2c0-3.3-7.3-6-16.3-6s-16.3,2.7-16.3,6c0,3.3,7.3,12.8,16.3,12.8S293.6,521.5,293.6,518.2z"/>
			<ellipse class="st4" cx="277.3" cy="518.2" rx="16.3" ry="6"/>
			<circle class="st5" cx="252.2" cy="505.4" r="4.2"/>
			<circle class="st5" cx="302.3" cy="505.4" r="4.2"/>
			<path class="st5" d="M204.9,517.6c0,0-33.3,30.3-35.7,48.3c-2.4,18,9.2,24.4,16.9,19.4c7.7-5,22.7-26.1,22.7-26.1L204.9,517.6z"
				/>
			<path class="st5" d="M349.7,517.6c0,0,33.3,30.3,35.7,48.3c2.4,18-9.2,24.4-16.9,19.4c-7.7-5-22.7-26.1-22.7-26.1L349.7,517.6z"
				/>
		</g>
		<path class="st21" d="M231.7,548.6c-1.5,0-5.5,16.8-5.8,17.8c-1.3,5.8-2,11.8-2,17.7c0,3,0.2,6.1,0.6,9.1c0.4,2.8,0.8,4.5,4.1,4.3
			c4.3-0.3,8.6-0.8,12.8-1.2c3.1-0.3,3-2.5,2.2-5.1c-1.9-6.4-2-13.3-1.9-19.9c0.1-3.8,0.4-7.7,1.3-11.5c0.3-1.4,2.2-9.9,4.1-9.7
			C247.2,550.1,231.8,548.6,231.7,548.6z"/>
		<path class="st22" d="M246.5,550.1c0,0-0.7,20.6-0.7,22.2c-0.2,10.8,2.3,21.1,6.6,30.9c0.8,1.8,2,3.6,3.9,4.2
			c1.3,0.4,2.6,0.2,3.9,0.1c2.8-0.4,5.7-0.8,8.5-1.1c1.5-0.2,3-0.4,4.2-1.3c2.9-2.2,1.4-5.8-0.1-8.3c-2.7-4.5-5.4-9-7.3-13.9
			c-3.8-9.7-2.5-20.5-2.5-30.7L246.5,550.1z"/>
		<path class="st23" d="M359,525.1c0-3.4-3.4-5.8-6.6-4.7c-22.3,8.2-49.3,13-78.5,13c-26.3,0-50.9-3.9-71.8-10.7
			c-3.2-1-6.5,1.4-6.5,4.7V538c0,2.2,1.4,4.1,3.5,4.7c22.6,6.9,48.3,10.7,74.8,10.7c29.3,0,57.5-4.5,81.8-12.9
			c2-0.7,3.4-2.6,3.4-4.7V525.1z"/>
		<path class="st24" d="M218.7,547.8c3.1,0.6,6.2,1.2,9.3,1.8v-20.3c-3.2-0.6-6.3-1.2-9.3-1.9V547.8z"/>
		<path class="st25" d="M231.5,550.1c5.4,0.9,10.9,1.5,16.5,2.1v-20.1c-5.6-0.6-11.2-1.3-16.5-2.2V550.1z"/>
		<path class="st24" d="M331.5,547.3c4.9-1.1,9.7-2.3,14.3-3.7v-20.9c-4.6,1.5-9.4,2.9-14.3,4.1V547.3z"/>
		<path class="st26" d="M323.5,548.9c1.8-0.3,3.6-0.7,5.3-1.1v-20.5c-1.8,0.4-3.5,0.8-5.3,1.2V548.9z"/>
		<g class="st13">
			<path class="st27" d="M333.3,461.1c-9.8-27-37-44.9-66.9-41.8c-29.9,3.1-52.8,26.2-56.9,54.7L333.3,461.1z"/>
			<path class="st28" d="M340.5,486.8l-132.7,13.8c-3.2,0.3-6.1-2-6.4-5.2l-1.5-14.5c-0.3-3.2,2-6.1,5.2-6.4l132.7-13.8
				c3.2-0.3,6.1,2,6.4,5.2l1.5,14.5C346,483.6,343.7,486.4,340.5,486.8z"/>
			<path class="st16" d="M263.7,468.3l69.7-7.2c-0.9-2.5-2-4.9-3.1-7.2L263.7,468.3z"/>
			<circle class="st3" cx="265.9" cy="414.3" r="11.4"/>
		</g>
	</g>
	<g class="st0">
		<g class="st13">
			<path class="st29" d="M539.4,748.5l-8.8-19.9c-2.7-6.1-11.3-6.5-14.5-0.6l-5.3,9.7c-2.4,4.4-0.3,9.8,4.4,11.5l20,7.1L539.4,748.5
				z"/>
			<path class="st29" d="M537.1,747.3l21.5-3.3c6.6-1,11.5,6,8.3,11.9l-5.3,9.7c-2.4,4.4-8.1,5.6-12.1,2.5l-16.7-13L537.1,747.3z"/>
		</g>
		<path class="st30" d="M533.8,757.6l-1.3-0.7c-1.9-1-2.6-3.4-1.6-5.3l3.7-6.7c1-1.9,3.4-2.6,5.3-1.6l1.3,0.7c1.9,1,2.6,3.4,1.6,5.3
			l-3.7,6.7C538.1,757.9,535.7,758.6,533.8,757.6z"/>
	</g>
	<path class="st31" d="M252.1,147.9c-4.9,0-9,3.8-9.3,8.6l0,0v-0.4l0,0c-0.4-4.8-4.4-8.6-9.3-8.6c-5.2,0-9.4,4.2-9.4,9.4
		c0,2.9,1.3,5.5,3.4,7.2l15.4,15.1l0,0l15.4-14.7c2.1-1.7,3.4-4.3,3.4-7.2C261.5,152.1,257.3,147.9,252.1,147.9z"/>
	<path class="st31" d="M209.6,81.8c-6.9,0-12.6,5.4-13.1,12.2l-0.1,0v-0.6l-0.1,0c-0.5-6.8-6.2-12.2-13.1-12.2
		c-7.3,0-13.2,5.9-13.2,13.2c0,4.1,1.9,7.7,4.8,10.1l21.6,21.2l0,0l21.6-20.7c2.9-2.4,4.8-6.1,4.8-10.1
		C222.8,87.7,216.9,81.8,209.6,81.8z"/>
	<path class="st31" d="M268,103.8c-3.5,0-6.3,2.7-6.6,6.1l0,0v-0.3l0,0c-0.3-3.4-3.1-6.1-6.6-6.1c-3.6,0-6.6,3-6.6,6.6
		c0,2,0.9,3.9,2.4,5.1l10.8,10.6l0,0l10.8-10.3c1.5-1.2,2.4-3,2.4-5.1C274.6,106.8,271.6,103.8,268,103.8z"/>
	<path class="st31" d="M257,8.8c-7.5,0-13.6,5.8-14.2,13.1l-0.1,0v-0.6l-0.1,0c-0.6-7.3-6.7-13.1-14.2-13.1
		c-7.9,0-14.2,6.4-14.2,14.2c0,4.4,2,8.3,5.1,11l23.4,22.9l0,0L266.1,34c3.1-2.6,5.1-6.5,5.1-11C271.2,15.1,264.8,8.8,257,8.8z"/>
</g>
</svg>
