<svg id="Layer_1" data-name="Layer 1" xmlns="http://www.w3.org/2000/svg" viewBox="0 0 2473.17 1366.02"><defs><style>.cls-1{fill:#fca20e;}.cls-2{fill:#ff6665;}.cls-3{fill:#ff279c;}.cls-4{fill:#ff489a;}.cls-5{fill:#f7f7dc;}.cls-6{fill:#233342;}.cls-7{fill:#65c8d0;}.cls-8{fill:#5bb8ff;}.cls-9{fill:#6970ff;}</style></defs><path class="cls-1" d="M1596.28,2266.35c-16.81,8-26.16,15.86-27.72,19.34,2,2.88,13.23,7.68,27.72,7.68s25.71-4.8,27.71-7.68C1622.44,2282.21,1613.09,2274.37,1596.28,2266.35Z" transform="translate(-1073.12 -1835.96)"/><polygon class="cls-2" points="363.81 121.36 523.15 181.19 682.5 121.36 766.63 89.76 523.15 21.35 279.68 89.76 363.8 121.36 363.81 121.36"/><path class="cls-2" d="M1600,2038.15l-.43.15-.27.09a12,12,0,0,1-1.32.3,1.75,1.75,0,0,1-.24,0,11.61,11.61,0,0,1-1.42.11,11,11,0,0,1-1.42-.11,1.57,1.57,0,0,1-.24,0,10.8,10.8,0,0,1-1.34-.31l-.26-.08c-.14-.06-.29-.09-.42-.15l-154.31-57.93L1391,2073.67c42.16,25.77,154.76,39.77,205.28,39.77s163.12-14,205.28-39.77l-47.3-93.45Z" transform="translate(-1073.12 -1835.96)"/><path class="cls-1" d="M2038.15,2982.17l-.09,0c-15.5-4-31.25-13.42-44.34-26.76-11.39-11.65-19.48-25.14-23.54-38.87a91.87,91.87,0,0,1-54.08,17.73c-22.91,0-43-8.94-56.21-24.29-13.52,45.23-5.57,109.08,21.65,163.37a59.81,59.81,0,0,0,84,24.45c45.79-27.25,81.22-70.48,94.21-113.64-1.69.16-3.43.24-5.19.24A65.94,65.94,0,0,1,2038.15,2982.17Z" transform="translate(-1073.12 -1835.96)"/><path class="cls-3" d="M1922.06,2734.29c9.79,8.22,20.42,12.4,31.59,12.4,50.3,0,101.41-79.66,101.41-124.17,0-26.39-8.44-56-23.16-81.25-10.78-18.52-21.27-28.49-28.25-32.46-5.32,10.53-14.44,24.44-26,42C1941.3,2606.33,1880.41,2699.25,1922.06,2734.29Z" transform="translate(-1073.12 -1835.96)"/><path class="cls-4" d="M1238.91,2746.69c11.17,0,21.8-4.18,31.59-12.4,41.65-35-19.26-128-55.64-183.48-11.51-17.56-20.63-31.47-26-42-7,4-17.46,13.94-28.26,32.46-14.72,25.25-23.15,54.86-23.15,81.25,0,22.26,12.78,53.3,31.85,78.77S1213.75,2746.69,1238.91,2746.69Z" transform="translate(-1073.12 -1835.96)"/><path class="cls-1" d="M1332.65,2910a67.92,67.92,0,0,1-24.47,17.89,79,79,0,0,1-31.74,6.4,91.92,91.92,0,0,1-54.08-17.73c-4.06,13.73-12.13,27.24-23.54,38.87-13.07,13.35-28.83,22.73-44.33,26.76l-.08,0a65.94,65.94,0,0,1-16.41,2.2c-1.76,0-3.5-.08-5.21-.24,13,43.16,48.42,86.39,94.23,113.64a59.81,59.81,0,0,0,84-24.45C1338.22,3019,1346.19,2955.18,1332.65,2910Z" transform="translate(-1073.12 -1835.96)"/><path class="cls-4" d="M1848.57,2881.8a10.48,10.48,0,0,1,19.12,1c7.4,19.11,25.5,30.52,48.41,30.52,20.11,0,40.19-9.23,53.72-24.66a10.48,10.48,0,0,1,18.36,7.12c-.31,15,7.17,31.34,20.51,45a81.5,81.5,0,0,0,29.22,19.43c79.7-86.71,68.9-219.67,32.5-304.38-6.15,19.79-17.07,40.77-31.41,59.47-25.53,33.31-56.64,52.42-85.35,52.42-16.24,0-31.41-5.83-45.08-17.32-55.89-47,8.79-145.71,51.6-211,12.77-19.48,24.84-37.9,27.52-46.25v0s0,0,0,0c23.66-73,15.2-158.39-23.84-240.44-34.57-72.72-89.5-133.29-147.82-163.34-47.87,32.07-173,45.14-219.7,45.16h-.12c-46.73,0-171.83-13.09-219.7-45.16-58.32,30.05-113.25,90.62-147.84,163.34-39,82.05-47.49,167.44-23.82,240.44v0s0,0,0,0c2.67,8.35,14.74,26.77,27.52,46.25,42.81,65.31,107.49,164,51.58,211a75.89,75.89,0,0,1-21.56,13,65.14,65.14,0,0,1-23.5,4.34c-28.71,0-59.82-19.11-85.35-52.42-14.34-18.72-25.27-39.68-31.41-59.47-36.4,84.71-47.2,217.67,32.5,304.38a81.61,81.61,0,0,0,29.2-19.43c13.36-13.63,20.83-30,20.51-45a10.49,10.49,0,0,1,18.38-7.12,72.9,72.9,0,0,0,24.39,18.11,70.46,70.46,0,0,0,29.31,6.55c22.93,0,41-11.41,48.41-30.52a10.48,10.48,0,0,1,19.12-1c25.63,50.45,19.79,133.07-14.22,200.92a82.85,82.85,0,0,1-6.77,11.16c61.7,34.93,215.46,49.2,273.3,49.2s211.6-14.27,273.3-49.2a79.93,79.93,0,0,1-6.78-11.16C1828.79,3014.87,1822.94,2932.25,1848.57,2881.8ZM1645,2287.71c-1.88,18.29-26.58,26.62-48.72,26.62s-46.84-8.33-48.72-26.62c-1.86-18,23.15-33,44.47-42.48l.21-.08.55-.22.45-.14c.16-.06.34-.1.52-.15l.48-.1c.18-.05.35-.06.51-.09l.51-.06.51,0h1l.48,0,.54.06.47.07.52.12.49.14.47.16c.18.06.36.14.54.21l.22.08C1621.84,2254.69,1646.86,2269.74,1645,2287.71Z" transform="translate(-1073.12 -1835.96)"/><path class="cls-5" d="M1950.79,2767.57a188.71,188.71,0,0,0-3.6-21.36c-8.82-1.3-17.24-5.3-25.13-11.92-16.1-13.55-16.87-35.74-9.67-61.08a231.8,231.8,0,0,0-16.07-18.71c-39.27-41.3-91.54-68.61-130.16-93.93-17.38-11.41-12.43-38.18,7.91-42.46,106.75-22.52,172-73.83,172-167.85,0-107.8-102.81-194.64-192.15-194.64-54.16,0-107.62,32.67-150.73,90.84q-3.52,4.74-7,9.73-3.43-5-7-9.73c-43.09-58.17-96.56-90.84-150.71-90.84-89.35,0-192.15,86.84-192.15,194.64,0,94,65.28,145.33,172,167.85,20.33,4.28,25.28,31,7.9,42.46-38.61,25.32-90.88,52.63-130.14,93.93a229.81,229.81,0,0,0-16.07,18.71c7.2,25.35,6.42,47.54-9.67,61.08-7.89,6.62-16.32,10.62-25.14,11.92a188.7,188.7,0,0,0-3.61,21.36,212.21,212.21,0,0,0-1.3,23.65c0,46,14.33,86.88,38.73,122q6.9,9.91,14.83,19.19a74.72,74.72,0,0,0,14.17-4.56,67.92,67.92,0,0,0,24.47-17.89c5.65,18.85,7.55,41,5.89,64.24q9.42,7.18,19.52,13.77c66.69,43.59,153.41,67.53,237.58,67.77h1.27c84.15-.24,170.88-24.18,237.57-67.77q10.1-6.6,19.54-13.79c-1.67-23.28.24-45.37,5.87-64.22a70.13,70.13,0,0,0,38.65,22.45q7.92-9.29,14.82-19.19c24.41-35.11,38.74-76,38.74-122A209.79,209.79,0,0,0,1950.79,2767.57Zm-354.51-501.22c16.81,8,26.16,15.86,27.71,19.34-2,2.88-13.22,7.68-27.71,7.68s-25.71-4.8-27.72-7.68C1570.12,2282.21,1579.47,2274.37,1596.28,2266.35Z" transform="translate(-1073.12 -1835.96)"/><path class="cls-2" d="M1421.31,2330.05c0,5.79-14.74,10.48-32.94,10.48s-32.94-4.69-32.94-10.48,14.75-10.48,32.94-10.48S1421.31,2324.26,1421.31,2330.05Z" transform="translate(-1073.12 -1835.96)"/><path class="cls-2" d="M1837.13,2330.05c0,5.79-14.75,10.48-32.94,10.48s-32.94-4.69-32.94-10.48,14.74-10.48,32.94-10.48S1837.13,2324.26,1837.13,2330.05Z" transform="translate(-1073.12 -1835.96)"/><path class="cls-6" d="M1603.23,2246.46q-1.35-.63-2.7-1.23l-.22-.08c-.18-.07-.36-.15-.54-.21l-.47-.16-.49-.14-.52-.12-.47-.07-.54-.06-.48,0h-1l-.51,0-.51.06c-.16,0-.33,0-.51.09l-.48.1c-.18.05-.36.09-.52.15l-.45.14-.55.22-.21.08-2.73,1.23c-20.66,9.5-43.52,24-41.74,41.25,1.88,18.29,26.57,26.62,48.72,26.62s46.84-8.33,48.72-26.62C1646.78,2270.49,1623.89,2256,1603.23,2246.46Zm-7,46.91c-14.49,0-25.71-4.8-27.72-7.68,1.56-3.48,10.91-11.32,27.72-19.34,16.81,8,26.16,15.86,27.71,19.34C1622,2288.57,1610.77,2293.37,1596.28,2293.37Z" transform="translate(-1073.12 -1835.96)"/><path class="cls-6" d="M2076,2619.67c-.57-29.24-9.94-61.49-25.95-89-12.19-20.93-26.14-35.59-39.23-41.73,21.31-75.69,11.51-162.37-28-245.42-37-77.89-96.69-142.77-160-174.39L1774,1972.8l88.91-33.38v73.95a10,10,0,0,0,.13,1.65l-15.35,26.59a9,9,0,0,0,7.76,13.43h35.86a9,9,0,0,0,7.76-13.43L1883.73,2015a10,10,0,0,0,.15-1.65v-89.09c0-.1,0-.21,0-.3v-.15c0-.06,0-.1,0-.16a10.33,10.33,0,0,0-.61-3c0-.07,0-.15-.08-.22a10.91,10.91,0,0,0-.63-1.34l-.09-.13a9,9,0,0,0-.75-1.14c0-.05-.09-.1-.13-.16a10.47,10.47,0,0,0-1-1c-.07-.07-.15-.13-.22-.21a12.53,12.53,0,0,0-1.14-.9h0a10.74,10.74,0,0,0-1.28-.72l-.23-.1a10,10,0,0,0-1.41-.53l-.07,0-277.12-77.86-.24,0a3.39,3.39,0,0,0-.57-.14,3.5,3.5,0,0,0-.45-.07l-.58-.08-.45,0h-1l-.56,0-.49.06-.53.09c-.16,0-.33.08-.49.12l-.28.06-277.11,77.86a10.48,10.48,0,0,0-.85,19.9l103.07,38.71-48.78,96.38c-63.35,31.62-123,96.5-160,174.39-39.5,83-49.29,169.73-28,245.42-13.09,6.14-27,20.8-39.23,41.73-16,27.46-25.38,59.71-26,89-28.44,50.33-44.25,114.14-43.42,175.6.62,46.61,11.2,111.36,55.5,166.74a24.5,24.5,0,0,1-4.84-2.15,10.47,10.47,0,0,0-15.64,10.7c4.58,28.35,17.89,57.33,38.52,83.85a252.46,252.46,0,0,0,69.6,61.37,80.94,80.94,0,0,0,91.87-6.32c67.12,41.51,232.92,54.58,288.11,54.58s221-13.07,288.09-54.58a81,81,0,0,0,91.88,6.32,252.65,252.65,0,0,0,69.61-61.37c20.61-26.52,33.94-55.5,38.52-83.85a10.48,10.48,0,0,0-15.64-10.7,24.76,24.76,0,0,1-4.84,2.15c44.3-55.38,54.87-120.13,55.49-166.74C2120.21,2733.81,2104.4,2670,2076,2619.67Zm-44.07-78.4c14.72,25.25,23.16,54.86,23.16,81.25,0,44.51-51.11,124.17-101.41,124.17a45,45,0,0,1-6.46-.48c-8.82-1.3-17.24-5.3-25.13-11.92-16.1-13.55-16.87-35.74-9.67-61.08,11.44-40.2,43-88.34,65.31-122.4,11.51-17.56,20.63-31.47,26-42C2010.63,2512.78,2021.12,2522.75,2031.9,2541.27Zm-679.1-615.55,243.48-68.41,243.47,68.41-84.13,31.59-159.34,59.84-159.34-59.84h0Zm85.49,54.5,154.31,57.93c.13.06.28.09.42.15l.26.08a10.8,10.8,0,0,0,1.34.31,1.57,1.57,0,0,0,.24,0,11,11,0,0,0,1.42.11,11.61,11.61,0,0,0,1.42-.11,1.75,1.75,0,0,0,.24,0,12,12,0,0,0,1.32-.3l.27-.09.43-.15,154.3-57.93,47.3,93.45c-42.16,25.77-154.78,39.77-205.28,39.77s-163.12-14-205.28-39.77Zm-277.65,561.05c10.8-18.52,21.29-28.49,28.26-32.46,5.33,10.53,14.45,24.44,26,42,22.32,34.06,53.87,82.2,65.31,122.4,7.2,25.35,6.42,47.54-9.67,61.08-7.89,6.62-16.32,10.62-25.14,11.92a44.74,44.74,0,0,1-6.45.48c-25.16,0-50.51-19.92-69.57-45.4s-31.85-56.51-31.85-78.77C1137.49,2596.13,1145.92,2566.52,1160.64,2541.27Zm96.88,564.92a59.62,59.62,0,0,1-30.5-8.42c-45.81-27.25-81.23-70.48-94.23-113.64,1.71.16,3.45.24,5.21.24a65.94,65.94,0,0,0,16.41-2.2l.08,0c15.5-4,31.26-13.41,44.33-26.76,11.41-11.63,19.48-25.14,23.54-38.87a91.92,91.92,0,0,0,54.08,17.73,83.21,83.21,0,0,0,17.57-1.84,74.72,74.72,0,0,0,14.17-4.56,67.92,67.92,0,0,0,24.47-17.89c5.65,18.85,7.55,41,5.89,64.24a268.43,268.43,0,0,1-27.52,99.13A59.47,59.47,0,0,1,1257.52,3106.19Zm708-8.42a59.81,59.81,0,0,1-84-24.45,267.71,267.71,0,0,1-27.52-99.15c-1.67-23.28.24-45.37,5.87-64.22a70.13,70.13,0,0,0,38.65,22.45,83.12,83.12,0,0,0,17.56,1.84,91.87,91.87,0,0,0,54.08-17.73c4.06,13.73,12.15,27.22,23.54,38.87,13.09,13.34,28.84,22.73,44.34,26.76l.09,0a65.94,65.94,0,0,0,16.41,2.2c1.76,0,3.5-.08,5.19-.24C2046.76,3027.29,2011.33,3070.52,1965.54,3097.77Zm72.37-137.63a81.5,81.5,0,0,1-29.22-19.43c-13.34-13.63-20.82-30-20.51-45a10.48,10.48,0,0,0-18.36-7.12c-13.53,15.43-33.61,24.66-53.72,24.66-.93,0-1.84,0-2.74-.07-21.61-.86-38.57-12.11-45.67-30.45a10.48,10.48,0,0,0-19.12-1c-14.28,28.11-18.79,66.2-14.09,106.16a289.3,289.3,0,0,0,28.32,94.76,79.93,79.93,0,0,0,6.78,11.16c-61.7,34.93-215.48,49.2-273.3,49.2s-211.6-14.27-273.3-49.2a82.85,82.85,0,0,0,6.77-11.16,289,289,0,0,0,28.31-94.76c4.7-40,.19-78.05-14.09-106.16a10.48,10.48,0,0,0-19.12,1c-7.08,18.34-24,29.59-45.67,30.45-.9.05-1.81.07-2.74.07a70.46,70.46,0,0,1-29.31-6.55,72.9,72.9,0,0,1-24.39-18.11,10.49,10.49,0,0,0-18.38,7.12c.32,15-7.15,31.34-20.51,45a81.61,81.61,0,0,1-29.2,19.43c-79.7-86.71-68.9-219.67-32.5-304.38,6.14,19.79,17.07,40.75,31.41,59.47,25.53,33.31,56.64,52.42,85.35,52.42.95,0,1.9,0,2.84-.08a64.69,64.69,0,0,0,20.66-4.26,75.89,75.89,0,0,0,21.56-13c27.28-22.94,25.85-58.17,12.27-95.83-14.27-39.53-41.93-81.74-63.85-115.19-12.78-19.48-24.85-37.9-27.52-46.25,0,0,0,0,0,0v0c-23.67-73-15.2-158.39,23.82-240.44,34.59-72.72,89.52-133.29,147.84-163.34,47.87,32.07,173,45.14,219.7,45.16h.12c46.73,0,171.83-13.09,219.7-45.16,58.32,30.05,113.25,90.62,147.82,163.34,39,82.05,47.5,167.44,23.84,240.44,0,0,0,0,0,0v0c-2.68,8.35-14.75,26.77-27.52,46.25-21.92,33.45-49.59,75.66-63.85,115.19-13.59,37.66-15,72.89,12.25,95.83,12.86,10.82,27.06,16.62,42.22,17.24,1,.06,1.9.08,2.86.08,28.71,0,59.82-19.11,85.35-52.42,14.34-18.7,25.26-39.68,31.41-59.47C2106.81,2740.47,2117.61,2873.43,2037.91,2960.14Z" transform="translate(-1073.12 -1835.96)"/><path class="cls-6" d="M1492,2277.59a11.19,11.19,0,0,1-8-3.34c-2.49-2.49-59-58-115.69-13.93a11.23,11.23,0,0,1-13.77-17.74c30.19-23.43,65.13-28,101-13.15a146.64,146.64,0,0,1,44.38,29,11.23,11.23,0,0,1-8,19.12Z" transform="translate(-1073.12 -1835.96)"/><path class="cls-6" d="M1700.6,2277.57a11.23,11.23,0,0,1-8-19.1,146.93,146.93,0,0,1,44.39-29c35.92-14.83,70.86-10.28,101,13.15a11.23,11.23,0,0,1-13.77,17.74c-56.79-44.08-113.32,11.55-115.7,13.94A11.18,11.18,0,0,1,1700.6,2277.57Z" transform="translate(-1073.12 -1835.96)"/><path class="cls-1" d="M3023.15,2295.48c-16.81,8-26.15,15.85-27.71,19.33,2,2.89,13.22,7.68,27.71,7.68s25.71-4.79,27.72-7.68C3049.31,2311.33,3040,2303.49,3023.15,2295.48Z" transform="translate(-1073.12 -1835.96)"/><polygon class="cls-2" points="1790.69 150.48 1950.03 210.31 2109.37 150.48 2193.51 118.89 1950.03 50.48 1706.55 118.89 1790.67 150.48 1790.69 150.48"/><path class="cls-2" d="M3026.84,2067.28l-.44.15-.27.09a12.3,12.3,0,0,1-1.31.29l-.24,0a11.62,11.62,0,0,1-1.43.11,11.31,11.31,0,0,1-1.42-.11l-.24,0a9.13,9.13,0,0,1-1.33-.31,1.34,1.34,0,0,1-.27-.07c-.13-.06-.28-.09-.42-.15l-154.31-57.93-47.28,93.44c42.16,25.77,154.76,39.77,205.27,39.77s163.12-14,205.28-39.77l-47.29-93.44Z" transform="translate(-1073.12 -1835.96)"/><path class="cls-1" d="M3465,3011.29a.32.32,0,0,0-.09,0c-15.5-4-31.25-13.42-44.33-26.76-11.4-11.65-19.48-25.14-23.54-38.87a91.83,91.83,0,0,1-54.08,17.73c-22.91,0-43-8.94-56.21-24.29-13.52,45.24-5.57,109.08,21.65,163.37a59.81,59.81,0,0,0,84,24.45c45.78-27.25,81.21-70.47,94.21-113.64-1.7.17-3.43.24-5.2.24A65.6,65.6,0,0,1,3465,3011.29Z" transform="translate(-1073.12 -1835.96)"/><path class="cls-7" d="M3348.94,2763.41c9.79,8.22,20.42,12.4,31.59,12.4,50.29,0,101.41-79.66,101.41-124.17,0-26.38-8.44-56-23.16-81.24-10.78-18.52-21.28-28.5-28.26-32.47-5.31,10.53-14.43,24.44-25.94,42C3368.18,2635.45,3307.28,2728.38,3348.94,2763.41Z" transform="translate(-1073.12 -1835.96)"/><path class="cls-3" d="M2665.78,2775.81c11.17,0,21.8-4.18,31.59-12.4,41.66-35-19.25-128-55.64-183.48-11.51-17.56-20.63-31.47-26-42-7,4-17.46,14-28.25,32.47-14.72,25.24-23.15,54.86-23.15,81.24,0,22.26,12.77,53.3,31.85,78.77S2640.63,2775.81,2665.78,2775.81Z" transform="translate(-1073.12 -1835.96)"/><path class="cls-1" d="M2759.53,2939.07a68.14,68.14,0,0,1-24.47,17.9,79.22,79.22,0,0,1-31.74,6.39,91.85,91.85,0,0,1-54.08-17.73c-4.06,13.73-12.13,27.24-23.54,38.87-13.07,13.36-28.84,22.73-44.34,26.76l-.07,0a65.6,65.6,0,0,1-16.41,2.2c-1.77,0-3.51-.07-5.21-.24,13,43.17,48.42,86.39,94.22,113.64a59.81,59.81,0,0,0,84-24.45C2765.1,3048.15,2773.06,2984.31,2759.53,2939.07Z" transform="translate(-1073.12 -1835.96)"/><path class="cls-8" d="M3275.45,2910.93a10.49,10.49,0,0,1,19.12,1c7.4,19.11,25.5,30.52,48.41,30.52,20.11,0,40.18-9.22,53.72-24.66a10.48,10.48,0,0,1,18.36,7.12c-.32,14.95,7.17,31.34,20.51,45a81.29,81.29,0,0,0,29.21,19.43c79.7-86.7,68.91-219.66,32.51-304.38-6.16,19.79-17.07,40.77-31.41,59.47-25.53,33.32-56.65,52.42-85.35,52.42-16.25,0-31.41-5.82-45.08-17.32-55.9-47,8.78-145.7,51.59-211,12.77-19.47,24.84-37.89,27.52-46.25h0s0,0,0,0c23.65-73,15.19-158.39-23.84-240.44-34.57-72.72-89.51-133.29-147.83-163.34-47.87,32.08-173,45.15-219.7,45.16h-.12c-46.73,0-171.82-13.08-219.69-45.16-58.32,30-113.26,90.62-147.85,163.34-39,82.05-47.49,167.45-23.82,240.44v0h0c2.66,8.36,14.73,26.78,27.52,46.25,42.81,65.32,107.49,164,51.58,211a76,76,0,0,1-21.56,13,65.16,65.16,0,0,1-23.51,4.34c-28.7,0-59.82-19.1-85.34-52.42-14.35-18.72-25.28-39.68-31.42-59.47-36.4,84.72-47.19,217.68,32.51,304.38a81.31,81.31,0,0,0,29.19-19.43c13.36-13.63,20.83-30,20.52-45a10.49,10.49,0,0,1,18.37-7.12,73.1,73.1,0,0,0,24.39,18.11,70.47,70.47,0,0,0,29.32,6.55c22.92,0,41-11.41,48.4-30.52a10.49,10.49,0,0,1,19.13-1c25.63,50.44,19.79,133.06-14.23,200.92a81.72,81.72,0,0,1-6.77,11.15c61.71,34.93,215.46,49.2,273.3,49.2s211.6-14.27,273.31-49.2a79.88,79.88,0,0,1-6.79-11.15C3255.67,3044,3249.81,2961.37,3275.45,2910.93Zm-203.57-594.1c-1.89,18.3-26.58,26.62-48.73,26.62s-46.83-8.32-48.72-26.62c-1.85-18,23.15-33,44.47-42.48l.21-.07.56-.23.44-.13a4.61,4.61,0,0,1,.53-.15,4.15,4.15,0,0,1,.48-.11l.51-.09c.16,0,.34,0,.51-.06l.51,0,.49,0,.54,0,.48,0c.18,0,.36,0,.54.06l.46.08.53.12.49.13.46.17q.27.09.54.21l.23.07C3048.71,2283.81,3073.73,2298.86,3071.88,2316.83Z" transform="translate(-1073.12 -1835.96)"/><path class="cls-5" d="M3377.67,2796.7a191.15,191.15,0,0,0-3.61-21.37c-8.82-1.3-17.23-5.3-25.12-11.92-16.1-13.55-16.88-35.74-9.68-61.07a231.83,231.83,0,0,0-16.06-18.72c-39.28-41.29-91.55-68.6-130.16-93.92-17.39-11.41-12.43-38.18,7.9-42.47,106.76-22.52,172-73.83,172-167.84,0-107.81-102.8-194.65-192.14-194.65-54.16,0-107.63,32.67-150.74,90.84q-3.53,4.74-7,9.73-3.43-5-7-9.73c-43.09-58.17-96.56-90.84-150.72-90.84-89.34,0-192.15,86.84-192.15,194.65,0,94,65.28,145.32,172,167.84,20.33,4.29,25.29,31.06,7.91,42.47-38.62,25.32-90.89,52.63-130.15,93.92a227.89,227.89,0,0,0-16.06,18.72c7.2,25.35,6.42,47.54-9.68,61.07-7.89,6.62-16.32,10.62-25.14,11.92a188.89,188.89,0,0,0-3.6,21.37,209.48,209.48,0,0,0-1.31,23.64c0,46,14.33,86.89,38.74,122q6.89,9.9,14.82,19.18a75,75,0,0,0,14.18-4.55,68.14,68.14,0,0,0,24.47-17.9c5.64,18.85,7.54,40.95,5.88,64.24q9.43,7.18,19.53,13.77c66.69,43.59,153.41,67.53,237.57,67.77v0l.63,0,.64,0v0c84.15-.24,170.89-24.18,237.58-67.77q10.08-6.6,19.54-13.79c-1.68-23.28.24-45.37,5.87-64.22a70.07,70.07,0,0,0,38.64,22.45q7.93-9.27,14.83-19.18c24.4-35.11,38.73-76,38.73-122A211.89,211.89,0,0,0,3377.67,2796.7Zm-354.52-501.22c16.82,8,26.16,15.85,27.72,19.33-2,2.89-13.22,7.68-27.72,7.68s-25.7-4.79-27.71-7.68C2997,2311.33,3006.34,2303.49,3023.15,2295.48Z" transform="translate(-1073.12 -1835.96)"/><path class="cls-2" d="M2848.19,2359.17c0,5.79-14.75,10.48-32.94,10.48s-32.94-4.69-32.94-10.48,14.75-10.48,32.94-10.48S2848.19,2353.38,2848.19,2359.17Z" transform="translate(-1073.12 -1835.96)"/><path class="cls-2" d="M3264,2359.17c0,5.79-14.75,10.48-32.94,10.48s-32.94-4.69-32.94-10.48,14.75-10.48,32.94-10.48S3264,2353.38,3264,2359.17Z" transform="translate(-1073.12 -1835.96)"/><path class="cls-6" d="M3030.1,2275.58l-2.69-1.23-.23-.07q-.27-.12-.54-.21l-.46-.17-.49-.13-.53-.12-.46-.08c-.18,0-.36,0-.54-.06l-.48,0-.54,0-.49,0-.51,0c-.17,0-.35,0-.51.06l-.51.09a4.15,4.15,0,0,0-.48.11,4.61,4.61,0,0,0-.53.15l-.44.13-.56.23-.21.07-2.72,1.23c-20.67,9.51-43.53,24.05-41.75,41.25,1.89,18.3,26.58,26.62,48.72,26.62s46.84-8.32,48.73-26.62C3073.66,2299.61,3050.76,2285.09,3030.1,2275.58Zm-6.95,46.91c-14.49,0-25.7-4.79-27.71-7.68,1.56-3.48,10.9-11.32,27.71-19.33,16.82,8,26.16,15.85,27.72,19.33C3048.86,2317.7,3037.65,2322.49,3023.15,2322.49Z" transform="translate(-1073.12 -1835.96)"/><path class="cls-6" d="M3502.84,2648.79c-.57-29.24-9.94-61.49-26-88.95-12.18-20.93-26.14-35.59-39.23-41.73,21.31-75.69,11.52-162.37-28-245.42-37-77.89-96.68-142.77-160-174.39l-48.77-96.38,88.91-33.38v74a10,10,0,0,0,.14,1.64l-15.35,26.59a9,9,0,0,0,7.76,13.44h35.86a9,9,0,0,0,7.75-13.44l-15.34-26.59a11.22,11.22,0,0,0,.14-1.64v-89.09c0-.11,0-.21,0-.3V1953c0-.06,0-.11,0-.17a10.34,10.34,0,0,0-.62-3c0-.07,0-.15-.07-.22a10.13,10.13,0,0,0-.63-1.33l-.09-.14a11.21,11.21,0,0,0-.75-1.14,1.14,1.14,0,0,1-.14-.16,9.29,9.29,0,0,0-.95-1l-.23-.2a10,10,0,0,0-1.14-.9v0a10.87,10.87,0,0,0-1.29-.72l-.22-.1a10,10,0,0,0-1.41-.53l-.08,0L3026,1865.46l-.23,0a3.63,3.63,0,0,0-.57-.13l-.45-.08a5.93,5.93,0,0,0-.59-.07l-.45-.05h-1l-.55.05c-.17,0-.33,0-.5.06l-.52.09-.5.12-.28.06-277.1,77.85a10.48,10.48,0,0,0-.86,19.9l103.08,38.71-48.79,96.38c-63.35,31.62-123,96.5-160,174.39-39.5,83-49.29,169.73-28,245.42-13.08,6.14-27,20.8-39.23,41.73-16,27.46-25.37,59.71-26,88.95-28.43,50.33-44.24,114.14-43.42,175.61.63,46.61,11.2,111.35,55.51,166.74a24.59,24.59,0,0,1-4.84-2.16,10.48,10.48,0,0,0-15.65,10.71c4.58,28.34,17.89,57.33,38.53,83.84a252.6,252.6,0,0,0,69.59,61.38,81,81,0,0,0,91.88-6.32c67.12,41.5,232.91,54.58,288.1,54.58s221-13.08,288.1-54.58a81,81,0,0,0,91.87,6.32,252.68,252.68,0,0,0,69.61-61.38c20.62-26.51,33.95-55.5,38.53-83.84a10.48,10.48,0,0,0-15.65-10.71,25.12,25.12,0,0,1-4.84,2.16c44.31-55.39,54.88-120.13,55.49-166.74C3547.09,2762.93,3531.28,2699.12,3502.84,2648.79Zm-44.06-78.39c14.72,25.24,23.16,54.86,23.16,81.24,0,44.51-51.12,124.17-101.41,124.17a45.12,45.12,0,0,1-6.47-.48c-8.82-1.3-17.23-5.3-25.12-11.92-16.1-13.55-16.88-35.74-9.68-61.07,11.44-40.21,43-88.34,65.32-122.41,11.51-17.56,20.63-31.47,25.94-42C3437.5,2541.9,3448,2551.88,3458.78,2570.4Zm-679.1-615.56,243.47-68.41,243.48,68.41-84.13,31.6-159.35,59.83-159.34-59.83h0Zm85.48,54.51,154.31,57.93c.14.06.29.09.42.15a1.34,1.34,0,0,0,.27.07,9.13,9.13,0,0,0,1.33.31l.24,0a11.31,11.31,0,0,0,1.42.11,11.62,11.62,0,0,0,1.43-.11l.24,0a12.3,12.3,0,0,0,1.31-.29l.27-.09.44-.15,154.3-57.93,47.29,93.44c-42.16,25.77-154.77,39.77-205.28,39.77s-163.11-14-205.27-39.77ZM2587.52,2570.4c10.79-18.52,21.29-28.5,28.25-32.47,5.33,10.53,14.45,24.44,26,42,22.33,34.07,53.88,82.2,65.32,122.41,7.2,25.35,6.42,47.54-9.68,61.07-7.89,6.62-16.32,10.62-25.14,11.92a44.63,44.63,0,0,1-6.45.48c-25.15,0-50.5-19.91-69.56-45.4s-31.85-56.51-31.85-78.77C2564.37,2625.26,2572.8,2595.64,2587.52,2570.4Zm96.87,564.91a59.67,59.67,0,0,1-30.5-8.42c-45.8-27.25-81.23-70.47-94.22-113.64,1.7.17,3.44.24,5.21.24a65.6,65.6,0,0,0,16.41-2.2l.07,0c15.5-4,31.27-13.4,44.34-26.76,11.41-11.63,19.48-25.14,23.54-38.87a91.85,91.85,0,0,0,54.08,17.73,83.12,83.12,0,0,0,17.56-1.84,75,75,0,0,0,14.18-4.55,68.14,68.14,0,0,0,24.47-17.9c5.64,18.85,7.54,40.95,5.88,64.24a268.18,268.18,0,0,1-27.52,99.13A59.44,59.44,0,0,1,2684.39,3135.31Zm708-8.42a59.81,59.81,0,0,1-84-24.45,267.71,267.71,0,0,1-27.52-99.15c-1.68-23.28.24-45.37,5.87-64.22a70.07,70.07,0,0,0,38.64,22.45,83.21,83.21,0,0,0,17.57,1.84,91.83,91.83,0,0,0,54.08-17.73c4.06,13.73,12.14,27.22,23.54,38.87,13.08,13.34,28.83,22.73,44.33,26.76a.32.32,0,0,1,.09,0,65.6,65.6,0,0,0,16.41,2.2c1.77,0,3.5-.07,5.2-.24C3473.63,3056.42,3438.2,3099.64,3392.42,3126.89Zm72.36-137.63a81.29,81.29,0,0,1-29.21-19.43c-13.34-13.63-20.83-30-20.51-45a10.48,10.48,0,0,0-18.36-7.12c-13.54,15.44-33.61,24.66-53.72,24.66-.93,0-1.84,0-2.74-.06-21.61-.87-38.57-12.12-45.67-30.46a10.49,10.49,0,0,0-19.12-1c-14.29,28.1-18.79,66.19-14.09,106.15a289.17,289.17,0,0,0,28.31,94.77,79.88,79.88,0,0,0,6.79,11.15c-61.71,34.93-215.48,49.2-273.31,49.2s-211.59-14.27-273.3-49.2a81.72,81.72,0,0,0,6.77-11.15,289.29,289.29,0,0,0,28.32-94.77c4.7-40,.19-78-14.09-106.15a10.49,10.49,0,0,0-19.13,1c-7.08,18.34-24,29.59-45.66,30.46-.9,0-1.81.06-2.74.06a70.47,70.47,0,0,1-29.32-6.55,73.1,73.1,0,0,1-24.39-18.11,10.49,10.49,0,0,0-18.37,7.12c.31,14.95-7.16,31.34-20.52,45a81.31,81.31,0,0,1-29.19,19.43c-79.7-86.7-68.91-219.66-32.51-304.38,6.14,19.79,17.07,40.75,31.42,59.47,25.52,33.32,56.64,52.42,85.34,52.42,1,0,1.9,0,2.85-.07a65,65,0,0,0,20.66-4.27,76,76,0,0,0,21.56-13c27.28-22.94,25.84-58.17,12.26-95.83-14.27-39.53-41.92-81.74-63.84-115.19-12.79-19.47-24.86-37.89-27.52-46.25h0v0c-23.67-73-15.19-158.39,23.82-240.44,34.59-72.72,89.53-133.29,147.85-163.34,47.87,32.08,173,45.15,219.69,45.16h.12c46.73,0,171.83-13.08,219.7-45.16,58.32,30,113.26,90.62,147.83,163.34,39,82.05,47.49,167.45,23.84,240.44,0,0,0,0,0,0h0c-2.68,8.36-14.75,26.78-27.52,46.25-21.92,33.45-49.59,75.66-63.84,115.19-13.6,37.66-15,72.89,12.25,95.83,12.86,10.82,27.05,16.62,42.22,17.25.94.06,1.9.07,2.86.07,28.7,0,59.82-19.1,85.35-52.42,14.34-18.7,25.25-39.68,31.41-59.47C3533.69,2769.6,3544.48,2902.56,3464.78,2989.26Z" transform="translate(-1073.12 -1835.96)"/><path class="cls-6" d="M2918.84,2306.71a11.2,11.2,0,0,1-8-3.33c-2.48-2.5-58.95-58-115.68-13.94a11.23,11.23,0,1,1-13.77-17.74c30.18-23.43,65.12-28,101-13.15a146.77,146.77,0,0,1,44.39,29,11.23,11.23,0,0,1-8,19.12Z" transform="translate(-1073.12 -1835.96)"/><path class="cls-6" d="M3127.48,2306.7a11.23,11.23,0,0,1-8-19.11,146.77,146.77,0,0,1,44.39-29c35.92-14.82,70.86-10.28,101,13.15a11.23,11.23,0,1,1-13.77,17.74c-56.79-44.07-113.31,11.55-115.69,13.94A11.22,11.22,0,0,1,3127.48,2306.7Z" transform="translate(-1073.12 -1835.96)"/><path class="cls-1" d="M2316.27,2304.29c-16.81,8-26.16,15.86-27.71,19.33,2,2.89,13.22,7.68,27.71,7.68s25.71-4.79,27.71-7.68C2342.43,2320.15,2333.09,2312.3,2316.27,2304.29Z" transform="translate(-1073.12 -1835.96)"/><polygon class="cls-2" points="1083.8 159.29 1243.14 219.12 1402.49 159.29 1486.62 127.7 1243.14 59.29 999.67 127.7 1083.79 159.29 1083.8 159.29"/><path class="cls-2" d="M2320,2076.09l-.43.15-.27.09c-.43.12-.88.22-1.32.3a2.24,2.24,0,0,0-.24,0,11.57,11.57,0,0,1-1.42.1,11,11,0,0,1-1.42-.1l-.24,0a10.29,10.29,0,0,1-1.33-.32,1.34,1.34,0,0,1-.27-.07c-.14-.06-.29-.09-.42-.15l-154.31-57.93L2111,2111.6c42.17,25.77,154.76,39.77,205.28,39.77s163.12-14,205.28-39.77l-47.3-93.44Z" transform="translate(-1073.12 -1835.96)"/><path class="cls-1" d="M2758.14,3020.1a.32.32,0,0,0-.09,0c-15.5-4-31.25-13.42-44.34-26.76-11.39-11.64-19.48-25.14-23.54-38.87a91.8,91.8,0,0,1-54.08,17.73c-22.91,0-43-8.94-56.21-24.28-13.52,45.23-5.57,109.07,21.65,163.37a59.84,59.84,0,0,0,84,24.45c45.79-27.25,81.22-70.48,94.21-113.65-1.69.17-3.43.24-5.19.24A65.48,65.48,0,0,1,2758.14,3020.1Z" transform="translate(-1073.12 -1835.96)"/><path class="cls-9" d="M2642.05,2772.22c9.79,8.22,20.42,12.4,31.6,12.4,50.29,0,101.41-79.66,101.41-124.17,0-26.38-8.45-56-23.17-81.24-10.78-18.52-21.27-28.5-28.25-32.46-5.32,10.52-14.43,24.43-25.95,42C2661.29,2644.26,2600.4,2737.19,2642.05,2772.22Z" transform="translate(-1073.12 -1835.96)"/><path class="cls-9" d="M1958.9,2784.62c11.17,0,21.8-4.18,31.59-12.4,41.65-35-19.26-128-55.64-183.47-11.51-17.57-20.63-31.48-26-42-7,4-17.46,13.94-28.26,32.46-14.72,25.24-23.15,54.86-23.15,81.24,0,22.27,12.78,53.3,31.85,78.77S1933.74,2784.62,1958.9,2784.62Z" transform="translate(-1073.12 -1835.96)"/><path class="cls-1" d="M2052.64,2947.89a68.2,68.2,0,0,1-24.46,17.89,79.23,79.23,0,0,1-31.75,6.39,91.85,91.85,0,0,1-54.08-17.73c-4.06,13.73-12.13,27.24-23.54,38.87-13.07,13.36-28.83,22.73-44.33,26.76l-.08,0a65.48,65.48,0,0,1-16.41,2.2c-1.76,0-3.5-.07-5.21-.24,13,43.17,48.43,86.4,94.23,113.65a59.84,59.84,0,0,0,84-24.45C2058.21,3057,2066.18,2993.12,2052.64,2947.89Z" transform="translate(-1073.12 -1835.96)"/><path class="cls-9" d="M2568.56,2919.74a10.49,10.49,0,0,1,19.13,1c7.39,19.11,25.49,30.52,48.4,30.52,20.11,0,40.19-9.22,53.73-24.66a10.47,10.47,0,0,1,18.35,7.13c-.31,14.94,7.17,31.33,20.52,45a81.37,81.37,0,0,0,29.21,19.44c79.7-86.71,68.9-219.67,32.5-304.39-6.15,19.8-17.07,40.77-31.41,59.47-25.53,33.32-56.64,52.42-85.34,52.42-16.25,0-31.42-5.82-45.09-17.32-55.89-47,8.79-145.7,51.6-211,12.77-19.48,24.84-37.9,27.52-46.25v0s0,0,0,0c23.66-73,15.2-158.38-23.83-240.44-34.58-72.72-89.51-133.28-147.83-163.34-47.87,32.08-173,45.15-219.7,45.16h-.12c-46.73,0-171.83-13.08-219.7-45.16-58.32,30.06-113.25,90.62-147.84,163.34-39,82.06-47.49,167.45-23.82,240.44v0s0,0,0,0c2.67,8.35,14.74,26.77,27.52,46.25,42.81,65.31,107.49,164,51.58,211a75.53,75.53,0,0,1-21.56,13,65.14,65.14,0,0,1-23.5,4.34c-28.71,0-59.82-19.1-85.35-52.42-14.34-18.71-25.27-39.67-31.41-59.47-36.4,84.72-47.2,217.68,32.5,304.39a81.51,81.51,0,0,0,29.2-19.44c13.36-13.63,20.83-30,20.51-45a10.5,10.5,0,0,1,18.38-7.13,73.06,73.06,0,0,0,24.39,18.12,70.6,70.6,0,0,0,29.31,6.54c22.93,0,41-11.41,48.41-30.52a10.49,10.49,0,0,1,19.12-1c25.64,50.44,19.8,133.06-14.22,200.92a82.74,82.74,0,0,1-6.77,11.15c61.7,34.94,215.46,49.2,273.3,49.2s211.6-14.26,273.3-49.2a80.79,80.79,0,0,1-6.78-11.15C2548.78,3052.8,2542.93,2970.18,2568.56,2919.74ZM2365,2325.64c-1.88,18.3-26.57,26.62-48.72,26.62s-46.84-8.32-48.72-26.62c-1.86-18,23.15-33,44.47-42.48l.21-.07.55-.23.45-.13a4.61,4.61,0,0,1,.53-.15,4,4,0,0,1,.47-.11l.51-.09c.17,0,.35,0,.51-.06l.51,0,.5,0,.54,0,.47,0c.18,0,.36,0,.54.06l.47.08.52.12.5.13.46.17q.27.09.54.21l.22.07C2341.83,2292.63,2366.85,2307.67,2365,2325.64Z" transform="translate(-1073.12 -1835.96)"/><path class="cls-5" d="M2670.78,2805.51a188.89,188.89,0,0,0-3.6-21.37c-8.82-1.3-17.24-5.3-25.13-11.92-16.09-13.55-16.87-35.74-9.67-61.07a232,232,0,0,0-16.07-18.72c-39.27-41.29-91.54-68.6-130.16-93.92-17.38-11.41-12.42-38.18,7.91-42.47,106.76-22.51,172-73.83,172-167.84,0-107.81-102.81-194.65-192.15-194.65-54.16,0-107.62,32.67-150.73,90.84q-3.53,4.74-7,9.73-3.45-5-7-9.73c-43.09-58.17-96.56-90.84-150.71-90.84-89.35,0-192.15,86.84-192.15,194.65,0,94,65.28,145.33,172,167.84,20.33,4.29,25.29,31.06,7.9,42.47-38.61,25.32-90.88,52.63-130.14,93.92a230,230,0,0,0-16.07,18.72c7.2,25.35,6.42,47.54-9.67,61.07-7.89,6.62-16.32,10.62-25.14,11.92a191.15,191.15,0,0,0-3.61,21.37,212,212,0,0,0-1.3,23.64c0,46,14.33,86.89,38.73,122q6.9,9.9,14.83,19.18a75,75,0,0,0,14.18-4.55,68.2,68.2,0,0,0,24.46-17.89c5.65,18.85,7.55,41,5.89,64.23q9.43,7.18,19.52,13.77c66.69,43.59,153.41,67.53,237.58,67.77v0l.63,0,.64,0v0c84.15-.24,170.88-24.18,237.57-67.77q10.09-6.6,19.55-13.78c-1.68-23.29.23-45.37,5.86-64.22a70.12,70.12,0,0,0,38.65,22.44q7.92-9.27,14.82-19.18c24.41-35.11,38.74-76,38.74-122A209.61,209.61,0,0,0,2670.78,2805.51Zm-354.51-501.22c16.82,8,26.16,15.86,27.71,19.33-2,2.89-13.22,7.68-27.71,7.68s-25.71-4.79-27.71-7.68C2290.11,2320.15,2299.46,2312.3,2316.27,2304.29Z" transform="translate(-1073.12 -1835.96)"/><path class="cls-2" d="M2141.3,2368c0,5.79-14.74,10.49-32.94,10.49s-32.94-4.7-32.94-10.49,14.75-10.48,32.94-10.48S2141.3,2362.2,2141.3,2368Z" transform="translate(-1073.12 -1835.96)"/><path class="cls-2" d="M2557.12,2368c0,5.79-14.75,10.49-32.94,10.49s-32.94-4.7-32.94-10.49,14.74-10.48,32.94-10.48S2557.12,2362.2,2557.12,2368Z" transform="translate(-1073.12 -1835.96)"/><path class="cls-6" d="M2323.22,2284.39c-.9-.42-1.8-.82-2.7-1.23l-.22-.07q-.27-.12-.54-.21l-.46-.17-.5-.13-.52-.12-.47-.08c-.18,0-.36,0-.54-.06l-.47,0-.54,0-.5,0-.51,0c-.16,0-.34,0-.51.06l-.51.09a4,4,0,0,0-.47.11,4.61,4.61,0,0,0-.53.15l-.45.13-.55.23-.21.07-2.73,1.23c-20.66,9.51-43.52,24.05-41.74,41.25,1.88,18.3,26.58,26.62,48.72,26.62s46.84-8.32,48.72-26.62C2366.77,2308.42,2343.88,2293.9,2323.22,2284.39Zm-6.95,46.91c-14.49,0-25.71-4.79-27.71-7.68,1.55-3.47,10.9-11.32,27.71-19.33,16.82,8,26.16,15.86,27.71,19.33C2342,2326.51,2330.76,2331.3,2316.27,2331.3Z" transform="translate(-1073.12 -1835.96)"/><path class="cls-6" d="M2796,2657.61c-.57-29.25-9.94-61.5-25.95-89-12.19-20.93-26.14-35.59-39.23-41.73,21.31-75.69,11.52-162.36-28-245.42-37.05-77.89-96.68-142.77-160-174.39L2494,2010.73l88.91-33.37v74a9.9,9.9,0,0,0,.13,1.64l-15.34,26.6a9,9,0,0,0,7.75,13.43h35.86a9,9,0,0,0,7.76-13.43l-15.35-26.6a9.9,9.9,0,0,0,.15-1.64v-89.09c0-.11,0-.21,0-.3v-.15c0-.06,0-.11,0-.17a10.33,10.33,0,0,0-.61-2.95c0-.07-.05-.15-.08-.22a10.78,10.78,0,0,0-.63-1.33l-.09-.14a9.75,9.75,0,0,0-.75-1.14l-.13-.16a8.49,8.49,0,0,0-1-1c-.07-.08-.15-.14-.22-.21a11,11,0,0,0-1.14-.9l0,0a10.74,10.74,0,0,0-1.28-.72l-.23-.1a8.83,8.83,0,0,0-1.41-.52l-.07,0-277.12-77.86-.24,0a3.39,3.39,0,0,0-.57-.13l-.45-.08a5.73,5.73,0,0,0-.58-.07l-.45,0h-1l-.56,0-.49.06-.53.09c-.16,0-.33.07-.49.12l-.28.06-277.11,77.86a10.48,10.48,0,0,0-.85,19.9l103.07,38.7-48.78,96.38c-63.35,31.62-123,96.5-160,174.39-39.5,83.06-49.29,169.73-28,245.42-13.09,6.14-27,20.8-39.23,41.73-16,27.46-25.38,59.71-26,89-28.44,50.32-44.25,114.14-43.42,175.6.63,46.61,11.2,111.35,55.5,166.74a25.12,25.12,0,0,1-4.84-2.16,10.47,10.47,0,0,0-15.64,10.71c4.58,28.34,17.89,57.33,38.52,83.84a252.64,252.64,0,0,0,69.6,61.38,81,81,0,0,0,91.87-6.32c67.12,41.5,232.92,54.58,288.11,54.58s221-13.08,288.09-54.58a81,81,0,0,0,91.88,6.32,252.68,252.68,0,0,0,69.61-61.38c20.62-26.51,33.94-55.5,38.52-83.84a10.48,10.48,0,0,0-15.64-10.71,25.4,25.4,0,0,1-4.84,2.16c44.3-55.39,54.88-120.13,55.49-166.74C2840.2,2771.75,2824.39,2707.93,2796,2657.61Zm-44.07-78.4c14.72,25.24,23.17,54.86,23.17,81.24,0,44.51-51.12,124.17-101.41,124.17a43.62,43.62,0,0,1-6.47-.48c-8.82-1.3-17.24-5.3-25.13-11.92-16.09-13.55-16.87-35.74-9.67-61.07,11.44-40.2,43-88.34,65.31-122.4,11.52-17.57,20.63-31.48,25.95-42C2730.62,2550.71,2741.11,2560.69,2751.89,2579.21Zm-679.1-615.55,243.48-68.42,243.48,68.42-84.14,31.59-159.34,59.83-159.34-59.83h0Zm85.49,54.5,154.31,57.93c.13.06.28.09.42.15a1.34,1.34,0,0,0,.27.07,10.29,10.29,0,0,0,1.33.32l.24,0a11,11,0,0,0,1.42.1,11.57,11.57,0,0,0,1.42-.1,2.24,2.24,0,0,1,.24,0c.44-.08.89-.18,1.32-.3l.27-.09.43-.15,154.3-57.93,47.3,93.44c-42.16,25.77-154.78,39.77-205.28,39.77s-163.11-14-205.28-39.77Zm-277.65,561.05c10.8-18.52,21.29-28.5,28.26-32.46,5.33,10.52,14.45,24.43,26,42,22.32,34.06,53.87,82.2,65.31,122.4,7.2,25.35,6.42,47.54-9.67,61.07-7.89,6.62-16.32,10.62-25.14,11.92a43.35,43.35,0,0,1-6.45.48c-25.16,0-50.51-19.91-69.57-45.4s-31.85-56.5-31.85-78.77C1857.48,2634.07,1865.91,2604.45,1880.63,2579.21Zm96.88,564.91a59.61,59.61,0,0,1-30.5-8.41c-45.8-27.25-81.23-70.48-94.23-113.65,1.71.17,3.45.24,5.21.24a65.48,65.48,0,0,0,16.41-2.2l.08,0c15.5-4,31.26-13.4,44.33-26.76,11.41-11.63,19.48-25.14,23.54-38.87a91.85,91.85,0,0,0,54.08,17.73,83.21,83.21,0,0,0,17.57-1.84,75,75,0,0,0,14.18-4.55,68.2,68.2,0,0,0,24.46-17.89c5.65,18.85,7.55,41,5.89,64.23a268.47,268.47,0,0,1-27.52,99.14A59.46,59.46,0,0,1,1977.51,3144.12Zm708-8.41a59.84,59.84,0,0,1-84-24.45,267.79,267.79,0,0,1-27.51-99.15c-1.68-23.29.23-45.37,5.86-64.22a70.12,70.12,0,0,0,38.65,22.44,83.12,83.12,0,0,0,17.56,1.84,91.8,91.8,0,0,0,54.08-17.73c4.06,13.73,12.15,27.23,23.54,38.87,13.09,13.34,28.84,22.73,44.34,26.76a.32.32,0,0,1,.09,0,65.48,65.48,0,0,0,16.41,2.2c1.76,0,3.5-.07,5.19-.24C2766.75,3065.23,2731.32,3108.46,2685.53,3135.71Zm72.37-137.63a81.37,81.37,0,0,1-29.21-19.44c-13.35-13.63-20.83-30-20.52-45a10.47,10.47,0,0,0-18.35-7.13c-13.54,15.44-33.62,24.66-53.73,24.66-.93,0-1.84,0-2.74-.06-21.6-.87-38.57-12.11-45.66-30.46a10.49,10.49,0,0,0-19.13-1c-14.28,28.1-18.79,66.19-14.09,106.15a289.43,289.43,0,0,0,28.32,94.77,80.79,80.79,0,0,0,6.78,11.15c-61.7,34.94-215.47,49.2-273.3,49.2s-211.6-14.26-273.3-49.2a82.74,82.74,0,0,0,6.77-11.15,289,289,0,0,0,28.31-94.77c4.7-40,.2-78-14.09-106.15a10.49,10.49,0,0,0-19.12,1c-7.08,18.35-24,29.59-45.67,30.46-.89,0-1.81.06-2.74.06a70.6,70.6,0,0,1-29.31-6.54,73.06,73.06,0,0,1-24.39-18.12,10.5,10.5,0,0,0-18.38,7.13c.32,14.94-7.15,31.33-20.51,45a81.51,81.51,0,0,1-29.2,19.44c-79.7-86.71-68.9-219.67-32.5-304.39,6.14,19.8,17.07,40.76,31.41,59.47,25.53,33.32,56.64,52.42,85.35,52.42.95,0,1.9,0,2.84-.07a64.7,64.7,0,0,0,20.66-4.27,75.53,75.53,0,0,0,21.56-13c27.28-22.94,25.85-58.17,12.27-95.83-14.27-39.53-41.93-81.73-63.85-115.18-12.78-19.48-24.85-37.9-27.52-46.25,0,0,0,0,0,0v0c-23.67-73-15.2-158.38,23.82-240.44,34.59-72.72,89.52-133.28,147.84-163.34,47.87,32.08,173,45.15,219.7,45.16h.12c46.73,0,171.83-13.08,219.7-45.16,58.32,30.06,113.25,90.62,147.83,163.34,39,82.06,47.49,167.45,23.83,240.44,0,0,0,0,0,0v0c-2.68,8.35-14.75,26.77-27.52,46.25-21.92,33.45-49.59,75.65-63.85,115.18-13.59,37.66-15,72.89,12.25,95.83,12.86,10.82,27.06,16.62,42.22,17.25.95.06,1.91.07,2.87.07,28.7,0,59.81-19.1,85.34-52.42,14.34-18.7,25.26-39.67,31.41-59.47C2826.8,2778.41,2837.6,2911.37,2757.9,2998.08Z" transform="translate(-1073.12 -1835.96)"/><path class="cls-6" d="M2212,2315.52a11.18,11.18,0,0,1-8-3.33c-2.49-2.5-59-58-115.69-13.94a11.23,11.23,0,0,1-13.77-17.74c30.19-23.43,65.13-28,101-13.14a146.51,146.51,0,0,1,44.38,29,11.23,11.23,0,0,1-8,19.12Z" transform="translate(-1073.12 -1835.96)"/><path class="cls-6" d="M2420.59,2315.51a11.23,11.23,0,0,1-8-19.11,146.51,146.51,0,0,1,44.38-29c35.92-14.83,70.86-10.29,101.05,13.14a11.23,11.23,0,0,1-13.77,17.74c-56.79-44.07-113.32,11.55-115.7,13.95A11.22,11.22,0,0,1,2420.59,2315.51Z" transform="translate(-1073.12 -1835.96)"/></svg>