<svg xmlns="http://www.w3.org/2000/svg" viewBox="0 0 64 64"><title>04-Barbell</title><g id="_04-Barbell" data-name="04-Barbell"><rect x="39" y="29" width="4" height="6" style="fill:#707789"/><rect x="21" y="29" width="4" height="6" style="fill:#707789"/><rect x="59" y="29" width="4" height="6" style="fill:#dce1eb"/><rect x="1" y="29" width="4" height="6" style="fill:#dce1eb"/><rect x="1" y="32" width="4" height="3" style="fill:#9196aa"/><rect x="59" y="32" width="4" height="3" style="fill:#9196aa"/><rect x="25" y="29" width="14" height="6" style="fill:#dce1eb"/><rect x="25" y="32" width="14" height="3" style="fill:#9196aa"/><path d="M11,23V41a3,3,0,0,1-6,0V23a3,3,0,0,1,6,0Z" style="fill:#ff7045"/><path d="M8,41V23a2.993,2.993,0,0,1,.88-2.12,3.033,3.033,0,0,1,.623-.464A2.993,2.993,0,0,0,5,23V41a2.982,2.982,0,0,0,4.5,2.585A2.982,2.982,0,0,1,8,41Z" style="fill:#f92814"/><path d="M21,35v9a5,5,0,0,1-10,0V20a5,5,0,1,1,10,0V35Z" style="fill:#ff7045"/><path d="M16,44V20a4.979,4.979,0,0,1,2.5-4.307A4.97,4.97,0,0,0,11,20V44a5,5,0,0,0,5,5,4.946,4.946,0,0,0,2.5-.694A4.981,4.981,0,0,1,16,44Z" style="fill:#f92814"/><path d="M59,35v6a3,3,0,0,1-6,0V23a3,3,0,0,1,6,0V35Z" style="fill:#ff7045"/><path d="M53,41v3a5,5,0,0,1-10,0V20a5,5,0,0,1,10,0V41Z" style="fill:#ff7045"/><path d="M56,41V23a2.993,2.993,0,0,0-.88-2.12,3.033,3.033,0,0,0-.623-.464A2.993,2.993,0,0,1,59,23V41a2.982,2.982,0,0,1-4.5,2.585A2.982,2.982,0,0,0,56,41Z" style="fill:#f92814"/><path d="M48,44V20a4.979,4.979,0,0,0-2.5-4.307A4.97,4.97,0,0,1,53,20V44a5,5,0,0,1-5,5,4.946,4.946,0,0,1-2.5-.694A4.981,4.981,0,0,0,48,44Z" style="fill:#f92814"/><path d="M63,28H60V23a3.974,3.974,0,0,0-6.022-3.432A6,6,0,0,0,42,20v8H22V20a6,6,0,0,0-11.978-.432A3.988,3.988,0,0,0,4,23v5H1a1,1,0,0,0-1,1v6a1,1,0,0,0,1,1H4v5a4,4,0,0,0,4,4,3.959,3.959,0,0,0,2.022-.568A6,6,0,0,0,22,44V36H42v8a6,6,0,0,0,11.978.432A3.959,3.959,0,0,0,56,45a4,4,0,0,0,4-4V36h3a1,1,0,0,0,1-1V29A1,1,0,0,0,63,28ZM2,34V30H4v4Zm40,0H40V30h2Zm-4,0H26V30H38ZM8,43a2,2,0,0,1-2-2V23a2,2,0,0,1,4,0V41A2,2,0,0,1,8,43Zm12,1a4,4,0,0,1-8,0V20a4,4,0,1,1,8,0V44Zm2-14h2v4H22ZM52,44a4,4,0,0,1-8,0V20a4,4,0,0,1,8,0V44Zm6-3a2,2,0,0,1-4,0V23a2,2,0,0,1,4,0Zm4-7H60V30h2Z"/></g></svg>