<svg
   xmlns="http://www.w3.org/2000/svg"
   version="1.1"
   xml:space="preserve"
   viewBox="0 0 1333.3333 1333.3333"><g
     id="g10"
     transform="matrix(1.3333333,0,0,-1.3333333,0,1333.3333)"><g
       id="g12"
       transform="scale(0.1)"><path
         d="M 10000,0 H 0 V 10000 H 10000 V 0"
         style="fill:#ffffff;fill-opacity:1;fill-rule:nonzero;stroke:none"
         id="path14" /><path
         d="m 1192.25,1252.03 c 91.37,-158.48 1288.84,-23.92 4484.48,-163.25 3125.87,-136.268 4080.06,-8.56 3694.87,646.74 -267.38,454.87 -1787.95,1038.37 -4887.55,759.05 -2844.86,-256.36 -3439.4,-986.52 -3291.8,-1242.54"
         style="fill:#def8ff;fill-opacity:1;fill-rule:nonzero;stroke:none"
         id="path16" /><path
         d="m 5324.57,1613.84 c 0,0 -1699.36,-169.75 -2206.91,17.6 -149.87,55.32 -272.33,132.96 -313.41,325.49 -24.7,115.76 -63.06,377.6 38.59,499.01 157.77,188.45 370.59,49.9 370.59,49.9 0,0 391.79,515.65 1004.1,343.44 C 4616.76,2737 5324.57,1613.84 5324.57,1613.84"
         style="fill:#97dfff;fill-opacity:1;fill-rule:nonzero;stroke:none"
         id="path18" /><path
         d="m 2787.8,2338.31 c -0.57,0 -1.14,0.09 -1.7,0.29 -2.6,0.94 -3.94,3.8 -3.01,6.4 38.25,106.21 97.34,173.13 175.65,198.9 136.71,44.98 286.07,-53.31 287.56,-54.32 2.3,-1.53 2.92,-4.63 1.38,-6.93 -1.53,-2.29 -4.63,-2.91 -6.93,-1.38 -1.46,0.98 -146.91,96.61 -278.94,53.11 -75.2,-24.77 -132.17,-89.62 -169.31,-192.77 -0.73,-2.03 -2.66,-3.3 -4.7,-3.3"
         style="fill:#000000;fill-opacity:1;fill-rule:nonzero;stroke:none"
         id="path20" /><path
         d="m 3993.1,1532.48 c -342.52,0 -681.71,22.11 -877.17,94.26 -2.59,0.96 -3.92,3.84 -2.96,6.43 0.96,2.59 3.83,3.91 6.42,2.96 500.67,-184.81 1952.44,-39.58 1967.05,-38.09 2.74,0.23 5.2,-1.72 5.48,-4.47 0.28,-2.74 -1.72,-5.2 -4.47,-5.48 -8.94,-0.91 -555.75,-55.61 -1094.35,-55.61"
         style="fill:#000000;fill-opacity:1;fill-rule:nonzero;stroke:none"
         id="path22" /><path
         d="m 3117.65,2170.33 c -0.85,0 -1.71,0.22 -2.5,0.68 -2.39,1.38 -3.2,4.44 -1.82,6.83 2.48,4.27 61.6,104.4 155.9,104.31 115.72,-0.25 154.57,-26.87 156.16,-28 2.26,-1.6 2.79,-4.72 1.19,-6.98 -1.59,-2.24 -4.7,-2.78 -6.95,-1.19 -0.38,0.26 -38.57,25.93 -150.42,26.17 -88.53,0 -146.65,-98.33 -147.23,-99.33 -0.93,-1.59 -2.6,-2.49 -4.33,-2.49"
         style="fill:#000000;fill-opacity:1;fill-rule:nonzero;stroke:none"
         id="path24" /><path
         d="m 2892.47,2376.64 c -0.68,0 -1.36,0.14 -2.02,0.43 -2.52,1.1 -3.67,4.06 -2.56,6.58 70.69,160.72 264.5,79.18 266.45,78.34 2.53,-1.09 3.7,-4.04 2.6,-6.57 -1.09,-2.54 -4.03,-3.7 -6.57,-2.61 -7.59,3.27 -186.64,78.42 -253.32,-73.18 -0.83,-1.88 -2.66,-2.99 -4.58,-2.99"
         style="fill:#000000;fill-opacity:1;fill-rule:nonzero;stroke:none"
         id="path26" /><path
         d="m 3152.35,1728.75 c -92.26,0 -228.07,75.77 -285.78,199.37 -33.01,70.72 -49.94,287.38 25.9,305.84 123.88,30.16 387.39,-505.21 259.88,-505.21"
         style="fill:#ff383c;fill-opacity:1;fill-rule:nonzero;stroke:none"
         id="path28" /><path
         d="m 6442.57,1676.76 c 0,0 1387.4,-280.79 1960.77,-13.14 131.66,61.46 244.12,132.97 280.95,325.5 22.14,115.76 56.53,377.59 -34.59,499 -141.44,188.46 -332.21,49.91 -332.21,49.91 0,0 -489.42,461.64 -775.93,388.55 C 7075.85,2807.79 6442.57,1676.76 6442.57,1676.76"
         style="fill:#97dfff;fill-opacity:1;fill-rule:nonzero;stroke:none"
         id="path30" /><path
         d="m 8221.32,2616.64 c -1.04,0 -2.1,0.32 -3,1 l -173.08,130.37 c -2.2,1.66 -2.64,4.79 -0.98,7 1.66,2.2 4.8,2.65 7,0.99 l 173.08,-130.37 c 2.2,-1.66 2.64,-4.8 0.98,-7 -0.98,-1.31 -2.48,-1.99 -4,-1.99"
         style="fill:#000000;fill-opacity:1;fill-rule:nonzero;stroke:none"
         id="path32" /><path
         d="m 8699.04,2391.02 c -2.01,0 -3.9,1.22 -4.66,3.2 -38.74,100.69 -94.8,161.23 -166.61,179.94 -129.02,33.61 -267.44,-79.88 -268.82,-81.03 -2.13,-1.76 -5.28,-1.47 -7.04,0.65 -1.77,2.12 -1.48,5.27 0.64,7.04 5.8,4.82 143.67,117.89 277.7,83.03 75.13,-19.56 133.49,-82.15 173.46,-186.03 0.99,-2.58 -0.3,-5.48 -2.88,-6.47 -0.58,-0.22 -1.19,-0.33 -1.79,-0.33"
         style="fill:#000000;fill-opacity:1;fill-rule:nonzero;stroke:none"
         id="path34" /><path
         d="m 7673.9,1537.39 c -283.5,0 -516.25,35.53 -520.43,36.18 -2.73,0.43 -4.59,2.99 -4.17,5.72 0.43,2.73 2.96,4.58 5.72,4.17 7.52,-1.18 757.26,-115.59 1205.72,69.06 2.55,1.05 5.48,-0.17 6.53,-2.72 1.05,-2.55 -0.16,-5.48 -2.72,-6.53 -201.19,-82.84 -462.37,-105.88 -690.65,-105.88"
         style="fill:#000000;fill-opacity:1;fill-rule:nonzero;stroke:none"
         id="path36" /><path
         d="m 8409.77,2212.88 c -0.24,0 -0.49,0.02 -0.74,0.05 -2.73,0.41 -4.62,2.95 -4.21,5.68 0.12,0.85 11.9,85.11 -34.28,138.59 -25.53,29.57 -64.15,44.56 -114.79,44.56 -2.76,0 -5,2.23 -5,5 0,2.76 2.24,5 5,5 53.7,0 94.88,-16.17 122.4,-48.07 49.17,-57 37.1,-142.91 36.56,-146.54 -0.37,-2.49 -2.5,-4.27 -4.94,-4.27"
         style="fill:#000000;fill-opacity:1;fill-rule:nonzero;stroke:none"
         id="path38" /><path
         d="m 8583.45,2391.02 c -2.44,0 -4.58,1.79 -4.94,4.28 -7.48,51.66 -26.47,88.83 -56.43,110.47 -37.39,27.01 -79.13,19.97 -79.55,19.91 -2.72,-0.51 -5.32,1.33 -5.8,4.05 -0.48,2.72 1.33,5.31 4.05,5.79 1.87,0.34 46.37,7.82 87.15,-21.64 32.25,-23.29 52.59,-62.7 60.48,-117.14 0.4,-2.74 -1.5,-5.27 -4.23,-5.67 -0.24,-0.03 -0.49,-0.05 -0.73,-0.05"
         style="fill:#000000;fill-opacity:1;fill-rule:nonzero;stroke:none"
         id="path40" /><path
         d="m 8316.85,1738.45 c 105.68,-0.04 259.84,98.25 311.57,221.86 29.6,70.72 26.44,270.08 -41.54,288.54 -111.06,30.16 -384.33,-510.35 -270.03,-510.4"
         style="fill:#ff383c;fill-opacity:1;fill-rule:nonzero;stroke:none"
         id="path42" /><path
         d="m 4943.12,7534.08 c 0,0 -147.05,189.41 -302.47,110.35 -103.18,-52.49 -140.21,-198.07 -98.6,-268.37 84.13,-142.11 326.33,-65.79 326.33,-65.79 l 74.74,223.81"
         style="fill:#97dfff;fill-opacity:1;fill-rule:nonzero;stroke:none"
         id="path44" /><path
         d="m 4542.06,7371.06 c -1.71,0 -3.38,0.88 -4.31,2.45 -20.04,33.87 -23.02,85.01 -7.97,136.81 18.06,62.14 57.64,112.64 108.61,138.57 157.28,79.99 307.19,-109.82 308.68,-111.74 1.69,-2.19 1.3,-5.33 -0.88,-7.02 -2.18,-1.69 -5.32,-1.3 -7.02,0.88 -1.45,1.86 -146.36,185.23 -296.25,108.96 -48.51,-24.67 -86.25,-72.95 -103.54,-132.44 -14.29,-49.2 -11.69,-97.39 6.97,-128.92 1.41,-2.38 0.63,-5.44 -1.75,-6.85 -0.8,-0.47 -1.68,-0.7 -2.54,-0.7"
         style="fill:#000000;fill-opacity:1;fill-rule:nonzero;stroke:none"
         id="path46" /><path
         d="m 6339.28,7547.26 c -107.37,139.34 -344.92,412.62 -551.07,437.54 -210.68,25.48 -543.46,37.73 -653.94,-71.65 -59.71,-59.12 -28.83,-91.24 -28.83,-91.24 -124.83,-64.79 -273.72,-181.77 -341.69,-342.91 -48.52,-115.03 -55.71,-322.05 -43.83,-446.32 6.87,-71.88 -121.63,-342.69 -77.88,-589.93 46.49,-262.74 141.37,-323 141.37,-323 0,0 -114.13,-775.08 -326.39,-1074.77 -507.25,-716.21 -620.95,-1768.79 -450.59,-2358.16 229.3,-793.26 1364.12,-1601.44 2896.88,-911.39 473.95,213.38 1000.24,535.66 948.84,1520.99 -39.16,750.87 -647.38,2297.49 -963.42,2979.72 -76.51,165.15 -166.03,432.17 -264.44,688.16 -6.68,17.37 73.94,-79.36 85.76,-26.38 4.47,20.03 -52.26,125.26 -83.62,170.5 -116.59,168.23 -202.83,329.41 -287.15,438.84"
         style="fill:#97dfff;fill-opacity:1;fill-rule:nonzero;stroke:none"
         id="path48" /><path
         d="m 5262.78,5831.38 c -0.4,0 -0.81,0.05 -1.22,0.14 -435.41,108.39 -520.21,351.63 -521.02,354.08 -0.86,2.62 0.56,5.44 3.18,6.31 2.63,0.85 5.45,-0.56 6.32,-3.18 0.79,-2.39 84.34,-240.57 513.94,-347.5 2.68,-0.67 4.31,-3.38 3.64,-6.06 -0.56,-2.27 -2.6,-3.79 -4.84,-3.79"
         style="fill:#000000;fill-opacity:1;fill-rule:nonzero;stroke:none"
         id="path50" /><path
         d="m 5690.55,6167.59 c -17.75,0 -38.43,3.07 -60.04,12.54 -80.52,35.25 -120.56,136.75 -122.23,141.05 -0.99,2.58 0.29,5.48 2.86,6.47 2.59,1 5.47,-0.28 6.47,-2.86 0.39,-1.01 40.25,-101.94 116.91,-135.5 56.17,-24.59 107.04,-2.28 107.54,-2.06 2.52,1.14 5.48,0.02 6.61,-2.5 1.14,-2.51 0.03,-5.47 -2.49,-6.61 -1.43,-0.65 -23.81,-10.53 -55.63,-10.53"
         style="fill:#000000;fill-opacity:1;fill-rule:nonzero;stroke:none"
         id="path52" /><path
         d="m 5815.43,7057.57 c 11.03,18.89 -9.49,91.3 -49,82.69 -203.66,-44.38 -214.42,-80.15 -496.95,-89.87 -89.01,-3.07 -105.49,-24.25 -104.45,-72.44 2.12,-97.49 227.77,-147.55 300.78,-138.45 113.83,14.2 320.48,168.21 349.62,218.07"
         style="fill:#000000;fill-opacity:1;fill-rule:nonzero;stroke:none"
         id="path54" /><path
         d="m 5191.16,7791.39 c -3.96,0 -91.29,0.57 -97.43,46.8 -3.81,28.66 4.38,54.28 24.32,76.14 96.28,105.51 436.08,93 450.5,92.41 2.76,-0.12 4.9,-2.44 4.79,-5.2 -0.11,-2.76 -2.46,-5.02 -5.2,-4.79 -3.49,0.14 -349.56,12.93 -442.7,-89.16 -17.86,-19.57 -25.2,-42.49 -21.8,-68.09 5,-37.66 86.71,-38.11 87.53,-38.11 2.77,0 5,-2.23 5,-5 0,-2.75 -2.23,-5 -4.99,-5 -0.01,0 -0.02,0 -0.02,0"
         style="fill:#000000;fill-opacity:1;fill-rule:nonzero;stroke:none"
         id="path56" /><path
         d="m 5200.73,7623.52 c -4.19,0 -8.31,0.7 -12.34,2.21 -20.35,7.63 -33.78,22.49 -38.83,42.95 -11.35,45.98 19.98,119.03 79.81,186.1 1.83,2.06 5,2.24 7.06,0.4 2.06,-1.83 2.24,-5 0.4,-7.06 -57.69,-64.68 -88.14,-134.17 -77.56,-177.04 4.28,-17.37 15.26,-29.47 32.63,-35.98 41.37,-15.54 105.13,85.17 126.2,125.26 1.28,2.45 4.3,3.39 6.75,2.1 2.44,-1.28 3.38,-4.3 2.1,-6.74 -3.03,-5.78 -70.13,-132.2 -126.22,-132.2"
         style="fill:#000000;fill-opacity:1;fill-rule:nonzero;stroke:none"
         id="path58" /><path
         d="m 5521.52,6603.9 c -64.27,0 -114.54,14.82 -115.53,15.11 -2.64,0.8 -4.13,3.6 -3.33,6.24 0.8,2.64 3.58,4.13 6.23,3.33 1.91,-0.58 191.9,-56.45 302.06,53.09 1.96,1.95 5.12,1.94 7.07,-0.02 1.95,-1.96 1.94,-5.12 -0.02,-7.07 -56.71,-56.38 -133.35,-70.68 -196.48,-70.68"
         style="fill:#000000;fill-opacity:1;fill-rule:nonzero;stroke:none"
         id="path60" /><path
         d="m 5546.93,7270.68 c 2.97,-16.78 18.99,-27.98 35.78,-25.01 16.78,2.97 27.99,18.98 25.01,35.77 -2.97,16.79 -18.98,27.99 -35.77,25.02 -16.79,-2.97 -27.99,-18.99 -25.02,-35.78"
         style="fill:#000000;fill-opacity:1;fill-rule:nonzero;stroke:none"
         id="path62" /><path
         d="m 5473.88,7460.58 c 2.04,-16.93 34.73,-26.9 73.02,-22.28 38.29,4.61 67.67,22.07 65.63,39 -2.04,16.93 -34.73,26.91 -73.02,22.29 -38.29,-4.62 -67.67,-22.08 -65.63,-39.01"
         style="fill:#000000;fill-opacity:1;fill-rule:nonzero;stroke:none"
         id="path64" /><path
         d="m 6124.19,7099.06 c -3.36,-38.42 25.05,-72.29 63.46,-75.66 38.42,-3.37 72.29,25.04 75.66,63.46 3.37,38.41 -25.04,72.29 -63.46,75.66 -38.41,3.37 -72.29,-25.04 -75.66,-63.46"
         style="fill:#ff383c;fill-opacity:1;fill-rule:nonzero;stroke:none"
         id="path66" /><path
         d="m 4856.99,6874.84 c -3.36,-38.41 25.05,-72.29 63.46,-75.66 38.42,-3.36 72.29,25.05 75.66,63.47 3.37,38.41 -25.04,72.29 -63.46,75.66 -38.41,3.36 -72.29,-25.05 -75.66,-63.47"
         style="fill:#ff383c;fill-opacity:1;fill-rule:nonzero;stroke:none"
         id="path68" /><path
         d="m 5662.16,7044.38 c -4.49,11.91 -31.96,12.6 -61.36,1.53 -29.4,-11.07 -49.6,-29.7 -45.11,-41.61 4.48,-11.92 31.95,-12.6 61.35,-1.53 29.4,11.07 49.6,29.7 45.12,41.61"
         style="fill:#ffffff;fill-opacity:1;fill-rule:nonzero;stroke:none"
         id="path70" /><path
         d="m 5254.29,7414.06 c 3.86,-16.61 37.45,-22.99 75.01,-14.26 37.56,8.74 64.88,29.27 61.02,45.88 -3.86,16.61 -37.44,22.99 -75,14.25 -37.56,-8.73 -64.89,-29.27 -61.03,-45.87"
         style="fill:#000000;fill-opacity:1;fill-rule:nonzero;stroke:none"
         id="path72" /><path
         d="m 5325.3,7231.47 c 2.96,-16.79 18.98,-27.99 35.77,-25.01 16.79,2.96 27.99,18.98 25.02,35.77 -2.97,16.78 -18.99,27.98 -35.78,25.02 -16.78,-2.98 -27.99,-18.99 -25.01,-35.78"
         style="fill:#000000;fill-opacity:1;fill-rule:nonzero;stroke:none"
         id="path74" /><path
         d="m 6477.99,4955.19 c 118.63,-447.27 367.04,-1182.98 345.68,-1559.65 -22.55,-397.57 -71.27,-773.9 -445.26,-1030.38 -388.25,-266.26 -1050.55,-204.44 -1322.57,4.18 -328.97,252.3 -391.05,536.95 -310.44,1059.49 29.84,193.43 240.31,418.78 316.1,599.23 157.95,376.07 182.93,1468.34 607.4,1698.5 326.8,177.21 633.34,-108.73 809.09,-771.37"
         style="fill:#f4f7fa;fill-opacity:1;fill-rule:nonzero;stroke:none"
         id="path76" /><path
         d="m 4719.17,7031.88 c -2.55,0 -4.72,1.94 -4.97,4.53 -12.99,135.94 -1.92,339.42 44.2,448.74 81.33,192.8 264.05,303.89 338.84,342.7 2.45,1.27 5.47,0.32 6.74,-2.13 1.27,-2.45 0.31,-5.47 -2.14,-6.74 -73.82,-38.32 -254.17,-147.92 -334.23,-337.71 -45.48,-107.82 -56.33,-309.19 -43.45,-443.91 0.26,-2.75 -1.76,-5.19 -4.51,-5.45 -0.16,-0.02 -0.32,-0.03 -0.48,-0.03"
         style="fill:#000000;fill-opacity:1;fill-rule:nonzero;stroke:none"
         id="path78" /><path
         d="m 6887.98,6275.35 c -1.88,0 -3.69,1.08 -4.54,2.9 -50.05,108.05 -106.16,260.98 -165.56,422.89 -31.9,86.93 -64.88,176.82 -99,265.57 -1.79,4.67 0.23,6.97 1.59,7.93 4.22,2.94 7.5,0.14 19.68,-10.4 13.95,-12.04 42.96,-37.12 56.53,-32.64 1.38,0.45 5.56,1.83 7.75,11.62 3.6,16.15 -47.83,116.03 -82.85,166.57 -1.58,2.27 -1.01,5.38 1.26,6.95 2.27,1.58 5.39,1.01 6.96,-1.26 26.9,-38.81 89.73,-150.47 84.39,-174.44 -2.27,-10.17 -7.11,-16.54 -14.37,-18.94 -17.47,-5.75 -42.29,13.91 -66.2,34.58 32.13,-84.44 63.37,-169.6 93.65,-252.1 59.33,-161.71 115.37,-314.45 165.25,-422.13 1.16,-2.5 0.07,-5.47 -2.44,-6.63 -0.68,-0.32 -1.39,-0.47 -2.1,-0.47"
         style="fill:#000000;fill-opacity:1;fill-rule:nonzero;stroke:none"
         id="path80" /><path
         d="m 5790.63,1510.43 c -208.47,0 -388.12,28.8 -533.07,65.89 -439.04,112.36 -813.01,363.72 -1026.02,689.63 -1.51,2.31 -0.86,5.41 1.45,6.92 2.31,1.51 5.41,0.87 6.92,-1.45 211.65,-323.84 583.48,-573.67 1020.13,-685.41 361.2,-92.44 939.12,-133.09 1641.13,198.22 2.49,1.18 5.48,0.11 6.66,-2.39 1.18,-2.49 0.11,-5.48 -2.39,-6.65 -423.15,-199.7 -801.51,-264.76 -1114.81,-264.76"
         style="fill:#000000;fill-opacity:1;fill-rule:nonzero;stroke:none"
         id="path82" /><path
         d="m 7527.54,3124.48 c 50.91,-179.64 30.42,-425.49 -27.35,-495.03 -29.14,-35.08 -117.2,64.09 -128.97,19.16 -121.56,-463.95 -350.74,-892.15 -540.82,-1020.98 -158.04,-107.1 -707.37,-317.09 -889.03,-109.89 -161.01,183.66 197.59,345.48 242.7,827.61 115.09,1230.17 596.12,2388.02 596.12,2388.02 0,0 443.2,-535.73 747.35,-1608.89"
         style="fill:#97dfff;fill-opacity:1;fill-rule:nonzero;stroke:none"
         id="path84" /><path
         d="m 6174.02,1430.49 c -103.81,-0.01 -191.16,23.37 -236.66,84.26 -81.75,109.42 -25.45,200.63 52.49,326.85 74.6,120.82 167.44,271.19 189.24,504.21 113.84,1216.86 591.66,2377.89 596.48,2389.48 1.06,2.55 3.99,3.75 6.53,2.7 2.55,-1.06 3.76,-3.99 2.7,-6.54 -4.8,-11.57 -482.05,-1171.26 -595.75,-2386.57 -22.02,-235.35 -115.55,-386.82 -190.69,-508.54 -78.69,-127.44 -130.67,-211.63 -52.98,-315.6 143.95,-192.68 722.48,2.78 882.22,111.03 191.65,129.9 418.24,558.07 538.78,1018.11 1.84,7.02 5.5,11.77 10.86,14.08 13.07,5.64 32.28,-4.81 54.5,-16.93 24.7,-13.47 52.68,-28.73 64.6,-14.39 38.56,46.42 50.66,133.51 68.99,265.35 8.86,63.81 18.92,136.14 34.07,221.55 0.49,2.71 3.07,4.55 5.8,4.05 2.72,-0.48 4.53,-3.08 4.05,-5.8 -15.12,-85.23 -25.16,-157.45 -34.02,-221.18 -19.22,-138.28 -30.82,-221.75 -71.2,-270.36 -17.17,-20.65 -49,-3.31 -77.08,12 -18.25,9.96 -37.15,20.26 -45.75,16.53 -0.89,-0.39 -3.6,-1.56 -5.15,-7.44 -121.08,-462.14 -349.38,-892.73 -542.84,-1023.85 -111.79,-75.76 -426.72,-193 -659.19,-193"
         style="fill:#000000;fill-opacity:1;fill-rule:nonzero;stroke:none"
         id="path86" /><path
         d="m 6191.47,7518.91 c 0,0 286.11,7.09 320.25,212.39 22.66,136.3 -90.95,274.99 -187.96,284.81 -196.1,19.85 -294.34,-266.87 -294.34,-266.87 l 162.05,-230.33"
         style="fill:#97dfff;fill-opacity:1;fill-rule:nonzero;stroke:none"
         id="path88" /><path
         d="m 6355.03,7744.98 c 1.88,4.91 -29.62,74.5 -52.68,75.9 -52.98,3.22 -144.4,-155.65 -144.4,-155.65 0,0 111.4,-46.45 135.31,-21.91 9.86,10.12 -16.07,42.57 -10.47,55.53 8.51,19.67 64.58,26.12 72.24,46.13"
         style="fill:#000000;fill-opacity:1;fill-rule:nonzero;stroke:none"
         id="path90" /><path
         d="m 6007.47,1594.21 c -1.77,0 -3.49,0.95 -4.4,2.62 -0.86,1.6 -20.84,39.77 -0.29,95.73 25.52,69.48 119.6,113.71 123.59,115.56 2.51,1.17 5.47,0.07 6.64,-2.43 1.16,-2.5 0.07,-5.48 -2.44,-6.64 -0.94,-0.43 -94.32,-44.37 -118.4,-109.94 -18.92,-51.51 -0.48,-87.19 -0.29,-87.55 1.3,-2.43 0.38,-5.46 -2.05,-6.76 -0.75,-0.4 -1.56,-0.59 -2.36,-0.59"
         style="fill:#000000;fill-opacity:1;fill-rule:nonzero;stroke:none"
         id="path92" /><path
         d="m 6163.06,1528.21 c -1.78,0 -3.5,0.95 -4.4,2.62 -0.86,1.6 -20.84,39.78 -0.29,95.73 25.51,69.48 119.59,113.71 123.58,115.56 2.51,1.17 5.48,0.07 6.64,-2.43 1.16,-2.5 0.07,-5.48 -2.44,-6.64 -0.94,-0.43 -94.32,-44.37 -118.4,-109.94 -18.91,-51.5 -0.47,-87.19 -0.28,-87.55 1.29,-2.43 0.37,-5.46 -2.05,-6.76 -0.76,-0.4 -1.57,-0.59 -2.36,-0.59"
         style="fill:#000000;fill-opacity:1;fill-rule:nonzero;stroke:none"
         id="path94" /><path
         d="m 6096.46,5334.73 c 2.56,-127.95 -94.82,-233.67 -217.51,-236.12 -122.69,-2.45 -224.22,99.28 -226.77,227.23 -2.57,127.96 94.82,233.68 217.51,236.13 122.68,2.45 224.21,-99.28 226.77,-227.24"
         style="fill:#ffb335;fill-opacity:1;fill-rule:nonzero;stroke:none"
         id="path96" /><path
         d="m 5979.18,5035.67 c 2.84,-142.06 -110.02,-259.53 -252.09,-262.37 -142.06,-2.84 -293.89,129.62 -296.73,271.68 -2.84,142.07 112.31,265.44 284.61,265.4 142.1,-0.03 261.37,-132.65 264.21,-274.71"
         style="fill:#ff383c;fill-opacity:1;fill-rule:nonzero;stroke:none"
         id="path98" /><path
         d="m 6313.42,5020.37 c -8.64,-141.83 -137.26,-249.39 -287.28,-240.25 -150.02,9.14 -264.63,131.53 -255.99,273.36 8.65,141.82 137.02,265.57 287.04,256.43 150.02,-9.14 264.88,-147.71 256.23,-289.54"
         style="fill:#2f5ef4;fill-opacity:1;fill-rule:nonzero;stroke:none"
         id="path100" /><path
         d="m 5518.09,4873.59 287.75,-1206.6 415.28,1150.72 c 0,0 -161.1,76.72 -366.5,107.05 -200.92,29.66 -336.53,-51.17 -336.53,-51.17"
         style="fill:#fe980d;fill-opacity:1;fill-rule:nonzero;stroke:none"
         id="path102" /><path
         d="m 3936.33,4053 c -29.02,-184.45 -0.61,-534.08 77.89,-574.84 40.47,-21.01 75.24,146.88 87.91,102.19 130.81,-461.43 596.63,-897.1 979.28,-397.64 117.28,153.09 377.08,559.71 634.9,743.05 177.96,126.55 398.51,-4.28 496.42,176.3 187.33,345.49 -124.06,698.67 -647.41,514.83 -189.19,-66.46 -711.83,-506.64 -711.83,-506.64 -301.16,846.62 -119.28,1739.33 -119.28,1739.33 0,0 -610.87,-607.66 -797.88,-1796.58"
         style="fill:#97dfff;fill-opacity:1;fill-rule:nonzero;stroke:none"
         id="path104" /><path
         d="m 4853.49,4105.25 c -2.06,0 -3.98,1.27 -4.71,3.32 -96.69,271.82 -162.24,558.72 -194.82,852.73 -0.3,2.74 1.67,5.21 4.42,5.52 2.77,0.33 5.21,-1.67 5.52,-4.42 32.5,-293.24 97.87,-579.39 194.3,-850.48 0.93,-2.6 -0.43,-5.46 -3.04,-6.38 -0.55,-0.2 -1.11,-0.29 -1.67,-0.29"
         style="fill:#000000;fill-opacity:1;fill-rule:nonzero;stroke:none"
         id="path106" /><path
         d="m 4707.14,2955.71 c -23.16,0 -46.5,2.22 -69.96,6.71 -253.39,48.4 -463.39,346.81 -539.86,616.57 -0.43,1.49 -0.82,2.5 -1.13,3.17 -4.38,-4.45 -12.34,-22.25 -18.3,-35.55 -14.11,-31.52 -30.09,-67.24 -49.72,-74.09 -5.52,-1.94 -11,-1.52 -16.26,1.2 -2.45,1.28 -3.4,4.29 -2.13,6.74 1.27,2.46 4.28,3.41 6.74,2.14 2.79,-1.45 5.44,-1.66 8.36,-0.64 15.55,5.43 31.93,42.01 43.88,68.73 13.32,29.76 19.67,42.9 28.53,42.24 6.61,-0.48 8.9,-8.56 9.65,-11.22 75.64,-266.8 282.7,-561.83 532.11,-609.47 156.84,-29.95 308.42,43.87 438.39,213.51 23.17,30.24 51.91,70.4 85.19,116.9 136.72,191.01 343.32,479.66 550.78,627.19 81.16,57.71 172.65,62.76 253.38,67.21 101.4,5.59 188.97,10.43 241.54,107.39 81.96,151.16 68.75,317.07 -34.47,433 -100.87,113.27 -313.21,192.42 -606.68,74.81 -223.12,-89.4 -899.22,-659.64 -906.02,-665.39 -2.11,-1.79 -5.26,-1.52 -7.05,0.59 -1.78,2.11 -1.51,5.26 0.59,7.05 6.82,5.76 684.16,577.04 908.76,667.04 298.28,119.5 514.74,38.35 617.87,-77.45 106.1,-119.16 119.82,-289.45 35.79,-444.42 -55.23,-101.87 -149.73,-107.09 -249.78,-112.6 -83.25,-4.6 -169.33,-9.35 -248.13,-65.39 -206.1,-146.55 -412.12,-434.39 -548.45,-624.85 -33.33,-46.57 -62.12,-86.79 -85.38,-117.16 -113.1,-147.62 -242.66,-223.96 -378.24,-223.96"
         style="fill:#000000;fill-opacity:1;fill-rule:nonzero;stroke:none"
         id="path108" /><path
         d="m 6208.56,4385.16 c -1.74,0 -3.42,0.9 -4.35,2.52 -0.77,1.34 -78.56,133.95 -215.94,97.14 -2.67,-0.72 -5.41,0.86 -6.13,3.53 -0.71,2.67 0.87,5.41 3.54,6.13 144.92,38.83 226.41,-100.43 227.22,-101.84 1.37,-2.4 0.53,-5.45 -1.86,-6.82 -0.79,-0.45 -1.64,-0.66 -2.48,-0.66"
         style="fill:#000000;fill-opacity:1;fill-rule:nonzero;stroke:none"
         id="path110" /><path
         d="m 6196.26,4198.24 c -1.01,0 -2.04,0.3 -2.93,0.95 -1.39,1.01 -140.64,100 -248.53,22.48 -2.25,-1.6 -5.36,-1.09 -6.97,1.15 -1.61,2.24 -1.1,5.37 1.14,6.98 113.8,81.74 258.78,-21.46 260.23,-22.51 2.24,-1.63 2.74,-4.75 1.11,-6.99 -0.97,-1.34 -2.5,-2.06 -4.05,-2.06"
         style="fill:#000000;fill-opacity:1;fill-rule:nonzero;stroke:none"
         id="path112" /><path
         d="m 3500.3,1643.67 c -69.18,-84.04 -136.31,-81.39 -128.7,-133.47 14.3,-97.76 298.77,-102.87 335.3,-0.51 30.15,84.47 -0.26,266.41 -54.43,278.98 -64.36,14.93 -97.98,-79.16 -152.17,-145"
         style="fill:#f47b24;fill-opacity:1;fill-rule:nonzero;stroke:none"
         id="path114" /><path
         d="m 3433.61,1482.03 c -2.73,0 -4.96,2.19 -5,4.93 -0.4,29.67 11.57,51.05 35.56,63.53 2.45,1.28 5.47,0.32 6.74,-2.13 1.28,-2.45 0.33,-5.46 -2.13,-6.74 -20.65,-10.75 -30.52,-28.58 -30.17,-54.52 0.04,-2.76 -2.17,-5.03 -4.93,-5.07 -0.02,0 -0.04,0 -0.07,0"
         style="fill:#000000;fill-opacity:1;fill-rule:nonzero;stroke:none"
         id="path116" /><path
         d="m 3528.25,1457.09 c -2.41,0 -4.53,1.75 -4.93,4.21 -8.23,51.29 53.29,79.59 55.91,80.77 2.53,1.12 5.48,0.01 6.61,-2.5 1.13,-2.52 0.01,-5.48 -2.51,-6.62 -0.57,-0.26 -57.15,-26.35 -50.14,-70.06 0.44,-2.73 -1.42,-5.29 -4.14,-5.73 -0.27,-0.05 -0.54,-0.07 -0.8,-0.07"
         style="fill:#000000;fill-opacity:1;fill-rule:nonzero;stroke:none"
         id="path118" /><path
         d="m 2256.51,1901.94 c -207.15,-65.41 -268.47,-32.91 -278.37,-67.23 -8.52,-29.52 119.37,-126.29 277.39,-149.53 119.33,-17.55 239.45,36.11 239.45,36.11 0,0 -173.75,201.09 -238.47,180.65"
         style="fill:#000000;fill-opacity:1;fill-rule:nonzero;stroke:none"
         id="path120" /><path
         d="m 2191.81,1716.88 c 293.75,-288.4 1228.71,-299.46 1551.3,75.65 406.77,472.99 -76.73,1979.4 -434.32,2337.13 -209.86,209.94 -525.15,176.57 -601.02,-112.89 -149.4,-569.95 -943.05,-1880.56 -515.96,-2299.89"
         style="fill:#000000;fill-opacity:1;fill-rule:nonzero;stroke:none"
         id="path122" /><path
         d="m 2626.49,1903.4 c 236.64,-221.75 850.18,-221.75 1024.89,68.44 249.45,414.34 -70.31,1357.02 -243,1905.16 -98.73,313.36 -440.26,264.8 -528.69,48.9 -160.03,-390.72 -583.94,-1712.56 -253.2,-2022.5"
         style="fill:#ffffff;fill-opacity:1;fill-rule:nonzero;stroke:none"
         id="path124" /><path
         d="m 3372.77,3752.11 c 63.64,-22.01 196.05,-56.26 182.28,-97.11 -35.64,-105.76 -413.42,-101.4 -456.57,-24.35 -27.93,49.89 30.68,168.85 86.09,198.43 65.85,35.14 88.92,-42.63 188.2,-76.97"
         style="fill:#ffb82c;fill-opacity:1;fill-rule:nonzero;stroke:none"
         id="path126" /><path
         d="m 3059,3765.87 c -13.59,0 -28.03,3.37 -42.12,10.17 -4.98,2.39 -7.07,8.37 -4.67,13.34 2.4,4.98 8.37,7.06 13.35,4.67 28.67,-13.83 51.93,-8.1 64.14,1.86 10.6,8.65 14.73,21.29 11.34,34.68 -1.35,5.35 1.89,10.79 7.25,12.14 5.37,1.38 10.79,-1.89 12.14,-7.24 5.3,-20.92 -1.47,-41.51 -18.09,-55.07 -11.82,-9.66 -26.97,-14.55 -43.34,-14.55"
         style="fill:#000000;fill-opacity:1;fill-rule:nonzero;stroke:none"
         id="path128" /><path
         d="m 3296.78,3587.15 c -27.82,0 -55.96,10.77 -71.36,34.96 -1.48,2.33 -0.8,5.42 1.53,6.9 2.33,1.48 5.42,0.8 6.9,-1.53 20.16,-31.66 65.85,-36.86 98.37,-23.59 2.56,1.06 5.47,-0.18 6.52,-2.74 1.04,-2.56 -0.19,-5.47 -2.74,-6.52 -11.96,-4.88 -25.56,-7.48 -39.22,-7.48"
         style="fill:#000000;fill-opacity:1;fill-rule:nonzero;stroke:none"
         id="path130" /><path
         d="m 3306.41,3827.03 c -18.62,0 -40,9.86 -51.75,31.93 -2.6,4.87 -0.75,10.93 4.13,13.53 4.87,2.59 10.93,0.74 13.52,-4.13 9.39,-17.64 28.63,-24.14 41.84,-20.3 7.13,2.1 10.46,6.66 9.9,13.57 -0.46,5.51 3.64,10.34 9.14,10.79 5.49,0.46 10.34,-3.65 10.79,-9.15 1.35,-16.44 -7.93,-29.62 -24.2,-34.4 -4.15,-1.21 -8.67,-1.84 -13.37,-1.84"
         style="fill:#000000;fill-opacity:1;fill-rule:nonzero;stroke:none"
         id="path132" /><path
         d="m 3220.43,3953.37 c -8.43,32.31 90.7,16.7 104.83,1.66 17.71,-18.85 -101.26,-15.32 -104.83,-1.66"
         style="fill:#000000;fill-opacity:1;fill-rule:nonzero;stroke:none"
         id="path134" /><path
         d="m 3074.29,3935.68 c -5.37,33.23 -97.9,-28.26 -105.61,-48.61 -9.66,-25.51 107.88,34.54 105.61,48.61"
         style="fill:#000000;fill-opacity:1;fill-rule:nonzero;stroke:none"
         id="path136" /><path
         d="m 3508.35,3657.71 c -4.48,13.86 -23.22,-10.39 -23.37,-17.86 -0.18,-9.36 25.27,12 23.37,17.86"
         style="fill:#000000;fill-opacity:1;fill-rule:nonzero;stroke:none"
         id="path138" /><path
         d="m 2582.87,3495.37 c -349.99,30.35 -468.15,209.74 -505.57,174.49 -32.19,-30.32 -44.17,-204.8 84.51,-333.93 123.3,-123.73 343.13,-219.73 343.13,-219.73 0,0 168.61,371.3 77.93,379.17"
         style="fill:#000000;fill-opacity:1;fill-rule:nonzero;stroke:none"
         id="path140" /><path
         d="m 3669.02,3440.27 c 0,0 562.59,-622.31 571,-690.74 7.41,-60.34 -344.53,-13.31 -442.14,93.33 -90.23,98.58 -127.9,383.38 -127.9,383.38 l -0.96,214.03"
         style="fill:#000000;fill-opacity:1;fill-rule:nonzero;stroke:none"
         id="path142" /><path
         d="m 2913.93,3701.49 c -4.85,-15.31 15.48,-35.41 45.41,-44.88 29.92,-9.48 58.11,-4.74 62.96,10.57 4.85,15.32 -15.48,35.42 -45.4,44.89 -29.93,9.48 -58.12,4.74 -62.97,-10.58"
         style="fill:#ff6ea9;fill-opacity:1;fill-rule:nonzero;stroke:none"
         id="path144" /><path
         d="m 2094.33,3400.29 5.35,-0.84 c 10.75,-1.69 20.84,5.65 22.54,16.41 l 56.76,360.33 -44.29,6.98 -56.76,-360.33 c -1.7,-10.76 5.65,-20.85 16.4,-22.55"
         style="fill:#ffb826;fill-opacity:1;fill-rule:nonzero;stroke:none"
         id="path146" /><path
         d="m 2011.68,3769.61 280.18,-44.14 60.68,385.16 c 10.72,68.04 -35.75,131.89 -103.79,142.61 l -33.79,5.32 c -68.04,10.72 -131.88,-35.75 -142.6,-103.79 l -60.68,-385.16"
         style="fill:#2f5ef4;fill-opacity:1;fill-rule:nonzero;stroke:none"
         id="path148" /><path
         d="m 2064.17,3645.85 c -6.16,-21.25 1.55,-56.07 29.3,-56.07 27.75,0 81.49,30.89 88.18,51.97 10.16,31.99 -32.01,60.17 -59.76,60.17 -18.72,0 -46.2,-16.29 -57.72,-56.07"
         style="fill:#000000;fill-opacity:1;fill-rule:nonzero;stroke:none"
         id="path150" /><path
         d="m 2320.99,4096.56 c -0.23,0 -0.46,0.01 -0.69,0.05 l -174.84,24.16 c -2.73,0.37 -4.64,2.9 -4.27,5.63 0.38,2.75 2.92,4.66 5.64,4.27 l 174.84,-24.16 c 2.73,-0.38 4.64,-2.9 4.27,-5.64 -0.35,-2.5 -2.5,-4.31 -4.95,-4.31"
         style="fill:#ffffff;fill-opacity:1;fill-rule:nonzero;stroke:none"
         id="path152" /><path
         d="m 2274.33,3812 c -0.23,0 -0.46,0.01 -0.69,0.05 l -174.83,24.16 c -2.74,0.37 -4.65,2.9 -4.27,5.63 0.37,2.74 2.92,4.66 5.63,4.27 l 174.84,-24.16 c 2.73,-0.38 4.65,-2.9 4.27,-5.64 -0.35,-2.5 -2.49,-4.31 -4.95,-4.31"
         style="fill:#ffffff;fill-opacity:1;fill-rule:nonzero;stroke:none"
         id="path154" /><path
         d="m 2261.65,3937.39 c -2.09,0 -4.22,0.13 -6.41,0.41 -13.48,1.73 -19.91,10.03 -25.57,17.35 -4.84,6.25 -9.41,12.14 -18.34,14.78 -8.88,2.61 -14.31,-1.16 -21.81,-6.4 -8.54,-5.96 -19.17,-13.37 -36.74,-9.5 -24.69,5.46 -45.97,35.27 -46.86,36.54 -1.59,2.25 -1.05,5.37 1.2,6.96 2.25,1.6 5.37,1.05 6.97,-1.2 0.19,-0.28 19.95,-27.91 40.85,-32.54 13.28,-2.94 20.85,2.35 28.85,7.94 7.91,5.52 16.87,11.77 30.38,7.79 12.02,-3.55 18.07,-11.36 23.4,-18.25 5.35,-6.9 9.56,-12.35 18.94,-13.55 23.71,-3.09 41.33,16.38 41.51,16.57 1.83,2.06 5,2.25 7.06,0.41 2.06,-1.83 2.24,-5 0.41,-7.06 -0.8,-0.89 -18.35,-20.25 -43.84,-20.25"
         style="fill:#ffffff;fill-opacity:1;fill-rule:nonzero;stroke:none"
         id="path156" /><path
         d="m 2751.59,1610.5 c 58.3,-80.43 185.02,-121.01 184.07,-164.25 -2.45,-111.57 -383.07,-122.42 -447.39,-29.4 -40.48,58.55 75.54,259.31 130.95,288.89 65.85,35.15 75.84,-17.26 132.37,-95.24"
         style="fill:#f47b24;fill-opacity:1;fill-rule:nonzero;stroke:none"
         id="path158" /><path
         d="m 2835.78,1411.85 c -2.48,0 -4.64,1.85 -4.95,4.39 -3.26,26.37 -35.94,62.5 -51.41,65.91 -2.69,0.59 -4.4,3.26 -3.8,5.96 0.59,2.7 3.26,4.41 5.96,3.8 20.76,-4.58 55.49,-44.59 59.17,-74.45 0.34,-2.74 -1.61,-5.24 -4.35,-5.58 -0.2,-0.02 -0.41,-0.03 -0.62,-0.03"
         style="fill:#000000;fill-opacity:1;fill-rule:nonzero;stroke:none"
         id="path160" /><path
         d="m 2694.6,1389.14 c -0.65,0 -1.32,0.12 -1.96,0.4 -2.54,1.08 -3.72,4.01 -2.64,6.55 12.8,30.12 -14.18,61.15 -14.45,61.46 -1.83,2.07 -1.64,5.23 0.43,7.06 2.07,1.83 5.23,1.64 7.06,-0.44 1.29,-1.46 31.41,-36.13 16.16,-71.99 -0.81,-1.9 -2.66,-3.04 -4.6,-3.04"
         style="fill:#000000;fill-opacity:1;fill-rule:nonzero;stroke:none"
         id="path162" /><path
         d="m 2679.4,6600.17 c 0,-12.53 -2.6,-24.46 -7.26,-35.31 l -56.07,36.97 54.89,36.08 c 5.36,-11.49 8.44,-24.25 8.44,-37.74 z m -73.84,-88.3 v 58.67 l 48.94,-32.26 c -12.87,-13.49 -29.85,-22.96 -48.94,-26.41 z m -82.84,28.59 50.93,33.49 v -62.08 c -20.1,3.63 -37.85,13.96 -50.93,28.59 z m -22.91,59.71 c 0,12.53 2.6,24.45 7.25,35.3 l 50.98,-33.61 -52.04,-34.21 c -3.94,10.1 -6.19,21.04 -6.19,32.52 z m 73.84,88.29 v -58.67 l -48.94,32.26 c 12.87,13.49 29.85,22.96 48.94,26.41 z m 78.97,-24.43 -47.06,-30.94 v 55.37 c 18.16,-3.28 34.44,-11.98 47.06,-24.43 z m 173.03,2.87 c 1.09,-0.22 2.17,-0.33 3.24,-0.33 7.41,0 14.05,5.19 15.61,12.73 1.78,8.62 -3.76,17.07 -12.39,18.85 l -52.87,10.93 39.68,26.08 c 7.36,4.84 9.41,14.73 4.56,22.09 -4.83,7.36 -14.73,9.41 -22.09,4.57 l -39.67,-26.08 10.93,52.87 c 1.78,8.63 -3.76,17.06 -12.39,18.85 -8.66,1.79 -17.07,-3.77 -18.85,-12.4 l -17.39,-84.1 -44.4,-29.19 c -18.9,20.83 -44.83,35.07 -74.06,38.92 v 50.81 l 60.72,60.73 c 6.24,6.23 6.24,16.33 0,22.56 -6.22,6.23 -16.33,6.23 -22.55,0 l -38.17,-38.17 v 47.48 c 0,8.81 -7.14,15.95 -15.96,15.95 -8.81,0 -15.95,-7.14 -15.95,-15.95 v -47.48 l -38.17,38.17 c -6.23,6.23 -16.33,6.23 -22.56,0 -6.23,-6.23 -6.23,-16.33 0,-22.56 l 60.73,-60.73 v -50.81 c -30.16,-3.97 -56.83,-18.99 -75.86,-40.9 l -47.55,31.35 -17.28,84.12 c -1.77,8.64 -10.21,14.19 -18.83,12.43 -8.63,-1.78 -14.19,-10.21 -12.42,-18.84 l 10.86,-52.88 -34.55,22.78 c -7.36,4.84 -17.25,2.81 -22.1,-4.55 -4.85,-7.35 -2.81,-17.24 4.54,-22.09 l 34.55,-22.78 -52.87,-10.86 c -8.63,-1.77 -14.19,-10.21 -12.42,-18.84 1.55,-7.54 8.19,-12.74 15.61,-12.74 1.06,0 2.14,0.11 3.22,0.33 l 84.13,17.28 47.54,-31.34 c -7.81,-16.05 -12.31,-33.99 -12.31,-52.99 0,-17.96 4.01,-34.96 11.02,-50.32 l -46.35,-30.46 -84.11,17.39 c -8.64,1.77 -17.07,-3.77 -18.85,-12.39 -1.79,-8.63 3.76,-17.07 12.39,-18.85 l 52.86,-10.93 -34.58,-22.73 c -7.36,-4.84 -9.41,-14.73 -4.56,-22.09 3.06,-4.67 8.15,-7.2 13.34,-7.2 3.01,0 6.05,0.85 8.74,2.63 l 34.59,22.73 -10.93,-52.87 c -1.78,-8.62 3.76,-17.07 12.39,-18.85 1.09,-0.22 2.18,-0.33 3.24,-0.33 7.41,0 14.05,5.18 15.61,12.72 l 17.39,84.11 45.67,30.02 c 19.13,-23.14 46.68,-39 77.88,-43.11 v -56.91 l -60.73,-60.72 c -6.23,-6.23 -6.23,-16.34 0,-22.56 3.12,-3.12 7.2,-4.67 11.28,-4.67 4.08,0 8.17,1.55 11.28,4.67 l 38.17,38.17 v -41.38 c 0,-8.81 7.14,-15.96 15.95,-15.96 8.82,0 15.96,7.15 15.96,15.96 v 41.38 l 38.17,-38.17 c 3.11,-3.12 7.2,-4.67 11.28,-4.67 4.08,0 8.16,1.55 11.27,4.67 6.24,6.22 6.24,16.33 0,22.56 l -60.72,60.72 v 56.91 c 30.16,3.97 56.83,18.99 75.86,40.9 l 42.45,-27.99 17.28,-84.13 c 1.55,-7.55 8.2,-12.75 15.61,-12.75 1.06,0 2.15,0.11 3.23,0.33 8.63,1.78 14.19,10.21 12.41,18.84 l -10.86,52.87 39.64,-26.12 c 2.71,-1.79 5.75,-2.64 8.77,-2.64 5.18,0 10.27,2.52 13.33,7.18 4.85,7.35 2.82,17.24 -4.54,22.1 l -39.64,26.13 52.88,10.85 c 8.63,1.78 14.19,10.21 12.41,18.84 -1.76,8.63 -10.2,14.19 -18.83,12.42 l -84.13,-17.28 -42.45,27.98 c 7.81,16.04 12.32,33.98 12.32,53 0,19.96 -4.92,38.76 -13.48,55.4 l 43.72,28.73 84.11,-17.4"
         style="fill:#97dfff;fill-opacity:1;fill-rule:nonzero;stroke:none"
         id="path164" /><path
         d="m 4203.04,8472.47 c 0,-10.58 -2.2,-20.66 -6.13,-29.82 l -47.36,31.22 46.37,30.48 c 4.52,-9.71 7.12,-20.49 7.12,-31.88 z m -62.37,-74.57 v 49.55 l 41.34,-27.25 c -10.87,-11.38 -25.21,-19.39 -41.34,-22.3 z m -69.96,24.15 43.02,28.27 v -52.42 c -16.98,3.06 -31.97,11.79 -43.02,24.15 z m -19.35,50.42 c 0,10.58 2.2,20.66 6.13,29.82 l 43.06,-28.39 -43.96,-28.89 c -3.33,8.53 -5.23,17.77 -5.23,27.46 z m 62.37,74.57 v -49.55 l -41.34,27.25 c 10.87,11.39 25.21,19.39 41.34,22.3 z m 66.7,-20.63 -39.76,-26.13 v 46.76 c 15.34,-2.77 29.1,-10.11 39.76,-20.63 z m 146.13,2.43 c 0.92,-0.19 1.84,-0.28 2.74,-0.28 6.26,0 11.86,4.38 13.18,10.75 1.51,7.28 -3.18,14.41 -10.46,15.92 l -44.65,9.23 33.5,22.03 c 6.22,4.08 7.95,12.44 3.86,18.65 -4.08,6.22 -12.44,7.95 -18.65,3.86 l -33.51,-22.02 9.23,44.64 c 1.5,7.29 -3.18,14.42 -10.47,15.93 -7.31,1.51 -14.41,-3.18 -15.92,-10.47 l -14.69,-71.04 -37.49,-24.64 c -15.96,17.59 -37.87,29.61 -62.56,32.87 v 42.91 l 51.3,51.29 c 5.26,5.26 5.26,13.79 0,19.05 -5.26,5.26 -13.8,5.26 -19.06,0 l -32.24,-32.24 v 40.1 c 0,7.44 -6.03,13.47 -13.47,13.47 -7.44,0 -13.47,-6.03 -13.47,-13.47 v -40.09 l -32.24,32.23 c -5.26,5.26 -13.79,5.26 -19.05,0 -5.26,-5.26 -5.26,-13.79 0,-19.05 l 51.29,-51.29 v -42.91 c -25.48,-3.36 -48,-16.04 -64.07,-34.55 l -40.16,26.48 -14.6,71.05 c -1.49,7.29 -8.62,11.98 -15.9,10.49 -7.29,-1.5 -11.99,-8.62 -10.49,-15.91 l 9.18,-44.66 -29.19,19.24 c -6.21,4.09 -14.57,2.38 -18.66,-3.84 -4.1,-6.21 -2.38,-14.56 3.83,-18.66 l 29.18,-19.23 -44.65,-9.18 c -7.29,-1.5 -11.99,-8.62 -10.49,-15.91 1.31,-6.37 6.92,-10.76 13.18,-10.76 0.9,0 1.81,0.09 2.73,0.27 l 71.05,14.6 40.15,-26.47 c -6.59,-13.55 -10.4,-28.7 -10.4,-44.76 0,-15.16 3.39,-29.52 9.31,-42.49 l -39.15,-25.73 -71.04,14.69 c -7.29,1.5 -14.41,-3.19 -15.92,-10.47 -1.5,-7.29 3.18,-14.41 10.47,-15.92 l 44.64,-9.23 -29.2,-19.2 c -6.22,-4.08 -7.95,-12.44 -3.86,-18.65 2.59,-3.94 6.89,-6.08 11.27,-6.08 2.54,0 5.11,0.71 7.39,2.22 l 29.21,19.2 -9.23,-44.66 c -1.51,-7.28 3.17,-14.41 10.46,-15.92 0.92,-0.18 1.84,-0.28 2.74,-0.28 6.26,0 11.87,4.38 13.18,10.75 l 14.69,71.04 38.57,25.35 c 16.16,-19.55 39.43,-32.94 65.78,-36.41 v -48.06 l -51.29,-51.29 c -5.26,-5.26 -5.26,-13.79 0,-19.06 2.63,-2.63 6.08,-3.94 9.52,-3.94 3.45,0 6.9,1.31 9.53,3.94 l 32.24,32.24 v -34.95 c 0,-7.44 6.03,-13.47 13.47,-13.47 7.44,0 13.47,6.03 13.47,13.47 v 34.95 l 32.24,-32.24 c 2.63,-2.63 6.08,-3.94 9.53,-3.94 3.45,0 6.9,1.31 9.53,3.94 5.26,5.27 5.26,13.8 0,19.06 l -51.3,51.29 v 48.06 c 25.48,3.36 48,16.04 64.08,34.54 l 35.86,-23.64 14.59,-71.05 c 1.31,-6.38 6.92,-10.77 13.18,-10.77 0.9,0 1.81,0.1 2.72,0.28 7.29,1.5 11.99,8.62 10.49,15.91 l -9.17,44.66 33.48,-22.07 c 2.28,-1.51 4.85,-2.22 7.4,-2.22 4.38,0 8.67,2.12 11.26,6.06 4.09,6.21 2.38,14.56 -3.83,18.66 l -33.48,22.07 44.66,9.17 c 7.29,1.5 11.98,8.62 10.48,15.91 -1.49,7.29 -8.62,11.98 -15.9,10.48 l -71.06,-14.59 -35.85,23.63 c 6.6,13.56 10.4,28.7 10.4,44.76 0,16.86 -4.15,32.74 -11.38,46.79 l 36.92,24.27 71.04,-14.69"
         style="fill:#97dfff;fill-opacity:1;fill-rule:nonzero;stroke:none"
         id="path166" /><path
         d="m 7611.19,6490.13 c 0,-7.42 -1.54,-14.48 -4.29,-20.89 l -33.18,21.87 32.48,21.35 c 3.17,-6.8 4.99,-14.35 4.99,-22.33 z m -43.69,-52.24 v 34.71 l 28.96,-19.09 c -7.62,-7.98 -17.67,-13.59 -28.96,-15.62 z m -49.02,16.91 30.14,19.81 v -36.72 c -11.9,2.14 -22.4,8.25 -30.14,16.91 z m -13.56,35.33 c 0,7.41 1.54,14.47 4.29,20.89 l 30.17,-19.89 -30.8,-20.24 c -2.33,5.98 -3.66,12.44 -3.66,19.24 z m 43.7,52.24 v -34.71 l -28.97,19.09 c 7.62,7.98 17.67,13.58 28.97,15.62 z m 46.73,-14.45 -27.85,-18.31 v 32.76 c 10.74,-1.94 20.38,-7.08 27.85,-14.45 z m 102.38,1.7 c 0.64,-0.13 1.29,-0.2 1.92,-0.2 4.39,0 8.31,3.08 9.23,7.53 1.06,5.11 -2.22,10.11 -7.33,11.16 l -31.28,6.47 23.48,15.43 c 4.35,2.86 5.56,8.72 2.7,13.07 -2.86,4.36 -8.72,5.57 -13.07,2.71 l -23.48,-15.44 6.47,31.29 c 1.05,5.1 -2.23,10.09 -7.33,11.15 -5.12,1.06 -10.1,-2.23 -11.16,-7.34 l -10.29,-49.76 -26.27,-17.27 c -11.18,12.32 -26.53,20.75 -43.82,23.03 v 30.06 l 35.93,35.94 c 3.69,3.68 3.69,9.66 0,13.35 -3.68,3.68 -9.67,3.68 -13.35,0 l -22.58,-22.59 v 28.09 c 0,5.22 -4.23,9.44 -9.45,9.44 -5.21,0 -9.43,-4.22 -9.43,-9.44 v -28.09 l -22.59,22.59 c -3.69,3.68 -9.67,3.68 -13.35,0 -3.69,-3.69 -3.69,-9.67 0,-13.35 l 35.94,-35.94 v -30.06 c -17.85,-2.35 -33.63,-11.24 -44.89,-24.2 l -28.14,18.55 -10.23,49.78 c -1.04,5.1 -6.04,8.38 -11.14,7.34 -5.11,-1.05 -8.39,-6.04 -7.35,-11.14 l 6.43,-31.29 -20.44,13.47 c -4.36,2.88 -10.21,1.67 -13.08,-2.68 -2.87,-4.35 -1.67,-10.21 2.68,-13.08 l 20.45,-13.47 -31.29,-6.43 c -5.11,-1.05 -8.39,-6.04 -7.35,-11.15 0.92,-4.46 4.85,-7.54 9.24,-7.54 0.63,0 1.27,0.06 1.91,0.19 l 49.78,10.23 28.13,-18.54 c -4.62,-9.5 -7.29,-20.11 -7.29,-31.36 0,-10.62 2.38,-20.69 6.52,-29.77 l -27.42,-18.03 -49.77,10.29 c -5.12,1.05 -10.1,-2.23 -11.16,-7.33 -1.05,-5.1 2.23,-10.1 7.33,-11.15 l 31.29,-6.47 -20.46,-13.45 c -4.36,-2.87 -5.57,-8.72 -2.71,-13.08 1.81,-2.76 4.83,-4.25 7.9,-4.25 1.78,0 3.58,0.5 5.17,1.55 l 20.47,13.45 -6.47,-31.28 c -1.06,-5.11 2.23,-10.1 7.33,-11.16 0.64,-0.13 1.29,-0.19 1.92,-0.19 4.38,0 8.31,3.06 9.24,7.53 l 10.29,49.77 27.02,17.76 c 11.32,-13.7 27.62,-23.08 46.09,-25.51 v -33.67 l -35.94,-35.94 c -3.69,-3.69 -3.69,-9.66 0,-13.35 1.84,-1.84 4.26,-2.76 6.67,-2.76 2.42,0 4.83,0.92 6.68,2.76 l 22.59,22.59 v -24.48 c 0,-5.22 4.22,-9.45 9.43,-9.45 5.22,0 9.45,4.23 9.45,9.45 v 24.48 l 22.58,-22.59 c 1.84,-1.84 4.26,-2.76 6.68,-2.76 2.41,0 4.83,0.92 6.67,2.76 3.69,3.69 3.69,9.66 0,13.35 l -35.93,35.94 v 33.67 c 17.84,2.35 33.63,11.23 44.89,24.2 l 25.12,-16.56 10.22,-49.78 c 0.92,-4.47 4.85,-7.54 9.24,-7.54 0.63,0 1.27,0.06 1.91,0.19 5.1,1.05 8.39,6.04 7.34,11.14 l -6.42,31.29 23.45,-15.46 c 1.6,-1.05 3.41,-1.56 5.19,-1.56 3.07,0 6.08,1.5 7.89,4.25 2.87,4.35 1.67,10.2 -2.69,13.08 l -23.45,15.45 31.29,6.44 c 5.1,1.05 8.39,6.04 7.34,11.14 -1.04,5.11 -6.03,8.39 -11.14,7.35 l -49.78,-10.23 -25.12,16.56 c 4.62,9.49 7.29,20.11 7.29,31.36 0,11.81 -2.92,22.94 -7.98,32.78 l 25.87,17 49.77,-10.29"
         style="fill:#97dfff;fill-opacity:1;fill-rule:nonzero;stroke:none"
         id="path168" /><path
         d="m 7417.45,8879.62 c 0,-13.26 -2.75,-25.87 -7.67,-37.35 l -59.32,39.1 58.07,38.17 c 5.67,-12.15 8.92,-25.65 8.92,-39.92 z m -78.11,-93.4 v 62.06 l 51.78,-34.13 c -13.62,-14.26 -31.58,-24.28 -51.78,-27.93 z m -87.62,30.25 53.87,35.41 v -65.66 c -21.26,3.84 -40.04,14.76 -53.87,30.25 z m -24.23,63.15 c 0,13.25 2.74,25.87 7.67,37.34 l 53.92,-35.55 -55.05,-36.19 c -4.17,10.69 -6.54,22.26 -6.54,34.4 z m 78.1,93.39 v -62.06 l -51.77,34.13 c 13.61,14.27 31.58,24.29 51.77,27.93 z m 83.54,-25.83 -49.79,-32.73 v 58.56 c 19.21,-3.46 36.44,-12.66 49.79,-25.83 z m 183.03,3.04 c 1.15,-0.24 2.3,-0.35 3.43,-0.35 7.84,0 14.86,5.48 16.51,13.46 1.89,9.12 -3.98,18.05 -13.11,19.94 l -55.92,11.56 41.97,27.58 c 7.78,5.13 9.95,15.59 4.83,23.38 -5.12,7.78 -15.59,9.94 -23.37,4.83 l -41.97,-27.59 11.57,55.92 c 1.88,9.13 -3.98,18.06 -13.11,19.94 -9.16,1.9 -18.06,-3.98 -19.94,-13.1 l -18.4,-88.98 -46.96,-30.87 c -19.99,22.03 -47.42,37.1 -78.35,41.17 v 53.75 l 64.24,64.23 c 6.59,6.6 6.59,17.28 0,23.87 -6.58,6.59 -17.27,6.59 -23.86,0 l -40.38,-40.38 v 50.22 c 0,9.33 -7.55,16.88 -16.87,16.88 -9.32,0 -16.88,-7.55 -16.88,-16.88 v -50.21 l -40.38,40.37 c -6.58,6.59 -17.27,6.59 -23.86,0 -6.59,-6.59 -6.59,-17.27 0,-23.87 l 64.24,-64.23 v -53.75 c -31.9,-4.2 -60.12,-20.08 -80.24,-43.26 l -50.3,33.15 -18.28,89 c -1.87,9.13 -10.8,15 -19.92,13.13 -9.13,-1.87 -15.01,-10.79 -13.14,-19.92 l 11.49,-55.94 -36.55,24.1 c -7.78,5.12 -18.24,2.97 -23.37,-4.8 -5.13,-7.78 -2.98,-18.25 4.8,-23.38 l 36.55,-24.09 -55.93,-11.49 c -9.14,-1.88 -15.01,-10.8 -13.14,-19.93 1.64,-7.98 8.67,-13.48 16.51,-13.48 1.13,0 2.27,0.11 3.41,0.34 l 88.99,18.29 50.29,-33.15 c -8.26,-16.98 -13.02,-35.95 -13.02,-56.06 0,-18.99 4.24,-36.98 11.65,-53.22 l -49.03,-32.23 -88.96,18.4 c -9.15,1.88 -18.06,-3.99 -19.95,-13.11 -1.89,-9.13 3.98,-18.05 13.11,-19.94 l 55.92,-11.56 -36.58,-24.05 c -7.79,-5.11 -9.95,-15.58 -4.83,-23.37 3.24,-4.93 8.63,-7.6 14.11,-7.6 3.19,0 6.4,0.9 9.26,2.78 l 36.58,24.04 -11.57,-55.92 c -1.88,-9.13 3.99,-18.06 13.11,-19.95 1.15,-0.23 2.3,-0.35 3.44,-0.35 7.83,0 14.86,5.49 16.5,13.46 l 18.4,88.97 48.31,31.76 c 20.24,-24.48 49.38,-41.26 82.38,-45.61 v -60.19 l -64.24,-64.24 c -6.59,-6.59 -6.59,-17.27 0,-23.86 3.3,-3.3 7.62,-4.95 11.93,-4.95 4.32,0 8.64,1.65 11.93,4.95 l 40.38,40.38 v -43.78 c 0,-9.32 7.56,-16.87 16.88,-16.87 9.32,0 16.87,7.55 16.87,16.87 v 43.78 l 40.38,-40.38 c 3.3,-3.3 7.61,-4.95 11.93,-4.95 4.32,0 8.64,1.65 11.93,4.95 6.59,6.59 6.59,17.27 0,23.86 l -64.24,64.24 v 60.19 c 31.91,4.21 60.12,20.09 80.25,43.26 l 44.91,-29.6 18.28,-88.99 c 1.64,-7.98 8.67,-13.49 16.51,-13.49 1.13,0 2.27,0.12 3.41,0.35 9.13,1.88 15.01,10.8 13.13,19.93 l -11.48,55.93 41.93,-27.64 c 2.86,-1.88 6.08,-2.79 9.27,-2.79 5.48,0 10.86,2.67 14.11,7.59 5.12,7.79 2.97,18.25 -4.81,23.38 l -41.93,27.64 55.94,11.49 c 9.13,1.88 15,10.8 13.13,19.92 -1.87,9.13 -10.8,15.01 -19.92,13.14 l -89,-18.28 -44.9,29.6 c 8.26,16.97 13.03,35.94 13.03,56.06 0,21.11 -5.21,41 -14.25,58.6 l 46.24,30.4 88.97,-18.4"
         style="fill:#97dfff;fill-opacity:1;fill-rule:nonzero;stroke:none"
         id="path170" /><path
         d="m 1776.95,5054.59 c 0,-8.64 -1.8,-16.88 -5.01,-24.36 l -38.68,25.5 37.87,24.9 c 3.69,-7.93 5.82,-16.73 5.82,-26.04 z M 1726,4993.68 v 40.47 l 33.77,-22.26 c -8.88,-9.3 -20.6,-15.84 -33.77,-18.21 z m -57.15,19.72 35.14,23.1 v -42.82 c -13.87,2.5 -26.11,9.63 -35.14,19.72 z m -15.8,41.19 c 0,8.64 1.79,16.87 5,24.36 l 35.18,-23.19 -35.91,-23.6 c -2.72,6.97 -4.27,14.51 -4.27,22.43 z m 50.94,60.91 v -40.47 l -33.77,22.26 c 8.88,9.3 20.6,15.83 33.77,18.21 z m 54.49,-16.85 -32.48,-21.35 v 38.2 c 12.53,-2.26 23.77,-8.26 32.48,-16.85 z m 119.36,1.98 c 0.76,-0.15 1.51,-0.22 2.24,-0.22 5.12,0 9.7,3.57 10.77,8.77 1.23,5.96 -2.6,11.78 -8.55,13.01 l -36.47,7.54 27.37,17.99 c 5.08,3.34 6.49,10.17 3.15,15.24 -3.33,5.08 -10.16,6.49 -15.24,3.15 l -27.37,-17.99 7.54,36.47 c 1.23,5.96 -2.59,11.78 -8.55,13.01 -5.97,1.24 -11.77,-2.6 -13,-8.55 l -12,-58.02 -30.63,-20.14 c -13.04,14.37 -30.93,24.19 -51.1,26.85 v 35.05 l 41.9,41.9 c 4.3,4.3 4.3,11.27 0,15.56 -4.29,4.3 -11.27,4.3 -15.56,0 L 1726,5203.92 v 32.76 c 0,6.07 -4.92,11 -11,11 -6.08,0 -11.01,-4.93 -11.01,-11 v -32.76 l -26.33,26.33 c -4.3,4.3 -11.27,4.3 -15.57,0 -4.29,-4.29 -4.29,-11.26 0,-15.56 l 41.9,-41.9 v -35.05 c -20.81,-2.74 -39.21,-13.1 -52.33,-28.21 l -32.81,21.62 -11.92,58.04 c -1.22,5.96 -7.05,9.78 -12.99,8.57 -5.96,-1.23 -9.79,-7.04 -8.57,-12.99 l 7.49,-36.49 -23.83,15.71 c -5.08,3.35 -11.91,1.95 -15.25,-3.13 -3.35,-5.07 -1.94,-11.9 3.13,-15.24 l 23.84,-15.72 -36.48,-7.49 c -5.96,-1.22 -9.79,-7.04 -8.57,-13 1.07,-5.2 5.65,-8.79 10.77,-8.79 0.73,0 1.48,0.08 2.23,0.23 l 58.04,11.92 32.79,-21.62 c -5.38,-11.07 -8.49,-23.44 -8.49,-36.56 0,-12.39 2.76,-24.12 7.6,-34.71 l -31.97,-21.02 -58.03,12 c -5.97,1.22 -11.78,-2.6 -13.01,-8.55 -1.23,-5.95 2.6,-11.77 8.55,-13 l 36.47,-7.55 -23.86,-15.68 c -5.07,-3.34 -6.49,-10.16 -3.14,-15.24 2.11,-3.21 5.62,-4.96 9.2,-4.96 2.07,0 4.17,0.58 6.03,1.81 l 23.86,15.68 -7.54,-36.47 c -1.23,-5.95 2.6,-11.78 8.55,-13.01 0.75,-0.15 1.5,-0.23 2.24,-0.23 5.11,0 9.69,3.58 10.77,8.78 l 11.99,58.03 31.51,20.71 c 13.2,-15.97 32.21,-26.91 53.73,-29.74 v -39.26 l -41.9,-41.9 c -4.29,-4.3 -4.29,-11.27 0,-15.56 2.15,-2.15 4.97,-3.23 7.79,-3.23 2.81,0 5.63,1.08 7.78,3.23 l 26.33,26.33 v -28.55 c 0,-6.07 4.93,-11 11.01,-11 6.08,0 11,4.93 11,11 v 28.55 l 26.34,-26.33 c 2.14,-2.15 4.96,-3.23 7.78,-3.23 2.82,0 5.63,1.08 7.78,3.23 4.3,4.29 4.3,11.26 0,15.56 l -41.9,41.9 v 39.26 c 20.81,2.74 39.21,13.1 52.34,28.21 l 29.29,-19.31 11.92,-58.04 c 1.07,-5.21 5.66,-8.79 10.77,-8.79 0.73,0 1.48,0.07 2.23,0.23 5.95,1.22 9.78,7.04 8.56,12.99 l -7.49,36.48 27.35,-18.02 c 1.86,-1.23 3.96,-1.82 6.04,-1.82 3.58,0 7.09,1.74 9.2,4.95 3.35,5.07 1.95,11.9 -3.13,15.24 l -27.35,18.03 36.48,7.49 c 5.96,1.23 9.79,7.04 8.57,13 -1.22,5.95 -7.04,9.79 -12.99,8.56 l -58.05,-11.92 -29.28,19.31 c 5.39,11.07 8.5,23.44 8.5,36.56 0,13.77 -3.4,26.74 -9.3,38.22 l 30.16,19.82 58.02,-12"
         style="fill:#97dfff;fill-opacity:1;fill-rule:nonzero;stroke:none"
         id="path172" /><path
         d="m 1522.56,8922.37 c 0,-13.1 -2.72,-25.58 -7.59,-36.92 l -58.64,38.65 57.41,37.74 c 5.6,-12.02 8.82,-25.36 8.82,-39.47 z m -77.23,-92.33 v 61.35 l 51.19,-33.74 c -13.46,-14.11 -31.22,-24.01 -51.19,-27.61 z m -86.62,29.89 53.26,35.01 v -64.9 c -21.02,3.79 -39.59,14.59 -53.26,29.89 z m -23.96,62.44 c 0,13.1 2.71,25.58 7.58,36.92 l 53.32,-35.15 -54.43,-35.78 c -4.13,10.56 -6.47,22 -6.47,34.01 z m 77.22,92.34 v -61.36 l -51.19,33.74 c 13.46,14.11 31.22,24.01 51.19,27.62 z m 82.59,-25.55 -49.23,-32.36 v 57.91 c 19,-3.43 36.03,-12.53 49.23,-25.55 z m 180.95,3.01 c 1.14,-0.24 2.28,-0.35 3.39,-0.35 7.75,0 14.7,5.42 16.32,13.31 1.87,9.02 -3.93,17.85 -12.95,19.71 l -55.29,11.43 41.49,27.28 c 7.7,5.06 9.84,15.4 4.78,23.1 -5.06,7.7 -15.41,9.84 -23.1,4.78 l -41.5,-27.28 11.44,55.29 c 1.86,9.02 -3.94,17.85 -12.96,19.72 -9.06,1.87 -17.86,-3.94 -19.72,-12.96 l -18.19,-87.97 -46.43,-30.51 c -19.76,21.78 -46.88,36.67 -77.46,40.7 v 53.13 l 63.52,63.51 c 6.51,6.52 6.51,17.08 0,23.6 -6.51,6.51 -17.08,6.51 -23.59,0 l -39.93,-39.92 v 49.65 c 0,9.22 -7.46,16.68 -16.68,16.68 -9.21,0 -16.68,-7.46 -16.68,-16.68 v -49.65 l -39.92,39.92 c -6.51,6.51 -17.08,6.51 -23.59,0 -6.52,-6.52 -6.52,-17.08 0,-23.6 l 63.51,-63.51 v -53.13 c -31.54,-4.16 -59.44,-19.86 -79.34,-42.77 l -49.72,32.78 -18.08,87.98 c -1.84,9.03 -10.67,14.83 -19.69,12.99 -9.03,-1.86 -14.84,-10.68 -12.99,-19.7 l 11.36,-55.31 -36.13,23.82 c -7.7,5.08 -18.04,2.95 -23.11,-4.75 -5.07,-7.69 -2.95,-18.03 4.74,-23.1 l 36.13,-23.82 -55.29,-11.36 c -9.03,-1.86 -14.84,-10.68 -12.99,-19.7 1.62,-7.89 8.57,-13.33 16.33,-13.33 1.11,0 2.24,0.11 3.37,0.34 l 87.98,18.08 49.72,-32.77 c -8.17,-16.79 -12.88,-35.55 -12.88,-55.43 0,-18.78 4.19,-36.56 11.53,-52.62 l -48.48,-31.86 -87.96,18.19 c -9.04,1.86 -17.85,-3.94 -19.71,-12.96 -1.87,-9.02 3.93,-17.85 12.95,-19.71 l 55.29,-11.43 -36.16,-23.77 c -7.7,-5.06 -9.84,-15.41 -4.78,-23.11 3.2,-4.88 8.53,-7.52 13.96,-7.52 3.14,0 6.32,0.88 9.14,2.74 l 36.17,23.77 -11.43,-55.28 c -1.87,-9.03 3.93,-17.86 12.96,-19.72 1.13,-0.23 2.27,-0.35 3.39,-0.35 7.75,0 14.69,5.43 16.32,13.31 l 18.19,87.96 47.76,31.4 c 20.01,-24.21 48.82,-40.79 81.45,-45.09 v -59.51 l -63.51,-63.51 c -6.52,-6.52 -6.52,-17.08 0,-23.6 3.25,-3.25 7.52,-4.88 11.79,-4.88 4.27,0 8.54,1.63 11.8,4.88 l 39.92,39.93 v -43.28 c 0,-9.21 7.47,-16.68 16.68,-16.68 9.22,0 16.68,7.47 16.68,16.68 v 43.28 l 39.93,-39.93 c 3.25,-3.25 7.52,-4.88 11.79,-4.88 4.27,0 8.54,1.63 11.8,4.88 6.51,6.52 6.51,17.08 0,23.6 l -63.52,63.51 v 59.51 c 31.55,4.16 59.44,19.86 79.34,42.77 l 44.4,-29.27 18.07,-87.98 c 1.62,-7.89 8.58,-13.33 16.33,-13.33 1.11,0 2.24,0.11 3.37,0.34 9.03,1.86 14.84,10.68 12.98,19.7 l -11.35,55.3 41.45,-27.32 c 2.83,-1.87 6.02,-2.76 9.17,-2.76 5.42,0 10.74,2.64 13.94,7.5 5.08,7.7 2.95,18.04 -4.74,23.11 l -41.46,27.33 55.3,11.36 c 9.03,1.85 14.84,10.67 12.99,19.7 -1.85,9.02 -10.68,14.83 -19.7,12.98 l -87.99,-18.07 -44.39,29.26 c 8.17,16.78 12.88,35.54 12.88,55.43 0,20.87 -5.14,40.53 -14.09,57.94 l 45.72,30.05 87.96,-18.19"
         style="fill:#97dfff;fill-opacity:1;fill-rule:nonzero;stroke:none"
         id="path174" /><path
         d="m 4006.55,5836.3 c 0,-8.98 -1.86,-17.52 -5.2,-25.29 l -40.16,26.48 39.32,25.84 c 3.83,-8.23 6.04,-17.37 6.04,-27.03 z m -52.9,-63.24 v 42.02 l 35.06,-23.11 c -9.22,-9.67 -21.38,-16.45 -35.06,-18.91 z m -59.33,20.48 36.48,23.97 v -44.45 c -14.4,2.59 -27.11,9.99 -36.48,20.48 z m -16.41,42.76 c 0,8.97 1.86,17.52 5.19,25.29 l 36.52,-24.08 -37.28,-24.5 c -2.82,7.23 -4.43,15.07 -4.43,23.29 z m 52.89,63.24 v -42.02 l -35.06,23.11 c 9.22,9.66 21.38,16.45 35.06,18.91 z m 56.57,-17.49 -33.72,-22.17 v 39.66 c 13.01,-2.35 24.68,-8.57 33.72,-17.49 z m 123.94,2.06 c 0.78,-0.16 1.56,-0.24 2.32,-0.24 5.31,0 10.07,3.71 11.18,9.11 1.28,6.18 -2.69,12.23 -8.87,13.5 l -37.87,7.84 28.42,18.68 c 5.27,3.46 6.74,10.55 3.27,15.82 -3.47,5.27 -10.56,6.74 -15.82,3.27 l -28.42,-18.68 7.83,37.87 c 1.27,6.18 -2.7,12.23 -8.88,13.51 -6.2,1.27 -12.23,-2.71 -13.5,-8.88 l -12.46,-60.25 -31.8,-20.9 c -13.54,14.91 -32.12,25.11 -53.06,27.87 v 36.4 l 43.51,43.5 c 4.46,4.46 4.46,11.69 0,16.16 -4.46,4.46 -11.7,4.46 -16.16,0 l -27.35,-27.35 v 34.02 c 0,6.31 -5.11,11.42 -11.42,11.42 -6.31,0 -11.43,-5.11 -11.43,-11.42 v -34.01 l -27.34,27.34 c -4.46,4.46 -11.7,4.46 -16.16,0 -4.46,-4.47 -4.46,-11.7 0,-16.16 l 43.5,-43.5 v -36.4 c -21.61,-2.84 -40.71,-13.6 -54.34,-29.29 l -34.06,22.45 -12.38,60.26 c -1.27,6.19 -7.31,10.16 -13.49,8.9 -6.18,-1.27 -10.16,-7.31 -8.89,-13.49 l 7.78,-37.89 -24.75,16.32 c -5.27,3.47 -12.36,2.02 -15.83,-3.25 -3.47,-5.27 -2.02,-12.36 3.25,-15.83 l 24.75,-16.31 -37.88,-7.79 c -6.18,-1.27 -10.16,-7.31 -8.89,-13.49 1.11,-5.4 5.87,-9.12 11.18,-9.12 0.76,0 1.53,0.07 2.31,0.23 l 60.26,12.38 34.05,-22.45 c -5.59,-11.5 -8.82,-24.34 -8.82,-37.96 0,-12.86 2.87,-25.04 7.9,-36.04 l -33.2,-21.82 -60.25,12.45 c -6.19,1.27 -12.23,-2.7 -13.5,-8.87 -1.28,-6.18 2.69,-12.23 8.87,-13.5 l 37.87,-7.84 -24.77,-16.28 c -5.27,-3.46 -6.74,-10.55 -3.27,-15.82 2.19,-3.34 5.84,-5.15 9.56,-5.15 2.15,0 4.33,0.6 6.26,1.88 l 24.77,16.28 -7.83,-37.87 c -1.27,-6.18 2.7,-12.23 8.88,-13.51 0.78,-0.15 1.56,-0.23 2.32,-0.23 5.31,0 10.07,3.72 11.18,9.11 l 12.46,60.25 32.71,21.5 c 13.71,-16.57 33.44,-27.93 55.79,-30.88 v -40.76 l -43.5,-43.5 c -4.46,-4.46 -4.46,-11.7 0,-16.16 2.23,-2.23 5.15,-3.34 8.08,-3.34 2.92,0 5.85,1.11 8.08,3.34 l 27.34,27.34 v -29.64 c 0,-6.31 5.12,-11.42 11.43,-11.42 6.31,0 11.42,5.11 11.42,11.42 v 29.64 l 27.35,-27.34 c 2.23,-2.23 5.15,-3.34 8.08,-3.34 2.92,0 5.85,1.11 8.08,3.34 4.46,4.46 4.46,11.7 0,16.16 l -43.51,43.5 v 40.76 c 21.61,2.85 40.72,13.6 54.35,29.3 l 30.41,-20.05 12.37,-60.26 c 1.11,-5.41 5.88,-9.13 11.19,-9.13 0.76,0 1.53,0.07 2.3,0.23 6.19,1.27 10.17,7.31 8.9,13.49 l -7.78,37.88 28.39,-18.71 c 1.94,-1.28 4.12,-1.89 6.28,-1.89 3.72,0 7.36,1.8 9.55,5.14 3.48,5.27 2.02,12.36 -3.25,15.83 l -28.39,18.71 37.87,7.79 c 6.19,1.27 10.17,7.31 8.9,13.49 -1.27,6.18 -7.31,10.16 -13.49,8.89 l -60.27,-12.38 -30.4,20.04 c 5.59,11.5 8.82,24.35 8.82,37.97 0,14.3 -3.53,27.76 -9.65,39.68 l 31.31,20.58 60.25,-12.45"
         style="fill:#97dfff;fill-opacity:1;fill-rule:nonzero;stroke:none"
         id="path176" /><path
         d="m 8853.11,7245.19 c 0,-7.41 -1.54,-14.47 -4.29,-20.89 l -33.18,21.87 32.48,21.35 c 3.17,-6.8 4.99,-14.35 4.99,-22.33 z m -43.69,-52.24 v 34.71 l 28.96,-19.09 c -7.62,-7.98 -17.67,-13.58 -28.96,-15.62 z m -49.02,16.91 30.14,19.81 v -36.72 c -11.9,2.14 -22.4,8.25 -30.14,16.91 z m -13.56,35.33 c 0,7.41 1.54,14.47 4.3,20.89 l 30.16,-19.88 -30.79,-20.25 c -2.34,5.97 -3.67,12.45 -3.67,19.24 z m 43.7,52.25 v -34.72 l -28.97,19.09 c 7.62,7.98 17.67,13.59 28.97,15.63 z m 46.73,-14.46 -27.85,-18.31 v 32.77 c 10.74,-1.94 20.38,-7.09 27.85,-14.46 z m 102.38,1.7 c 0.65,-0.13 1.29,-0.19 1.92,-0.19 4.39,0 8.32,3.07 9.24,7.53 1.05,5.1 -2.23,10.09 -7.34,11.15 l -31.28,6.47 23.48,15.43 c 4.35,2.86 5.57,8.72 2.7,13.07 -2.86,4.36 -8.72,5.57 -13.07,2.7 l -23.48,-15.42 6.47,31.28 c 1.06,5.1 -2.23,10.1 -7.33,11.15 -5.12,1.06 -10.1,-2.23 -11.16,-7.33 l -10.29,-49.77 -26.27,-17.27 c -11.18,12.33 -26.52,20.75 -43.82,23.03 v 30.07 l 35.93,35.93 c 3.69,3.69 3.69,9.67 0,13.35 -3.68,3.69 -9.66,3.69 -13.35,0 l -22.58,-22.59 v 28.1 c 0,5.21 -4.23,9.44 -9.44,9.44 -5.22,0 -9.44,-4.23 -9.44,-9.44 v -28.1 l -22.59,22.59 c -3.68,3.69 -9.66,3.69 -13.35,0 -3.68,-3.68 -3.68,-9.66 0,-13.35 l 35.94,-35.93 v -30.07 c -17.85,-2.35 -33.63,-11.24 -44.89,-24.2 l -28.14,18.55 -10.22,49.78 c -1.05,5.11 -6.05,8.39 -11.15,7.35 -5.1,-1.05 -8.39,-6.04 -7.34,-11.15 l 6.42,-31.29 -20.44,13.48 c -4.36,2.87 -10.21,1.66 -13.08,-2.69 -2.87,-4.35 -1.67,-10.21 2.68,-13.07 l 20.45,-13.48 -31.29,-6.43 c -5.1,-1.05 -8.39,-6.04 -7.34,-11.14 0.91,-4.47 4.84,-7.55 9.23,-7.55 0.63,0 1.27,0.07 1.91,0.2 l 49.78,10.22 28.13,-18.54 c -4.62,-9.49 -7.28,-20.11 -7.28,-31.36 0,-10.62 2.37,-20.68 6.51,-29.77 l -27.42,-18.03 -49.77,10.3 c -5.11,1.05 -10.1,-2.24 -11.15,-7.34 -1.06,-5.11 2.22,-10.1 7.33,-11.15 l 31.28,-6.47 -20.46,-13.45 c -4.36,-2.86 -5.57,-8.72 -2.71,-13.07 1.82,-2.76 4.83,-4.26 7.9,-4.26 1.78,0 3.58,0.5 5.18,1.56 l 20.46,13.44 -6.47,-31.28 c -1.05,-5.1 2.23,-10.1 7.33,-11.15 0.65,-0.14 1.29,-0.2 1.92,-0.2 4.39,0 8.32,3.07 9.24,7.53 l 10.29,49.77 27.03,17.76 c 11.31,-13.69 27.62,-23.08 46.08,-25.51 v -33.67 l -35.94,-35.94 c -3.68,-3.68 -3.68,-9.66 0,-13.35 1.84,-1.84 4.26,-2.76 6.67,-2.76 2.42,0 4.84,0.92 6.68,2.76 l 22.59,22.59 v -24.49 c 0,-5.21 4.22,-9.43 9.44,-9.43 5.21,0 9.44,4.22 9.44,9.43 v 24.49 l 22.58,-22.59 c 1.85,-1.84 4.26,-2.76 6.68,-2.76 2.41,0 4.83,0.92 6.67,2.76 3.69,3.69 3.69,9.67 0,13.35 l -35.93,35.94 v 33.67 c 17.84,2.36 33.63,11.24 44.89,24.2 l 25.12,-16.56 10.22,-49.78 c 0.92,-4.47 4.85,-7.55 9.24,-7.55 0.63,0 1.27,0.07 1.91,0.2 5.11,1.05 8.39,6.04 7.34,11.15 l -6.42,31.29 23.46,-15.47 c 1.6,-1.05 3.4,-1.56 5.18,-1.56 3.07,0 6.08,1.5 7.89,4.25 2.87,4.35 1.67,10.21 -2.68,13.08 l -23.46,15.46 31.29,6.43 c 5.11,1.04 8.39,6.03 7.34,11.14 -1.04,5.11 -6.03,8.39 -11.14,7.35 l -49.78,-10.22 -25.12,16.55 c 4.62,9.5 7.29,20.11 7.29,31.36 0,11.81 -2.91,22.93 -7.98,32.78 l 25.87,17.01 49.77,-10.3"
         style="fill:#97dfff;fill-opacity:1;fill-rule:nonzero;stroke:none"
         id="path178" /><path
         d="m 6118.47,4853.6 c -0.69,0 -1.39,0.14 -2.06,0.44 -1.39,0.63 -140.34,62.86 -302.87,70.33 -158.27,7.24 -240.19,-31.33 -241,-31.72 -2.49,-1.19 -5.47,-0.16 -6.67,2.32 -1.21,2.49 -0.17,5.47 2.31,6.68 3.38,1.64 84.73,40.12 245.82,32.72 164.52,-7.57 305.14,-70.58 306.54,-71.22 2.51,-1.14 3.63,-4.1 2.48,-6.62 -0.83,-1.84 -2.65,-2.93 -4.55,-2.93"
         style="fill:#000000;fill-opacity:1;fill-rule:nonzero;stroke:none"
         id="path180" /></g></g></svg>
