<?xml version="1.0" encoding="UTF-8" standalone="no"?>
<svg
   xmlns:dc="http://purl.org/dc/elements/1.1/"
   xmlns:cc="http://creativecommons.org/ns#"
   xmlns:rdf="http://www.w3.org/1999/02/22-rdf-syntax-ns#"
   xmlns:svg="http://www.w3.org/2000/svg"
   xmlns="http://www.w3.org/2000/svg"
   version="1.1"
   id="svg2"
   xml:space="preserve"
   viewBox="0 0 1333.3333 1333.3333"
   ><g
     id="g10"
     transform="matrix(1.3333333,0,0,-1.3333333,0,1333.3333)"><g
       id="g12"
       transform="scale(0.1)"><path
         d="M 10000,0 H 0 V 10000 H 10000 V 0"
         style="fill:#ffffff;fill-opacity:1;fill-rule:nonzero;stroke:none"
         id="path14" /><path
         d="m 4404.71,4019.88 c 63.97,-3.8 41.73,110.79 19.62,112.84 -59.97,5.55 -106.35,-107.68 -19.62,-112.84"
         style="fill:#def8ff;fill-opacity:1;fill-rule:nonzero;stroke:none"
         id="path16" /><path
         d="m 4873.85,3909.37 c -7.07,94.6 -194.41,93.58 -193.19,61.1 3.3,-88.14 202.77,-189.37 193.19,-61.1"
         style="fill:#def8ff;fill-opacity:1;fill-rule:nonzero;stroke:none"
         id="path18" /><path
         d="m 1175.91,1323.57 c 63.97,-3.8 41.72,110.79 19.62,112.84 -59.98,5.55 -106.35,-107.68 -19.62,-112.84"
         style="fill:#def8ff;fill-opacity:1;fill-rule:nonzero;stroke:none"
         id="path20" /><path
         d="m 1453.9,1028.94 c -17.44,80.11 -189.12,100.96 -184.24,73.6 13.24,-74.25 207.89,-182.2 184.24,-73.6"
         style="fill:#def8ff;fill-opacity:1;fill-rule:nonzero;stroke:none"
         id="path22" /><path
         d="m 4291.16,4393.55 c 63.97,-3.81 41.73,110.79 19.62,112.83 -59.97,5.55 -106.35,-107.68 -19.62,-112.83"
         style="fill:#def8ff;fill-opacity:1;fill-rule:nonzero;stroke:none"
         id="path24" /><path
         d="m 4927.18,3552.42 c -17.44,80.11 -189.12,100.96 -184.24,73.6 13.24,-74.25 207.89,-182.2 184.24,-73.6"
         style="fill:#def8ff;fill-opacity:1;fill-rule:nonzero;stroke:none"
         id="path26" /><path
         d="M 6597.93,2183.2 C 6065.72,2090.24 3805.41,627.25 2005.55,937.039 c -1532.554,263.791 -632.3,671.141 -396,870.621 791.69,668.3 1330.73,1486.67 3675.91,1146.78 2152.43,-311.96 2121.29,-629.98 1312.47,-771.24"
         style="fill:#def8ff;fill-opacity:1;fill-rule:nonzero;stroke:none"
         id="path28" /><path
         d="m 5332.74,4786.47 c 2.55,-17.63 278.9,-279.21 749.1,-153.76 165.67,44.2 311.74,231.97 258.48,398.62 -62.5,195.57 -500.25,35.67 -757.05,171.79 -380.77,201.81 -693.92,1007.96 -693.92,1007.96 l 443.39,-1424.61"
         style="fill:#97dfff;fill-opacity:1;fill-rule:nonzero;stroke:none"
         id="path30" /><path
         d="m 4503.53,7676.97 c 0,0 -8.93,205.53 136.63,240.06 96.63,22.94 201.66,-51.75 213.45,-120.84 23.84,-139.66 -176.97,-224.15 -176.97,-224.15 l -173.11,104.93"
         style="fill:#97dfff;fill-opacity:1;fill-rule:nonzero;stroke:none"
         id="path32" /><path
         d="m 4503.53,7671.97 c -2.67,0 -4.88,2.09 -4.99,4.78 -0.1,2.1 -7.4,210.06 140.46,245.15 47.92,11.36 102.05,0.27 148.51,-30.46 38.76,-25.64 65.31,-60.93 71.03,-94.4 0.46,-2.73 -1.36,-5.31 -4.09,-5.78 -2.74,-0.46 -5.3,1.37 -5.77,4.09 -5.25,30.8 -30.19,63.6 -66.69,87.75 -44.17,29.21 -95.44,39.81 -140.68,29.07 -139.92,-33.2 -132.87,-232.97 -132.78,-234.99 0.12,-2.76 -2.02,-5.09 -4.78,-5.21 -0.08,0 -0.15,0 -0.22,0"
         style="fill:#000000;fill-opacity:1;fill-rule:nonzero;stroke:none"
         id="path34" /><path
         d="m 5239.06,2538.11 c -13.07,-10.35 606.64,-151.54 815.09,-127.65 122.65,14.05 208.22,76.57 307.08,279.37 40.45,82.99 57.73,236.16 -2.53,296.26 -118.05,117.74 -312.93,68.31 -312.93,68.31 0,0 -314.9,217.82 -415.13,274.29 -183.15,103.19 -741.29,346.18 -741.29,346.18 l 349.71,-1136.76"
         style="fill:#97dfff;fill-opacity:1;fill-rule:nonzero;stroke:none"
         id="path36" /><path
         d="m 5232.96,3260.09 c -0.57,0 -1.16,0.1 -1.73,0.31 -194.74,71.82 -780.54,222.17 -786.43,223.68 -2.68,0.69 -4.29,3.41 -3.61,6.09 0.69,2.67 3.42,4.29 6.09,3.6 5.9,-1.51 592.19,-152 787.41,-223.99 2.59,-0.96 3.92,-3.83 2.96,-6.42 -0.74,-2.02 -2.65,-3.27 -4.69,-3.27"
         style="fill:#000000;fill-opacity:1;fill-rule:nonzero;stroke:none"
         id="path38" /><path
         d="m 6358.7,2981.09 c -1.29,0 -2.58,0.5 -3.56,1.49 -156.85,159.19 -368.59,48.98 -370.71,47.85 -2.43,-1.3 -5.47,-0.38 -6.77,2.05 -1.3,2.44 -0.38,5.47 2.05,6.77 2.19,1.17 220.39,114.93 382.55,-49.65 1.94,-1.97 1.91,-5.13 -0.05,-7.07 -0.98,-0.96 -2.24,-1.44 -3.51,-1.44"
         style="fill:#000000;fill-opacity:1;fill-rule:nonzero;stroke:none"
         id="path40" /><path
         d="m 2864.38,2900.18 c -41.18,-120.37 -201.68,-174.45 -358.47,-120.8 -156.8,53.65 -250.51,194.72 -209.33,315.09 41.19,120.37 226.95,248.28 383.74,194.62 156.79,-53.65 225.25,-268.54 184.06,-388.91"
         style="fill:#97dfff;fill-opacity:1;fill-rule:nonzero;stroke:none"
         id="path42" /><path
         d="m 3384.92,7459.27 c 69.88,133.76 229.71,400.13 400.14,452 174.17,53.01 453.47,113.11 563.16,37.22 59.28,-41.02 37.99,-72.77 37.99,-72.77 115.14,-36.08 258.4,-112.65 339.92,-238.62 58.18,-89.91 95.19,-263.73 103.73,-370.49 4.94,-61.75 167,-275.2 192.66,-489.06 22.23,-185.25 -182.78,-463.56 -182.78,-463.56 0,0 294.75,-612.54 393.22,-805.33 C 5694.28,4605.47 5936,3713.44 5747.37,3136.73 5475.92,2306.8 4332,1702.63 3101.94,2302.84 c -354.65,173.06 -739.23,739.08 -695.14,1584.41 33.61,644.18 538.93,1792.47 703.95,2416.06 39.95,150.95 75.66,389.91 120.53,620.87 3.05,15.68 -50.59,-78.09 -68.5,-35.1 -6.77,16.26 25.42,113.63 45.15,156.54 73.35,159.55 122.12,308.6 176.99,413.65"
         style="fill:#97dfff;fill-opacity:1;fill-rule:nonzero;stroke:none"
         id="path44" /><path
         d="m 4247.4,6137.71 c -35.03,0 -56.6,1.43 -57.33,1.48 -2.76,0.2 -4.83,2.59 -4.64,5.35 0.2,2.75 2.66,4.79 5.35,4.63 2.53,-0.18 256.26,-17.04 449.9,67.91 260.45,114.24 345.09,373.62 345.91,376.22 0.83,2.64 3.63,4.1 6.28,3.26 2.63,-0.83 4.09,-3.64 3.26,-6.27 -0.84,-2.65 -86.88,-266.33 -351.43,-382.37 -139.76,-61.31 -310.15,-70.21 -397.3,-70.21"
         style="fill:#000000;fill-opacity:1;fill-rule:nonzero;stroke:none"
         id="path46" /><path
         d="m 4271.72,6392.88 c -2.76,0 -5,2.23 -5,4.99 -0.01,2.76 2.23,5.01 4.99,5.01 0.68,0 68.29,0.38 116.85,22.84 70.83,32.75 71.8,115.54 71.81,116.38 0,2.76 2.24,4.99 5,4.99 2.76,0 5,-2.24 5,-5 0,-0.89 -0.89,-89.97 -77.61,-125.44 -50.59,-23.4 -118.18,-23.76 -121.04,-23.77 v 0"
         style="fill:#000000;fill-opacity:1;fill-rule:nonzero;stroke:none"
         id="path48" /><path
         d="m 4080.7,7126.33 c -12.14,14.3 -5.63,78.55 29.04,77.18 178.68,-7.05 193.12,-35.66 433.25,-1.64 75.65,10.71 92.74,-4.72 99.06,-45.59 12.79,-82.67 -170.36,-158.69 -233.4,-161.92 -98.28,-5.02 -295.88,94.2 -327.95,131.97"
         style="fill:#000000;fill-opacity:1;fill-rule:nonzero;stroke:none"
         id="path50" /><path
         d="m 4317.29,7832.68 c -2.39,0 -4.49,1.7 -4.92,4.13 -0.48,2.72 1.33,5.31 4.05,5.79 19.21,3.41 68.81,18.05 67.66,44.55 -0.95,22.23 -10.22,39.81 -28.32,53.74 -93.7,72.13 -383.81,9.65 -386.73,9 -2.69,-0.58 -5.36,1.12 -5.95,3.82 -0.59,2.7 1.11,5.36 3.81,5.95 12.11,2.66 297.61,64.09 394.98,-10.85 20.29,-15.62 31.13,-36.22 32.2,-61.23 1.76,-40.64 -72.74,-54.26 -75.91,-54.82 -0.29,-0.05 -0.59,-0.08 -0.87,-0.08"
         style="fill:#000000;fill-opacity:1;fill-rule:nonzero;stroke:none"
         id="path52" /><path
         d="m 4328.72,7688.89 c -46.58,0 -112.4,83.09 -120.61,93.7 -1.69,2.18 -1.29,5.32 0.89,7.01 2.18,1.69 5.32,1.29 7.01,-0.89 23.69,-30.59 92.22,-105.82 124.41,-86.79 13.49,7.97 20.84,19.65 21.85,34.71 2.51,37.57 -33.49,91.49 -91.72,137.37 -2.17,1.71 -2.55,4.85 -0.84,7.02 1.71,2.17 4.86,2.54 7.02,0.84 60.75,-47.86 98.24,-105.13 95.51,-145.89 -1.22,-18.3 -10.46,-33.05 -26.73,-42.65 -5.17,-3.06 -10.83,-4.43 -16.79,-4.43"
         style="fill:#000000;fill-opacity:1;fill-rule:nonzero;stroke:none"
         id="path54" /><path
         d="m 4132.07,7316.69 c -0.72,0 -1.45,0.08 -2.18,0.24 -5.39,1.2 -8.79,6.54 -7.6,11.93 10,45.05 61.19,79.01 96.12,75.14 12.14,-1.33 40.37,-9.4 40.37,-55.48 0,-5.52 -4.47,-10 -10,-10 -5.52,0 -10,4.48 -10,10 0,21.98 -7.59,33.96 -22.55,35.6 -26.1,2.91 -66.85,-25.52 -74.41,-59.59 -1.03,-4.66 -5.17,-7.84 -9.75,-7.84"
         style="fill:#000000;fill-opacity:1;fill-rule:nonzero;stroke:none"
         id="path56" /><path
         d="m 4523.67,7330.47 c -4.62,0 -8.78,3.22 -9.78,7.92 -6.5,30.68 -33.91,49.66 -54.32,47.51 -14.75,-1.55 -22.87,-14.31 -22.87,-35.92 0,-5.53 -4.48,-10 -10,-10 -5.53,0 -10,4.47 -10,10 0,32.26 15.24,53.13 40.78,55.81 29.55,3.11 67.13,-21.57 75.98,-63.25 1.14,-5.4 -2.31,-10.71 -7.71,-11.85 -0.7,-0.15 -1.39,-0.22 -2.08,-0.22"
         style="fill:#000000;fill-opacity:1;fill-rule:nonzero;stroke:none"
         id="path58" /><path
         d="m 4248.77,7536.72 c -1.14,-24.21 -19.02,-32.54 -50.97,-41.12 -31.96,-8.59 -105.83,-21.6 -105.67,-4.36 0.14,14.62 49.19,30.72 86.4,57.06 33.53,23.74 70.94,3.03 70.24,-11.58"
         style="fill:#000000;fill-opacity:1;fill-rule:nonzero;stroke:none"
         id="path60" /><path
         d="m 3767.18,7061.17 c 8.59,-31.95 -10.35,-64.82 -42.3,-73.4 -31.95,-8.59 -64.82,10.35 -73.4,42.3 -8.59,31.95 10.35,64.81 42.3,73.4 31.95,8.59 64.81,-10.35 73.4,-42.3"
         style="fill:#ff383c;fill-opacity:1;fill-rule:nonzero;stroke:none"
         id="path62" /><path
         d="m 4912.57,7090.03 c -31.95,-8.59 -72.36,7.71 -80.94,39.66 -8.59,31.96 9.86,58.9 25.7,66.12 l 55.24,-105.78"
         style="fill:#ff383c;fill-opacity:1;fill-rule:nonzero;stroke:none"
         id="path64" /><path
         d="m 4212.16,7138.09 c 2.01,10.74 25.11,15.42 51.6,10.47 26.49,-4.96 46.34,-17.68 44.33,-28.41 -2.01,-10.74 -25.11,-15.42 -51.6,-10.47 -26.49,4.96 -46.34,17.68 -44.33,28.41"
         style="fill:#ffffff;fill-opacity:1;fill-rule:nonzero;stroke:none"
         id="path66" /><path
         d="m 4539.44,7496.67 c -6,-13.34 -56.34,-13.56 -86.51,0 -30.18,13.57 -49.78,35.38 -43.78,48.72 6,13.34 35.32,13.15 65.5,-0.41 30.17,-13.57 70.79,-34.97 64.79,-48.31"
         style="fill:#000000;fill-opacity:1;fill-rule:nonzero;stroke:none"
         id="path68" /><path
         d="m 4256.51,3817.83 c 33.21,-998.3 692.06,-1038.78 928.13,-863.39 185.31,137.67 425.52,697.17 199.66,1090.53 -700.61,1220.15 -642.86,1767.12 -935.99,1742.15 -317.78,-27.07 -202.57,-1645.8 -191.8,-1969.29"
         style="fill:#f4f7fa;fill-opacity:1;fill-rule:nonzero;stroke:none"
         id="path70" /><path
         d="m 4829.55,7261.61 c -2.58,0 -4.77,1.98 -4.97,4.6 -9.26,115.65 -48.49,283.99 -102.96,368.18 -95.88,148.18 -264.43,213.73 -332.45,235.04 -2.64,0.83 -4.1,3.63 -3.28,6.27 0.83,2.63 3.64,4.11 6.27,3.27 69.05,-21.63 240.21,-88.24 337.85,-239.15 55.37,-85.56 95.18,-255.94 104.53,-372.82 0.22,-2.75 -1.83,-5.16 -4.58,-5.38 -0.14,-0.01 -0.27,-0.01 -0.41,-0.01"
         style="fill:#000000;fill-opacity:1;fill-rule:nonzero;stroke:none"
         id="path72" /><path
         d="m 4103.89,2052.54 c -290.27,-0.01 -629.76,63.02 -1004.14,245.81 -190.61,93.06 -371.74,289.88 -496.95,539.97 -148.7,297.02 -218.2,659.81 -200.99,1049.15 18.69,422.83 244.67,1062.56 444.05,1626.98 104.48,295.79 203.18,575.18 260.06,790.14 26.03,98.39 50.54,235.78 76.49,381.24 13.1,73.41 26.61,149.17 41.09,224.46 -16.76,-20.48 -34.33,-39.7 -49.82,-37.41 -6.76,0.98 -11.98,5.79 -15.52,14.28 -8.17,19.62 28.27,123.65 45.23,160.55 1.15,2.51 4.12,3.6 6.63,2.45 2.51,-1.15 3.61,-4.12 2.45,-6.63 -21.98,-47.82 -50.48,-139.55 -45.08,-152.52 3.15,-7.57 6.6,-8.07 7.73,-8.23 11.69,-1.72 32.32,23.6 42.22,35.77 9,11.06 11.42,14.03 15.93,11.92 1.19,-0.56 3.86,-2.38 2.92,-7.24 -15.56,-80.08 -29.98,-160.95 -43.94,-239.16 -25.98,-145.67 -50.52,-283.25 -76.66,-382.04 -56.99,-215.35 -155.75,-494.92 -260.3,-790.91 -199.15,-563.77 -424.87,-1202.75 -443.49,-1624.09 -17.14,-387.64 52,-748.73 199.94,-1044.23 124.25,-248.18 303.72,-443.34 492.4,-535.47 372.75,-181.99 710.86,-244.76 999.78,-244.77 364.52,-0.02 650.79,99.86 830.17,186.23 424.63,204.44 740.78,566.51 825.07,944.9 136.43,612.47 -13.35,1035.45 -145.5,1408.63 -22.09,62.39 -42.95,121.31 -62.1,180.04 -0.86,2.62 0.58,5.44 3.2,6.3 2.64,0.86 5.45,-0.58 6.31,-3.2 19.11,-58.61 39.95,-117.48 62.02,-179.8 132.6,-374.46 282.89,-798.87 145.83,-1414.14 -84.94,-381.31 -403.17,-746 -830.49,-951.74 -180.31,-86.82 -468.21,-187.23 -834.54,-187.24"
         style="fill:#000000;fill-opacity:1;fill-rule:nonzero;stroke:none"
         id="path74" /><path
         d="m 6240.63,2673.35 c -2.3,0 -4.38,1.6 -4.88,3.94 -0.19,0.89 -19.85,88.86 -80.35,123.35 -28.53,16.28 -61.95,18.23 -99.31,5.81 -2.62,-0.89 -5.46,0.54 -6.32,3.16 -0.88,2.62 0.54,5.45 3.16,6.32 40.19,13.37 76.35,11.14 107.47,-6.62 64.38,-36.75 84.3,-126.12 85.12,-129.91 0.58,-2.7 -1.13,-5.35 -3.83,-5.94 -0.35,-0.07 -0.71,-0.11 -1.06,-0.11"
         style="fill:#000000;fill-opacity:1;fill-rule:nonzero;stroke:none"
         id="path76" /><path
         d="m 6334.92,2833.53 c -2.21,0 -4.24,1.48 -4.83,3.72 -28.58,107.5 -112.8,112.16 -113.64,112.19 -2.76,0.12 -4.91,2.44 -4.79,5.2 0.11,2.76 2.47,4.92 5.19,4.79 0.92,-0.03 92.46,-5.07 122.9,-119.61 0.71,-2.67 -0.88,-5.41 -3.54,-6.12 -0.43,-0.11 -0.87,-0.17 -1.29,-0.17"
         style="fill:#000000;fill-opacity:1;fill-rule:nonzero;stroke:none"
         id="path78" /><path
         d="m 3455.67,7387.5 c 0,0 -244.83,18.62 -265.07,196.02 -13.44,117.77 89.98,231.62 173.53,235.77 168.89,8.41 240.48,-241.56 240.48,-241.56 L 3455.67,7387.5"
         style="fill:#97dfff;fill-opacity:1;fill-rule:nonzero;stroke:none"
         id="path80" /><path
         d="m 3325.44,7588.36 c -1.39,4.29 28.66,62.54 48.47,62.73 45.54,0.43 116.89,-139.71 116.89,-139.71 0,0 -97.47,-34.9 -116.89,-12.83 -8,9.11 15.64,35.77 11.4,47.12 -6.42,17.23 -54.17,25.21 -59.87,42.69"
         style="fill:#000000;fill-opacity:1;fill-rule:nonzero;stroke:none"
         id="path82" /><path
         d="m 2626.8,2753.52 c -0.28,0 -0.57,0.02 -0.86,0.07 l -120.88,20.86 c -2.73,0.47 -4.55,3.06 -4.08,5.78 0.47,2.72 3.03,4.58 5.78,4.08 l 120.88,-20.86 c 2.73,-0.47 4.55,-3.06 4.08,-5.78 -0.42,-2.43 -2.53,-4.15 -4.92,-4.15"
         style="fill:#000000;fill-opacity:1;fill-rule:nonzero;stroke:none"
         id="path84" /><path
         d="m 4387.1,6782.35 c -37.75,0 -83.35,8.51 -139.7,30.02 -2.58,0.99 -3.87,3.88 -2.88,6.46 0.98,2.58 3.87,3.88 6.45,2.88 146.64,-55.96 217.57,-21.53 267.62,19.55 2.14,1.75 5.29,1.44 7.04,-0.7 1.75,-2.13 1.44,-5.28 -0.7,-7.03 -32.81,-26.94 -74.14,-51.18 -137.83,-51.18"
         style="fill:#000000;fill-opacity:1;fill-rule:nonzero;stroke:none"
         id="path86" /><path
         d="m 3072.64,2425.79 c 262.88,-277.31 1086.15,-678.15 1236.65,-738.16 415.14,-165.54 707.91,311.84 671.21,449.86 -53.93,202.79 -256.23,169.31 -256.23,169.31 0,0 -352.44,320.53 -455.17,372.59 -161.47,81.83 -701.46,218.33 -925.45,142.92 -343.3,-115.58 -338.83,-324.98 -271.01,-396.52"
         style="fill:#97dfff;fill-opacity:1;fill-rule:nonzero;stroke:none"
         id="path88" /><path
         d="m 4724.27,2301.8 c -1.15,0 -2.31,0.39 -3.25,1.2 -0.72,0.61 -3.62,3.36 -8.45,7.94 -221.8,210.37 -410.15,354.14 -516.75,394.46 -203.96,77.13 -449.32,127.46 -451.77,127.96 -2.71,0.55 -4.46,3.19 -3.91,5.9 0.56,2.7 3.18,4.45 5.9,3.9 2.46,-0.5 248.59,-50.98 453.32,-128.41 147.59,-55.81 389.2,-272.41 520.09,-396.56 4.61,-4.37 7.38,-7.01 8.07,-7.59 2.1,-1.8 2.35,-4.95 0.55,-7.05 -0.99,-1.16 -2.39,-1.75 -3.8,-1.75"
         style="fill:#000000;fill-opacity:1;fill-rule:nonzero;stroke:none"
         id="path90" /><path
         d="m 4978.45,2060.99 c -0.24,0 -0.48,0.02 -0.73,0.05 -2.73,0.4 -4.62,2.94 -4.22,5.67 10.6,72.64 -3.71,129.41 -42.51,168.75 -81.78,82.88 -246.74,62.16 -248.41,61.95 -2.76,-0.35 -5.25,1.56 -5.61,4.3 -0.36,2.73 1.56,5.25 4.3,5.61 6.96,0.93 171.51,21.61 256.81,-64.82 41.15,-41.68 56.39,-101.31 45.32,-177.23 -0.37,-2.49 -2.5,-4.28 -4.95,-4.28"
         style="fill:#000000;fill-opacity:1;fill-rule:nonzero;stroke:none"
         id="path92" /><path
         d="m 4011.96,1845.83 c -0.81,0 -1.63,0.19 -2.39,0.61 -108.24,59.05 -213.16,110.72 -324.25,165.42 -116.98,57.61 -249.58,122.91 -405.74,206.77 -2.43,1.3 -3.35,4.33 -2.04,6.77 1.3,2.43 4.34,3.35 6.77,2.03 156.01,-83.77 288.52,-149.02 405.43,-206.6 111.18,-54.75 216.2,-106.46 324.62,-165.62 2.42,-1.32 3.31,-4.36 1.99,-6.78 -0.91,-1.66 -2.62,-2.6 -4.39,-2.6"
         style="fill:#000000;fill-opacity:1;fill-rule:nonzero;stroke:none"
         id="path94" /><path
         d="m 4709.81,1868.65 c -2.8,0.03 -5.02,2.29 -5,5.04 0.01,0.69 0,69.84 -48.3,126.34 -42.72,49.99 -132.3,60.89 -133.2,61 -2.74,0.31 -4.71,2.79 -4.39,5.53 0.32,2.75 2.83,4.71 5.54,4.4 3.83,-0.44 94.35,-11.43 139.66,-64.43 50.81,-59.45 50.72,-129.96 50.69,-132.93 -0.02,-2.74 -2.26,-4.95 -5,-4.95"
         style="fill:#000000;fill-opacity:1;fill-rule:nonzero;stroke:none"
         id="path96" /><path
         d="m 3956.87,2817.36 c -1.47,0 -2.93,0.65 -3.92,1.89 l -124.9,156.82 c -1.72,2.16 -1.36,5.3 0.8,7.02 2.16,1.72 5.31,1.37 7.03,-0.79 l 124.89,-156.82 c 1.73,-2.16 1.37,-5.31 -0.79,-7.03 -0.92,-0.73 -2.02,-1.09 -3.11,-1.09"
         style="fill:#000000;fill-opacity:1;fill-rule:nonzero;stroke:none"
         id="path98" /><path
         d="m 4870,2013.37 c -2.35,0 -4.45,1.67 -4.9,4.07 -28.01,147.68 -132.52,169.97 -133.57,170.18 -2.71,0.54 -4.47,3.16 -3.94,5.87 0.53,2.7 3.16,4.47 5.85,3.95 1.12,-0.22 112.16,-23.5 141.48,-178.14 0.52,-2.71 -1.27,-5.33 -3.98,-5.84 -0.31,-0.06 -0.63,-0.09 -0.94,-0.09"
         style="fill:#000000;fill-opacity:1;fill-rule:nonzero;stroke:none"
         id="path100" /><path
         d="m 7788.13,6906.74 -2474.27,-2706.83 -96.57,112.04 2533.92,2638.94 36.92,-44.15"
         style="fill:#ff4e00;fill-opacity:1;fill-rule:nonzero;stroke:none"
         id="path102" /><path
         d="m 5857.49,4749.2 c -54.33,-87.17 -272.84,-444.89 -438.78,-626.35 -66.21,-72.41 -250.72,148.38 -196.12,201.11 140.03,135.26 400.7,441.15 481.61,547.07 35.43,46.38 184.63,-71.54 153.29,-121.83"
         style="fill:#2f5ef4;fill-opacity:1;fill-rule:nonzero;stroke:none"
         id="path104" /><path
         d="m 8885.83,3072.48 c -2.84,0.05 -5.04,2.32 -5,5.08 9.79,595.67 -95.02,1408.26 -273.54,2120.65 -209.44,835.8 -497.06,1456.95 -809.88,1749.03 -2.02,1.88 -2.13,5.05 -0.24,7.06 1.88,2.03 5.05,2.13 7.07,0.25 314.21,-293.38 602.85,-916.26 812.75,-1753.91 178.72,-713.18 283.64,-1526.76 273.84,-2123.24 -0.05,-2.73 -2.28,-4.92 -5,-4.92"
         style="fill:#000000;fill-opacity:1;fill-rule:nonzero;stroke:none"
         id="path106" /><path
         d="m 8742.93,2788.63 c 0,-102.26 285.8,-102.26 285.8,0 0,102.25 -63.98,185.15 -142.9,185.15 -78.92,0 -142.9,-82.9 -142.9,-185.15"
         style="fill:#ff4e00;fill-opacity:1;fill-rule:nonzero;stroke:none"
         id="path108" /><path
         d="m 9021.98,2842.86 c 4.36,-17.74 6.75,-36.61 6.75,-56.22 0,-102.25 -285.8,-102.25 -285.8,0 0,19.61 2.39,38.48 6.75,56.22 38.74,-68.36 233.56,-68.36 272.3,0"
         style="fill:#2f5ef4;fill-opacity:1;fill-rule:nonzero;stroke:none"
         id="path110" /><path
         d="m 8882.2,2942.1 h 7.26 c 3.35,0 6.06,2.71 6.06,6.06 v 79.7 c 0,3.35 -2.71,6.06 -6.06,6.06 h -7.26 c -3.35,0 -6.06,-2.71 -6.06,-6.06 v -79.7 c 0,-3.35 2.71,-6.06 6.06,-6.06"
         style="fill:#f47b24;fill-opacity:1;fill-rule:nonzero;stroke:none"
         id="path112" /><path
         d="m 8885.83,2578.83 c -171.44,0 -344.42,58.33 -344.42,188.65 0,2.76 2.24,5 5,5 2.76,0 5,-2.24 5,-5 0,-123.41 167.96,-178.65 334.42,-178.65 137.89,0 254.67,37.45 304.75,97.74 1.77,2.12 4.92,2.41 7.04,0.65 2.13,-1.76 2.42,-4.92 0.65,-7.04 -52.72,-63.46 -169.52,-101.35 -312.44,-101.35"
         style="fill:#97dfff;fill-opacity:1;fill-rule:nonzero;stroke:none"
         id="path114" /><path
         d="m 9060.61,2685.82 c -2.05,0 -3.96,1.26 -4.7,3.29 -0.95,2.59 0.39,5.46 2.98,6.41 51.75,18.86 81.42,45.09 81.42,71.96 0,28.97 -35.21,57.5 -94.19,76.33 -2.63,0.84 -4.09,3.65 -3.25,6.28 0.84,2.63 3.65,4.08 6.29,3.24 64.28,-20.52 101.15,-51.81 101.15,-85.85 0,-31.78 -31.25,-60.68 -87.99,-81.36 -0.57,-0.2 -1.15,-0.3 -1.71,-0.3"
         style="fill:#97dfff;fill-opacity:1;fill-rule:nonzero;stroke:none"
         id="path116" /><path
         d="m 8885.83,2658.76 c -148.31,0 -264.48,47.76 -264.48,108.72 0,34.83 38.29,66.57 105.06,87.08 2.64,0.8 5.43,-0.68 6.24,-3.31 0.81,-2.64 -0.67,-5.44 -3.31,-6.25 -61.36,-18.85 -97.99,-47.82 -97.99,-77.52 0,-53.51 116.54,-98.72 254.48,-98.72 39.03,0 76.51,3.41 111.39,10.11 2.73,0.52 5.34,-1.26 5.86,-3.96 0.52,-2.72 -1.26,-5.34 -3.97,-5.86 -35.5,-6.82 -73.61,-10.29 -113.28,-10.29"
         style="fill:#97dfff;fill-opacity:1;fill-rule:nonzero;stroke:none"
         id="path118" /><path
         d="m 4104.3,4092.07 c 3.16,-17.53 810.53,-198.42 1274.66,15.44 432.84,199.45 439.43,487.35 434.85,528.44 -21.3,191.24 -240.38,224.62 -657.75,198.35 -852.27,-53.65 -1370.75,662.29 -1370.75,662.29 L 4104.3,4092.07"
         style="fill:#97dfff;fill-opacity:1;fill-rule:nonzero;stroke:none"
         id="path120" /><path
         d="m 4731.92,3982.62 c -230.73,0 -453.82,36.6 -629.42,104.79 -2.58,1 -3.86,3.89 -2.86,6.47 1,2.57 3.91,3.85 6.47,2.85 422.41,-164.01 1153.83,-141.42 1500.45,134.31 151.29,120.35 214.63,273.9 188.25,456.37 -17.81,123.24 -209.39,165.78 -640.55,142.21 -378.1,-20.66 -669.92,101.32 -848.16,207.29 -193.17,114.85 -298.42,236.32 -299.46,237.54 -1.79,2.1 -1.55,5.25 0.55,7.05 2.09,1.8 5.25,1.56 7.05,-0.54 4.12,-4.81 421.03,-480.57 1139.48,-441.36 437.57,23.91 632.26,-21.17 650.99,-150.76 26.92,-186.24 -37.65,-342.9 -191.92,-465.62 -162.83,-129.53 -419.91,-212.96 -723.91,-234.95 -52.39,-3.78 -104.89,-5.65 -156.96,-5.65"
         style="fill:#000000;fill-opacity:1;fill-rule:nonzero;stroke:none"
         id="path122" /><path
         d="m 5407.61,4608.33 c -2.4,0 -4.52,1.74 -4.93,4.19 -0.44,2.72 1.4,5.29 4.13,5.74 135.67,22.31 256.71,76.56 257.92,77.11 2.51,1.13 5.48,0.02 6.61,-2.5 1.14,-2.51 0.02,-5.47 -2.49,-6.61 -1.22,-0.55 -123.41,-55.34 -260.42,-77.87 -0.28,-0.04 -0.55,-0.06 -0.82,-0.06"
         style="fill:#000000;fill-opacity:1;fill-rule:nonzero;stroke:none"
         id="path124" /><path
         d="m 5455.34,4438.44 c -2.63,0 -4.84,2.06 -4.99,4.73 -0.15,2.76 1.96,5.11 4.72,5.27 125,6.86 199.22,73.15 199.96,73.82 2.04,1.86 5.21,1.7 7.06,-0.34 1.86,-2.04 1.71,-5.2 -0.33,-7.06 -3.11,-2.83 -77.62,-69.35 -206.14,-76.41 -0.09,-0.01 -0.19,-0.01 -0.28,-0.01"
         style="fill:#000000;fill-opacity:1;fill-rule:nonzero;stroke:none"
         id="path126" /><path
         d="m 2958.88,5942.13 c 16.78,29.12 1321.73,-101.28 1604.83,-31.73 242.75,59.64 458.69,240.41 458.69,240.41 110.96,-113.83 219.19,-434.62 194.89,-527.65 -72.9,-279.16 -627.65,-573.95 -1109.72,-608.97 -370.59,-26.93 -1167.97,95.83 -1306.97,390.74 -43.2,91.66 98.71,433.88 158.28,537.2"
         style="fill:#ef4300;fill-opacity:1;fill-rule:nonzero;stroke:none"
         id="path128" /><path
         d="m 3095.72,6557.84 c 16.78,29.12 65.52,15.94 65.52,15.94 0,0 -14.33,-24.65 0.24,-48.37 168.83,-274.79 1025.86,-363.17 1308.95,-293.62 242.75,59.64 473.87,227.97 473.87,227.97 110.95,-113.84 255.86,-411.62 192.94,-535.59 -136.45,-268.84 -590.37,-561.05 -921.69,-588.68 -340.82,-28.41 -1245.97,142.71 -1347.74,452.45 -42.17,128.38 168.34,666.59 227.91,769.9"
         style="fill:#ff4e00;fill-opacity:1;fill-rule:nonzero;stroke:none"
         id="path130" /><path
         d="m 4058.84,5357.26 c -445.9,0 -866.86,211.22 -871.7,213.68 -2.46,1.26 -3.44,4.27 -2.19,6.73 1.25,2.46 4.26,3.45 6.73,2.19 5.53,-2.82 559.36,-280.66 1067.63,-196.88 547.12,90.17 726.03,375.28 727.77,378.15 1.44,2.37 4.52,3.12 6.87,1.68 2.36,-1.43 3.12,-4.5 1.68,-6.86 -1.76,-2.91 -182.66,-291.86 -734.69,-382.84 -67.04,-11.04 -134.86,-15.85 -202.1,-15.85"
         style="fill:#000000;fill-opacity:1;fill-rule:nonzero;stroke:none"
         id="path132" /><path
         d="m 3327.19,3351.99 c 0,0 705.87,436.47 781.01,413.3 66.23,-20.43 7.19,-375.56 -213.5,-587.41 -222.38,-213.47 -450.25,-187.33 -450.25,-187.33 l -117.26,361.44"
         style="fill:#000000;fill-opacity:1;fill-rule:nonzero;stroke:none"
         id="path134" /><path
         d="m 3589.45,1641.91 c 107.43,64.12 116.96,142.51 174.13,123.67 107.32,-35.36 60.1,-366.35 -61.87,-389.08 -100.64,-18.75 -299.68,51.47 -303.73,116.72 -4.81,77.54 107.31,98.46 191.47,148.69"
         style="fill:#f47b24;fill-opacity:1;fill-rule:nonzero;stroke:none"
         id="path136" /><path
         d="m 3705.57,1657.4 c -1.02,0 -2.05,0.31 -2.94,0.96 -2.23,1.62 -2.72,4.75 -1.1,6.98 18.35,25.21 44.4,34.89 77.48,28.77 2.71,-0.5 4.51,-3.11 4.01,-5.83 -0.51,-2.71 -3.12,-4.5 -5.83,-4.01 -29.36,5.44 -51.46,-2.68 -67.57,-24.81 -0.98,-1.35 -2.5,-2.06 -4.05,-2.06"
         style="fill:#000000;fill-opacity:1;fill-rule:nonzero;stroke:none"
         id="path138" /><path
         d="m 1824.81,1595.13 c -236.23,-74.6 -306.15,-37.54 -317.44,-76.67 -9.71,-33.67 136.12,-144.02 316.32,-170.52 136.08,-20.02 273.06,41.17 273.06,41.17 0,0 -198.13,229.33 -271.94,206.02"
         style="fill:#000000;fill-opacity:1;fill-rule:nonzero;stroke:none"
         id="path140" /><path
         d="m 1751.04,1384.1 c 334.97,-328.89 1401.15,-341.5 1769.02,86.25 241.42,280.73 146.4,910.82 0,1495.86 -134.9,539.02 -305.55,1040.32 -474.46,1182.93 -258.64,218.37 -689.16,163.85 -775.68,-166.23 C 2099.56,3332.96 1264,1862.27 1751.04,1384.1"
         style="fill:#000000;fill-opacity:1;fill-rule:nonzero;stroke:none"
         id="path142" /><path
         d="m 2246.72,1596.79 c 269.84,-252.88 969.5,-252.88 1168.72,78.04 284.47,472.5 -80.17,1547.48 -277.1,2172.55 -112.59,357.34 -502.05,301.97 -602.89,55.75 -182.49,-445.55 -665.89,-1952.9 -288.73,-2306.34"
         style="fill:#f4f7fa;fill-opacity:1;fill-rule:nonzero;stroke:none"
         id="path144" /><path
         d="m 3097.74,3704.96 c 72.57,-25.1 223.56,-64.15 207.86,-110.74 -40.65,-120.6 -471.44,-115.63 -520.65,-27.76 -31.85,56.88 34.98,192.54 98.17,226.27 75.09,40.08 101.4,-48.62 214.62,-87.77"
         style="fill:#ffb82c;fill-opacity:1;fill-rule:nonzero;stroke:none"
         id="path146" /><path
         d="m 2739.93,3722.06 c -15.29,0 -31.55,3.79 -47.43,11.44 -4.97,2.4 -7.06,8.38 -4.67,13.36 2.4,4.97 8.38,7.06 13.36,4.66 33.29,-16.05 60.38,-9.34 74.63,2.3 12.53,10.22 17.41,25.16 13.42,40.98 -1.36,5.35 1.89,10.79 7.24,12.14 5.36,1.35 10.79,-1.89 12.15,-7.24 5.89,-23.32 -1.64,-46.26 -20.16,-61.38 -13.24,-10.8 -30.19,-16.26 -48.54,-16.26"
         style="fill:#000000;fill-opacity:1;fill-rule:nonzero;stroke:none"
         id="path148" /><path
         d="m 3011.07,3517.55 c -31.5,0 -63.35,12.17 -80.77,39.54 -1.49,2.33 -0.8,5.42 1.53,6.9 2.33,1.49 5.42,0.8 6.9,-1.53 23.19,-36.42 75.68,-42.42 113.03,-27.17 2.57,1.06 5.47,-0.19 6.52,-2.74 1.04,-2.56 -0.19,-5.48 -2.74,-6.52 -13.57,-5.54 -28.98,-8.48 -44.47,-8.48"
         style="fill:#000000;fill-opacity:1;fill-rule:nonzero;stroke:none"
         id="path150" /><path
         d="m 3022.04,3791.79 c -20.77,0 -44.63,11.02 -57.75,35.67 -2.6,4.88 -0.75,10.93 4.12,13.53 4.88,2.59 10.94,0.74 13.53,-4.13 11.04,-20.74 33.75,-28.4 49.34,-23.83 6.09,1.79 13.17,6.18 12.29,16.94 -0.45,5.5 3.64,10.33 9.15,10.78 5.47,0.45 10.33,-3.64 10.78,-9.15 1.49,-18.04 -8.71,-32.51 -26.59,-37.76 -4.61,-1.35 -9.64,-2.05 -14.87,-2.05"
         style="fill:#000000;fill-opacity:1;fill-rule:nonzero;stroke:none"
         id="path152" /><path
         d="m 2924.02,3934.47 c -9.62,36.84 103.42,19.04 119.53,1.89 20.2,-21.5 -115.46,-17.48 -119.53,-1.89"
         style="fill:#000000;fill-opacity:1;fill-rule:nonzero;stroke:none"
         id="path154" /><path
         d="m 2757.36,3914.29 c -6.12,37.9 -111.64,-32.23 -120.43,-55.44 -11.01,-29.08 123.02,39.4 120.43,55.44"
         style="fill:#000000;fill-opacity:1;fill-rule:nonzero;stroke:none"
         id="path156" /><path
         d="m 3252.35,3597.31 c -5.11,15.81 -26.48,-11.84 -26.65,-20.36 -0.21,-10.68 28.81,13.67 26.65,20.36"
         style="fill:#000000;fill-opacity:1;fill-rule:nonzero;stroke:none"
         id="path158" /><path
         d="m 2574.5,3647.24 c -5.53,-17.47 17.65,-40.39 51.78,-51.19 34.12,-10.8 66.27,-5.4 71.8,12.06 5.53,17.47 -17.65,40.39 -51.78,51.19 -34.12,10.8 -66.27,5.4 -71.8,-12.06"
         style="fill:#ff6ea9;fill-opacity:1;fill-rule:nonzero;stroke:none"
         id="path160" /><path
         d="m 2266.04,1540.51 c 10.47,22.26 78.88,29.99 117.33,56.28 29.46,20.15 55.64,65.09 91.75,79.85 47.77,19.52 79.59,-25.03 121.84,-23.32 37.08,1.5 61.68,37.55 102.38,23.32 186.1,-65.09 68.52,-534.29 -65.3,-581.37 -141.98,-49.96 -442.76,286.26 -368,445.24"
         style="fill:#f47b24;fill-opacity:1;fill-rule:nonzero;stroke:none"
         id="path162" /><path
         d="m 3032.42,4272.11 c 0,0 -171.65,302.16 -338.66,392.06 -38.75,20.86 -140.01,23.93 -157.1,4.73 -210.56,-236.58 -232.13,-578.96 -232.13,-578.96 l 727.89,182.17"
         style="fill:#2f5ef4;fill-opacity:1;fill-rule:nonzero;stroke:none"
         id="path164" /><path
         d="m 3125.1,4106.89 c -11.62,-127.74 -701.09,-190.76 -838.71,-133.82 -70.25,29.06 -36.49,335.12 46.03,325.08 37.16,-4.52 75.51,-7.35 114.23,-8.5 156.33,-4.65 318.5,17.95 431.46,66.03 27.92,11.89 52.83,25.33 73.9,40.3 81.04,57.57 181.7,-194.38 173.09,-289.09"
         style="fill:#2daef7;fill-opacity:1;fill-rule:nonzero;stroke:none"
         id="path166" /><path
         d="m 2487.46,4287.32 c -19.68,0 -39.43,0.43 -59.19,1.29 -2.76,0.12 -4.9,2.45 -4.78,5.21 0.12,2.76 2.58,4.88 5.22,4.78 167.14,-7.29 334.21,16.88 446.9,64.66 2.54,1.08 5.48,-0.11 6.56,-2.65 1.07,-2.54 -0.11,-5.48 -2.66,-6.56 -100.62,-42.66 -243.88,-66.73 -392.05,-66.73"
         style="fill:#000000;fill-opacity:1;fill-rule:nonzero;stroke:none"
         id="path168" /><path
         d="m 3381.94,2094.66 c 136.95,618.01 -51.12,1071.38 -51.12,1071.38 l -424.69,-98.87 c 0,0 244.28,-290.52 211.07,-995.65 -1.72,-36.53 255.43,-18.84 264.74,23.14"
         style="fill:#2daef7;fill-opacity:1;fill-rule:nonzero;stroke:none"
         id="path170" /><path
         d="m 3270.28,1801.26 c -0.89,0 -1.79,0.12 -2.69,0.37 -5.32,1.48 -8.43,7 -6.95,12.32 0.46,1.66 46.27,167.65 39.33,282.61 -0.33,5.52 3.87,10.25 9.38,10.59 5.53,0.34 10.25,-3.87 10.59,-9.38 7.14,-118.34 -38.1,-282.27 -40.03,-289.19 -1.24,-4.42 -5.25,-7.32 -9.63,-7.32"
         style="fill:#ffab40;fill-opacity:1;fill-rule:nonzero;stroke:none"
         id="path172" /><path
         d="m 3344.55,1843.99 c -1.01,0 -2.04,0.16 -3.05,0.49 -5.26,1.68 -8.16,7.31 -6.48,12.57 0.45,1.4 44.6,141.69 14.46,251.43 -1.46,5.33 1.67,10.83 6.99,12.29 5.34,1.46 10.83,-1.67 12.3,-6.99 31.73,-115.56 -12.79,-256.88 -14.7,-262.84 -1.36,-4.24 -5.29,-6.95 -9.52,-6.95"
         style="fill:#ffab40;fill-opacity:1;fill-rule:nonzero;stroke:none"
         id="path174" /><path
         d="m 3202.02,1825.43 c -0.52,0 -1.04,0.04 -1.56,0.12 -5.46,0.86 -9.19,5.97 -8.34,11.43 0.24,1.52 23.65,152.93 13.26,259.21 -0.54,5.5 3.48,10.39 8.98,10.93 5.49,0.53 10.39,-3.48 10.93,-8.98 10.63,-108.85 -12.42,-257.96 -13.41,-264.26 -0.77,-4.93 -5.02,-8.45 -9.86,-8.45"
         style="fill:#ffab40;fill-opacity:1;fill-rule:nonzero;stroke:none"
         id="path176" /><path
         d="m 3238.2,1997.61 c -5.25,0 -9.65,4.09 -9.97,9.39 -0.09,1.37 -7.79,138.11 30.83,284.39 1.42,5.34 6.88,8.53 12.23,7.11 5.34,-1.41 8.52,-6.88 7.11,-12.22 -37.77,-143.05 -30.29,-276.74 -30.21,-278.07 0.33,-5.51 -3.87,-10.25 -9.38,-10.58 -0.21,-0.02 -0.41,-0.02 -0.61,-0.02"
         style="fill:#ffab40;fill-opacity:1;fill-rule:nonzero;stroke:none"
         id="path178" /><path
         d="m 2709.76,4994.59 c -28.95,17.3 -75.49,-29.04 -75.49,-29.04 0,0 -21.87,44.94 -55.52,44.45 -30.02,-0.43 -50.85,-51.53 -50.85,-51.53 0,0 -131.71,10.95 -141.5,-22.36 -8.22,-27.95 47.1,-86.9 47.1,-86.9 0,0 -90.06,0.79 -97.8,-47.6 -6.73,-42.05 87.95,-102.57 87.95,-102.57 0,0 -48.28,-101.63 -17.23,-116.79 42.91,-20.96 156.75,25.68 156.75,25.68 0,0 -11.49,-73.85 31.19,-86.71 48.77,-14.71 103.79,95.77 103.79,95.77 0,0 129.12,-26.93 141.53,19.51 11.38,42.58 -48.62,94.84 -48.62,94.84 0,0 68.18,-10.05 77.86,32.91 7.1,31.49 -74.84,75.97 -74.84,75.97 0,0 45.64,35.6 36.82,68.7 -7.74,29.03 -90.04,22.64 -90.04,22.64 0,0 -17.74,55.04 -31.1,63.03"
         style="fill:#fe980d;fill-opacity:1;fill-rule:nonzero;stroke:none"
         id="path180" /><path
         d="m 3247.51,2164.55 c -68.59,0 -118.28,17.82 -119.04,18.1 -2.6,0.95 -3.92,3.82 -2.97,6.41 0.95,2.59 3.83,3.92 6.41,2.97 1.15,-0.41 115.92,-41.45 236.4,3.56 2.58,0.96 5.46,-0.35 6.43,-2.94 0.97,-2.58 -0.35,-5.46 -2.93,-6.43 -43.8,-16.36 -86.87,-21.67 -124.3,-21.67"
         style="fill:#f4f7fa;fill-opacity:1;fill-rule:nonzero;stroke:none"
         id="path182" /><path
         d="m 3266.01,2316.07 c -82.52,0 -142.3,17.73 -143.21,18.01 -2.65,0.8 -4.14,3.6 -3.33,6.24 0.8,2.64 3.59,4.14 6.23,3.33 1.39,-0.42 140.69,-41.66 286.96,3.56 2.64,0.81 5.44,-0.66 6.26,-3.3 0.81,-2.64 -0.67,-5.44 -3.3,-6.26 -52.73,-16.29 -104.56,-21.58 -149.61,-21.58"
         style="fill:#f4f7fa;fill-opacity:1;fill-rule:nonzero;stroke:none"
         id="path184" /><path
         d="m 2770.33,4055.35 c -40.02,0 -84.74,42.53 -128.13,83.78 -44.86,42.66 -91.26,86.8 -128.69,80.73 -63.43,-10.24 -153.33,-137.96 -154.23,-139.25 -1.59,-2.27 -4.7,-2.81 -6.97,-1.24 -2.26,1.58 -2.81,4.7 -1.23,6.97 3.78,5.4 93.27,132.49 160.84,143.39 42.32,6.85 90.54,-39.01 137.17,-83.35 45.83,-43.58 93.21,-88.67 130.91,-79.95 37.45,8.62 54.66,64.7 71.29,118.92 15.4,50.21 29.95,97.63 61.17,104.09 67.5,14 165.38,-101.41 169.51,-106.33 1.78,-2.11 1.5,-5.27 -0.61,-7.05 -2.11,-1.77 -5.27,-1.5 -7.05,0.61 -0.97,1.16 -98.14,115.74 -159.82,102.98 -25.42,-5.27 -39.13,-49.94 -53.64,-97.23 -17.47,-56.94 -35.53,-115.82 -78.61,-125.74 -3.91,-0.9 -7.89,-1.33 -11.91,-1.33"
         style="fill:#ffffff;fill-opacity:1;fill-rule:nonzero;stroke:none"
         id="path186" /><path
         d="m 2633.56,4617.42 c -14.28,0 -27.15,20.24 -40.75,41.63 -9.54,14.99 -20.34,31.99 -28.1,34.43 -7.86,2.49 -25.65,-13.15 -39.96,-25.7 -19.82,-17.39 -38.54,-33.82 -51.21,-25.28 -30.73,20.72 6.82,92.7 11.2,100.84 1.31,2.43 4.33,3.35 6.78,2.03 2.43,-1.31 3.34,-4.34 2.03,-6.77 -10.71,-19.9 -34.17,-74.48 -14.42,-87.8 6.28,-4.23 25.21,12.37 39.03,24.5 18.69,16.4 36.35,31.87 49.55,27.72 11.24,-3.54 22.07,-20.57 33.54,-38.61 10.64,-16.73 23.75,-37.49 32.65,-36.98 21.9,1.49 28.86,61.91 29.58,82.96 0.09,2.75 2.39,4.91 5.16,4.82 2.76,-0.09 4.92,-2.4 4.83,-5.16 -0.31,-9.23 -4.06,-90.23 -38.89,-92.59 -0.34,-0.03 -0.68,-0.04 -1.02,-0.04"
         style="fill:#000000;fill-opacity:1;fill-rule:nonzero;stroke:none"
         id="path188" /><path
         d="m 2744.55,4243.22 c -1.03,0 -2.06,-0.08 -3.09,-0.24 -5.9,-0.95 -11.06,-4.56 -14.52,-10.16 -3.6,-5.84 -4.94,-13.09 -3.76,-20.41 2.39,-14.85 14.48,-25.3 26.95,-23.3 12.47,2.01 20.67,15.72 18.28,30.58 -1.18,7.32 -4.72,13.78 -9.97,18.2 -4.17,3.49 -9.01,5.33 -13.89,5.33 z m 2.52,-64.35 c -16.15,0 -30.78,13.42 -33.76,31.95 -1.56,9.7 0.26,19.38 5.13,27.25 5,8.11 12.62,13.36 21.43,14.78 8.83,1.42 17.7,-1.18 24.99,-7.31 7.1,-5.95 11.86,-14.57 13.42,-24.27 3.27,-20.29 -8.65,-39.15 -26.56,-42.03 -1.56,-0.25 -3.11,-0.37 -4.65,-0.37"
         style="fill:#ffffff;fill-opacity:1;fill-rule:nonzero;stroke:none"
         id="path190" /><path
         d="m 2992.22,4126.41 c -1.07,0 -2.15,-0.08 -3.25,-0.26 -11.1,-1.78 -18.68,-12.27 -16.89,-23.38 0.86,-5.38 3.77,-10.1 8.19,-13.29 4.41,-3.19 9.8,-4.47 15.19,-3.61 5.37,0.87 10.1,3.78 13.29,8.19 3.19,4.42 4.47,9.81 3.61,15.19 -1.62,10.02 -10.3,17.16 -20.14,17.16 z m -0.07,-50.8 c -6.34,0 -12.5,1.98 -17.74,5.76 -6.58,4.76 -10.92,11.8 -12.21,19.81 -2.66,16.55 8.64,32.18 25.19,34.85 16.55,2.65 32.18,-8.64 34.84,-25.19 1.29,-8.02 -0.62,-16.05 -5.38,-22.63 -4.75,-6.59 -11.79,-10.92 -19.81,-12.21 -1.63,-0.27 -3.26,-0.39 -4.89,-0.39"
         style="fill:#ffffff;fill-opacity:1;fill-rule:nonzero;stroke:none"
         id="path192" /><path
         d="m 2482.75,4055.33 c -11.16,0 -20.24,-9.08 -20.24,-20.24 0,-11.16 9.08,-20.24 20.24,-20.24 11.16,0 20.24,9.08 20.24,20.24 0,11.16 -9.08,20.24 -20.24,20.24 z m 0,-50.48 c -16.68,0 -30.24,13.56 -30.24,30.24 0,16.67 13.56,30.24 30.24,30.24 16.67,0 30.24,-13.57 30.24,-30.24 0,-16.68 -13.57,-30.24 -30.24,-30.24"
         style="fill:#ffffff;fill-opacity:1;fill-rule:nonzero;stroke:none"
         id="path194" /><path
         d="m 2312.16,4201.07 c -3.64,0 -7.31,-1.58 -10.52,-4.55 -4.11,-3.82 -6.92,-9.38 -7.91,-15.66 -1.97,-12.52 3.96,-23.89 13.23,-25.35 4.25,-0.67 8.68,0.89 12.46,4.4 4.11,3.82 6.92,9.38 7.91,15.66 1.97,12.52 -3.96,23.89 -13.22,25.35 -0.65,0.1 -1.3,0.15 -1.95,0.15 z m -3.2,-55.72 c -1.19,0 -2.38,0.1 -3.56,0.28 -14.71,2.32 -24.38,18.82 -21.55,36.79 1.34,8.48 5.24,16.09 10.99,21.43 6.07,5.64 13.49,8.1 20.82,6.94 14.71,-2.32 24.38,-18.81 21.55,-36.78 -1.34,-8.48 -5.24,-16.09 -10.99,-21.43 -5.09,-4.73 -11.12,-7.23 -17.26,-7.23"
         style="fill:#ffffff;fill-opacity:1;fill-rule:nonzero;stroke:none"
         id="path196" /><path
         d="m 3039.69,4304.35 c -1.72,0 -3.36,-0.38 -4.86,-1.14 -3.01,-1.53 -5.15,-4.46 -6.02,-8.27 -0.95,-4.15 -0.3,-8.76 1.84,-12.99 4.25,-8.4 13.04,-12.54 19.6,-9.22 6.56,3.31 8.44,12.85 4.19,21.26 -2.14,4.22 -5.46,7.48 -9.37,9.18 -1.81,0.78 -3.63,1.18 -5.38,1.18 z m 5.78,-42.74 c -9.26,0 -18.74,5.92 -23.75,15.83 -3.18,6.3 -4.13,13.31 -2.66,19.73 1.54,6.76 5.54,12.07 11.26,14.97 5.72,2.89 12.38,2.96 18.74,0.2 6.04,-2.62 11.12,-7.54 14.3,-13.84 6.74,-13.33 2.89,-28.89 -8.59,-34.7 -2.95,-1.49 -6.11,-2.19 -9.3,-2.19"
         style="fill:#ffffff;fill-opacity:1;fill-rule:nonzero;stroke:none"
         id="path198" /><path
         d="m 3404.59,3512.14 c -61.99,44.72 -226.16,-236.29 -525.98,-234.35 -433.66,2.81 -621.11,352.93 -798.36,306.08 -54.41,-14.38 -140.63,-178.46 -91.53,-206.01 156.87,-88.03 226.7,-540.52 814.23,-540.28 440.34,0.17 610.03,353.33 698.3,482.03 30.45,44.41 -53.02,161.05 -96.66,192.53"
         style="fill:#2daef7;fill-opacity:1;fill-rule:nonzero;stroke:none"
         id="path200" /><path
         d="m 2823.65,2833.94 c -2.76,0 -4.99,2.24 -5,5 0,2.76 2.24,5 5,5 398.84,0.18 593.1,313.76 686.46,464.45 1.46,2.35 4.54,3.07 6.89,1.62 2.35,-1.46 3.07,-4.54 1.62,-6.89 -94.32,-152.23 -290.57,-469 -694.96,-469.18 h -0.01"
         style="fill:#000000;fill-opacity:1;fill-rule:nonzero;stroke:none"
         id="path202" /><path
         d="m 2877.89,3272.79 c -248.45,1.61 -414.35,114.96 -547.64,206.05 -97.95,66.93 -175.32,119.79 -249.44,100.2 -2.66,-0.69 -5.4,0.89 -6.11,3.56 -0.71,2.67 0.89,5.4 3.56,6.11 78.54,20.76 157.57,-33.24 257.63,-101.62 132.17,-90.31 296.67,-202.71 542.03,-204.3 2.76,-0.01 4.98,-2.27 4.97,-5.03 -0.02,-2.75 -2.26,-4.97 -5,-4.97"
         style="fill:#000000;fill-opacity:1;fill-rule:nonzero;stroke:none"
         id="path204" /><path
         d="m 5022.4,4900.38 -2474.26,-2706.84 -96.58,112.04 2533.92,2638.94 36.92,-44.14"
         style="fill:#ff4e00;fill-opacity:1;fill-rule:nonzero;stroke:none"
         id="path206" /><path
         d="m 3091.76,2742.83 c -54.32,-87.17 -272.83,-444.89 -438.78,-626.35 -66.21,-72.4 -250.72,148.38 -196.11,201.12 140.02,135.25 400.7,441.15 481.6,547.06 35.43,46.39 184.63,-71.54 153.29,-121.83"
         style="fill:#2f5ef4;fill-opacity:1;fill-rule:nonzero;stroke:none"
         id="path208" /><path
         d="m 6120.1,1705.61 c -2.85,0.05 -5.05,2.33 -5,5.1 5.03,260.25 -97.18,914.67 -276.93,1559.34 -157.83,566.07 -425.86,1315.44 -806.49,1670.82 -2.01,1.88 -2.12,5.05 -0.24,7.07 1.89,2.02 5.05,2.12 7.07,0.24 382.32,-356.97 651.12,-1108.14 809.3,-1675.44 179.99,-645.55 282.33,-1301.26 277.29,-1562.23 -0.05,-2.73 -2.28,-4.9 -5,-4.9"
         style="fill:#000000;fill-opacity:1;fill-rule:nonzero;stroke:none"
         id="path210" /><path
         d="m 5977.2,1421.76 c 0,-102.26 285.8,-102.26 285.8,0 0,102.25 -63.97,185.15 -142.9,185.15 -78.92,0 -142.9,-82.9 -142.9,-185.15"
         style="fill:#ff4e00;fill-opacity:1;fill-rule:nonzero;stroke:none"
         id="path212" /><path
         d="m 6256.26,1475.99 c 4.35,-17.74 6.74,-36.61 6.74,-56.22 0,-102.26 -285.8,-102.26 -285.8,0 0,19.61 2.4,38.48 6.76,56.22 38.73,-68.36 233.55,-68.36 272.3,0"
         style="fill:#2f5ef4;fill-opacity:1;fill-rule:nonzero;stroke:none"
         id="path214" /><path
         d="m 6116.47,1575.23 h 7.26 c 3.35,0 6.07,2.71 6.07,6.06 v 79.7 c 0,3.35 -2.72,6.06 -6.07,6.06 h -7.26 c -3.34,0 -6.06,-2.71 -6.06,-6.06 v -79.7 c 0,-3.35 2.72,-6.06 6.06,-6.06"
         style="fill:#f47b24;fill-opacity:1;fill-rule:nonzero;stroke:none"
         id="path216" /><path
         d="m 6120.1,1211.96 c -171.43,0 -344.42,58.33 -344.42,188.65 0,2.76 2.24,5 5,5 2.76,0 5,-2.24 5,-5 0,-123.41 167.97,-178.65 334.42,-178.65 137.9,0 254.67,37.45 304.76,97.74 1.76,2.12 4.92,2.41 7.04,0.65 2.12,-1.77 2.41,-4.92 0.65,-7.04 -52.72,-63.47 -169.52,-101.35 -312.45,-101.35"
         style="fill:#97dfff;fill-opacity:1;fill-rule:nonzero;stroke:none"
         id="path218" /><path
         d="m 6294.88,1318.95 c -2.04,0 -3.96,1.26 -4.7,3.29 -0.95,2.59 0.39,5.46 2.99,6.41 51.74,18.85 81.42,45.09 81.42,71.96 0,28.97 -35.21,57.5 -94.2,76.33 -2.63,0.84 -4.08,3.65 -3.24,6.28 0.84,2.63 3.64,4.09 6.28,3.24 64.29,-20.52 101.16,-51.81 101.16,-85.85 0,-31.78 -31.26,-60.68 -88,-81.36 -0.56,-0.21 -1.14,-0.3 -1.71,-0.3"
         style="fill:#97dfff;fill-opacity:1;fill-rule:nonzero;stroke:none"
         id="path220" /><path
         d="m 6120.1,1291.89 c -148.31,0 -264.48,47.76 -264.48,108.72 0,34.83 38.29,66.57 105.06,87.08 2.65,0.8 5.44,-0.68 6.25,-3.32 0.81,-2.64 -0.68,-5.43 -3.31,-6.25 -61.37,-18.84 -98,-47.82 -98,-77.51 0,-53.51 116.54,-98.72 254.48,-98.72 39.05,0 76.53,3.41 111.4,10.11 2.73,0.52 5.34,-1.26 5.85,-3.97 0.53,-2.71 -1.25,-5.33 -3.96,-5.85 -35.5,-6.83 -73.61,-10.29 -113.29,-10.29"
         style="fill:#97dfff;fill-opacity:1;fill-rule:nonzero;stroke:none"
         id="path222" /><path
         d="m 2163.14,2938.82 c 358.89,-211.82 741.21,-274.43 752.85,-324.02 10.01,-42.66 -109.49,-132.18 -279.7,-193.57 -222.58,-80.29 -612.87,31.65 -612.87,31.65 0,0 64.07,530.59 139.72,485.94"
         style="fill:#000000;fill-opacity:1;fill-rule:nonzero;stroke:none"
         id="path224" /><path
         d="m 5210.65,1128.03 c 31.15,13.96 45.1,50.4 30.97,81.47 -42.62,93.71 -149.86,276.62 -354.21,328.57 -270.85,68.86 -596.32,-115.95 -596.32,-115.95 l -309.65,97.27 c 0,0 -9.34,-119.09 99.19,-187.9 0,0 -123.62,-45.89 -117.87,-162.35 l 287.2,39.69 c 0,0 278.29,-161.6 511.37,-189.06 145.86,-17.19 352.82,65 449.32,108.26"
         style="fill:#2f5ef4;fill-opacity:1;fill-rule:nonzero;stroke:none"
         id="path226" /><path
         d="m 5181.63,1227.18 c -0.17,0 -0.35,0.01 -0.52,0.03 -5.54,0.58 -54.45,5.95 -68.09,17.5 -31.77,26.88 -32.13,69.72 -32.13,71.53 0,2.76 2.23,5 4.99,5 2.77,0 5,-2.23 5.01,-4.99 0,-0.4 0.43,-40.08 28.59,-63.91 9.57,-8.1 48.48,-13.71 62.66,-15.18 2.75,-0.29 4.74,-2.75 4.46,-5.49 -0.27,-2.58 -2.44,-4.49 -4.97,-4.49"
         style="fill:#000000;fill-opacity:1;fill-rule:nonzero;stroke:none"
         id="path228" /><path
         d="m 4832.4,1076.82 c -2.4,0 -4.51,1.73 -4.93,4.16 -1.67,9.85 -40.61,242.07 -1.08,314.79 41.42,76.23 131.74,81.92 135.56,82.12 2.8,0.14 5.11,-1.96 5.26,-4.72 0.15,-2.75 -1.96,-5.11 -4.72,-5.26 -0.88,-0.05 -88.6,-5.68 -127.32,-76.91 -37.88,-69.71 1.76,-305.96 2.16,-308.34 0.47,-2.72 -1.37,-5.3 -4.09,-5.77 -0.28,-0.04 -0.56,-0.07 -0.84,-0.07"
         style="fill:#000000;fill-opacity:1;fill-rule:nonzero;stroke:none"
         id="path230" /><path
         d="m 4618.77,1299.14 c -54.39,0 -103.63,21.71 -117.1,51.63 -7.91,17.57 -4.94,35.54 8.15,49.28 16.91,17.75 56.07,30.85 110.8,9.35 30.32,-11.91 79.5,-46.18 81.58,-47.63 2.27,-1.59 2.82,-4.7 1.24,-6.97 -1.58,-2.27 -4.7,-2.82 -6.97,-1.23 -0.5,0.35 -50.29,35.04 -79.5,46.52 -50.11,19.69 -85.13,8.56 -99.9,-6.94 -10.15,-10.65 -12.43,-24.6 -6.27,-38.28 11.73,-26.07 58.15,-45.73 107.98,-45.73 17.43,0 78.99,11.89 79.61,12.01 2.72,0.52 5.33,-1.24 5.86,-3.96 0.52,-2.71 -1.25,-5.33 -3.96,-5.86 -2.57,-0.5 -63.13,-12.19 -81.5,-12.19 0,0 -0.01,0 -0.02,0"
         style="fill:#000000;fill-opacity:1;fill-rule:nonzero;stroke:none"
         id="path232" /><path
         d="m 4869.63,1557.77 c 20.03,18.75 21.13,50.09 2.27,70.02 -56.88,60.12 -186.17,171.16 -355.09,157.29 -223.9,-18.38 -423.06,-243.87 -423.06,-243.87 l -260.82,-6.93 c 0,0 24,-92.97 124.48,-116.94 0,0 -82,-67.17 -47.21,-154.21 l 207.98,105.18 c 0,0 253.76,-50.18 438.13,-10.19 115.38,25.03 251.25,141.56 313.32,199.65"
         style="fill:#2daef7;fill-opacity:1;fill-rule:nonzero;stroke:none"
         id="path234" /><path
         d="m 4777.29,1618.36 c -5.09,0 -9.57,0.48 -12.71,1.7 -31.59,12.3 -43.2,45.2 -43.68,46.59 -0.9,2.61 0.49,5.44 3.1,6.35 2.6,0.91 5.45,-0.49 6.36,-3.09 0.1,-0.3 10.66,-29.94 37.85,-40.53 8.14,-3.16 35.62,1.3 51.03,4.86 2.68,0.63 5.37,-1.05 5.99,-3.74 0.63,-2.69 -1.05,-5.38 -3.74,-6 -3.38,-0.78 -27.18,-6.14 -44.2,-6.14"
         style="fill:#000000;fill-opacity:1;fill-rule:nonzero;stroke:none"
         id="path236" /><path
         d="m 4594.14,1418.86 c -1.77,0 -3.48,0.94 -4.39,2.61 -3.85,7.06 -94.25,173.72 -83.14,239.66 11.68,69.3 79.34,97.42 82.22,98.58 2.54,1.03 5.46,-0.2 6.5,-2.76 1.04,-2.55 -0.19,-5.47 -2.75,-6.51 -0.65,-0.26 -65.38,-27.27 -76.11,-90.97 -10.54,-62.55 81.13,-231.51 82.06,-233.21 1.32,-2.43 0.43,-5.46 -2,-6.79 -0.76,-0.41 -1.58,-0.61 -2.39,-0.61"
         style="fill:#000000;fill-opacity:1;fill-rule:nonzero;stroke:none"
         id="path238" /><path
         d="m 4325.31,1523.69 c -22.96,0 -42.7,6.03 -53.55,17.59 -10.73,11.43 -13.3,26.64 -6.86,40.67 8.35,18.19 35.01,38.72 82.73,36.62 26.28,-1.14 72.73,-14.38 74.69,-14.94 2.66,-0.77 4.19,-3.53 3.43,-6.19 -0.76,-2.65 -3.55,-4.19 -6.18,-3.43 -0.48,0.14 -47.28,13.48 -72.37,14.57 -42.74,1.85 -66.16,-15.43 -73.21,-30.8 -4.75,-10.36 -2.91,-21.17 5.06,-29.65 15.49,-16.5 55.47,-19.21 93.01,-6.31 13.15,4.52 56.77,29.59 57.21,29.84 2.39,1.37 5.44,0.55 6.82,-1.84 1.38,-2.39 0.56,-5.45 -1.83,-6.83 -1.83,-1.05 -44.9,-25.8 -58.95,-30.63 -16.97,-5.83 -34.24,-8.67 -50,-8.67"
         style="fill:#000000;fill-opacity:1;fill-rule:nonzero;stroke:none"
         id="path240" /><path
         d="m 4500.87,620.563 c 22.68,6.417 35.87,29.906 29.34,52.546 -19.71,68.313 -74.63,204.051 -209.03,260.051 -178.15,74.24 -419.07,-19.351 -419.07,-19.351 l -201.8,97.541 c 0,0 -18.34,-80.428 48.91,-138.338 0,0 -89.07,-18.942 -96.83,-99.09 l 200.21,-1.711 c 0,0 173.91,-138.352 330.4,-180.512 97.94,-26.386 247.59,8.992 317.87,28.864"
         style="fill:#5ac3f2;fill-opacity:1;fill-rule:nonzero;stroke:none"
         id="path242" /><path
         d="m 4491.5,689.641 c -0.41,0 -0.83,0.05 -1.24,0.148 -6.15,1.57 -37.25,9.863 -45.55,19.274 -19.47,22.078 -15.32,52.078 -15.13,53.347 0.39,2.731 2.91,4.61 5.66,4.211 2.73,-0.391 4.62,-2.93 4.23,-5.66 -0.04,-0.262 -3.61,-26.742 12.74,-45.281 4.87,-5.52 27.43,-12.867 40.52,-16.2 2.67,-0.679 4.29,-3.398 3.61,-6.078 -0.58,-2.261 -2.61,-3.761 -4.84,-3.761"
         style="fill:#000000;fill-opacity:1;fill-rule:nonzero;stroke:none"
         id="path244" /><path
         d="m 4237.79,621.961 c -2.7,0 -4.93,2.168 -4.99,4.891 -0.16,6.918 -3.46,170 31.16,216.148 36.47,48.602 99.58,43.359 102.25,43.109 2.75,-0.257 4.77,-2.687 4.52,-5.437 -0.25,-2.75 -2.68,-4.781 -5.43,-4.52 -0.61,0.059 -60.28,4.911 -93.34,-39.152 -32.56,-43.398 -29.2,-208.258 -29.17,-209.918 0.07,-2.762 -2.12,-5.051 -4.88,-5.109 -0.04,-0.012 -0.08,-0.012 -0.12,-0.012"
         style="fill:#000000;fill-opacity:1;fill-rule:nonzero;stroke:none"
         id="path246" /><path
         d="m 4132.88,794.539 c -8.02,0 -15.31,0.211 -19.44,0.813 -37.74,5.539 -69.74,25.789 -76.1,48.14 -3.76,13.238 0.37,26.137 11.05,34.5 13.71,10.719 42.46,15.957 78.36,-4.613 19.68,-11.27 49.97,-39.75 51.25,-40.957 2.01,-1.891 2.1,-5.051 0.21,-7.063 -1.9,-2.007 -5.06,-2.097 -7.07,-0.207 -0.3,0.289 -30.71,28.868 -49.36,39.547 -31.59,18.102 -55.96,14.231 -67.23,5.41 -7.58,-5.937 -10.28,-14.418 -7.59,-23.879 5.24,-18.449 34.45,-36.07 67.94,-40.98 11.74,-1.73 54.85,0.211 55.29,0.23 2.66,0.122 5.09,-2.011 5.22,-4.769 0.12,-2.762 -2.01,-5.09 -4.77,-5.219 -1.22,-0.062 -21.08,-0.953 -37.76,-0.953"
         style="fill:#000000;fill-opacity:1;fill-rule:nonzero;stroke:none"
         id="path248" /><path
         d="m 4133.7,5977.97 c -0.62,0 -1.24,0.02 -1.86,0.04 -25.22,1.09 -52.31,26.4 -83.68,55.7 -37.52,35.04 -80.05,74.77 -128.26,81.15 -29.87,3.96 -86.34,-18.94 -140.92,-41.09 -60.6,-24.58 -117.84,-47.8 -151.25,-42.11 -31.79,5.4 -48.16,44.53 -64.01,82.38 -14.42,34.47 -29.34,70.11 -54.55,76.84 -27.93,7.46 -69.12,-10.25 -108.97,-27.38 -45.14,-19.41 -91.81,-39.47 -124.26,-25.49 -24.92,10.74 -37.64,48.89 -51.1,89.28 -11.39,34.15 -23.16,69.46 -41.6,80.42 -22.48,13.37 -81.6,-16.9 -102.49,-29.68 -2.35,-1.45 -5.43,-0.71 -6.87,1.65 -1.44,2.35 -0.7,5.43 1.65,6.87 8.21,5.03 81.13,48.6 112.82,29.76 21.64,-12.86 33.46,-48.32 45.97,-85.86 12.18,-36.52 24.77,-74.29 45.58,-83.26 28.5,-12.28 73.16,6.92 116.35,25.49 41.41,17.81 84.25,36.22 115.5,27.87 29.95,-8.01 45.84,-45.95 61.2,-82.65 14.79,-35.35 30.09,-71.9 56.46,-76.38 30.64,-5.22 89.18,18.55 145.81,41.52 58.35,23.67 113.43,46.03 145.99,41.73 51.39,-6.8 95.16,-47.68 133.78,-83.75 29.92,-27.95 55.76,-52.09 77.28,-53.02 29.65,-1.24 66.69,36.33 102.61,72.7 34.81,35.24 67.69,68.52 97.64,72.97 34.92,5.18 82.38,-18.24 132.63,-43.04 53.78,-26.53 109.38,-53.96 143.1,-40.48 19.63,7.84 31.65,44.18 43.27,79.32 13.35,40.34 25.95,78.44 51.5,86.39 17.91,5.56 46.42,-4.73 76.6,-15.64 28.25,-10.2 57.45,-20.75 72.27,-15.34 20.63,7.54 23.12,41.75 25.53,74.82 2.68,36.82 5.45,74.88 33.95,81.93 35.05,8.69 117.33,-47.78 126.59,-54.25 2.26,-1.58 2.82,-4.7 1.24,-6.96 -1.58,-2.27 -4.7,-2.82 -6.96,-1.24 -24.15,16.85 -92.51,59.17 -118.47,52.74 -21.45,-5.3 -23.85,-38.16 -26.38,-72.94 -2.63,-36.25 -5.36,-73.73 -32.06,-83.49 -18.24,-6.67 -47.8,4.02 -79.1,15.33 -27.31,9.86 -55.55,20.07 -70.24,15.49 -20.64,-6.42 -33.01,-43.81 -44.97,-79.98 -12.91,-39.03 -25.11,-75.9 -49.05,-85.47 -37.86,-15.13 -95.5,13.3 -151.24,40.8 -46.67,23.03 -94.95,46.83 -126.74,42.12 -26.65,-3.96 -59.87,-37.59 -91.99,-70.11 -36.78,-37.22 -74.78,-75.7 -108.3,-75.7"
         style="fill:#ffffff;fill-opacity:1;fill-rule:nonzero;stroke:none"
         id="path250" /><path
         d="m 4132.06,5491.59 c -25.47,0 -48.85,20.02 -78.46,45.36 -40.12,34.34 -90.05,77.08 -167.12,87.49 -47.87,6.47 -79.63,-13.72 -113.26,-35.09 -41.03,-26.08 -87.54,-55.62 -169.68,-37.65 -31.23,6.83 -59.34,47.96 -89.09,91.51 -31.09,45.5 -66.32,97.08 -108.02,111.87 -30.64,10.86 -73.38,-0.14 -114.71,-10.79 -43.78,-11.28 -89.04,-22.94 -122.71,-9.57 -27.03,10.73 -38.9,55.11 -51.47,102.09 -10.73,40.11 -21.83,81.59 -41.8,92.54 -21.99,12.06 -106.45,-31.33 -157.84,-63.45 -2.34,-1.46 -5.43,-0.75 -6.89,1.6 -1.47,2.34 -0.75,5.42 1.59,6.88 13.59,8.5 133.8,82.44 167.94,63.74 23.73,-13.01 34.87,-54.64 46.66,-98.73 11.38,-42.52 23.14,-86.5 45.5,-95.38 30.64,-12.16 74.3,-0.91 116.52,9.96 42.78,11.02 87.02,22.43 120.55,10.53 44.77,-15.88 79.43,-66.6 112.94,-115.65 28.6,-41.86 55.61,-81.4 82.97,-87.38 78.11,-17.09 120.85,10.06 162.17,36.32 35.22,22.38 68.49,43.51 119.97,36.56 79.99,-10.81 131.17,-54.61 172.28,-89.8 28.04,-24 50.19,-42.96 71.96,-42.96 65.99,0 111.36,59.15 151.38,111.34 29.2,38.09 54.43,70.97 83.27,74.92 34.77,4.75 70.62,-7.51 108.58,-20.49 48.53,-16.61 98.71,-33.78 151.29,-16.76 21.93,7.1 37.71,46.1 52.97,83.81 17.15,42.42 33.36,82.48 60.58,90.28 18.32,5.26 52.91,2.62 89.54,-0.19 36.54,-2.79 74.31,-5.68 91.52,0.12 22.28,7.51 21.41,52.99 20.58,96.98 -0.96,50.36 -1.87,97.93 29.12,105 2.68,0.62 5.37,-1.07 5.99,-3.76 0.61,-2.69 -1.07,-5.37 -3.77,-5.99 -23.06,-5.26 -22.19,-50.91 -21.35,-95.06 0.91,-47.59 1.85,-96.8 -27.37,-106.64 -19.13,-6.45 -56.22,-3.62 -95.48,-0.62 -34.13,2.61 -69.43,5.3 -86.02,0.55 -22.54,-6.46 -38.57,-46.09 -54.07,-84.42 -16.86,-41.67 -32.79,-81.04 -59.16,-89.57 -55.76,-18.04 -107.53,-0.33 -157.61,16.81 -36.8,12.58 -71.56,24.47 -103.98,20.04 -24.77,-3.39 -48.83,-34.76 -76.7,-71.09 -41.43,-54.03 -88.39,-115.26 -159.31,-115.26"
         style="fill:#ffffff;fill-opacity:1;fill-rule:nonzero;stroke:none"
         id="path252" /><path
         d="m 3683.53,5703.7 c 0,-19.84 -16.08,-35.92 -35.92,-35.92 -19.83,0 -35.92,16.08 -35.92,35.92 0,19.84 16.09,35.92 35.92,35.92 19.84,0 35.92,-16.08 35.92,-35.92"
         style="fill:#ffffff;fill-opacity:1;fill-rule:nonzero;stroke:none"
         id="path254" /><path
         d="m 3948.94,5994.94 c 0,-19.84 -16.09,-35.92 -35.92,-35.92 -19.84,0 -35.92,16.08 -35.92,35.92 0,19.83 16.08,35.92 35.92,35.92 19.83,0 35.92,-16.09 35.92,-35.92"
         style="fill:#ffffff;fill-opacity:1;fill-rule:nonzero;stroke:none"
         id="path256" /><path
         d="m 4167.98,5667.78 c 0,-19.84 -16.08,-35.92 -35.92,-35.92 -19.84,0 -35.92,16.08 -35.92,35.92 0,19.84 16.08,35.92 35.92,35.92 19.84,0 35.92,-16.08 35.92,-35.92"
         style="fill:#ffffff;fill-opacity:1;fill-rule:nonzero;stroke:none"
         id="path258" /><path
         d="m 4385.48,6030.86 c 0,-19.84 -14,-35.92 -31.26,-35.92 -17.27,0 -31.26,16.08 -31.26,35.92 0,19.83 13.99,35.91 31.26,35.91 17.26,0 31.26,-16.08 31.26,-35.91"
         style="fill:#ffffff;fill-opacity:1;fill-rule:nonzero;stroke:none"
         id="path260" /><path
         d="m 4612.76,5789.36 c 0.79,-19.82 -14.64,-36.53 -34.46,-37.31 -19.83,-0.79 -36.53,14.65 -37.32,34.47 -0.78,19.82 14.65,36.53 34.47,37.31 19.82,0.79 36.53,-14.65 37.31,-34.47"
         style="fill:#ffffff;fill-opacity:1;fill-rule:nonzero;stroke:none"
         id="path262" /><path
         d="m 4776.5,6101.48 c 6.49,-18.75 -0.6,-38.22 -15.84,-43.5 -15.24,-5.28 -32.86,5.64 -39.35,24.38 -6.5,18.75 0.59,38.22 15.83,43.5 15.25,5.28 32.86,-5.64 39.36,-24.38"
         style="fill:#ffffff;fill-opacity:1;fill-rule:nonzero;stroke:none"
         id="path264" /><path
         d="m 4998.34,6219.73 c 6.5,-18.74 0.58,-37.81 -13.2,-42.59 -13.79,-4.77 -30.23,6.55 -36.72,25.3 -6.5,18.74 -0.59,37.81 13.2,42.59 13.79,4.77 30.23,-6.55 36.72,-25.3"
         style="fill:#ffffff;fill-opacity:1;fill-rule:nonzero;stroke:none"
         id="path266" /><path
         d="m 4884.19,5932.93 c 6.5,-18.75 0.07,-37.99 -14.35,-42.99 -14.42,-4.99 -31.37,6.15 -37.86,24.9 -6.5,18.74 -0.07,37.99 14.35,42.98 14.42,5 31.37,-6.15 37.86,-24.89"
         style="fill:#ffffff;fill-opacity:1;fill-rule:nonzero;stroke:none"
         id="path268" /><path
         d="m 3479.94,6043.05 c 0,-19.83 -13.18,-35.92 -29.43,-35.92 -16.26,0 -29.44,16.09 -29.44,35.92 0,19.84 13.18,35.92 29.44,35.92 16.25,0 29.43,-16.08 29.43,-35.92"
         style="fill:#ffffff;fill-opacity:1;fill-rule:nonzero;stroke:none"
         id="path270" /><path
         d="m 3268.13,5843.83 c -5.17,-19.15 -24.9,-30.48 -44.05,-25.3 -19.15,5.18 -30.47,24.9 -25.29,44.05 5.17,19.15 24.9,30.48 44.05,25.3 19.15,-5.18 30.47,-24.9 25.29,-44.05"
         style="fill:#ffffff;fill-opacity:1;fill-rule:nonzero;stroke:none"
         id="path272" /><path
         d="m 3139.81,6150.87 c -9.91,-17.18 -29.88,-24.22 -44.59,-15.73 -14.71,8.49 -18.59,29.3 -8.67,46.48 9.92,17.18 29.88,24.23 44.59,15.73 14.71,-8.49 18.59,-29.3 8.67,-46.48"
         style="fill:#ffffff;fill-opacity:1;fill-rule:nonzero;stroke:none"
         id="path274" /><path
         d="m 2475.53,6910.77 c 0,-8.77 -1.82,-17.11 -5.08,-24.69 l -39.21,25.85 38.39,25.23 c 3.74,-8.04 5.9,-16.96 5.9,-26.39 z m -51.64,-61.75 v 41.03 l 34.23,-22.56 c -9,-9.43 -20.88,-16.06 -34.23,-18.47 z m -57.93,20 35.62,23.41 v -43.41 c -14.06,2.54 -26.47,9.76 -35.62,20 z m -16.02,41.75 c 0,8.76 1.82,17.1 5.07,24.68 l 35.65,-23.5 -36.39,-23.92 c -2.76,7.06 -4.33,14.71 -4.33,22.74 z m 51.64,61.74 v -41.03 l -34.23,22.57 c 9,9.43 20.88,16.05 34.23,18.46 z m 55.22,-17.08 -32.91,-21.64 v 38.72 c 12.7,-2.29 24.09,-8.37 32.91,-17.08 z m 121,2.01 c 0.76,-0.16 1.53,-0.23 2.27,-0.23 5.18,0 9.83,3.62 10.92,8.9 1.24,6.03 -2.64,11.93 -8.67,13.18 l -36.97,7.64 27.75,18.24 c 5.14,3.38 6.58,10.3 3.19,15.45 -3.38,5.14 -10.3,6.58 -15.45,3.19 l -27.74,-18.23 7.64,36.97 c 1.25,6.03 -2.63,11.93 -8.66,13.18 -6.06,1.25 -11.94,-2.63 -13.19,-8.67 l -12.16,-58.82 -31.05,-20.4 c -13.21,14.56 -31.35,24.52 -51.79,27.21 v 35.53 l 42.47,42.47 c 4.36,4.36 4.36,11.42 0,15.78 -4.36,4.35 -11.42,4.35 -15.78,0 l -26.69,-26.7 v 33.21 c 0,6.16 -4.99,11.15 -11.16,11.15 -6.16,0 -11.15,-4.99 -11.15,-11.15 v -33.2 l -26.7,26.69 c -4.35,4.35 -11.42,4.35 -15.77,0 -4.36,-4.36 -4.36,-11.42 0,-15.78 l 42.47,-42.47 v -35.53 c -21.09,-2.78 -39.75,-13.28 -53.05,-28.6 l -33.25,21.92 -12.09,58.83 c -1.24,6.04 -7.14,9.92 -13.17,8.69 -6.03,-1.24 -9.92,-7.14 -8.68,-13.18 l 7.59,-36.97 -24.16,15.93 c -5.15,3.38 -12.06,1.96 -15.45,-3.18 -3.39,-5.15 -1.97,-12.06 3.17,-15.46 l 24.16,-15.92 -36.97,-7.6 c -6.04,-1.24 -9.93,-7.13 -8.69,-13.17 1.09,-5.28 5.73,-8.91 10.92,-8.91 0.74,0 1.5,0.07 2.25,0.23 l 58.84,12.08 33.24,-21.91 c -5.46,-11.22 -8.61,-23.77 -8.61,-37.06 0,-12.56 2.8,-24.45 7.7,-35.19 l -32.41,-21.3 -58.82,12.16 c -6.04,1.24 -11.93,-2.64 -13.18,-8.67 -1.25,-6.03 2.63,-11.93 8.66,-13.18 l 36.98,-7.64 -24.19,-15.9 c -5.15,-3.38 -6.58,-10.3 -3.19,-15.45 2.14,-3.26 5.7,-5.03 9.33,-5.03 2.1,0 4.23,0.6 6.12,1.84 l 24.18,15.9 -7.64,-36.98 c -1.25,-6.03 2.63,-11.93 8.66,-13.18 0.76,-0.15 1.52,-0.23 2.27,-0.23 5.18,0 9.82,3.63 10.92,8.9 l 12.16,58.81 31.94,21 c 13.37,-16.19 32.64,-27.27 54.46,-30.15 v -39.8 l -42.47,-42.46 c -4.36,-4.36 -4.36,-11.42 0,-15.78 2.17,-2.18 5.03,-3.27 7.88,-3.27 2.86,0 5.72,1.09 7.89,3.27 l 26.7,26.69 v -28.93 c 0,-6.17 4.99,-11.16 11.15,-11.16 6.17,0 11.16,4.99 11.16,11.16 v 28.93 l 26.69,-26.69 c 2.18,-2.18 5.04,-3.27 7.89,-3.27 2.86,0 5.71,1.09 7.89,3.27 4.36,4.36 4.36,11.42 0,15.78 l -42.47,42.47 v 39.79 c 21.09,2.78 39.75,13.28 53.05,28.6 l 29.69,-19.57 12.08,-58.84 c 1.09,-5.27 5.74,-8.91 10.92,-8.91 0.74,0 1.5,0.08 2.25,0.23 6.04,1.24 9.93,7.14 8.69,13.17 l -7.6,36.98 27.72,-18.27 c 1.9,-1.25 4.03,-1.84 6.13,-1.84 3.63,0 7.18,1.76 9.33,5.01 3.39,5.15 1.97,12.07 -3.18,15.46 l -27.72,18.27 36.98,7.6 c 6.04,1.24 9.92,7.13 8.68,13.17 -1.23,6.03 -7.13,9.92 -13.17,8.68 l -58.83,-12.08 -29.68,19.56 c 5.46,11.23 8.61,23.77 8.61,37.07 0,13.95 -3.44,27.1 -9.43,38.74 l 30.57,20.09 58.82,-12.16"
         style="fill:#97dfff;fill-opacity:1;fill-rule:nonzero;stroke:none"
         id="path276" /><path
         d="m 5608.74,7524.39 c 0,-7.41 -1.54,-14.47 -4.29,-20.89 l -33.18,21.87 32.48,21.36 c 3.17,-6.81 4.99,-14.35 4.99,-22.34 z m -43.69,-52.24 v 34.71 l 28.96,-19.09 c -7.62,-7.98 -17.66,-13.58 -28.96,-15.62 z m -49.02,16.91 30.14,19.82 v -36.73 c -11.9,2.14 -22.4,8.26 -30.14,16.91 z m -13.55,35.33 c 0,7.42 1.53,14.47 4.29,20.89 l 30.16,-19.88 -30.79,-20.25 c -2.34,5.98 -3.66,12.45 -3.66,19.24 z m 43.69,52.25 v -34.72 l -28.96,19.09 c 7.61,7.98 17.66,13.59 28.96,15.63 z m 46.73,-14.46 -27.85,-18.3 v 32.76 c 10.74,-1.94 20.38,-7.09 27.85,-14.46 z m 102.38,1.7 c 0.65,-0.13 1.29,-0.19 1.92,-0.19 4.39,0 8.32,3.07 9.24,7.53 1.06,5.1 -2.23,10.1 -7.33,11.15 l -31.29,6.47 23.48,15.43 c 4.36,2.87 5.57,8.72 2.7,13.08 -2.86,4.35 -8.71,5.56 -13.07,2.7 l -23.48,-15.43 6.47,31.28 c 1.06,5.1 -2.22,10.1 -7.33,11.15 -5.12,1.06 -10.1,-2.22 -11.16,-7.33 l -10.29,-49.77 -26.27,-17.27 c -11.18,12.32 -26.52,20.75 -43.82,23.03 v 30.07 l 35.93,35.93 c 3.69,3.69 3.69,9.66 0,13.35 -3.68,3.69 -9.66,3.69 -13.35,0 l -22.58,-22.59 v 28.1 c 0,5.21 -4.23,9.44 -9.44,9.44 -5.22,0 -9.44,-4.23 -9.44,-9.44 v -28.09 l -22.59,22.58 c -3.68,3.69 -9.66,3.69 -13.35,0 -3.68,-3.69 -3.68,-9.66 0,-13.35 l 35.94,-35.93 v -30.07 c -17.85,-2.35 -33.63,-11.23 -44.89,-24.2 l -28.14,18.55 -10.22,49.78 c -1.05,5.11 -6.04,8.39 -11.15,7.35 -5.1,-1.05 -8.39,-6.04 -7.34,-11.15 l 6.42,-31.29 -20.44,13.48 c -4.36,2.87 -10.21,1.67 -13.08,-2.69 -2.87,-4.35 -1.67,-10.2 2.69,-13.07 l 20.44,-13.48 -31.29,-6.43 c -5.11,-1.05 -8.39,-6.04 -7.34,-11.14 0.91,-4.47 4.84,-7.54 9.23,-7.54 0.63,0 1.27,0.06 1.91,0.19 l 49.78,10.23 28.13,-18.55 c -4.62,-9.49 -7.28,-20.11 -7.28,-31.36 0,-10.62 2.37,-20.68 6.52,-29.77 l -27.43,-18.03 -49.77,10.3 c -5.11,1.04 -10.1,-2.23 -11.15,-7.34 -1.06,-5.1 2.22,-10.1 7.33,-11.15 l 31.28,-6.47 -20.46,-13.45 c -4.36,-2.86 -5.57,-8.72 -2.71,-13.07 1.82,-2.76 4.83,-4.26 7.9,-4.26 1.78,0 3.58,0.5 5.18,1.56 l 20.46,13.44 -6.47,-31.28 c -1.05,-5.1 2.23,-10.1 7.33,-11.15 0.65,-0.13 1.29,-0.2 1.93,-0.2 4.38,0 8.31,3.07 9.23,7.53 l 10.29,49.77 27.03,17.77 c 11.31,-13.7 27.62,-23.08 46.08,-25.52 v -33.67 l -35.94,-35.94 c -3.68,-3.68 -3.68,-9.66 0,-13.34 1.85,-1.85 4.26,-2.77 6.68,-2.77 2.41,0 4.83,0.92 6.67,2.77 l 22.59,22.58 v -24.48 c 0,-5.22 4.22,-9.44 9.44,-9.44 5.21,0 9.44,4.22 9.44,9.44 v 24.48 l 22.58,-22.58 c 1.85,-1.85 4.26,-2.77 6.68,-2.77 2.42,0 4.83,0.92 6.67,2.77 3.69,3.68 3.69,9.66 0,13.34 l -35.93,35.94 v 33.67 c 17.84,2.35 33.63,11.24 44.89,24.2 l 25.12,-16.56 10.23,-49.78 c 0.91,-4.47 4.84,-7.54 9.23,-7.54 0.63,0 1.27,0.06 1.91,0.19 5.11,1.05 8.4,6.04 7.35,11.15 l -6.43,31.29 23.46,-15.46 c 1.6,-1.06 3.4,-1.56 5.18,-1.56 3.07,0 6.08,1.49 7.89,4.24 2.87,4.36 1.67,10.21 -2.68,13.08 l -23.46,15.46 31.29,6.43 c 5.11,1.05 8.4,6.04 7.35,11.14 -1.05,5.11 -6.04,8.4 -11.15,7.35 l -49.78,-10.23 -25.12,16.56 c 4.62,9.5 7.29,20.11 7.29,31.36 0,11.81 -2.91,22.94 -7.97,32.78 l 25.86,17 49.77,-10.29"
         style="fill:#97dfff;fill-opacity:1;fill-rule:nonzero;stroke:none"
         id="path278" /><path
         d="m 5612.95,8929.27 c 0,-12.64 -2.62,-24.68 -7.32,-35.62 l -56.57,37.29 55.39,36.41 c 5.4,-11.6 8.5,-24.47 8.5,-38.08 z m -74.5,-89.08 v 59.19 l 49.38,-32.55 c -12.98,-13.61 -30.12,-23.17 -49.38,-26.64 z m -83.58,28.84 51.39,33.78 v -62.62 c -20.28,3.66 -38.19,14.08 -51.39,28.84 z m -23.11,60.24 c 0,12.64 2.62,24.68 7.31,35.62 l 51.44,-33.91 -52.51,-34.52 c -3.98,10.19 -6.24,21.23 -6.24,32.81 z m 74.5,89.08 v -59.19 l -49.38,32.55 c 12.98,13.61 30.11,23.17 49.38,26.64 z m 79.68,-24.64 -47.49,-31.22 v 55.86 c 18.32,-3.31 34.76,-12.08 47.49,-24.64 z m 174.57,2.9 c 1.1,-0.23 2.2,-0.34 3.28,-0.34 7.47,0 14.17,5.24 15.74,12.84 1.81,8.71 -3.79,17.22 -12.5,19.02 l -53.34,11.03 40.03,26.31 c 7.43,4.89 9.5,14.87 4.61,22.3 -4.88,7.42 -14.86,9.48 -22.29,4.6 l -40.03,-26.31 11.03,53.34 c 1.8,8.71 -3.8,17.22 -12.5,19.02 -8.73,1.81 -17.23,-3.8 -19.02,-12.5 l -17.55,-84.87 -44.79,-29.44 c -19.07,21.01 -45.23,35.38 -74.73,39.27 v 51.26 l 61.27,61.27 c 6.29,6.29 6.29,16.48 0,22.77 -6.28,6.28 -16.48,6.28 -22.76,0 l -38.51,-38.52 v 47.91 c 0,8.88 -7.2,16.09 -16.1,16.09 -8.89,0 -16.09,-7.21 -16.09,-16.09 v -47.91 l -38.51,38.52 c -6.29,6.28 -16.48,6.28 -22.76,0 -6.29,-6.29 -6.29,-16.48 0,-22.77 l 61.27,-61.27 v -51.26 c -30.43,-4.01 -57.34,-19.17 -76.54,-41.27 l -47.98,31.62 -17.43,84.89 c -1.79,8.71 -10.31,14.31 -19,12.53 -8.71,-1.79 -14.32,-10.3 -12.53,-19.01 l 10.96,-53.35 -34.86,22.98 c -7.43,4.89 -17.41,2.84 -22.3,-4.58 -4.89,-7.42 -2.84,-17.4 4.58,-22.3 l 34.86,-22.98 -53.35,-10.95 c -8.71,-1.79 -14.32,-10.3 -12.53,-19.01 1.56,-7.61 8.27,-12.86 15.75,-12.86 1.07,0 2.16,0.11 3.25,0.33 l 84.89,17.44 47.96,-31.62 c -7.88,-16.19 -12.42,-34.29 -12.42,-53.47 0,-18.12 4.04,-35.27 11.11,-50.76 l -46.76,-30.74 -84.86,17.55 c -8.72,1.78 -17.22,-3.81 -19.02,-12.51 -1.8,-8.7 3.79,-17.22 12.5,-19.02 l 53.34,-11.03 -34.89,-22.93 c -7.43,-4.88 -9.5,-14.86 -4.61,-22.29 3.09,-4.7 8.23,-7.26 13.46,-7.26 3.04,0 6.1,0.86 8.83,2.65 l 34.89,22.94 -11.03,-53.34 c -1.8,-8.71 3.8,-17.22 12.5,-19.02 1.1,-0.23 2.2,-0.34 3.28,-0.34 7.47,0 14.17,5.23 15.75,12.84 l 17.54,84.86 46.08,30.29 c 19.3,-23.35 47.1,-39.35 78.58,-43.5 v -57.41 l -61.27,-61.28 c -6.29,-6.28 -6.29,-16.47 0,-22.76 3.14,-3.14 7.26,-4.71 11.37,-4.71 4.12,0 8.24,1.57 11.39,4.71 l 38.51,38.51 v -41.75 c 0,-8.89 7.2,-16.09 16.09,-16.09 8.9,0 16.1,7.2 16.1,16.09 v 41.76 l 38.51,-38.52 c 3.14,-3.14 7.27,-4.71 11.38,-4.71 4.12,0 8.24,1.57 11.38,4.71 6.29,6.29 6.29,16.48 0,22.76 l -61.27,61.28 v 57.41 c 30.43,4.01 57.34,19.16 76.54,41.26 l 42.84,-28.23 17.43,-84.89 c 1.57,-7.61 8.27,-12.86 15.75,-12.86 1.07,0 2.17,0.11 3.26,0.34 8.7,1.79 14.31,10.29 12.52,19 l -10.96,53.35 40,-26.36 c 2.73,-1.8 5.8,-2.66 8.84,-2.66 5.23,0 10.36,2.54 13.46,7.24 4.89,7.42 2.84,17.4 -4.59,22.3 l -39.99,26.36 53.35,10.96 c 8.71,1.79 14.32,10.3 12.53,19 -1.78,8.71 -10.3,14.31 -19,12.53 l -84.89,-17.43 -42.83,28.23 c 7.88,16.19 12.43,34.29 12.43,53.47 0,20.14 -4.96,39.11 -13.59,55.89 l 44.1,29 84.86,-17.55"
         style="fill:#97dfff;fill-opacity:1;fill-rule:nonzero;stroke:none"
         id="path280" /><path
         d="m 7327.6,3938.79 c 0,-7.42 -1.54,-14.48 -4.29,-20.89 l -33.19,21.87 32.49,21.35 c 3.17,-6.8 4.99,-14.35 4.99,-22.33 z m -43.7,-52.25 v 34.72 l 28.97,-19.09 c -7.62,-7.98 -17.67,-13.59 -28.97,-15.63 z m -49.01,16.92 30.13,19.81 v -36.73 c -11.89,2.15 -22.39,8.26 -30.13,16.92 z m -13.56,35.33 c 0,7.41 1.54,14.47 4.29,20.89 l 30.17,-19.89 -30.8,-20.24 c -2.33,5.97 -3.66,12.45 -3.66,19.24 z m 43.69,52.24 v -34.71 l -28.96,19.09 c 7.62,7.98 17.67,13.58 28.96,15.62 z m 46.74,-14.45 -27.86,-18.31 v 32.76 c 10.75,-1.94 20.39,-7.08 27.86,-14.45 z m 102.38,1.7 c 0.64,-0.13 1.29,-0.2 1.92,-0.2 4.38,0 8.31,3.07 9.23,7.53 1.06,5.11 -2.22,10.1 -7.33,11.16 l -31.28,6.46 23.48,15.44 c 4.35,2.86 5.57,8.72 2.7,13.07 -2.86,4.36 -8.72,5.57 -13.07,2.7 l -23.48,-15.43 6.47,31.28 c 1.05,5.11 -2.23,10.1 -7.33,11.16 -5.13,1.06 -10.11,-2.23 -11.16,-7.33 l -10.29,-49.77 -26.27,-17.27 c -11.18,12.32 -26.53,20.75 -43.83,23.03 v 30.06 l 35.94,35.94 c 3.69,3.68 3.69,9.66 0,13.35 -3.69,3.68 -9.66,3.68 -13.35,0 l -22.59,-22.59 v 28.09 c 0,5.22 -4.22,9.44 -9.43,9.44 -5.22,0 -9.45,-4.22 -9.45,-9.44 v -28.09 l -22.58,22.59 c -3.69,3.68 -9.67,3.68 -13.35,0 -3.69,-3.69 -3.69,-9.67 0,-13.35 l 35.93,-35.94 v -30.06 c -17.84,-2.36 -33.63,-11.24 -44.89,-24.2 l -28.13,18.54 -10.23,49.79 c -1.04,5.1 -6.04,8.38 -11.14,7.34 -5.11,-1.05 -8.4,-6.04 -7.35,-11.14 l 6.43,-31.29 -20.44,13.47 c -4.36,2.87 -10.21,1.67 -13.08,-2.68 -2.87,-4.35 -1.67,-10.21 2.68,-13.08 l 20.45,-13.47 -31.29,-6.43 c -5.11,-1.05 -8.4,-6.04 -7.35,-11.15 0.92,-4.46 4.85,-7.54 9.24,-7.54 0.63,0 1.27,0.06 1.91,0.19 l 49.78,10.23 28.13,-18.54 c -4.62,-9.5 -7.29,-20.11 -7.29,-31.36 0,-10.63 2.37,-20.68 6.52,-29.77 l -27.42,-18.03 -49.77,10.29 c -5.12,1.05 -10.1,-2.23 -11.16,-7.33 -1.05,-5.11 2.23,-10.1 7.33,-11.16 l 31.29,-6.46 -20.47,-13.45 c -4.35,-2.87 -5.56,-8.72 -2.7,-13.08 1.81,-2.76 4.83,-4.25 7.9,-4.25 1.78,0 3.58,0.5 5.17,1.55 l 20.47,13.45 -6.47,-31.28 c -1.06,-5.11 2.22,-10.1 7.33,-11.16 0.64,-0.13 1.29,-0.19 1.92,-0.19 4.38,0 8.31,3.07 9.24,7.52 l 10.28,49.77 27.03,17.77 c 11.32,-13.7 27.62,-23.08 46.08,-25.51 v -33.67 l -35.93,-35.94 c -3.69,-3.69 -3.69,-9.66 0,-13.35 1.84,-1.84 4.26,-2.76 6.67,-2.76 2.42,0 4.84,0.92 6.68,2.76 l 22.58,22.59 v -24.49 c 0,-5.21 4.23,-9.44 9.45,-9.44 5.21,0 9.43,4.23 9.43,9.44 v 24.49 l 22.59,-22.59 c 1.84,-1.84 4.26,-2.76 6.68,-2.76 2.41,0 4.83,0.92 6.67,2.76 3.69,3.69 3.69,9.66 0,13.35 l -35.94,35.94 v 33.67 c 17.85,2.35 33.63,11.23 44.89,24.2 l 25.13,-16.57 10.22,-49.78 c 0.92,-4.46 4.85,-7.54 9.24,-7.54 0.63,0 1.27,0.07 1.91,0.2 5.1,1.05 8.39,6.04 7.34,11.14 l -6.42,31.29 23.45,-15.46 c 1.6,-1.05 3.41,-1.56 5.19,-1.56 3.07,0 6.08,1.49 7.89,4.25 2.87,4.35 1.67,10.2 -2.69,13.07 l -23.45,15.47 31.29,6.42 c 5.1,1.05 8.39,6.04 7.34,11.15 -1.04,5.1 -6.04,8.39 -11.14,7.35 l -49.79,-10.23 -25.11,16.56 c 4.62,9.49 7.28,20.11 7.28,31.36 0,11.81 -2.91,22.93 -7.97,32.78 l 25.87,17 49.77,-10.29"
         style="fill:#97dfff;fill-opacity:1;fill-rule:nonzero;stroke:none"
         id="path282" /><path
         d="m 8470.14,8251.6 c 0,-13.26 -2.74,-25.87 -7.67,-37.35 l -59.32,39.1 58.07,38.17 c 5.67,-12.15 8.92,-25.65 8.92,-39.92 z m -78.11,-93.39 v 62.05 l 51.78,-34.13 c -13.61,-14.26 -31.58,-24.28 -51.78,-27.92 z m -87.62,30.24 53.87,35.41 v -65.65 c -21.26,3.83 -40.04,14.75 -53.87,30.24 z m -24.23,63.15 c 0,13.25 2.74,25.87 7.67,37.34 l 53.92,-35.55 -55.05,-36.19 c -4.17,10.69 -6.54,22.26 -6.54,34.4 z m 78.1,93.39 v -62.06 l -51.77,34.13 c 13.61,14.27 31.58,24.29 51.77,27.93 z m 83.54,-25.83 -49.79,-32.73 v 58.56 c 19.21,-3.46 36.44,-12.66 49.79,-25.83 z m 183.03,3.04 c 1.15,-0.24 2.3,-0.35 3.43,-0.35 7.84,0 14.86,5.48 16.51,13.46 1.89,9.12 -3.98,18.05 -13.11,19.94 l -55.92,11.56 41.97,27.59 c 7.79,5.12 9.95,15.58 4.83,23.37 -5.12,7.78 -15.58,9.94 -23.37,4.83 l -41.97,-27.59 11.57,55.92 c 1.88,9.13 -3.99,18.06 -13.11,19.94 -9.16,1.9 -18.06,-3.98 -19.94,-13.11 l -18.4,-88.97 -46.96,-30.87 c -19.99,22.03 -47.42,37.1 -78.35,41.17 v 53.75 l 64.24,64.24 c 6.59,6.59 6.59,17.27 0,23.86 -6.58,6.59 -17.27,6.59 -23.86,0 l -40.38,-40.38 v 50.23 c 0,9.31 -7.55,16.87 -16.87,16.87 -9.32,0 -16.88,-7.56 -16.88,-16.87 v -50.23 l -40.37,40.38 c -6.59,6.59 -17.28,6.59 -23.87,0 -6.59,-6.59 -6.59,-17.27 0,-23.86 l 64.24,-64.24 v -53.75 c -31.9,-4.2 -60.12,-20.08 -80.24,-43.26 l -50.3,33.16 -18.28,88.99 c -1.87,9.13 -10.8,15 -19.92,13.14 -9.13,-1.88 -15.01,-10.8 -13.14,-19.93 l 11.49,-55.94 -36.54,24.1 c -7.79,5.13 -18.25,2.98 -23.38,-4.81 -5.13,-7.78 -2.98,-18.24 4.8,-23.37 l 36.55,-24.09 -55.93,-11.49 c -9.13,-1.88 -15.01,-10.8 -13.14,-19.93 1.64,-7.98 8.67,-13.48 16.51,-13.48 1.13,0 2.27,0.11 3.41,0.35 l 89,18.28 50.28,-33.15 c -8.26,-16.98 -13.02,-35.95 -13.02,-56.06 0,-18.99 4.24,-36.98 11.65,-53.22 l -49.02,-32.23 -88.97,18.4 c -9.15,1.88 -18.06,-3.99 -19.95,-13.11 -1.89,-9.13 3.98,-18.05 13.11,-19.94 l 55.92,-11.56 -36.58,-24.04 c -7.79,-5.12 -9.95,-15.59 -4.83,-23.38 3.24,-4.93 8.63,-7.6 14.12,-7.6 3.18,0 6.39,0.9 9.25,2.77 l 36.58,24.05 -11.56,-55.92 c -1.89,-9.13 3.98,-18.06 13.1,-19.95 1.16,-0.23 2.31,-0.35 3.44,-0.35 7.83,0 14.86,5.49 16.5,13.46 l 18.4,88.97 48.31,31.76 c 20.24,-24.48 49.38,-41.26 82.38,-45.61 v -60.19 l -64.24,-64.24 c -6.59,-6.59 -6.59,-17.27 0,-23.86 3.3,-3.3 7.62,-4.95 11.93,-4.95 4.32,0 8.64,1.65 11.94,4.95 l 40.37,40.37 v -43.77 c 0,-9.32 7.56,-16.87 16.88,-16.87 9.32,0 16.87,7.55 16.87,16.87 v 43.78 l 40.38,-40.38 c 3.3,-3.3 7.61,-4.95 11.93,-4.95 4.32,0 8.64,1.65 11.93,4.95 6.59,6.59 6.59,17.27 0,23.86 l -64.24,64.24 v 60.19 c 31.91,4.21 60.12,20.09 80.25,43.26 l 44.91,-29.6 18.28,-88.99 c 1.64,-7.99 8.67,-13.48 16.51,-13.48 1.13,0 2.27,0.11 3.41,0.34 9.13,1.88 15.01,10.8 13.14,19.93 l -11.49,55.93 41.93,-27.64 c 2.86,-1.88 6.08,-2.79 9.27,-2.79 5.48,0 10.86,2.67 14.11,7.59 5.12,7.79 2.97,18.25 -4.81,23.38 l -41.93,27.64 55.94,11.49 c 9.13,1.87 15.01,10.8 13.13,19.92 -1.87,9.13 -10.8,15.01 -19.92,13.14 l -89,-18.28 -44.9,29.6 c 8.26,16.97 13.03,35.95 13.03,56.06 0,21.11 -5.21,41 -14.25,58.6 l 46.23,30.39 88.98,-18.39"
         style="fill:#97dfff;fill-opacity:1;fill-rule:nonzero;stroke:none"
         id="path284" /><path
         d="m 1251.61,5161.17 c 0,-12.38 -2.57,-24.17 -7.17,-34.88 l -55.4,36.52 54.24,35.65 c 5.29,-11.36 8.33,-23.96 8.33,-37.29 z m -72.96,-87.23 v 57.96 l 48.36,-31.88 c -12.72,-13.32 -29.5,-22.68 -48.36,-26.08 z m -81.85,28.24 50.33,33.08 v -61.32 c -19.86,3.58 -37.4,13.78 -50.33,28.24 z m -22.63,58.99 c 0,12.38 2.57,24.16 7.17,34.88 l 50.37,-33.2 -51.43,-33.81 c -3.89,9.98 -6.11,20.79 -6.11,32.13 z m 72.96,87.23 v -57.96 l -48.36,31.88 c 12.71,13.32 29.49,22.68 48.36,26.08 z m 78.03,-24.13 -46.51,-30.57 v 54.7 c 17.94,-3.23 34.04,-11.82 46.51,-24.13 z m 170.95,2.84 c 1.08,-0.22 2.15,-0.33 3.21,-0.33 7.32,0 13.88,5.13 15.42,12.58 1.76,8.52 -3.72,16.86 -12.24,18.62 l -52.24,10.8 39.2,25.77 c 7.28,4.78 9.3,14.55 4.51,21.83 -4.78,7.27 -14.55,9.29 -21.82,4.51 l -39.2,-25.77 10.8,52.24 c 1.76,8.52 -3.72,16.86 -12.25,18.62 -8.55,1.77 -16.86,-3.72 -18.62,-12.24 l -17.18,-83.1 -43.87,-28.84 c -18.67,20.58 -44.3,34.65 -73.18,38.46 v 50.2 l 60,60 c 6.16,6.15 6.16,16.14 0,22.29 -6.15,6.15 -16.13,6.15 -22.28,0 l -37.72,-37.72 v 46.92 c 0,8.7 -7.05,15.76 -15.76,15.76 -8.71,0 -15.76,-7.06 -15.76,-15.76 v -46.91 l -37.72,37.71 c -6.15,6.15 -16.14,6.15 -22.29,0 -6.15,-6.15 -6.15,-16.14 0,-22.29 l 60.01,-60 v -50.2 c -29.8,-3.93 -56.16,-18.77 -74.96,-40.41 l -46.98,30.97 -17.07,83.12 c -1.75,8.53 -10.093,14.01 -18.612,12.27 -8.524,-1.75 -14.016,-10.08 -12.266,-18.61 l 10.731,-52.25 -34.137,22.51 c -7.277,4.79 -17.047,2.78 -21.836,-4.49 -4.789,-7.27 -2.781,-17.04 4.484,-21.83 l 34.137,-22.51 -52.242,-10.73 c -8.527,-1.75 -14.02,-10.08 -12.27,-18.61 1.532,-7.46 8.098,-12.59 15.422,-12.59 1.051,0 2.117,0.1 3.188,0.32 l 83.121,17.07 46.97,-30.96 c -7.71,-15.85 -12.16,-33.58 -12.16,-52.36 0,-17.74 3.96,-34.54 10.88,-49.71 l -45.79,-30.1 -83.103,17.18 c -8.539,1.76 -16.867,-3.72 -18.629,-12.24 -1.762,-8.53 3.719,-16.87 12.246,-18.63 l 52.23,-10.8 -34.168,-22.45 c -7.269,-4.79 -9.296,-14.56 -4.507,-21.83 3.023,-4.61 8.054,-7.11 13.179,-7.11 2.973,0 5.977,0.84 8.641,2.59 l 34.172,22.46 L 977,4978.3 c -1.762,-8.53 3.719,-16.87 12.242,-18.63 1.078,-0.22 2.153,-0.33 3.207,-0.33 7.321,0 13.881,5.13 15.421,12.57 l 17.18,83.11 45.13,29.66 c 18.9,-22.87 46.12,-38.53 76.95,-42.6 v -56.22 l -60.01,-60.01 c -6.15,-6.15 -6.15,-16.13 0,-22.29 3.08,-3.07 7.12,-4.61 11.15,-4.61 4.03,0 8.07,1.54 11.14,4.61 l 37.72,37.72 v -40.89 c 0,-8.7 7.05,-15.76 15.76,-15.76 8.71,0 15.76,7.06 15.76,15.76 v 40.89 l 37.72,-37.72 c 3.07,-3.07 7.11,-4.61 11.14,-4.61 4.04,0 8.07,1.54 11.14,4.61 6.16,6.16 6.16,16.14 0,22.29 l -60,60.01 v 56.22 c 29.8,3.93 56.15,18.76 74.96,40.41 l 41.95,-27.65 17.07,-83.13 c 1.53,-7.45 8.1,-12.59 15.42,-12.59 1.05,0 2.12,0.11 3.19,0.33 8.53,1.75 14.02,10.08 12.26,18.61 l -10.73,52.24 39.17,-25.82 c 2.67,-1.76 5.68,-2.6 8.66,-2.6 5.12,0 10.15,2.49 13.17,7.09 4.79,7.27 2.79,17.04 -4.48,21.84 l -39.17,25.81 52.25,10.73 c 8.53,1.76 14.02,10.09 12.27,18.61 -1.75,8.53 -10.09,14.02 -18.61,12.27 l -83.13,-17.07 -41.94,27.65 c 7.72,15.85 12.17,33.57 12.17,52.36 0,19.72 -4.86,38.3 -13.31,54.74 l 43.19,28.38 83.1,-17.18"
         style="fill:#97dfff;fill-opacity:1;fill-rule:nonzero;stroke:none"
         id="path286" /><path
         d="m 1683.78,8730.62 c 0,-11.3 -2.35,-22.06 -6.55,-31.85 l -50.59,33.35 49.53,32.56 c 4.83,-10.37 7.61,-21.88 7.61,-34.06 z m -66.62,-79.65 v 52.93 l 44.16,-29.11 c -11.62,-12.17 -26.94,-20.72 -44.16,-23.82 z m -74.74,25.79 45.95,30.21 v -56 c -18.14,3.27 -34.15,12.58 -45.95,25.79 z m -20.67,53.86 c 0,11.31 2.34,22.07 6.54,31.86 l 46,-30.32 -46.96,-30.87 c -3.56,9.11 -5.58,18.98 -5.58,29.33 z m 66.62,79.67 v -52.94 l -44.16,29.11 c 11.61,12.17 26.93,20.72 44.16,23.83 z m 71.25,-22.04 -42.46,-27.92 v 49.96 c 16.38,-2.96 31.07,-10.81 42.46,-22.04 z m 156.11,2.59 c 0.99,-0.2 1.97,-0.3 2.93,-0.3 6.69,0 12.68,4.68 14.08,11.48 1.61,7.79 -3.39,15.4 -11.18,17.01 l -47.7,9.86 35.8,23.53 c 6.64,4.37 8.49,13.3 4.12,19.94 -4.36,6.64 -13.29,8.48 -19.93,4.12 l -35.8,-23.53 9.87,47.7 c 1.6,7.78 -3.4,15.4 -11.18,17.01 -7.81,1.61 -15.41,-3.4 -17.01,-11.19 l -15.69,-75.88 -40.06,-26.33 c -17.05,18.79 -40.45,31.64 -66.82,35.11 v 45.84 l 54.79,54.79 c 5.62,5.63 5.62,14.74 0,20.36 -5.62,5.62 -14.74,5.62 -20.35,0 l -34.44,-34.44 v 42.84 c 0,7.95 -6.45,14.39 -14.4,14.39 -7.95,0 -14.39,-6.44 -14.39,-14.39 v -42.84 l -34.44,34.44 c -5.62,5.62 -14.74,5.62 -20.36,0 -5.62,-5.62 -5.62,-14.73 0,-20.36 l 54.8,-54.79 v -45.84 c -27.22,-3.58 -51.28,-17.13 -68.45,-36.9 l -42.9,28.28 -15.59,75.91 c -1.6,7.79 -9.21,12.79 -16.99,11.2 -7.79,-1.6 -12.8,-9.21 -11.21,-16.99 l 9.8,-47.71 -31.17,20.55 c -6.64,4.37 -15.56,2.54 -19.94,-4.1 -4.37,-6.64 -2.54,-15.56 4.1,-19.94 l 31.17,-20.55 -47.71,-9.8 c -7.79,-1.6 -12.8,-9.21 -11.2,-16.99 1.4,-6.81 7.39,-11.5 14.08,-11.5 0.96,0 1.94,0.1 2.91,0.29 l 75.91,15.6 42.89,-28.28 c -7.04,-14.48 -11.11,-30.66 -11.11,-47.82 0,-16.19 3.62,-31.53 9.94,-45.39 l -41.82,-27.48 -75.88,15.69 c -7.8,1.6 -15.41,-3.4 -17.01,-11.18 -1.61,-7.79 3.39,-15.4 11.18,-17.01 l 47.7,-9.86 -31.21,-20.51 c -6.64,-4.37 -8.48,-13.29 -4.11,-19.94 2.76,-4.2 7.35,-6.49 12.03,-6.49 2.72,0 5.46,0.77 7.89,2.37 l 31.21,20.51 -9.86,-47.7 c -1.61,-7.78 3.39,-15.4 11.17,-17.01 0.99,-0.2 1.97,-0.3 2.93,-0.3 6.69,0 12.68,4.69 14.08,11.49 l 15.69,75.88 41.21,27.09 c 17.26,-20.88 42.12,-35.19 70.27,-38.9 v -51.34 l -54.8,-54.8 c -5.62,-5.62 -5.62,-14.73 0,-20.35 2.81,-2.81 6.5,-4.22 10.18,-4.22 3.68,0 7.37,1.41 10.18,4.22 l 34.44,34.44 v -37.33 c 0,-7.95 6.44,-14.4 14.39,-14.4 7.95,0 14.4,6.45 14.4,14.4 v 37.33 l 34.44,-34.44 c 2.8,-2.81 6.49,-4.22 10.17,-4.22 3.69,0 7.37,1.41 10.18,4.22 5.62,5.62 5.62,14.73 0,20.35 l -54.79,54.8 v 51.34 c 27.21,3.59 51.27,17.13 68.44,36.9 l 38.31,-25.25 15.59,-75.91 c 1.4,-6.81 7.39,-11.5 14.08,-11.5 0.96,0 1.94,0.1 2.91,0.3 7.79,1.6 12.8,9.21 11.2,16.99 l -9.79,47.71 35.76,-23.57 c 2.44,-1.61 5.19,-2.38 7.91,-2.38 4.68,0 9.26,2.27 12.03,6.47 4.37,6.64 2.54,15.57 -4.1,19.94 l -35.76,23.58 47.71,9.8 c 7.78,1.6 12.8,9.21 11.2,16.99 -1.6,7.79 -9.21,12.8 -16.99,11.2 l -75.91,-15.59 -38.3,25.25 c 7.05,14.48 11.11,30.66 11.11,47.81 0,18.02 -4.44,34.98 -12.15,49.99 l 39.43,25.92 75.89,-15.69"
         style="fill:#97dfff;fill-opacity:1;fill-rule:nonzero;stroke:none"
         id="path288" /><path
         d="m 6705.31,7125.21 c 0,-10.75 -2.22,-20.98 -6.22,-30.27 l -48.07,31.69 47.07,30.94 c 4.59,-9.86 7.22,-20.8 7.22,-32.36 z M 6642,7049.5 v 50.3 l 41.97,-27.66 c -11.04,-11.56 -25.6,-19.68 -41.97,-22.64 z m -71.02,24.52 43.67,28.7 v -53.22 c -17.24,3.11 -32.46,11.97 -43.67,24.52 z m -19.64,51.19 c 0,10.74 2.22,20.97 6.21,30.27 l 43.71,-28.82 -44.62,-29.33 c -3.38,8.65 -5.3,18.04 -5.3,27.88 z m 63.31,75.7 v -50.3 l -41.97,27.66 c 11.03,11.56 25.6,19.68 41.97,22.64 z m 67.71,-20.94 -40.36,-26.53 v 47.47 c 15.57,-2.81 29.54,-10.27 40.36,-20.94 z m 148.35,2.46 c 0.94,-0.19 1.87,-0.28 2.79,-0.28 6.35,0 12.04,4.44 13.38,10.91 1.53,7.39 -3.23,14.63 -10.63,16.16 l -45.32,9.37 34.01,22.36 c 6.31,4.15 8.07,12.63 3.92,18.95 -4.15,6.3 -12.63,8.06 -18.94,3.91 l -34.02,-22.36 9.37,45.33 c 1.53,7.4 -3.22,14.63 -10.62,16.16 -7.42,1.54 -14.64,-3.23 -16.17,-10.62 l -14.91,-72.12 -38.06,-25.02 c -16.21,17.85 -38.44,30.06 -63.51,33.37 v 43.56 l 52.07,52.07 c 5.35,5.34 5.35,14 0,19.35 -5.33,5.33 -14,5.33 -19.34,0 L 6642,7310.8 v 40.71 c 0,7.55 -6.12,13.67 -13.67,13.67 -7.56,0 -13.68,-6.12 -13.68,-13.67 v -40.71 l -32.73,32.73 c -5.34,5.33 -14.01,5.33 -19.34,0 -5.35,-5.35 -5.35,-14.01 0,-19.35 l 52.07,-52.07 v -43.56 c -25.86,-3.41 -48.73,-16.28 -65.05,-35.07 l -40.77,26.88 -14.81,72.13 c -1.52,7.4 -8.76,12.16 -16.15,10.65 -7.4,-1.52 -12.17,-8.76 -10.65,-16.15 l 9.32,-45.34 -29.63,19.53 c -6.31,4.15 -14.79,2.41 -18.95,-3.9 -4.15,-6.3 -2.41,-14.79 3.89,-18.95 l 29.63,-19.52 -45.34,-9.32 c -7.4,-1.51 -12.16,-8.75 -10.64,-16.15 1.32,-6.47 7.02,-10.92 13.38,-10.92 0.91,0 1.84,0.09 2.76,0.28 l 72.14,14.81 40.76,-26.86 c -6.7,-13.76 -10.56,-29.14 -10.56,-45.44 0,-15.4 3.44,-29.97 9.45,-43.14 l -39.74,-26.12 -72.12,14.91 c -7.41,1.52 -14.63,-3.23 -16.16,-10.63 -1.53,-7.39 3.22,-14.63 10.62,-16.16 l 45.33,-9.37 -29.65,-19.49 c -6.31,-4.15 -8.07,-12.63 -3.92,-18.94 2.63,-4 7,-6.17 11.44,-6.17 2.58,0 5.19,0.73 7.5,2.25 l 29.66,19.49 -9.38,-45.33 c -1.53,-7.4 3.23,-14.63 10.63,-16.16 0.93,-0.19 1.86,-0.29 2.78,-0.29 6.35,0 12.05,4.45 13.38,10.91 l 14.91,72.12 39.16,25.74 c 16.4,-19.85 40.03,-33.44 66.78,-36.97 v -48.79 L 6562.58,6921 c -5.35,-5.34 -5.35,-14 0,-19.34 2.66,-2.67 6.17,-4.01 9.67,-4.01 3.5,0 7,1.34 9.67,4.01 l 32.73,32.73 v -35.48 c 0,-7.56 6.12,-13.68 13.68,-13.68 7.55,0 13.67,6.12 13.67,13.68 v 35.48 l 32.73,-32.73 c 2.67,-2.67 6.17,-4.01 9.67,-4.01 3.5,0 7,1.34 9.67,4.01 5.35,5.34 5.35,14 0,19.34 l -52.07,52.07 v 48.79 c 25.86,3.41 48.73,16.28 65.05,35.07 l 36.4,-24 14.82,-72.13 c 1.32,-6.47 7.02,-10.93 13.38,-10.93 0.91,0 1.84,0.09 2.77,0.28 7.4,1.52 12.16,8.75 10.64,16.15 l -9.31,45.34 33.99,-22.4 c 2.32,-1.53 4.93,-2.26 7.51,-2.26 4.45,0 8.81,2.16 11.43,6.15 4.16,6.31 2.42,14.79 -3.89,18.95 l -33.98,22.4 45.33,9.31 c 7.4,1.52 12.17,8.76 10.65,16.15 -1.52,7.4 -8.75,12.17 -16.15,10.65 l -72.14,-14.82 -36.39,24 c 6.7,13.75 10.56,29.13 10.56,45.44 0,17.11 -4.22,33.23 -11.55,47.5 l 37.48,24.63 72.11,-14.91"
         style="fill:#97dfff;fill-opacity:1;fill-rule:nonzero;stroke:none"
         id="path290" /><path
         d="m 9102.28,6316.43 c 0,-7.42 -1.54,-14.47 -4.29,-20.89 l -33.19,21.87 32.49,21.35 c 3.17,-6.8 4.99,-14.35 4.99,-22.33 z m -43.7,-52.25 v 34.72 l 28.96,-19.09 c -7.61,-7.98 -17.66,-13.59 -28.96,-15.63 z m -49.01,16.92 30.13,19.81 v -36.73 c -11.89,2.15 -22.39,8.26 -30.13,16.92 z m -13.56,35.33 c 0,7.41 1.54,14.47 4.29,20.89 l 30.17,-19.89 -30.8,-20.24 c -2.33,5.97 -3.66,12.45 -3.66,19.24 z m 43.69,52.24 v -34.71 l -28.96,19.09 c 7.62,7.98 17.67,13.58 28.96,15.62 z m 46.74,-14.45 -27.86,-18.31 v 32.76 c 10.75,-1.94 20.39,-7.08 27.86,-14.45 z m 102.38,1.7 c 0.64,-0.13 1.29,-0.2 1.92,-0.2 4.38,0 8.31,3.07 9.23,7.53 1.06,5.11 -2.22,10.1 -7.33,11.16 l -31.28,6.47 23.48,15.43 c 4.35,2.86 5.56,8.71 2.7,13.07 -2.86,4.36 -8.72,5.57 -13.07,2.7 l -23.48,-15.43 6.47,31.28 c 1.05,5.11 -2.23,10.1 -7.33,11.16 -5.13,1.06 -10.11,-2.23 -11.16,-7.33 l -10.29,-49.77 -26.27,-17.27 c -11.18,12.32 -26.53,20.75 -43.83,23.03 v 30.06 l 35.94,35.94 c 3.69,3.68 3.69,9.66 0,13.35 -3.69,3.68 -9.67,3.68 -13.35,0 l -22.59,-22.59 v 28.09 c 0,5.22 -4.22,9.44 -9.44,9.44 -5.21,0 -9.44,-4.22 -9.44,-9.44 v -28.09 l -22.58,22.59 c -3.69,3.68 -9.67,3.68 -13.35,0 -3.69,-3.69 -3.69,-9.67 0,-13.35 l 35.93,-35.94 v -30.06 c -17.84,-2.35 -33.63,-11.24 -44.89,-24.2 l -28.13,18.54 -10.23,49.78 c -1.04,5.11 -6.04,8.4 -11.14,7.35 -5.11,-1.05 -8.4,-6.04 -7.35,-11.14 l 6.43,-31.29 -20.44,13.48 c -4.36,2.86 -10.21,1.66 -13.08,-2.69 -2.87,-4.35 -1.67,-10.21 2.68,-13.08 l 20.45,-13.47 -31.29,-6.43 c -5.11,-1.05 -8.4,-6.04 -7.35,-11.15 0.92,-4.46 4.85,-7.54 9.24,-7.54 0.63,0 1.27,0.06 1.91,0.19 l 49.78,10.23 28.13,-18.54 c -4.62,-9.5 -7.29,-20.11 -7.29,-31.36 0,-10.63 2.37,-20.69 6.52,-29.77 l -27.42,-18.03 -49.77,10.29 c -5.12,1.05 -10.11,-2.23 -11.16,-7.33 -1.05,-5.11 2.23,-10.1 7.33,-11.16 l 31.29,-6.47 -20.47,-13.44 c -4.35,-2.87 -5.56,-8.72 -2.7,-13.08 1.81,-2.75 4.83,-4.25 7.9,-4.25 1.78,0 3.57,0.5 5.17,1.55 l 20.46,13.45 -6.46,-31.28 c -1.06,-5.11 2.22,-10.1 7.33,-11.16 0.64,-0.13 1.29,-0.2 1.92,-0.2 4.38,0 8.31,3.08 9.24,7.54 l 10.28,49.76 27.03,17.77 c 11.32,-13.7 27.62,-23.08 46.08,-25.51 v -33.67 l -35.93,-35.94 c -3.69,-3.69 -3.69,-9.66 0,-13.35 1.84,-1.84 4.26,-2.76 6.67,-2.76 2.42,0 4.83,0.92 6.68,2.76 l 22.58,22.59 v -24.49 c 0,-5.21 4.23,-9.44 9.44,-9.44 5.22,0 9.44,4.23 9.44,9.44 v 24.49 l 22.59,-22.59 c 1.84,-1.84 4.26,-2.76 6.67,-2.76 2.42,0 4.84,0.92 6.68,2.76 3.69,3.69 3.69,9.66 0,13.35 l -35.94,35.94 v 33.67 c 17.85,2.35 33.63,11.23 44.89,24.2 l 25.13,-16.56 10.22,-49.78 c 0.92,-4.47 4.85,-7.55 9.24,-7.55 0.63,0 1.27,0.07 1.91,0.2 5.1,1.05 8.39,6.04 7.34,11.14 l -6.42,31.29 23.45,-15.46 c 1.6,-1.05 3.4,-1.56 5.19,-1.56 3.07,0 6.08,1.49 7.89,4.25 2.87,4.35 1.66,10.2 -2.69,13.07 l -23.45,15.47 31.29,6.42 c 5.1,1.05 8.39,6.04 7.34,11.15 -1.04,5.1 -6.04,8.39 -11.14,7.35 l -49.79,-10.23 -25.11,16.56 c 4.62,9.49 7.28,20.11 7.28,31.36 0,11.81 -2.91,22.93 -7.97,32.78 l 25.87,17 49.77,-10.29"
         style="fill:#97dfff;fill-opacity:1;fill-rule:nonzero;stroke:none"
         id="path292" /></g></g></svg>
