<?xml version="1.0" encoding="UTF-8" standalone="no"?>
<svg
   xmlns="http://www.w3.org/2000/svg"
   version="1.1"
   id="svg2"
   xml:space="preserve"
   viewBox="0 0 1733.3333 1333.3333"><g
     id="g10"
     transform="matrix(1.3333333,0,0,-1.3333333,0,1333.3333)"><g
       id="g12"
       transform="scale(0.1)"><path
         d="M 13000,0 H 0 V 10000 H 13000 V 0"
         style="fill:#ffffff;fill-opacity:1;fill-rule:nonzero;stroke:none"
         id="path14" /><path
         d="M 8691.32,1911.08 C 4125.16,1801.2 1164.86,2241.87 918.363,1481.24 797.883,1109.48 1566.49,1283.61 2523.63,927.25 3493.74,566.082 5565.65,759.691 6822.89,764.23 c 3728.91,13.45 4859.81,-55.871 5059.81,380.71 229.5,500.9 -568.5,829.25 -3191.38,766.14"
         style="fill:#def8ff;fill-opacity:1;fill-rule:nonzero;stroke:none"
         id="path16" /><path
         d="m 10677.2,1853.85 c 0,0 81.7,-40.62 165.1,-183.11 52.4,-89.56 -264.3,-121.15 -264.3,-121.15 0,0 67.7,-109.73 180.8,-85.42 200,42.98 540.6,327.12 678,507.55 31.2,40.93 -29,115.61 -29,115.61 0,0 -139.2,-178.8 -198.4,-172.18 -53.5,5.98 -168.1,169.71 -168.1,169.71 l -87.6,-38.57 c 0,0 96.5,-134.3 125.7,-211.91 14.4,-38.23 -102.6,-134.7 -131.9,-106.52 -78.1,74.95 -165.5,198.92 -165.5,198.92 l -104.8,-72.93"
         style="fill:#5ac3f2;fill-opacity:1;fill-rule:nonzero;stroke:none"
         id="path18" /><path
         d="m 10664.4,2360.83 c -17.4,-51.46 22,-167.62 -7.2,-229.57 -51.8,-109.8 -195.5,-144.16 -249.5,-298.49 -27.2,-77.44 57.4,-217.9 182,-194.51 225.3,42.33 564.5,368.9 618.9,540.03 43,135.42 -161.9,387.88 -284.7,384.97 -95.2,-2.26 -229.1,-112.34 -259.5,-202.43"
         style="fill:#ff4e00;fill-opacity:1;fill-rule:nonzero;stroke:none"
         id="path20" /><path
         d="m 10589.7,1633.26 c -2.4,0 -4.5,1.67 -4.9,4.07 -0.5,2.72 1.2,5.33 4,5.84 219.2,41.18 558.9,359.81 615,536.63 18.5,58.08 -10.4,148.01 -75.5,234.7 -65.5,87.33 -147.4,145.02 -204.3,143.76 -2.9,-0.14 -5,2.12 -5.1,4.88 0,2.76 2.1,5.05 4.9,5.11 69.1,1.75 156.5,-73.02 212.5,-147.75 68,-90.59 96.8,-181.7 77.1,-243.73 -56.9,-179.06 -400.8,-501.74 -622.8,-543.43 -0.3,-0.06 -0.6,-0.08 -0.9,-0.08"
         style="fill:#000000;fill-opacity:1;fill-rule:nonzero;stroke:none"
         id="path22" /><path
         d="m 10644.4,1820.89 c 8,-46.12 -68.5,-62.95 -117.3,-75.5 -48.8,-12.55 -83.2,-41.46 -101.1,1.12 -34.6,82.61 27.7,150.28 76.4,162.84 48.8,12.55 133.9,-42.34 142,-88.46"
         style="fill:#ffffff;fill-opacity:1;fill-rule:nonzero;stroke:none"
         id="path24" /><path
         d="m 10590.8,2053.19 c -1,0 -2.1,0.33 -3,1 -2.2,1.66 -2.6,4.8 -1,7.01 46.8,62.16 140.3,80.48 178.7,85.51 l -124.5,64.05 c -1.5,0.78 -2.5,2.27 -2.7,3.95 -0.1,1.69 0.6,3.35 1.9,4.41 l 154.4,123.38 c 2.2,1.73 5.3,1.37 7,-0.79 1.8,-2.15 1.4,-5.3 -0.7,-7.02 l -148.4,-118.57 132.5,-68.2 c 2,-1.03 3.1,-3.26 2.6,-5.46 -0.5,-2.21 -2.3,-3.83 -4.6,-3.97 -1.3,-0.09 -132.4,-9.28 -188.2,-83.31 -1,-1.3 -2.5,-1.99 -4,-1.99"
         style="fill:#000000;fill-opacity:1;fill-rule:nonzero;stroke:none"
         id="path26" /><path
         d="m 10744,2026.28 c -2.2,0 -4.2,1.45 -4.8,3.65 -18.6,66.3 -115.7,112.73 -116.7,113.19 -1.8,0.83 -2.9,2.59 -2.9,4.52 0,1.93 1.1,3.69 2.9,4.52 l 168.2,79.75 -112.2,53.43 c -2.5,1.19 -3.5,4.17 -2.4,6.66 1.2,2.49 4.2,3.56 6.7,2.37 l 121.7,-57.95 c 1.8,-0.83 2.9,-2.59 2.9,-4.52 0,-1.93 -1.1,-3.69 -2.9,-4.52 l -168.5,-79.89 c 25.6,-13.68 96.3,-56.01 112.8,-114.86 0.7,-2.65 -0.8,-5.41 -3.5,-6.16 -0.4,-0.13 -0.9,-0.19 -1.3,-0.19"
         style="fill:#000000;fill-opacity:1;fill-rule:nonzero;stroke:none"
         id="path28" /><path
         d="m 10617.2,2355.73 c -21.4,61.97 66.4,139.83 161.8,194.54 95.4,54.71 137.9,108.78 209.3,60.89 62,-41.56 -39,-171.04 -132.3,-229.22 -172,-107.26 -227.4,-59.36 -238.8,-26.21"
         style="fill:#f4f7fa;fill-opacity:1;fill-rule:nonzero;stroke:none"
         id="path30" /><path
         d="m 10033.3,4538.81 c -208.83,173.62 -660.63,200.89 -827.28,-379.88 -60.66,-211.4 -55.48,-539.4 256.65,-824.45 274.93,-251.06 484.38,-77.75 894.03,-410.87 114.4,-93.04 222.7,-224.18 325.8,-491.76 30.3,-78.72 248.1,59.07 241.4,131.41 -19.2,207.9 -75.3,412.36 -127.7,656.17 -124.1,576.57 -544.2,1137.51 -762.9,1319.38"
         style="fill:#eae6e3;fill-opacity:1;fill-rule:nonzero;stroke:none"
         id="path32" /><path
         d="m 10440.5,2841.07 c -1.4,0 -2.8,0.57 -3.8,1.7 -180.7,205.59 -379.9,254.35 -572.58,301.51 -150.65,36.87 -292.95,71.7 -405.43,182.44 -267.13,262.97 -322.04,606.04 -257.96,829.38 0.77,2.65 3.52,4.2 6.19,3.43 2.65,-0.76 4.19,-3.53 3.42,-6.19 -63.26,-220.49 -8.84,-559.4 255.36,-819.5 110.52,-108.8 251.52,-143.31 400.8,-179.85 185.1,-45.31 394.9,-96.66 577.7,-304.62 1.8,-2.07 1.6,-5.23 -0.4,-7.06 -1,-0.83 -2.2,-1.24 -3.3,-1.24"
         style="fill:#000000;fill-opacity:1;fill-rule:nonzero;stroke:none"
         id="path34" /><path
         d="m 5065.17,6565.09 c 11.95,-3.69 19.24,0.83 20.82,9.24 25.57,136.58 140.32,144.07 133.49,143.33 23.58,2.55 30.42,15.24 21.89,24.61 -71.24,78.18 -183.7,165.14 -264.71,187.99 -96.47,27.22 -198.06,-146.49 -142.64,-226.96 36.15,-52.49 161.96,-116.79 231.15,-138.21"
         style="fill:#000000;fill-opacity:1;fill-rule:nonzero;stroke:none"
         id="path36" /><path
         d="m 5244.89,6791.72 c 173.2,-143.39 611.84,-582.06 611.84,-582.06 0,0 794.15,277 1087.7,-87.86 113.27,-140.8 -49.8,-319.41 -333.81,-436.13 -306.44,-125.93 -836.89,-37.65 -1029.56,168.82 -236.74,253.71 -491.81,533.92 -549.46,673.24 -37.48,90.56 205.37,270.54 213.29,263.99"
         style="fill:#fe980d;fill-opacity:1;fill-rule:nonzero;stroke:none"
         id="path38" /><path
         d="m 6912.74,6142.87 c -1.18,0 -2.36,0.41 -3.31,1.25 -338.07,298.91 -1043.99,63.22 -1051.09,60.81 -1.71,-0.58 -3.6,-0.2 -4.95,1.01 -2.37,2.13 -239.88,215.68 -433.82,413.2 -1.93,1.97 -1.9,5.14 0.07,7.07 1.96,1.94 5.13,1.91 7.07,-0.06 183.86,-187.26 406.95,-388.96 431.21,-410.83 49.38,16.13 726.64,229.39 1058.13,-63.71 2.07,-1.83 2.26,-4.99 0.43,-7.06 -0.98,-1.11 -2.36,-1.68 -3.74,-1.68"
         style="fill:#000000;fill-opacity:1;fill-rule:nonzero;stroke:none"
         id="path40" /><path
         d="m 6253.59,5618.11 c -276.79,0 -605.58,93.59 -834.47,404.37 -1.64,2.22 -1.17,5.35 1.06,6.99 2.22,1.64 5.35,1.16 6.99,-1.06 374.28,-508.2 1018.39,-429.98 1254.75,-316.28 2.49,1.19 5.48,0.15 6.68,-2.34 1.19,-2.49 0.15,-5.48 -2.34,-6.68 -94.15,-45.28 -252.4,-85 -432.67,-85"
         style="fill:#000000;fill-opacity:1;fill-rule:nonzero;stroke:none"
         id="path42" /><path
         d="m 9998.96,5192.65 c 0,0 575.34,247.51 705.64,518.43 136,282.77 181.4,933.39 374.1,990.51 119.5,35.43 39.2,-118.12 261.9,-163.62 57.3,-11.71 99.7,-88.65 84.3,-122.46 -160.6,-352.33 -87.1,-684.46 -269.9,-950.72 -368,-536.12 -1109.9,-442.85 -1109.9,-442.85 l -46.14,170.71"
         style="fill:#000000;fill-opacity:1;fill-rule:nonzero;stroke:none"
         id="path44" /><path
         d="m 10194.2,4748.27 c -15.4,494.39 -359.86,878.71 -767.28,1046.18 -337.18,138.6 -941.13,-18.38 -1317.89,284.15 -420.3,337.48 -386.43,1300.01 -386.43,2177.47 l -618.32,-442.66 c 0,0 -407.71,-488.86 -704.4,-1964.02 -106.99,-531.92 -184.07,-1295.74 1067.19,-2092.87 1132.87,-721.71 2757.53,14.66 2727.13,991.75"
         style="fill:#f8f8f5;fill-opacity:1;fill-rule:nonzero;stroke:none"
         id="path46" /><path
         d="m 7628.08,3588.93 c 1010.04,522.81 1305.14,1769.27 1388.95,2297.45 -350.86,79.81 -1125.29,419.65 -1292.1,1000.66 0,0 -662.49,-149.98 -1172.83,-26.9 -78.56,-250.66 -188.87,-695.87 -236.09,-1106.97 -178.56,-1554.58 1218.26,-2125 1312.07,-2164.24"
         style="fill:#fe980d;fill-opacity:1;fill-rule:nonzero;stroke:none"
         id="path48" /><path
         d="m 8139.83,3960.33 c -1.28,0 -2.57,0.49 -3.54,1.47 -1.95,1.95 -1.95,5.12 0.01,7.07 472.85,471.97 701.71,1122.97 810.43,1585.98 0.63,2.69 3.34,4.36 6.01,3.73 2.69,-0.64 4.36,-3.33 3.73,-6.01 -109.03,-464.28 -338.59,-1117.14 -813.11,-1590.78 -0.97,-0.97 -2.25,-1.46 -3.53,-1.46"
         style="fill:#000000;fill-opacity:1;fill-rule:nonzero;stroke:none"
         id="path50" /><path
         d="m 7626.54,3583.93 c -0.64,0 -1.3,0.13 -1.93,0.39 l -2.35,0.98 c -248.88,103.86 -1481.82,696.48 -1312.76,2168.45 0.32,2.74 2.78,4.71 5.54,4.39 2.75,-0.31 4.71,-2.79 4.4,-5.54 C 6151.19,4287.75 7378.39,3697.9 7626.11,3594.53 l 2.36,-0.99 c 2.55,-1.06 3.75,-3.99 2.68,-6.54 -0.8,-1.92 -2.66,-3.07 -4.61,-3.07"
         style="fill:#000000;fill-opacity:1;fill-rule:nonzero;stroke:none"
         id="path52" /><path
         d="m 8488.44,3463.28 c -259.75,0 -512.7,49.29 -745.9,146.56 -2.55,1.07 -3.75,4 -2.69,6.54 1.07,2.56 4,3.75 6.54,2.69 753.94,-314.5 1603.75,-74.36 2053.54,325.39 2.05,1.84 5.22,1.66 7.05,-0.41 1.84,-2.07 1.66,-5.23 -0.41,-7.06 -245.23,-217.96 -579.16,-374.01 -940.25,-439.4 -126.58,-22.92 -253.02,-34.31 -377.88,-34.31"
         style="fill:#000000;fill-opacity:1;fill-rule:nonzero;stroke:none"
         id="path54" /><path
         d="m 8474.71,6097.52 c 0,0 25.62,-327 -72.64,-568.48 -158.49,-389.52 -415.14,-538.25 -400.79,-588.96 24.21,-85.49 534.85,63.79 698.45,525.27 94.09,265.39 41,508.97 41,508.97 l -266.02,123.2"
         style="fill:#000000;fill-opacity:1;fill-rule:nonzero;stroke:none"
         id="path56" /><path
         d="m 9063.99,5868.8 c 0,0 67.43,-174.36 83.1,-370.09 25.28,-315.72 -109.93,-541.1 -83.1,-570.35 45.23,-49.32 365.17,204.49 318.96,570.35 -26.57,210.41 -120.07,346.19 -120.07,346.19 l -198.89,23.9"
         style="fill:#000000;fill-opacity:1;fill-rule:nonzero;stroke:none"
         id="path58" /><path
         d="m 9579.6,5682.41 c 0,0 57.95,-153.67 44.11,-285.77 -22.32,-213.08 -113.93,-332.65 -99.72,-355.43 23.97,-38.4 241.65,114.89 256.27,363.91 8.4,143.21 -71.36,236.75 -71.36,236.75 l -129.3,40.54"
         style="fill:#000000;fill-opacity:1;fill-rule:nonzero;stroke:none"
         id="path60" /><path
         d="m 8115.33,6360.16 c 0,0 -37.41,-177.03 -139.6,-349.63 -160.78,-271.59 -313.66,-464 -317,-503.41 -5.64,-66.44 259.52,-4.26 508.01,324.55 127.41,168.61 138.27,364.33 138.27,364.33 l -189.68,164.16"
         style="fill:#000000;fill-opacity:1;fill-rule:nonzero;stroke:none"
         id="path62" /><path
         d="m 10431.7,5252.35 c -2.6,0 -4.8,2.03 -5,4.68 -0.1,2.75 1.9,5.13 4.7,5.31 2.7,0.18 273.5,20.39 358.3,239.76 48.4,125.31 65.7,261.33 82.4,392.88 26.6,209.17 54.1,425.47 207.6,603.78 1.8,2.1 4.9,2.32 7,0.52 2.1,-1.8 2.3,-4.95 0.5,-7.05 -151.5,-176.03 -178.8,-390.81 -205.1,-598.51 -16.8,-132.14 -34.2,-268.78 -83.1,-395.23 -87.1,-225.38 -364.2,-245.95 -367,-246.13 -0.1,-0.01 -0.2,-0.01 -0.3,-0.01"
         style="fill:#ffffff;fill-opacity:1;fill-rule:nonzero;stroke:none"
         id="path64" /><path
         d="m 10267,5157.85 c -29.5,0 -47.3,1.02 -48.2,1.08 -2.8,0.17 -4.9,2.55 -4.7,5.3 0.2,2.76 2.6,4.89 5.3,4.68 4.8,-0.3 482.1,-27.37 659.6,210.72 65.6,87.93 114.2,256.57 115.6,401 0.1,2.74 2.3,4.95 5,4.95 2.9,-0.03 5.1,-2.29 5,-5.05 -1.4,-146.32 -50.9,-317.44 -117.5,-406.88 -146.8,-196.85 -492.6,-215.8 -620.1,-215.8"
         style="fill:#ffffff;fill-opacity:1;fill-rule:nonzero;stroke:none"
         id="path66" /><path
         d="m 11000,5865.94 c -2.7,0.01 -5,2.26 -5,5.02 0.8,175.21 9.3,342.98 103.2,469.79 1.7,2.22 4.8,2.69 7,1.05 2.2,-1.64 2.7,-4.77 1.1,-6.99 -92.1,-124.39 -100.5,-290.41 -101.3,-463.89 0,-2.75 -2.2,-4.98 -5,-4.98"
         style="fill:#ffffff;fill-opacity:1;fill-rule:nonzero;stroke:none"
         id="path68" /><path
         d="m 6451.26,6066.24 c -0.35,0 -0.7,0.03 -1.05,0.11 -2.7,0.57 -4.43,3.23 -3.85,5.93 223.63,1047.01 586.36,1645.84 590,1651.77 1.45,2.36 4.53,3.09 6.88,1.64 2.35,-1.44 3.09,-4.52 1.65,-6.87 -3.64,-5.91 -365.51,-603.44 -588.75,-1648.63 -0.5,-2.35 -2.57,-3.95 -4.88,-3.95"
         style="fill:#000000;fill-opacity:1;fill-rule:nonzero;stroke:none"
         id="path70" /><path
         d="m 8442.89,1487.39 c 0,0 41.26,-81.32 23.15,-245.42 -11.38,-103.16 -284.36,60.51 -284.36,60.51 0,0 -11.15,-128.46 94.14,-176.47 186.14,-84.88 629,-60.14 846.94,2.62 49.43,14.24 45.66,110.12 45.66,110.12 0,0 -218.37,-60.42 -261.91,-19.79 -39.33,36.71 -33.65,236.53 -33.65,236.53 l -93.27,21.3 c 0,0 -2.74,-165.33 -25.62,-245.02 -11.27,-39.27 -162.67,-46.9 -169.41,-6.76 -17.93,106.73 -14.06,258.36 -14.06,258.36 l -127.61,4.02"
         style="fill:#5ac3f2;fill-opacity:1;fill-rule:nonzero;stroke:none"
         id="path72" /><path
         d="m 8735.15,1901.85 c -44.66,-30.92 -82.39,-147.62 -142.78,-179.91 -107.05,-57.23 -242.88,0.98 -378.35,-90.6 -67.97,-45.95 -83.92,-209.15 29.96,-264.7 206.1,-100.53 673.17,-40.92 818.91,63.95 115.34,82.99 101.58,407.85 1.32,478.8 -77.76,55.02 -250.87,46.57 -329.06,-7.54"
         style="fill:#ff4e00;fill-opacity:1;fill-rule:nonzero;stroke:none"
         id="path74" /><path
         d="m 8543.66,1310.05 c -117.24,0 -227.4,15.78 -301.87,52.1 -2.48,1.21 -3.51,4.2 -2.3,6.68 1.21,2.48 4.19,3.52 6.68,2.31 200.49,-97.8 663.21,-44.85 813.8,63.51 49.47,35.59 79.93,125.01 79.5,233.37 -0.44,109.16 -31.84,204.52 -78.15,237.29 -2.26,1.59 -2.79,4.71 -1.2,6.97 1.6,2.25 4.72,2.79 6.97,1.19 56.39,-39.9 82,-152.01 82.38,-245.41 0.44,-113.22 -30.83,-203.52 -83.66,-241.53 -96.55,-69.47 -319.83,-116.48 -522.15,-116.48"
         style="fill:#000000;fill-opacity:1;fill-rule:nonzero;stroke:none"
         id="path76" /><path
         d="m 8396.85,1480.55 c -21.06,-41.8 -92.5,-9.64 -139.13,9.39 -46.63,19.04 -91.55,16.41 -80.45,61.23 21.52,86.95 111.87,104.09 158.49,85.06 46.63,-19.04 82.15,-113.86 61.09,-155.68"
         style="fill:#ffffff;fill-opacity:1;fill-rule:nonzero;stroke:none"
         id="path78" /><path
         d="m 8700.38,1651.83 c -0.94,0 -1.89,0.26 -2.72,0.8 -1.1,0.72 -111.87,71.63 -200.73,45.48 -2.68,-0.79 -5.43,0.74 -6.21,3.39 -0.78,2.65 0.74,5.43 3.38,6.21 74.67,21.94 160.59,-19.13 194.4,-38.01 l -61.66,125.69 c -0.75,1.52 -0.68,3.31 0.2,4.77 0.87,1.45 2.42,2.37 4.11,2.43 l 197.56,6.83 c 2.69,0.1 5.07,-2.06 5.17,-4.82 0.1,-2.76 -2.06,-5.08 -4.82,-5.17 l -189.84,-6.57 65.65,-133.83 c 0.99,-2.02 0.51,-4.45 -1.17,-5.94 -0.94,-0.84 -2.13,-1.26 -3.32,-1.26"
         style="fill:#000000;fill-opacity:1;fill-rule:nonzero;stroke:none"
         id="path80" /><path
         d="m 8602.36,1584.91 c -0.6,0 -1.21,0.11 -1.79,0.34 -2.58,0.98 -3.87,3.88 -2.88,6.45 24.64,64.3 -25.57,159.5 -26.08,160.46 -0.91,1.7 -0.75,3.78 0.4,5.34 1.15,1.55 3.09,2.3 4.99,1.92 l 182.6,-36.42 -58.16,109.84 c -1.3,2.44 -0.36,5.47 2.08,6.76 2.45,1.3 5.47,0.36 6.76,-2.08 l 63.09,-119.15 c 0.9,-1.7 0.74,-3.78 -0.41,-5.33 -1.16,-1.54 -3.08,-2.3 -4.99,-1.91 l -182.94,36.49 c 12.42,-26.28 43.87,-102.42 21.99,-159.5 -0.76,-1.98 -2.65,-3.21 -4.66,-3.21"
         style="fill:#000000;fill-opacity:1;fill-rule:nonzero;stroke:none"
         id="path82" /><path
         d="m 8694.23,1925.93 c 19.82,62.49 136.75,72.56 245.96,59.51 109.21,-13.04 175.56,5 204.28,-76.05 24.92,-70.33 -133.34,-113.98 -242.96,-104.97 -202.06,16.62 -217.88,88.08 -207.28,121.51"
         style="fill:#f4f7fa;fill-opacity:1;fill-rule:nonzero;stroke:none"
         id="path84" /><path
         d="m 9528.55,4026.09 c -63.93,263.93 -410.18,555.44 -890.5,188.89 -174.83,-133.43 -366.42,-399.7 -286.08,-814.71 70.77,-365.52 342.26,-351.46 472.14,-863.21 36.27,-142.94 44.95,-312.82 -32.07,-589.01 -22.66,-81.25 234.37,-100.71 272.17,-38.66 108.62,178.31 185.69,375.8 289.1,602.75 244.53,536.67 242.21,1237.48 175.24,1513.95"
         style="fill:#eae6e3;fill-opacity:1;fill-rule:nonzero;stroke:none"
         id="path86" /><path
         d="m 8845.07,2419.83 c -2.58,0 -4.77,1.98 -4.98,4.6 -22.32,272.82 -153.07,430.84 -279.51,583.65 -98.88,119.49 -192.28,232.36 -216.45,388.34 -57.4,370.44 103.28,678.48 288,819.44 2.19,1.68 5.33,1.26 7,-0.94 1.68,-2.19 1.26,-5.33 -0.94,-7 -182.36,-139.17 -340.95,-443.59 -284.17,-809.97 23.75,-153.26 116.29,-265.09 214.26,-383.5 121.49,-146.83 259.2,-313.24 281.78,-589.21 0.22,-2.75 -1.83,-5.16 -4.58,-5.39 -0.14,-0.01 -0.28,-0.02 -0.41,-0.02"
         style="fill:#000000;fill-opacity:1;fill-rule:nonzero;stroke:none"
         id="path88" /><path
         d="m 5859.09,5395.73 c 12.47,1.08 17.51,8.02 15.79,16.41 -27.85,136.12 75.59,186.37 69.54,183.1 20.87,11.27 22.42,25.6 10.98,31.05 -95.47,45.52 -230.43,114.37 -314.07,104.96 -99.61,-11.2 -130.14,-241.16 -48.45,-294.77 53.28,-34.96 194.06,-47.03 266.21,-40.75"
         style="fill:#000000;fill-opacity:1;fill-rule:nonzero;stroke:none"
         id="path90" /><path
         d="m 5902.34,5666.64 c 193.99,100.04 391.49,-455.05 479.7,-488.11 166.11,-62.26 276.01,659.07 835.08,582.45 179.03,-24.53 177.76,-270 45.88,-547.29 -142.31,-299.19 -501.7,-672.15 -783.54,-654.33 -474.89,30.03 -502.49,623.27 -596.51,741.13 -24.69,30.94 -92.63,36.45 -99.42,72.74 -15.89,84.93 52.26,259.09 118.81,293.41"
         style="fill:#fe980d;fill-opacity:1;fill-rule:nonzero;stroke:none"
         id="path92" /><path
         d="m 6403.41,5168.72 c -7.67,0 -15.45,1.69 -23.41,5.24 -34.26,15.29 -61.85,62.53 -103.61,134.05 -46.67,79.92 -110.58,189.37 -221.03,320.81 -1.77,2.12 -1.5,5.27 0.61,7.05 2.11,1.78 5.27,1.5 7.05,-0.62 111,-132.09 175.16,-241.97 222,-322.2 40.79,-69.84 67.73,-115.98 99.05,-129.96 52.61,-23.47 100.84,54.25 167.61,161.83 111.79,180.1 264.9,426.76 570.37,426.76 2.76,0 5,-2.23 5,-5 0,-2.76 -2.24,-5 -5,-5 -299.91,0 -451.32,-243.93 -561.87,-422.03 -60.31,-97.17 -106.1,-170.93 -156.77,-170.93"
         style="fill:#000000;fill-opacity:1;fill-rule:nonzero;stroke:none"
         id="path94" /><path
         d="m 6492.07,4548.72 c -50.87,0 -98.95,10.77 -143.88,32.31 -2.49,1.19 -3.54,4.18 -2.35,6.67 1.19,2.49 4.17,3.55 6.67,2.34 87.66,-42.02 187.94,-41.73 298.05,0.87 270.61,104.69 531.16,435.8 607.8,624.66 1.05,2.56 3.98,3.78 6.52,2.75 2.55,-1.04 3.78,-3.95 2.75,-6.51 -77.32,-190.5 -340.26,-524.54 -613.46,-630.23 -56.63,-21.91 -110.79,-32.86 -162.1,-32.86"
         style="fill:#000000;fill-opacity:1;fill-rule:nonzero;stroke:none"
         id="path96" /><path
         d="m 5894.79,5237.99 c 14.57,4.1 35.13,24.25 57.86,53.14 68.2,86.69 155.99,252.18 160.22,299.78 9.92,111.5 -166.58,166.56 -241.03,128.17 -66.56,-34.33 -150.5,-286.37 -154.95,-365.38 -3.66,-65.04 147.3,-124.34 177.9,-115.71"
         style="fill:#ffb82c;fill-opacity:1;fill-rule:nonzero;stroke:none"
         id="path98" /><path
         d="m 5097.72,6378.76 c 59.29,-12.18 321.67,159.49 355.85,213.27 60.04,94.48 -71.43,224.48 -155.2,224.58 -74.89,0.1 -265.24,-185.2 -305.5,-253.33 -33.13,-56.09 73.7,-178.12 104.85,-184.52"
         style="fill:#ffb82c;fill-opacity:1;fill-rule:nonzero;stroke:none"
         id="path100" /><path
         d="m 6323.85,6109.54 c -69.2,105.67 69.88,940.19 255.33,860.78 590,-252.67 1192.03,68.21 1267.24,-7.97 107.77,-109.17 166.07,-488.9 54.59,-615.9 -100.83,-114.86 -490.13,-292.11 -795.64,-344.43 -194.6,-33.32 -648.37,-95.83 -781.52,107.52"
         style="fill:#ffb82c;fill-opacity:1;fill-rule:nonzero;stroke:none"
         id="path102" /><path
         d="m 6996.11,6756.18 c -152.53,0 -311.38,23.35 -464.35,88.86 -2.54,1.09 -3.72,4.03 -2.63,6.57 1.08,2.53 4.03,3.71 6.56,2.63 395.75,-169.48 832.65,-54.22 1093.69,14.65 132.14,34.86 219.44,57.9 246.04,30.96 1.94,-1.97 1.92,-5.13 -0.05,-7.07 -1.95,-1.94 -5.12,-1.93 -7.07,0.04 -22.52,22.83 -112.23,-0.84 -236.36,-33.6 -161.71,-42.66 -390.6,-103.04 -635.83,-103.04"
         style="fill:#000000;fill-opacity:1;fill-rule:nonzero;stroke:none"
         id="path104" /><path
         d="m 7363.64,8815.94 c -14.54,-128.19 19.2,-383.93 120.53,-376.73 83.96,5.96 234.82,266.84 224.64,432.73 -16.28,265.27 -164.28,368.13 -244.01,300.88 -66.97,-56.49 -83.53,-201.48 -101.16,-356.88"
         style="fill:#000000;fill-opacity:1;fill-rule:nonzero;stroke:none"
         id="path106" /><path
         d="m 7901.97,6312.65 c 109.55,-87.61 402.95,-82.23 489.17,56.51 72.78,117.12 -105.82,225.24 -69.46,326.62 18.13,50.56 159.89,161.93 149.02,263.35 -12.2,113.78 -259.4,148.73 -268.71,263.61 -4.82,59.57 51.41,150.51 10.55,322.23 -27.83,116.92 -291.21,298.73 -351.61,478.54 -25.98,77.35 78.93,232.56 78.93,232.56 0,0 -25.32,291.6 -87.93,381 -64.19,91.65 -212.02,-320.22 -183.17,-421.3 111.89,-391.99 20.13,-1732.72 233.21,-1903.12"
         style="fill:#000000;fill-opacity:1;fill-rule:nonzero;stroke:none"
         id="path108" /><path
         d="m 7920.75,7414.14 c -68.97,0 -125,12.6 -129.75,13.7 -2.69,0.63 -4.36,3.31 -3.74,6 0.63,2.69 3.32,4.37 6,3.75 2.38,-0.56 239.29,-53.77 342.77,60.26 1.86,2.05 5.02,2.19 7.06,0.34 2.04,-1.86 2.2,-5.02 0.34,-7.06 -56.15,-61.88 -147.17,-76.99 -222.68,-76.99"
         style="fill:#ffffff;fill-opacity:1;fill-rule:nonzero;stroke:none"
         id="path110" /><path
         d="m 7920.38,7270.74 c -28.97,0 -48.62,2.74 -49.24,2.83 -2.73,0.4 -4.62,2.94 -4.22,5.67 0.4,2.73 2.85,4.63 5.67,4.22 1.92,-0.27 193.83,-26.89 262.82,90.89 1.4,2.38 4.46,3.18 6.85,1.79 2.38,-1.4 3.18,-4.46 1.79,-6.85 -49.88,-85.14 -159.57,-98.55 -223.67,-98.55"
         style="fill:#ffffff;fill-opacity:1;fill-rule:nonzero;stroke:none"
         id="path112" /><path
         d="m 7460.09,8506.72 c -2.67,0 -4.88,2.11 -4.99,4.8 -4.91,120.68 18.28,208.75 68.9,261.75 44.99,47.09 94.6,47.61 96.23,47.67 2.75,0 4.98,-2.22 5,-4.97 0.02,-2.75 -2.21,-5.01 -4.96,-5.03 -0.47,-0.01 -47.49,-0.93 -89.26,-44.81 -48.52,-50.99 -70.7,-136.52 -65.92,-254.21 0.11,-2.75 -2.03,-5.08 -4.79,-5.19 -0.07,-0.01 -0.14,-0.01 -0.21,-0.01"
         style="fill:#000000;fill-opacity:1;fill-rule:nonzero;stroke:none"
         id="path114" /><path
         d="m 7952.57,6672.01 c -27.13,0 -54.66,4.03 -82.27,13.09 -2.62,0.86 -4.05,3.69 -3.19,6.31 0.87,2.63 3.67,4.05 6.32,3.19 236.55,-77.72 469.78,228.73 472.1,231.84 1.66,2.2 4.79,2.65 7,1 2.21,-1.66 2.66,-4.8 1,-7.01 -2.1,-2.8 -189.02,-248.42 -400.96,-248.42"
         style="fill:#ffffff;fill-opacity:1;fill-rule:nonzero;stroke:none"
         id="path116" /><path
         d="m 7962.04,6916.31 c -29.15,0 -59.67,2.72 -91.17,9.09 -2.7,0.55 -4.46,3.19 -3.91,5.89 0.55,2.71 3.19,4.48 5.89,3.91 209.14,-42.32 374.36,79.73 376.01,80.97 2.22,1.66 5.35,1.21 7,-0.99 1.66,-2.2 1.22,-5.34 -0.98,-7 -1.44,-1.08 -124.35,-91.87 -292.84,-91.87"
         style="fill:#ffffff;fill-opacity:1;fill-rule:nonzero;stroke:none"
         id="path118" /><path
         d="m 8083.72,6383.03 c -82.98,0 -146.56,24.1 -147.72,24.56 -2.57,1 -3.84,3.89 -2.84,6.47 1,2.57 3.9,3.83 6.47,2.84 2.08,-0.81 209.64,-79.3 361.55,52.56 2.08,1.81 5.24,1.59 7.05,-0.5 1.81,-2.08 1.59,-5.24 -0.5,-7.05 -71.36,-61.95 -154.5,-78.88 -224.01,-78.88"
         style="fill:#ffffff;fill-opacity:1;fill-rule:nonzero;stroke:none"
         id="path120" /><path
         d="m 7528.37,8523.25 c -2.84,0.04 -5.04,2.31 -5,5.07 0.02,1.72 4.6,172.08 199.2,172.99 2.92,-0.06 5.01,-2.21 5.03,-4.97 0.01,-2.77 -2.22,-5.02 -4.98,-5.03 -184.65,-0.86 -189.15,-156.51 -189.25,-163.14 -0.05,-2.73 -2.27,-4.92 -5,-4.92"
         style="fill:#000000;fill-opacity:1;fill-rule:nonzero;stroke:none"
         id="path122" /><path
         d="m 7468.6,8689.68 c -0.63,0 -1.27,0.12 -1.89,0.37 -2.56,1.05 -3.78,3.97 -2.74,6.52 0.71,1.73 70.34,174.93 47.47,387.46 -0.29,2.74 1.69,5.21 4.44,5.5 2.89,0.31 5.21,-1.69 5.5,-4.44 23.16,-215.14 -47.44,-390.56 -48.15,-392.31 -0.8,-1.93 -2.66,-3.1 -4.63,-3.1"
         style="fill:#d3dae5;fill-opacity:1;fill-rule:nonzero;stroke:none"
         id="path124" /><path
         d="m 6954.37,8563.91 c 301.39,124.15 678.35,-98.27 727.52,-381.81 25.68,-148.05 -20.63,-314.61 -116.97,-431.5 -200.17,-242.85 -548.24,-123.11 -763.24,-8.86 -100.96,53.66 -322.38,33.98 -458.84,47.84 0,0 -99.69,-78.12 -185.22,14.71 -138.32,150.14 -80.23,413.1 193.25,503.35 368.99,121.77 355.27,154.01 603.5,256.27"
         style="fill:#f8f8f5;fill-opacity:1;fill-rule:nonzero;stroke:none"
         id="path126" /><path
         d="m 7239.09,7566.26 c -107.89,0 -219.07,59.09 -333.62,119.97 -40.85,21.7 -205.2,81.83 -270.68,86.6 -2.76,0.2 -4.83,2.6 -4.63,5.35 0.2,2.76 2.66,4.78 5.35,4.63 66.59,-4.86 233.28,-65.77 274.65,-87.76 212.43,-112.88 413.08,-219.5 600.91,57.65 1.55,2.29 4.66,2.88 6.95,1.33 2.29,-1.54 2.88,-4.66 1.33,-6.94 -90.82,-134.01 -184.24,-180.83 -280.26,-180.83"
         style="fill:#000000;fill-opacity:1;fill-rule:nonzero;stroke:none"
         id="path128" /><path
         d="m 6064.39,8084.17 c -41.3,-173.62 39.17,-315.42 150.34,-353.61 111.17,-38.19 138.91,56.3 317.84,49.4 137.75,-5.31 129.2,532.64 30.55,603.6 -43.19,31.08 -460.23,-137.49 -498.73,-299.39"
         style="fill:#000000;fill-opacity:1;fill-rule:nonzero;stroke:none"
         id="path130" /><path
         d="m 6943.23,8116.08 c -13.55,0 -27.4,1.72 -40.06,6.37 -46.45,17.06 -58.32,58.39 -58.11,77.86 0.06,5.52 4.8,10.09 10.11,9.89 5.52,-0.06 9.95,-4.58 9.89,-10.11 0,-1.68 0.48,-42.51 45,-58.86 40.55,-14.9 99.72,7.08 100.31,7.3 5.15,1.95 10.94,-0.66 12.89,-5.83 1.95,-5.17 -0.66,-10.93 -5.83,-12.89 -1.98,-0.75 -36.96,-13.73 -74.2,-13.73"
         style="fill:#000000;fill-opacity:1;fill-rule:nonzero;stroke:none"
         id="path132" /><path
         d="m 6320.72,7769.52 c -2.44,0 -4.81,0.22 -7.09,0.7 -8.09,1.69 -14.24,6.3 -18.31,13.71 -3.99,7.26 -5.11,14.05 -3.31,20.15 3.15,10.68 13.97,16.53 23.52,21.69 4.87,2.64 11.55,6.24 12.06,8.6 0.11,0.5 -0.28,1.39 -1.07,2.44 -1.6,2.13 -10.02,2.86 -16.17,3.39 -15.03,1.29 -37.73,3.24 -36.28,26.67 0.83,13.52 7.78,25.7 20.1,35.21 20.32,15.71 52.99,22.53 81.3,17 2.71,-0.53 4.47,-3.16 3.94,-5.87 -0.53,-2.71 -3.13,-4.48 -5.87,-3.94 -25.23,4.93 -55.37,-1.27 -73.26,-15.1 -10.11,-7.81 -15.57,-17.2 -16.23,-27.92 -0.73,-11.78 7.41,-14.39 27.16,-16.09 10.2,-0.88 19.02,-1.64 23.3,-7.33 2.66,-3.53 3.62,-7.1 2.85,-10.6 -1.49,-6.83 -8.71,-10.74 -17.07,-15.25 -7.84,-4.24 -16.72,-9.04 -18.69,-15.73 -1.03,-3.5 -0.22,-7.59 2.48,-12.51 2.64,-4.79 6.43,-7.65 11.6,-8.73 18.59,-3.93 49.84,16.1 60.29,24.15 2.19,1.67 5.33,1.27 7.02,-0.92 1.68,-2.19 1.27,-5.33 -0.92,-7.01 -1.55,-1.19 -35.07,-26.71 -61.35,-26.71"
         style="fill:#ffffff;fill-opacity:1;fill-rule:nonzero;stroke:none"
         id="path134" /><path
         d="m 6175.68,8077.18 c 48.97,-1.15 84.66,-24.52 104.32,-4.36 11.77,12.08 4.57,39.63 -19.59,52.14 -41.1,21.29 -113.8,-47.1 -84.73,-47.78"
         style="fill:#ffffff;fill-opacity:1;fill-rule:nonzero;stroke:none"
         id="path136" /><path
         d="m 6885.13,8298.4 c 4.79,63.4 173.69,-26.05 189.83,-61.88 20.24,-44.92 -191.86,35.05 -189.83,61.88"
         style="fill:#000000;fill-opacity:1;fill-rule:nonzero;stroke:none"
         id="path138" /><path
         d="m 7115.58,8681.03 c -146.5,-158.21 659.42,-791.31 785.09,-727.85 207.64,104.84 292.33,618.14 -4.41,834.96 -180.53,131.91 -630.48,55.09 -780.68,-107.11"
         style="fill:#ff4e00;fill-opacity:1;fill-rule:nonzero;stroke:none"
         id="path140" /><path
         d="m 7874.56,7943.93 c -130.93,-0.01 -536.6,295.14 -710.57,526.05 -74.86,99.36 -94.39,173.51 -56.49,214.44 1.87,2.04 5.04,2.15 7.07,0.28 2.02,-1.88 2.15,-5.04 0.27,-7.07 -43.2,-46.65 7.23,-135.4 57.14,-201.64 180.14,-239.11 632.32,-563.64 722.02,-518.35 2.46,1.25 5.48,0.26 6.72,-2.21 1.25,-2.47 0.25,-5.47 -2.21,-6.72 -6.41,-3.23 -14.46,-4.78 -23.95,-4.78"
         style="fill:#000000;fill-opacity:1;fill-rule:nonzero;stroke:none"
         id="path142" /><path
         d="m 6444.83,6572.97 59.7,-137.92 117.77,106.48 -73.12,138.71 z m 57.88,-151.31 c -0.35,0 -0.71,0.04 -1.06,0.11 -1.57,0.34 -2.89,1.43 -3.53,2.9 l -63.8,147.4 c -0.8,1.86 -0.4,4.02 1.01,5.47 l 111.48,114.61 c 1.12,1.15 2.72,1.68 4.3,1.46 1.59,-0.23 2.96,-1.2 3.71,-2.62 l 78.14,-148.23 c 1.06,-2.02 0.62,-4.51 -1.07,-6.04 l -125.82,-113.77 c -0.93,-0.84 -2.13,-1.29 -3.36,-1.29"
         style="fill:#000000;fill-opacity:1;fill-rule:nonzero;stroke:none"
         id="path144" /><path
         d="m 6991.44,6527.46 87.85,-126.84 79.74,124.45 -83.13,126.5 z m 88.02,-140.85 c -1.65,0 -3.18,0.8 -4.12,2.15 l -94.08,135.83 c -1.17,1.7 -1.18,3.95 -0.02,5.66 l 90.6,133.13 c 0.93,1.37 2.48,2.18 4.13,2.18 1.71,-0.01 3.27,-0.86 4.18,-2.25 l 89.02,-135.46 c 1.09,-1.65 1.1,-3.79 0.03,-5.45 l -85.54,-133.49 c -0.9,-1.41 -2.44,-2.27 -4.12,-2.3 -0.03,0 -0.06,0 -0.08,0"
         style="fill:#000000;fill-opacity:1;fill-rule:nonzero;stroke:none"
         id="path146" /><path
         d="m 7531.31,6609.74 113.72,-75.47 45.07,121.99 -93.61,102.18 z m 116.22,-88.12 c -0.97,0 -1.94,0.28 -2.77,0.83 l -122.48,81.28 c -2.02,1.34 -2.79,3.95 -1.81,6.17 l 69.94,159.58 c 0.68,1.55 2.09,2.65 3.76,2.93 1.65,0.27 3.36,-0.31 4.5,-1.56 l 100.86,-110.09 c 1.27,-1.38 1.65,-3.35 1.01,-5.11 l -48.32,-130.77 c -0.53,-1.43 -1.69,-2.54 -3.14,-3.02 -0.51,-0.16 -1.03,-0.24 -1.55,-0.24"
         style="fill:#000000;fill-opacity:1;fill-rule:nonzero;stroke:none"
         id="path148" /><path
         d="m 6742.16,6116.78 c -108.72,0 -213.01,14.71 -305.08,51.02 -2.57,1.01 -3.83,3.92 -2.82,6.48 1.01,2.58 3.91,3.83 6.49,2.82 479.95,-189.3 1300.23,214.88 1308.46,218.98 2.49,1.23 5.48,0.23 6.71,-2.24 1.23,-2.47 0.23,-5.47 -2.25,-6.71 -6.69,-3.34 -548.58,-270.35 -1011.51,-270.35"
         style="fill:#000000;fill-opacity:1;fill-rule:nonzero;stroke:none"
         id="path150" /><path
         d="m 6844.26,6304.32 c -324.78,0 -526.75,99.66 -529.1,100.85 -2.47,1.24 -3.46,4.25 -2.21,6.71 1.24,2.47 4.25,3.46 6.71,2.22 2.74,-1.38 279.08,-137.56 705.67,-89.53 317.33,35.72 719.85,204.43 723.88,206.13 2.55,1.07 5.48,-0.12 6.55,-2.67 1.07,-2.54 -0.12,-5.47 -2.66,-6.55 -4.04,-1.7 -407.9,-170.96 -726.64,-206.85 -64.25,-7.23 -125.13,-10.31 -182.2,-10.31"
         style="fill:#000000;fill-opacity:1;fill-rule:nonzero;stroke:none"
         id="path152" /><path
         d="m 7133.46,5042.63 c -2.19,0 -4.2,1.45 -4.81,3.66 -0.35,1.26 -36.79,127.5 -206.19,313.61 -76.3,83.83 -204.39,142.32 -205.67,142.9 -2.52,1.14 -3.63,4.1 -2.5,6.61 1.14,2.52 4.1,3.64 6.62,2.5 1.3,-0.59 131.24,-59.9 208.94,-145.28 171.24,-188.12 208.08,-316.4 208.43,-317.67 0.74,-2.66 -0.82,-5.41 -3.48,-6.15 -0.45,-0.12 -0.9,-0.18 -1.34,-0.18"
         style="fill:#000000;fill-opacity:1;fill-rule:nonzero;stroke:none"
         id="path154" /><path
         d="m 6736.32,4682.32 c -2.2,0 -4.21,1.46 -4.82,3.69 -0.64,2.36 -66.34,238.39 -235.91,424.68 -1.86,2.04 -1.71,5.2 0.34,7.06 2.04,1.86 5.2,1.71 7.06,-0.33 171.24,-188.13 237.51,-426.4 238.16,-428.79 0.73,-2.66 -0.84,-5.41 -3.51,-6.13 -0.44,-0.12 -0.88,-0.18 -1.32,-0.18"
         style="fill:#000000;fill-opacity:1;fill-rule:nonzero;stroke:none"
         id="path156" /><path
         d="m 6980.71,4912.19 c -0.89,0 -1.79,0.23 -2.61,0.73 -0.53,0.33 -54.46,32.76 -144.01,26.42 -32.1,-2.27 -52.02,3.17 -60.92,16.61 -14.79,22.34 4.77,60.73 25.49,101.37 19.77,38.8 40.21,78.91 30.43,103.55 -19.24,48.48 -70.79,32.42 -120.65,16.89 -31.99,-9.96 -59.61,-18.57 -75.98,-8.12 -53.12,33.92 -40.75,137.52 -40.2,141.91 0.35,2.73 2.74,4.68 5.59,4.34 2.74,-0.35 4.68,-2.85 4.34,-5.59 -0.13,-1.01 -12.14,-101.71 35.65,-132.23 12.44,-7.95 39.24,0.4 67.62,9.24 49.12,15.3 110.26,34.36 132.93,-22.75 11.45,-28.84 -10.04,-71.01 -30.82,-111.78 -18.51,-36.3 -37.64,-73.83 -26.06,-91.31 6.64,-10.02 24.08,-14.11 51.88,-12.15 92.96,6.56 147.67,-26.47 149.96,-27.88 2.35,-1.45 3.07,-4.53 1.63,-6.88 -0.95,-1.53 -2.59,-2.37 -4.27,-2.37"
         style="fill:#000000;fill-opacity:1;fill-rule:nonzero;stroke:none"
         id="path158" /><path
         d="m 6736,5964.42 c -214.18,0 -357.25,48.82 -420.37,145.22 -38.36,58.59 -18.26,258.9 18.67,431.43 36.54,170.69 102.44,372.06 177.83,425.36 2.24,1.59 5.38,1.06 6.96,-1.2 1.6,-2.25 1.06,-5.37 -1.19,-6.97 -136.52,-96.51 -262.46,-738.44 -193.9,-843.14 91.78,-140.18 360.28,-176.6 776.5,-105.33 311.72,53.38 696.43,233.11 792.72,342.8 1.83,2.07 4.98,2.27 7.06,0.45 2.08,-1.82 2.28,-4.98 0.46,-7.05 -97.34,-110.89 -484.95,-292.35 -798.55,-346.06 -138.53,-23.72 -260.94,-35.51 -366.19,-35.51"
         style="fill:#000000;fill-opacity:1;fill-rule:nonzero;stroke:none"
         id="path160" /><path
         d="m 6833.74,6492.29 c 0,-18.67 -15.13,-33.8 -33.8,-33.8 -18.66,0 -33.79,15.13 -33.79,33.8 0,18.66 15.13,33.8 33.79,33.8 18.67,0 33.8,-15.14 33.8,-33.8"
         style="fill:#ffffff;fill-opacity:1;fill-rule:nonzero;stroke:none"
         id="path162" /><path
         d="m 6560.74,6552.43 c -4.12,-25.01 -21.67,-42.94 -39.19,-40.05 -17.52,2.88 -28.38,25.5 -24.26,50.51 4.12,25.01 21.67,42.94 39.19,40.05 17.53,-2.88 28.39,-25.5 24.26,-50.51"
         style="fill:#000000;fill-opacity:1;fill-rule:nonzero;stroke:none"
         id="path164" /><path
         d="m 7107.26,6528.29 c 1.74,-25.29 -14.36,-46.77 -32.08,-47.99 -17.72,-1.22 -30.34,18.29 -32.08,43.58 -1.74,25.29 11.22,46.78 28.93,47.99 17.72,1.22 33.49,-18.29 35.23,-43.58"
         style="fill:#000000;fill-opacity:1;fill-rule:nonzero;stroke:none"
         id="path166" /><path
         d="m 7645.1,6649.19 c 4.88,-25.22 -6.7,-48.45 -22.39,-51.48 -15.7,-3.04 -29.56,15.26 -34.44,40.49 -4.88,25.22 3.88,48.13 19.57,51.17 15.7,3.03 32.38,-14.95 37.26,-40.18"
         style="fill:#000000;fill-opacity:1;fill-rule:nonzero;stroke:none"
         id="path168" /><path
         d="m 7397.66,6553.65 c 0,-18.67 -15.13,-33.8 -33.79,-33.8 -18.67,0 -33.8,15.13 -33.8,33.8 0,18.66 15.13,33.8 33.8,33.8 18.66,0 33.79,-15.14 33.79,-33.8"
         style="fill:#ffffff;fill-opacity:1;fill-rule:nonzero;stroke:none"
         id="path170" /><path
         d="m 8100.1,9005.21 c -27.81,16.63 -94.3,-50.5 -94.3,-50.5 0,0 2.77,92.55 -29.54,92.08 -28.84,-0.41 -68.72,-97.26 -68.72,-97.26 0,0 -117.11,42.52 -126.51,10.52 -7.89,-26.85 19.75,-79.67 19.75,-79.67 0,0 -70.42,-35.04 -77.85,-81.52 -6.47,-40.39 84.48,-98.52 84.48,-98.52 0,0 -46.38,-97.61 -16.55,-112.18 41.21,-20.13 150.55,24.67 150.55,24.67 0,0 -11.03,-70.93 29.96,-83.29 46.85,-14.12 99.69,92 99.69,92 0,0 96.02,-67.02 107.94,-22.42 10.93,40.9 -24.14,97.19 -24.14,97.19 0,0 70.93,25.41 80.23,66.66 6.82,30.26 -71.88,72.98 -71.88,72.98 0,0 43.84,34.19 35.36,65.98 -7.43,27.89 -86.48,21.75 -86.48,21.75 0,0 0.84,73.86 -11.99,81.53"
         style="fill:#fe980d;fill-opacity:1;fill-rule:nonzero;stroke:none"
         id="path172" /><path
         d="m 7269.45,7995.96 c 131.88,204.24 138.81,532.29 138.81,532.29 l 392.52,-234.02 c 0,0 -143.01,-324.27 -260.93,-449.01 -199.01,-210.49 -380.14,-19.19 -270.4,150.74"
         style="fill:#ff4e00;fill-opacity:1;fill-rule:nonzero;stroke:none"
         id="path174" /><path
         d="m 7361.95,7748.1 c -33.29,0 -61.51,10.91 -82.24,27.18 -53.8,42.22 -77.56,132.52 -18.87,223.4 1.5,2.32 4.6,2.99 6.91,1.48 2.32,-1.49 2.98,-4.59 1.49,-6.91 -55.44,-85.85 -33.59,-170.68 16.64,-210.1 48.72,-38.24 142.36,-44.02 245.92,65.51 115.98,122.67 214.1,340.58 215.08,342.77 1.12,2.52 4.06,3.65 6.6,2.52 2.52,-1.13 3.66,-4.08 2.53,-6.6 -0.99,-2.21 -99.79,-221.64 -216.94,-345.56 -65.07,-68.83 -126.88,-93.69 -177.12,-93.69"
         style="fill:#000000;fill-opacity:1;fill-rule:nonzero;stroke:none"
         id="path176" /><path
         d="m 6855.06,7604.18 c -2.75,0 -4.98,2.22 -5,4.97 -0.01,2.76 2.21,5.02 4.97,5.03 2.18,0.01 219.17,1.96 332.47,57.79 137.29,67.65 205.08,193.19 205.74,194.45 1.3,2.44 4.33,3.37 6.77,2.08 2.44,-1.3 3.37,-4.33 2.07,-6.76 -0.68,-1.29 -70,-129.68 -210.16,-198.74 -115.37,-56.85 -327.84,-58.76 -336.83,-58.82 -0.01,0 -0.02,0 -0.03,0"
         style="fill:#000000;fill-opacity:1;fill-rule:nonzero;stroke:none"
         id="path178" /><path
         d="m 8299.03,8464.31 c -60.12,58.28 -166.39,-3.59 -315.45,-6.66 -67.51,-1.38 -168.89,-11.58 -243.89,-36.76 21.28,-86.69 42.76,-168.05 116.64,-220.35 75.75,-53.62 187.32,-59.93 257.84,-36.7 241.81,79.69 256.42,231.1 184.86,300.47"
         style="fill:#000000;fill-opacity:1;fill-rule:nonzero;stroke:none"
         id="path180" /><path
         d="m 7814.69,8356.8 c -20.55,4.83 -45.32,18.28 -63.25,18.23 11.97,-43.43 11.09,-81.01 57.04,-112.03 81.53,-55.03 215.58,-60.25 248.92,29.2 30.2,81.03 -124.69,36.83 -242.71,64.6"
         style="fill:#f8f8f5;fill-opacity:1;fill-rule:nonzero;stroke:none"
         id="path182" /><path
         d="m 4205.85,1747.28 c 0,0 -34.29,-72.77 -21.47,-220.89 8.07,-93.11 230.78,51 230.78,51 0,0 7.59,-115.91 -78.15,-157.87 -151.56,-74.18 -509.63,-46.38 -685.28,12.89 -39.85,13.45 -35.72,99.81 -35.72,99.81 0,0 176.02,-57.17 211.7,-21.09 32.25,32.6 29.87,212.75 29.87,212.75 l 75.71,18.04 c 0,0 0.38,-149.04 18,-221.15 8.69,-35.52 131.11,-44.28 137.01,-8.19 15.69,95.96 14.26,232.67 14.26,232.67 l 103.29,2.03"
         style="fill:#5ac3f2;fill-opacity:1;fill-rule:nonzero;stroke:none"
         id="path184" /><path
         d="m 2019.46,3761.28 c 941.13,365.98 1202.89,1117.78 1202.89,1117.78 l -473.25,236.1 c 0,0 -129.27,-414.16 -1007.12,-1171.67 -45.48,-39.24 40.47,-274.38 277.48,-182.21"
         style="fill:#2daef7;fill-opacity:1;fill-rule:nonzero;stroke:none"
         id="path186" /><path
         d="m 4019.57,2185.87 c 35.8,-28.42 65.02,-134.06 113.53,-163.91 85.97,-52.91 196.53,-2.13 305.13,-86.35 54.49,-42.26 65.58,-189.53 -27.19,-238.18 -167.9,-88.04 -545.17,-28.51 -661.93,67.81 -92.4,76.23 -77.64,368.82 4.28,431.52 63.54,48.62 203.51,38.85 266.18,-10.89"
         style="fill:#ff4e00;fill-opacity:1;fill-rule:nonzero;stroke:none"
         id="path188" /><path
         d="m 4182.32,1649.6 c -167.75,0 -356.61,45.97 -436.39,111.78 -42.67,35.21 -67.03,117.56 -65.15,220.29 1.87,102.16 29.18,188.14 69.58,219.06 2.18,1.68 5.33,1.25 7,-0.94 1.68,-2.19 1.26,-5.33 -0.93,-7 -37.48,-28.69 -63.86,-113.6 -65.65,-211.3 -1.8,-98.23 21.77,-179.61 61.51,-212.39 120.4,-99.33 493.46,-152.7 656.42,-67.24 2.45,1.28 5.47,0.33 6.75,-2.11 1.29,-2.45 0.34,-5.47 -2.1,-6.75 -57.72,-30.26 -141.37,-43.4 -231.04,-43.4"
         style="fill:#000000;fill-opacity:1;fill-rule:nonzero;stroke:none"
         id="path190" /><path
         d="m 2288.91,3315.45 c -286.63,-63.31 -449.81,77.93 -506.79,-12.81 -58,-92.35 101.62,-237.66 310.18,-351.4 157.5,-85.9 352.75,-72.81 352.75,-72.81 0,0 -57.55,458.79 -156.14,437.02"
         style="fill:#000000;fill-opacity:1;fill-rule:nonzero;stroke:none"
         id="path192" /><path
         d="m 2292.16,2625.44 c 436.93,-428.97 1574.01,-800.48 2189.45,-263.4 754.35,658.31 -4.15,3092.36 -536.02,3624.45 -312.15,312.27 -781.12,262.63 -893.97,-167.91 C 2829.41,4970.83 1656.9,3249.14 2292.16,2625.44"
         style="fill:#000000;fill-opacity:1;fill-rule:nonzero;stroke:none"
         id="path194" /><path
         d="m 2930.73,2675.14 c 351.98,-329.83 1264.56,-329.83 1524.43,101.79 371.04,616.3 -104.58,2018.45 -361.45,2833.75 -146.84,466.1 -654.84,393.87 -786.37,72.73 -238.02,-581.15 -868.55,-2547.26 -376.61,-3008.27"
         style="fill:#ffffff;fill-opacity:1;fill-rule:nonzero;stroke:none"
         id="path196" /><path
         d="m 3657.58,2424.02 c -295.07,0 -572.24,92.61 -738.03,253.29 -233.96,226.75 -187.05,840.14 -106.5,1314.78 0.47,2.73 3.04,4.58 5.77,4.1 2.72,-0.46 4.55,-3.05 4.1,-5.77 -80.16,-472.27 -127.25,-1082.2 103.59,-1305.93 197.56,-191.48 555.58,-285.19 912.15,-238.73 286.46,37.32 511.64,159.85 617.79,336.15 1.42,2.37 4.49,3.13 6.86,1.71 2.36,-1.43 3.13,-4.5 1.7,-6.86 -107.72,-178.94 -335.55,-303.2 -625.06,-340.92 -60.99,-7.95 -122.07,-11.82 -182.37,-11.82"
         style="fill:#000000;fill-opacity:1;fill-rule:nonzero;stroke:none"
         id="path198" /><path
         d="m 4040.75,5424.92 c 94.66,-32.73 291.6,-83.68 271.12,-144.45 -53.01,-157.3 -614.92,-150.81 -679.09,-36.21 -41.55,74.2 45.62,251.15 128.04,295.14 97.94,52.28 132.26,-63.41 279.93,-114.48"
         style="fill:#ffb82c;fill-opacity:1;fill-rule:nonzero;stroke:none"
         id="path200" /><path
         d="m 3557.2,5463.43 c -18.82,0 -37.99,3.56 -55.81,10.92 -5.11,2.1 -7.54,7.95 -5.43,13.05 2.11,5.1 7.96,7.54 13.06,5.43 45.07,-18.59 93.07,-7.16 117.21,13.73 11.04,9.56 22.99,25.7 17.26,48.35 -1.36,5.36 1.89,10.8 7.24,12.15 5.31,1.36 10.79,-1.88 12.15,-7.24 6.32,-25.02 -2.26,-49.94 -23.56,-68.38 -21.2,-18.35 -51.16,-28.01 -82.12,-28.01"
         style="fill:#000000;fill-opacity:1;fill-rule:nonzero;stroke:none"
         id="path202" /><path
         d="m 3927.68,5181.98 c -40.6,0 -81.62,15.67 -104.04,50.88 -1.49,2.33 -0.8,5.42 1.53,6.91 2.32,1.48 5.42,0.79 6.91,-1.54 30.66,-48.15 99.97,-56.14 149.28,-36.03 2.55,1.05 5.47,-0.18 6.52,-2.74 1.04,-2.56 -0.19,-5.48 -2.74,-6.52 -17.53,-7.15 -37.45,-10.96 -57.46,-10.96"
         style="fill:#000000;fill-opacity:1;fill-rule:nonzero;stroke:none"
         id="path204" /><path
         d="m 3942.52,5541.29 c -26.52,0 -57.06,14.63 -73.14,44.85 -2.6,4.87 -0.75,10.93 4.13,13.52 4.87,2.6 10.92,0.75 13.52,-4.13 15.14,-28.42 46.41,-38.88 67.9,-32.57 7.39,2.17 19.59,8.34 18.2,25.26 -0.45,5.5 3.65,10.33 9.15,10.78 5.54,0.49 10.33,-3.64 10.79,-9.14 1.8,-22.01 -10.65,-39.67 -32.51,-46.09 -5.62,-1.65 -11.71,-2.48 -18.04,-2.48"
         style="fill:#000000;fill-opacity:1;fill-rule:nonzero;stroke:none"
         id="path206" /><path
         d="m 3846.47,5724.28 c -12.54,48.05 166.71,9.39 169.08,-16.33 3.53,-38.32 -163.77,-4 -169.08,16.33"
         style="fill:#000000;fill-opacity:1;fill-rule:nonzero;stroke:none"
         id="path208" /><path
         d="m 3596.79,5676.66 c -7.99,49.43 -176.12,-46.13 -157.08,-72.31 25.31,-34.82 160.46,51.39 157.08,72.31"
         style="fill:#000000;fill-opacity:1;fill-rule:nonzero;stroke:none"
         id="path210" /><path
         d="m 4242.42,5284.51 c -6.66,20.61 -34.54,-15.45 -34.76,-26.56 -0.28,-13.93 37.58,17.84 34.76,26.56"
         style="fill:#000000;fill-opacity:1;fill-rule:nonzero;stroke:none"
         id="path212" /><path
         d="m 2865.84,5043.04 c -520.57,45.14 -696.32,311.96 -751.97,259.55 -47.88,-45.11 -65.71,-304.63 125.69,-496.7 183.4,-184.04 510.37,-326.83 510.37,-326.83 0,0 250.8,552.28 115.91,563.98"
         style="fill:#000000;fill-opacity:1;fill-rule:nonzero;stroke:none"
         id="path214" /><path
         d="m 2105.75,5324.35 c 18.6,11.27 30.54,3.58 60.73,-32.71 17.3,-20.81 16.74,-267.53 -70.83,-234.45 -47.13,17.82 -52.94,228.97 10.1,267.16"
         style="fill:#ff4e00;fill-opacity:1;fill-rule:nonzero;stroke:none"
         id="path216" /><path
         d="m 4481.4,4961.08 c 0,0 836.79,-925.62 849.3,-1027.41 11.03,-89.73 -512.46,-19.79 -657.64,138.83 -134.2,146.62 -190.24,570.23 -190.24,570.23 l -1.42,318.35"
         style="fill:#000000;fill-opacity:1;fill-rule:nonzero;stroke:none"
         id="path218" /><path
         d="m 3358.27,5349.63 c -7.21,-22.78 23.03,-52.67 67.54,-66.77 44.51,-14.09 86.44,-7.04 93.65,15.74 7.21,22.78 -23.02,52.67 -67.53,66.77 -44.51,14.09 -86.45,7.04 -93.66,-15.74"
         style="fill:#ff6ea9;fill-opacity:1;fill-rule:nonzero;stroke:none"
         id="path220" /><path
         d="m 2138.72,4901.15 c 18.19,-2.87 35.26,9.56 38.13,27.75 l 83.8,531.99 -65.87,10.37 -83.81,-531.98 c -2.86,-18.19 9.56,-35.26 27.75,-38.13"
         style="fill:#ffab40;fill-opacity:1;fill-rule:nonzero;stroke:none"
         id="path222" /><path
         d="m 2016.26,5450.95 416.75,-65.65 86.29,547.76 c 18.12,115.08 -60.47,223.07 -175.55,241.2 -115.08,18.13 -223.07,-60.47 -241.2,-175.55 l -86.29,-547.76"
         style="fill:#2f5ef4;fill-opacity:1;fill-rule:nonzero;stroke:none"
         id="path224" /><path
         d="m 2060.86,5235.7 c -7.16,-37.61 2.69,-97.07 50.73,-97.07 48.03,0 141.07,53.49 152.66,89.98 17.59,55.37 -85.69,125.08 -133.72,125.08 0,0 -52.85,-29.72 -69.67,-117.99"
         style="fill:#ff4e00;fill-opacity:1;fill-rule:nonzero;stroke:none"
         id="path226" /><path
         d="m 2476.32,5939.69 c -0.23,0 -0.46,0.02 -0.69,0.05 l -260.05,35.93 c -2.73,0.38 -4.65,2.9 -4.27,5.64 0.37,2.73 2.9,4.66 5.64,4.27 L 2477,5949.65 c 2.73,-0.38 4.65,-2.91 4.26,-5.64 -0.34,-2.51 -2.48,-4.32 -4.94,-4.32"
         style="fill:#ffffff;fill-opacity:1;fill-rule:nonzero;stroke:none"
         id="path228" /><path
         d="m 2406.92,5516.43 c -0.23,0 -0.46,0.02 -0.69,0.05 l -260.05,35.93 c -2.73,0.38 -4.65,2.9 -4.27,5.64 0.38,2.73 2.88,4.65 5.64,4.27 l 260.05,-35.93 c 2.73,-0.38 4.65,-2.91 4.27,-5.64 -0.35,-2.51 -2.49,-4.32 -4.95,-4.32"
         style="fill:#ffffff;fill-opacity:1;fill-rule:nonzero;stroke:none"
         id="path230" /><path
         d="m 2388.08,5702.94 c -3.01,0 -6.09,0.19 -9.25,0.59 -19.04,2.44 -27.87,13.85 -36.41,24.88 -7.44,9.61 -14.47,18.69 -28.5,22.84 -14.33,4.23 -23.26,-1.99 -34.54,-9.87 -12.95,-9.05 -27.65,-19.29 -52.72,-13.75 -35.83,7.92 -66.93,51.52 -68.24,53.37 -1.59,2.25 -1.05,5.37 1.2,6.97 2.26,1.59 5.38,1.05 6.97,-1.2 0.3,-0.42 30.2,-42.29 62.23,-49.37 20.78,-4.6 32.47,3.55 44.84,12.18 11.86,8.29 24.13,16.87 43.09,11.25 17.13,-5.05 25.87,-16.34 33.58,-26.3 7.96,-10.28 14.83,-19.16 29.77,-21.08 36.63,-4.69 63.61,25.15 63.88,25.45 1.84,2.06 5,2.24 7.06,0.41 2.06,-1.84 2.25,-5 0.41,-7.06 -1.15,-1.29 -26.55,-29.31 -63.37,-29.31"
         style="fill:#ffffff;fill-opacity:1;fill-rule:nonzero;stroke:none"
         id="path232" /><path
         d="m 3709.7,2093 c -8.99,0 -18.01,0.07 -27.09,0.2 -509.96,7.58 -1109.28,238.04 -1394.06,536.07 -189.95,198.79 -232.4,574.23 -113.55,1004.3 0.73,2.67 3.49,4.21 6.15,3.49 2.66,-0.73 4.22,-3.49 3.48,-6.15 -117.9,-426.65 -76.34,-798.51 111.15,-994.73 283.14,-296.31 879.41,-525.44 1386.98,-532.98 341.02,-5.15 616.13,85.67 795.34,262.4 1.95,1.94 5.13,1.91 7.07,-0.05 1.93,-1.97 1.91,-5.13 -0.05,-7.07 C 4308.75,2184.55 4041.03,2093.01 3709.7,2093"
         style="fill:#000000;fill-opacity:1;fill-rule:nonzero;stroke:none"
         id="path234" /><path
         d="m 2493.03,2025.15 c 0,0 -71.75,-14.1 -167.74,-136.07 -37.02,-47.03 133.28,-159.01 133.28,-159.01 0,0 -78.61,-36.15 -140.41,-11.6 -156.81,62.3 -407.64,375.83 -416.5,544.34 -2.21,41.99 55.88,90.09 55.88,90.09 0,0 64.83,-173.35 115.28,-178.82 45.58,-4.94 185.09,109.06 185.09,109.06 l 61.25,-48.02 c 0,0 -116.41,-93.07 -161.87,-151.75 -22.39,-28.91 46.96,-130.17 78.88,-112.32 84.87,47.45 190.96,133.67 190.96,133.67 l 65.9,-79.57"
         style="fill:#5ac3f2;fill-opacity:1;fill-rule:nonzero;stroke:none"
         id="path236" /><path
         d="m 2651.75,2474.49 c 0.05,-45.71 -72.34,-167.45 -65.5,-223.99 12.11,-100.23 120.67,-155.15 122.37,-292.56 0.84,-68.95 -107.51,-169.3 -203.34,-126.98 -173.41,76.59 -361.68,408.9 -358.98,560.24 2.14,119.77 240.32,290.36 340.37,265.27 77.61,-19.46 165,-101.97 165.08,-181.98"
         style="fill:#ff4e00;fill-opacity:1;fill-rule:nonzero;stroke:none"
         id="path238" /><path
         d="m 4044.97,1959.62 c -1.14,0 -2.27,0.39 -3.2,1.16 -1.74,1.44 -2.29,3.86 -1.35,5.92 l 54.4,119.32 -152.45,8.22 c -2.76,0.15 -4.87,2.51 -4.73,5.26 0.15,2.76 2.51,4.89 5.27,4.73 l 159.78,-8.62 c 1.65,-0.09 3.14,-0.99 4,-2.4 0.86,-1.42 0.96,-3.16 0.28,-4.67 l -50.49,-110.72 c 29.23,17.22 97.44,50.82 156.4,30.51 2.61,-0.9 4,-3.74 3.1,-6.35 -0.9,-2.62 -3.76,-4 -6.35,-3.1 -71.1,24.46 -160.89,-37.72 -161.79,-38.35 -0.87,-0.61 -1.87,-0.91 -2.87,-0.91"
         style="fill:#000000;fill-opacity:1;fill-rule:nonzero;stroke:none"
         id="path240" /><path
         d="m 4123.54,1898.1 c -2.09,0 -4.05,1.33 -4.74,3.43 -16.88,51.13 8.64,118.41 19.22,142.69 l -146.86,-30.29 c -1.86,-0.38 -3.8,0.33 -4.97,1.84 -1.17,1.51 -1.37,3.55 -0.53,5.27 l 52.39,106.59 c 1.21,2.48 4.19,3.51 6.69,2.28 2.48,-1.22 3.5,-4.21 2.28,-6.69 l -47.88,-97.43 146.54,30.22 c 1.87,0.38 3.8,-0.33 4.97,-1.84 1.17,-1.52 1.37,-3.57 0.52,-5.28 -0.42,-0.85 -42.09,-85.99 -22.88,-144.22 0.87,-2.62 -0.56,-5.45 -3.18,-6.32 -0.52,-0.17 -1.05,-0.25 -1.57,-0.25"
         style="fill:#000000;fill-opacity:1;fill-rule:nonzero;stroke:none"
         id="path242" /><path
         d="m 2528.31,1971.57 c -16.27,-38.07 35.31,-57.44 67.78,-71.31 32.46,-13.87 50.88,-40.46 73.44,-6.02 43.76,66.81 14,127.79 -18.47,141.66 -32.46,13.87 -106.48,-26.26 -122.75,-64.33"
         style="fill:#ffffff;fill-opacity:1;fill-rule:nonzero;stroke:none"
         id="path244" /><path
         d="m 2427.45,2669.82 c -30.78,-23.41 86.14,-81.57 133.7,-123.11 47.57,-41.53 75.14,-113.75 97.72,-107.5 43.8,12.12 -20,122.37 -61.6,169.88 -48.89,55.81 -139.44,83.85 -169.82,60.73"
         style="fill:#eceff1;fill-opacity:1;fill-rule:nonzero;stroke:none"
         id="path246" /><path
         d="m 2608.35,2205.81 c -2.55,0 -4.73,1.94 -4.97,4.54 -6.92,74.89 -91.98,131.27 -92.84,131.83 -1.85,1.21 -2.69,3.5 -2.05,5.63 0.63,2.12 2.23,3.28 4.81,3.56 l 130.06,-0.54 -65.25,121.29 c -1.31,2.43 -0.4,5.47 2.04,6.77 2.43,1.31 5.46,0.4 6.77,-2.03 l 69.24,-128.7 c 0.83,-1.55 0.79,-3.43 -0.12,-4.94 -0.9,-1.51 -2.53,-2.43 -4.29,-2.43 -0.02,0 -122.96,0.51 -122.96,0.51 25.16,-19.48 78.81,-67.9 84.55,-130.04 0.25,-2.74 -1.77,-5.18 -4.52,-5.43 -0.16,-0.02 -0.31,-0.02 -0.47,-0.02"
         style="fill:#000000;fill-opacity:1;fill-rule:nonzero;stroke:none"
         id="path248" /><path
         d="m 2489.5,2244.45 c -1.36,0 -2.7,0.55 -3.69,1.62 -1.86,2.04 -1.73,5.2 0.31,7.07 39.66,36.39 111.48,40.79 137.97,41.12 l -87.98,121.43 c -1.12,1.55 -1.26,3.6 -0.36,5.28 0.89,1.69 2.59,2.75 4.58,2.66 l 118.7,-3.94 c 2.76,-0.09 4.93,-2.4 4.83,-5.16 -0.09,-2.77 -2.38,-5.02 -5.16,-4.84 l -108.5,3.6 87.79,-121.16 c 1.12,-1.55 1.26,-3.6 0.36,-5.29 -0.9,-1.69 -2.69,-2.76 -4.6,-2.64 -0.93,0.03 -95.7,3.02 -140.87,-38.43 -0.96,-0.88 -2.17,-1.32 -3.38,-1.32"
         style="fill:#000000;fill-opacity:1;fill-rule:nonzero;stroke:none"
         id="path250" /><path
         d="m 3983.25,6126.44 c 0,0 -224.25,394.74 -442.42,512.19 -50.62,27.25 -182.92,31.27 -205.24,6.18 -275.07,-309.07 -303.26,-756.35 -303.26,-756.35 l 950.92,237.98"
         style="fill:#2f5ef4;fill-opacity:1;fill-rule:nonzero;stroke:none"
         id="path252" /><path
         d="m 4104.32,5910.6 c -15.17,-166.88 -915.9,-249.2 -1095.69,-174.82 -91.76,37.97 -47.67,437.8 60.14,424.68 48.55,-5.9 98.65,-9.59 149.22,-11.1 204.24,-6.08 416.1,23.44 563.67,86.27 36.47,15.52 69.01,33.09 96.54,52.65 105.86,75.21 237.37,-253.94 226.12,-377.68"
         style="fill:#2daef7;fill-opacity:1;fill-rule:nonzero;stroke:none"
         id="path254" /><path
         d="m 3271.33,6147.85 c -25.69,0 -51.46,0.56 -77.27,1.68 -2.76,0.12 -4.9,2.45 -4.78,5.21 0.12,2.76 2.36,4.87 5.22,4.78 218.52,-9.52 437.07,22.09 584.49,84.59 2.54,1.07 5.47,-0.1 6.56,-2.65 1.08,-2.54 -0.12,-5.48 -2.65,-6.56 -131.28,-55.65 -318.23,-87.05 -511.57,-87.05"
         style="fill:#000000;fill-opacity:1;fill-rule:nonzero;stroke:none"
         id="path256" /><path
         d="M 5198.88,4163.88 5044.35,3894.1 c 0,0 324.51,-184.54 389.41,-80.39 34.74,55.74 -102.89,213.77 -102.89,213.77 0,0 92.42,-76.85 107.88,-18.13 12.79,48.61 -239.87,154.53 -239.87,154.53"
         style="fill:#ff4e00;fill-opacity:1;fill-rule:nonzero;stroke:none"
         id="path258" /><path
         d="m 2087.25,5296.93 c 0,-18.24 57.09,15.69 82.66,26.27 37.91,15.68 50.01,21.83 50.01,40.07 0,18.23 -27.22,23.37 -50.11,14.78 -35.14,-13.2 -82.56,-62.89 -82.56,-81.12"
         style="fill:#ff4e00;fill-opacity:1;fill-rule:nonzero;stroke:none"
         id="path260" /><path
         d="m 4436.68,3678.36 c 159.24,718.58 -59.44,1245.73 -59.44,1245.73 l -493.8,-114.96 c 0,0 284.04,-337.8 245.43,-1157.68 -2,-42.48 296.99,-21.91 307.81,26.91"
         style="fill:#2daef7;fill-opacity:1;fill-rule:nonzero;stroke:none"
         id="path262" /><path
         d="m 4306.86,3338.84 c -0.89,0 -1.8,0.12 -2.69,0.37 -5.32,1.48 -8.43,7 -6.95,12.32 0.54,1.93 53.87,195.19 45.79,329.14 -0.33,5.51 3.87,10.25 9.38,10.58 5.39,0.34 10.25,-3.86 10.58,-9.38 8.28,-137.32 -44.24,-327.68 -46.49,-335.72 -1.23,-4.42 -5.25,-7.31 -9.62,-7.31"
         style="fill:#ffab40;fill-opacity:1;fill-rule:nonzero;stroke:none"
         id="path264" /><path
         d="m 4393.21,3388.53 c -1.01,0 -2.04,0.15 -3.05,0.48 -5.26,1.68 -8.16,7.31 -6.47,12.57 0.52,1.64 52,165.19 16.82,293.28 -1.46,5.33 1.67,10.83 7,12.29 5.32,1.47 10.82,-1.67 12.29,-6.99 36.77,-133.91 -14.85,-297.77 -17.07,-304.69 -1.36,-4.24 -5.29,-6.94 -9.52,-6.94"
         style="fill:#ffab40;fill-opacity:1;fill-rule:nonzero;stroke:none"
         id="path266" /><path
         d="m 4227.49,3366.94 c -0.52,0 -1.04,0.04 -1.57,0.12 -5.45,0.86 -9.18,5.97 -8.33,11.43 0.28,1.77 27.53,178.01 15.42,301.81 -0.53,5.49 3.48,10.38 8.98,10.92 5.48,0.53 10.39,-3.48 10.93,-8.98 12.35,-126.34 -15.29,-305.05 -15.57,-306.84 -0.77,-4.94 -5.03,-8.46 -9.86,-8.46"
         style="fill:#ffab40;fill-opacity:1;fill-rule:nonzero;stroke:none"
         id="path268" /><path
         d="m 4116.37,3348.31 c -5.25,0 -9.65,4.09 -9.97,9.39 -0.1,1.59 -9.04,160.32 35.81,330.15 1.4,5.34 6.87,8.54 12.22,7.12 5.34,-1.41 8.52,-6.88 7.11,-12.22 -44.04,-166.77 -35.27,-322.29 -35.18,-323.84 0.33,-5.51 -3.86,-10.25 -9.38,-10.59 -0.2,-0.01 -0.4,-0.01 -0.61,-0.01"
         style="fill:#ffab40;fill-opacity:1;fill-rule:nonzero;stroke:none"
         id="path270" /><path
         d="m 3561.72,7070.28 c -37.81,22.62 -98.61,-37.93 -98.61,-37.93 0,0 -28.58,58.7 -72.53,58.07 -39.22,-0.56 -66.43,-67.31 -66.43,-67.31 0,0 -172.07,14.3 -184.86,-29.22 -10.73,-36.52 61.54,-113.53 61.54,-113.53 0,0 -117.66,1.04 -127.78,-62.18 -8.79,-54.93 114.91,-133.99 114.91,-133.99 0,0 -63.08,-132.77 -22.51,-152.58 56.05,-27.38 204.77,33.55 204.77,33.55 0,0 -15.01,-96.47 40.74,-113.28 63.71,-19.21 135.59,125.12 135.59,125.12 0,0 168.69,-35.18 184.9,25.48 14.87,55.63 -63.52,123.9 -63.52,123.9 0,0 89.08,-13.12 101.72,42.99 9.27,41.15 -97.77,99.25 -97.77,99.25 0,0 59.63,46.51 48.1,89.75 -10.12,37.93 -117.63,29.58 -117.63,29.58 0,0 -23.17,71.9 -40.63,82.33"
         style="fill:#fe980d;fill-opacity:1;fill-rule:nonzero;stroke:none"
         id="path272" /><path
         d="m 4280.38,3760.43 c -79.59,0 -137.25,20.67 -138.13,21 -2.6,0.95 -3.92,3.82 -2.97,6.41 0.95,2.59 3.82,3.92 6.41,2.98 1.33,-0.5 135.05,-48.32 275.43,4.13 2.59,0.97 5.47,-0.35 6.43,-2.94 0.97,-2.58 -0.34,-5.46 -2.93,-6.43 -50.83,-18.99 -100.81,-25.15 -144.24,-25.15"
         style="fill:#f4f7fa;fill-opacity:1;fill-rule:nonzero;stroke:none"
         id="path274" /><path
         d="m 4301.88,3936.61 c -95.81,0 -165.21,20.59 -166.27,20.91 -2.65,0.8 -4.14,3.6 -3.33,6.24 0.8,2.64 3.56,4.13 6.24,3.33 1.61,-0.49 163.78,-48.51 334.13,4.14 2.63,0.81 5.44,-0.67 6.25,-3.3 0.82,-2.64 -0.66,-5.44 -3.3,-6.26 -61.22,-18.92 -121.41,-25.06 -173.72,-25.06"
         style="fill:#f4f7fa;fill-opacity:1;fill-rule:nonzero;stroke:none"
         id="path276" /><path
         d="m 3640.85,5844.8 c -51.66,0 -109.86,55.35 -166.33,109.04 -58.88,55.98 -119.82,113.88 -169.41,105.85 -83.47,-13.46 -201.33,-180.85 -202.51,-182.54 -1.58,-2.26 -4.69,-2.81 -6.97,-1.24 -2.26,1.59 -2.81,4.7 -1.23,6.97 4.92,7.03 121.48,172.54 209.12,186.69 54.5,8.77 117.25,-50.82 177.89,-108.49 60.16,-57.2 122.39,-116.35 172.42,-104.83 49.79,11.47 72.4,85.15 94.26,156.41 19.98,65.14 38.86,126.67 78.75,134.93 87.32,18.06 214.59,-132 219.96,-138.4 1.78,-2.11 1.51,-5.27 -0.61,-7.04 -2.12,-1.78 -5.27,-1.51 -7.04,0.61 -1.29,1.52 -128.81,151.88 -210.28,135.03 -34.1,-7.06 -52.13,-65.83 -71.22,-128.06 -22.7,-73.97 -46.17,-150.46 -101.58,-163.23 -5,-1.15 -10.08,-1.7 -15.22,-1.7"
         style="fill:#ffffff;fill-opacity:1;fill-rule:nonzero;stroke:none"
         id="path278" /><path
         d="m 3462.18,6579.09 c -17.82,0 -34.41,26.09 -51.95,53.68 -12.59,19.81 -26.87,42.26 -37.53,45.62 -11.08,3.45 -34.7,-17.24 -53.67,-33.89 -25.44,-22.32 -49.47,-43.41 -65.04,-32.9 -39.7,26.76 12.87,125.54 15.13,129.73 1.3,2.43 4.34,3.34 6.77,2.03 2.43,-1.3 3.34,-4.34 2.03,-6.77 -14.17,-26.34 -45.1,-98.66 -18.34,-116.7 9.15,-6.2 33.39,15.06 52.85,32.13 24.07,21.12 46.77,41.11 63.27,35.9 14.14,-4.45 28.14,-26.47 42.97,-49.79 14.12,-22.21 31.51,-49.83 44.06,-49.02 29.85,2.02 39.04,79.98 40.06,109.85 0.09,2.75 2.39,4.79 5.17,4.82 2.76,-0.09 4.92,-2.41 4.82,-5.16 -0.4,-11.92 -5.22,-116.5 -49.38,-119.48 -0.41,-0.03 -0.82,-0.05 -1.22,-0.05"
         style="fill:#000000;fill-opacity:1;fill-rule:nonzero;stroke:none"
         id="path280" /><path
         d="m 3577.75,6048.21 c 3.26,-20.23 19.82,-34.44 36.95,-31.7 8.16,1.31 15.28,6.28 20.03,13.98 4.9,7.94 6.73,17.78 5.12,27.71 -3.25,20.24 -19.83,34.46 -36.95,31.7 -8.16,-1.31 -15.27,-6.28 -20.03,-13.98 -4.9,-7.93 -6.72,-17.78 -5.12,-27.71 z m 32.71,-42.04 c -20.36,0 -38.81,16.99 -42.58,40.45 -1.99,12.31 0.32,24.58 6.48,34.56 6.31,10.21 15.88,16.81 26.95,18.59 22.52,3.65 44.28,-14.29 48.42,-39.98 1.98,-12.3 -0.33,-24.58 -6.49,-34.56 -6.31,-10.21 -15.88,-16.81 -26.95,-18.59 -1.95,-0.32 -3.9,-0.47 -5.83,-0.47"
         style="fill:#ffffff;fill-opacity:1;fill-rule:nonzero;stroke:none"
         id="path282" /><path
         d="m 3902.9,5904.98 c 2.47,-15.34 16.97,-25.79 32.3,-23.34 7.43,1.19 13.95,5.21 18.36,11.31 4.41,6.1 6.18,13.55 4.98,20.99 -1.19,7.43 -5.21,13.95 -11.31,18.36 -6.09,4.41 -13.55,6.18 -20.98,4.98 -7.44,-1.2 -13.96,-5.21 -18.36,-11.31 -4.41,-6.1 -6.19,-13.56 -4.99,-20.99 z m 27.8,-33.71 c -18.4,0 -34.66,13.38 -37.67,32.12 -1.62,10.07 0.77,20.17 6.75,28.43 5.97,8.27 14.81,13.71 24.88,15.33 10.08,1.61 20.16,-0.77 28.43,-6.75 8.26,-5.97 13.71,-14.81 15.33,-24.88 3.34,-20.78 -10.85,-40.42 -31.63,-43.76 -2.04,-0.33 -4.08,-0.49 -6.09,-0.49"
         style="fill:#ffffff;fill-opacity:1;fill-rule:nonzero;stroke:none"
         id="path284" /><path
         d="m 3265.16,5844.78 c -15.42,0 -27.97,-12.55 -27.97,-27.98 0,-15.42 12.55,-27.97 27.97,-27.97 15.43,0 27.97,12.55 27.97,27.97 0,15.43 -12.54,27.98 -27.97,27.98 z m 0,-65.95 c -20.94,0 -37.97,17.03 -37.97,37.97 0,20.94 17.03,37.98 37.97,37.98 20.94,0 37.97,-17.04 37.97,-37.98 0,-20.94 -17.03,-37.97 -37.97,-37.97"
         style="fill:#ffffff;fill-opacity:1;fill-rule:nonzero;stroke:none"
         id="path286" /><path
         d="m 3016.72,6007.48 c -2.71,-17.19 5.61,-32.83 18.54,-34.87 6.07,-0.95 12.29,1.24 17.57,6.14 5.62,5.22 9.46,12.8 10.8,21.34 1.35,8.54 0.03,16.93 -3.71,23.62 -3.53,6.3 -8.8,10.29 -14.83,11.24 -12.99,2.03 -25.67,-10.29 -28.38,-27.47 z m 21.39,-45.09 c -1.46,0 -2.93,0.11 -4.4,0.34 -18.38,2.9 -30.43,23.67 -26.87,46.3 3.57,22.64 21.39,38.7 39.8,35.8 9.14,-1.44 16.95,-7.2 22,-16.24 4.84,-8.64 6.57,-19.31 4.87,-30.06 -1.69,-10.75 -6.62,-20.37 -13.88,-27.11 -6.36,-5.91 -13.87,-9.03 -21.52,-9.03"
         style="fill:#ffffff;fill-opacity:1;fill-rule:nonzero;stroke:none"
         id="path288" /><path
         d="m 3992.76,6170.1 c -2.44,0 -4.83,-0.53 -7.05,-1.66 -4.36,-2.2 -7.44,-6.4 -8.68,-11.83 -1.32,-5.77 -0.42,-12.16 2.54,-17.99 2.94,-5.84 7.56,-10.36 12.99,-12.71 5.1,-2.22 10.31,-2.23 14.67,-0.02 9.32,4.71 12.08,18.09 6.15,29.83 -4.52,8.94 -12.8,14.38 -20.62,14.38 z m 7.45,-55.88 c -3.84,0 -7.78,0.84 -11.64,2.52 -7.56,3.28 -13.93,9.45 -17.93,17.36 -4,7.92 -5.2,16.7 -3.36,24.74 1.91,8.38 6.86,14.96 13.92,18.53 14.24,7.2 32.68,-0.49 41.1,-17.14 8.42,-16.66 3.69,-36.07 -10.56,-43.27 -3.61,-1.82 -7.52,-2.74 -11.53,-2.74"
         style="fill:#ffffff;fill-opacity:1;fill-rule:nonzero;stroke:none"
         id="path290" /><path
         d="m 4435.4,5235.55 c -76.66,55.21 -279.71,-291.72 -650.54,-289.33 -536.35,3.46 -768.19,435.73 -987.41,377.89 -67.3,-17.75 -173.94,-220.33 -113.22,-254.35 194.03,-108.68 301.3,-590.99 1027.96,-590.7 544.62,0.22 733.59,359.89 842.76,518.79 37.66,54.83 -65.57,198.83 -119.55,237.7"
         style="fill:#2daef7;fill-opacity:1;fill-rule:nonzero;stroke:none"
         id="path292" /><path
         d="m 3711.3,4474.06 c -2.76,0 -5,2.23 -5,5 0,2.76 2.24,5 5,5 433.62,0.17 644.26,228.68 779.33,427.74 1.55,2.29 4.66,2.88 6.94,1.33 2.29,-1.55 2.88,-4.66 1.33,-6.94 -136.45,-201.1 -349.28,-431.96 -787.6,-432.13"
         style="fill:#000000;fill-opacity:1;fill-rule:nonzero;stroke:none"
         id="path294" /><path
         d="m 3783.97,4941.22 c -306.91,1.98 -511.92,141.82 -676.66,254.18 -121.39,82.81 -217.29,148.2 -309.48,123.88 -2.65,-0.7 -5.41,0.89 -6.11,3.56 -0.7,2.67 0.89,5.4 3.56,6.11 96.62,25.49 194.17,-41.05 317.67,-125.29 163.61,-111.6 367.22,-250.48 671.05,-252.44 2.76,-0.02 4.99,-2.27 4.97,-5.03 -0.02,-2.75 -2.25,-4.97 -5,-4.97"
         style="fill:#000000;fill-opacity:1;fill-rule:nonzero;stroke:none"
         id="path296" /><path
         d="m 4266.33,1814.11 c 16.58,-37.94 74.75,-9.84 112.69,6.73 37.94,16.58 74.26,13.66 65.78,54.18 -16.45,78.63 -89.36,95.2 -127.3,78.63 -37.94,-16.57 -67.74,-101.59 -51.17,-139.54"
         style="fill:#ffffff;fill-opacity:1;fill-rule:nonzero;stroke:none"
         id="path298" /><path
         d="m 4673.45,8064.65 c 0,-11.1 -2.3,-21.68 -6.43,-31.29 l -49.7,32.77 48.66,31.98 c 4.74,-10.19 7.47,-21.5 7.47,-33.46 z M 4608,7986.39 v 52.01 l 43.38,-28.6 c -11.4,-11.96 -26.46,-20.35 -43.38,-23.41 z m -73.43,25.35 45.15,29.67 v -55.02 c -17.82,3.22 -33.55,12.37 -45.15,25.35 z m -20.3,52.91 c 0,11.11 2.3,21.68 6.42,31.3 l 45.19,-29.79 -46.13,-30.33 c -3.5,8.95 -5.48,18.65 -5.48,28.82 z m 65.45,78.27 v -52.01 l -43.39,28.6 c 11.41,11.95 26.46,20.35 43.39,23.41 z m 70,-21.66 -41.72,-27.42 v 49.08 c 16.1,-2.91 30.54,-10.62 41.72,-21.66 z m 153.37,2.55 c 0.96,-0.19 1.93,-0.29 2.88,-0.29 6.56,0 12.45,4.6 13.83,11.28 1.58,7.65 -3.34,15.13 -10.99,16.71 l -46.86,9.69 35.17,23.11 c 6.53,4.29 8.34,13.06 4.05,19.59 -4.29,6.52 -13.06,8.33 -19.58,4.04 l -35.17,-23.11 9.69,46.86 c 1.58,7.65 -3.34,15.13 -10.98,16.71 -7.67,1.59 -15.13,-3.34 -16.71,-10.99 l -15.42,-74.55 -39.35,-25.87 c -16.75,18.46 -39.74,31.08 -65.65,34.5 v 45.04 l 53.83,53.83 c 5.52,5.52 5.52,14.47 0,19.99 -5.52,5.52 -14.48,5.52 -19.99,0 L 4608,8256.52 v 42.08 c 0,7.81 -6.33,14.14 -14.14,14.14 -7.82,0 -14.14,-6.33 -14.14,-14.14 v -42.08 l -33.84,33.83 c -5.52,5.52 -14.47,5.52 -19.99,0 -5.52,-5.52 -5.52,-14.47 0,-19.99 l 53.83,-53.83 v -45.04 c -26.74,-3.52 -50.38,-16.83 -67.24,-36.25 l -42.15,27.78 -15.32,74.57 c -1.57,7.65 -9.05,12.57 -16.69,11.01 -7.65,-1.57 -12.58,-9.05 -11.01,-16.7 l 9.63,-46.87 -30.63,20.19 c -6.52,4.3 -15.29,2.5 -19.59,-4.02 -4.29,-6.52 -2.5,-15.29 4.02,-19.59 l 30.63,-20.19 -46.87,-9.63 c -7.65,-1.57 -12.58,-9.05 -11,-16.69 1.37,-6.69 7.26,-11.3 13.83,-11.3 0.94,0 1.9,0.09 2.86,0.29 l 74.57,15.32 42.14,-27.78 c -6.92,-14.22 -10.91,-30.12 -10.91,-46.98 0,-15.91 3.55,-30.98 9.76,-44.59 l -41.08,-27.01 -74.55,15.42 c -7.66,1.57 -15.13,-3.34 -16.72,-10.99 -1.58,-7.64 3.34,-15.12 10.99,-16.7 l 46.86,-9.69 -30.65,-20.15 c -6.53,-4.29 -8.34,-13.06 -4.05,-19.58 2.71,-4.14 7.22,-6.38 11.82,-6.38 2.67,0 5.37,0.75 7.76,2.33 l 30.65,20.15 -9.69,-46.86 c -1.58,-7.65 3.34,-15.13 10.99,-16.72 0.96,-0.19 1.92,-0.29 2.87,-0.29 6.57,0 12.45,4.6 13.84,11.28 l 15.41,74.55 40.49,26.62 c 16.95,-20.52 41.37,-34.58 69.03,-38.22 v -50.44 l -53.83,-53.83 c -5.52,-5.53 -5.52,-14.48 0,-20 2.76,-2.76 6.38,-4.14 9.99,-4.14 3.62,0 7.24,1.38 10,4.14 l 33.84,33.84 v -36.68 c 0,-7.81 6.32,-14.15 14.14,-14.15 7.81,0 14.14,6.34 14.14,14.15 v 36.68 l 33.84,-33.84 c 2.75,-2.76 6.37,-4.14 9.99,-4.14 3.62,0 7.24,1.38 10,4.14 5.52,5.52 5.52,14.47 0,20 l -53.83,53.83 v 50.44 c 26.73,3.52 50.37,16.83 67.24,36.25 l 37.64,-24.81 15.31,-74.57 c 1.38,-6.69 7.26,-11.3 13.84,-11.3 0.94,0 1.9,0.1 2.86,0.29 7.65,1.58 12.58,9.05 11,16.7 l -9.63,46.87 35.14,-23.16 c 2.4,-1.58 5.1,-2.34 7.77,-2.34 4.59,0 9.11,2.24 11.82,6.36 4.3,6.52 2.5,15.29 -4.02,19.59 l -35.14,23.16 46.87,9.63 c 7.65,1.57 12.58,9.05 11.01,16.7 -1.57,7.65 -9.05,12.57 -16.7,11 l -74.57,-15.31 -37.62,24.8 c 6.91,14.22 10.91,30.12 10.91,46.97 0,17.7 -4.36,34.36 -11.94,49.11 l 38.74,25.47 74.56,-15.42"
         style="fill:#97dfff;fill-opacity:1;fill-rule:nonzero;stroke:none"
         id="path300" /><path
         d="m 11352,8495.1 c 0,-13.83 -2.9,-26.99 -8,-38.96 l -61.9,40.8 60.6,39.82 c 5.9,-12.68 9.3,-26.76 9.3,-41.66 z m -81.5,-97.44 v 64.75 l 54,-35.61 c -14.2,-14.89 -32.9,-25.34 -54,-29.14 z m -91.4,31.55 56.2,36.95 v -68.5 c -22.2,4 -41.8,15.4 -56.2,31.55 z m -25.3,65.89 c 0,13.83 2.8,27 8,38.97 l 56.2,-37.09 -57.4,-37.76 c -4.4,11.14 -6.8,23.22 -6.8,35.88 z m 81.5,97.45 v -64.75 l -54.1,35.61 c 14.2,14.88 33,25.34 54.1,29.14 z m 87.1,-26.96 -51.9,-34.14 v 61.1 c 20,-3.62 38,-13.21 51.9,-26.96 z m 191,3.18 c 1.2,-0.25 2.4,-0.37 3.6,-0.37 8.2,0 15.5,5.73 17.2,14.04 2,9.53 -4.2,18.84 -13.7,20.81 l -58.3,12.06 43.8,28.79 c 8.1,5.34 10.4,16.26 5,24.38 -5.3,8.12 -16.3,10.38 -24.4,5.04 l -43.8,-28.78 12.1,58.35 c 2,9.52 -4.2,18.84 -13.7,20.8 -9.5,1.98 -18.8,-4.15 -20.8,-13.68 l -19.2,-92.82 -49,-32.21 c -20.8,22.98 -49.5,38.7 -81.7,42.95 v 56.08 l 67,67.02 c 6.9,6.88 6.9,18.03 0,24.9 -6.9,6.88 -18,6.88 -24.9,0 l -42.1,-42.13 v 52.41 c 0,9.72 -7.9,17.6 -17.6,17.6 -9.8,0 -17.6,-7.88 -17.6,-17.6 V 8734 l -42.2,42.13 c -6.8,6.88 -18,6.88 -24.9,0 -6.8,-6.87 -6.8,-18.02 0,-24.9 l 67.1,-67.02 v -56.08 c -33.3,-4.39 -62.8,-20.96 -83.8,-45.14 l -52.4,34.6 -19.1,92.85 c -2,9.53 -11.3,15.65 -20.8,13.71 -9.5,-1.96 -15.7,-11.27 -13.7,-20.8 l 12,-58.36 -38.2,25.14 c -8.1,5.35 -19,3.11 -24.3,-5.01 -5.4,-8.12 -3.2,-19.04 5,-24.39 l 38.1,-25.14 -58.4,-11.98 c -9.5,-1.96 -15.6,-11.27 -13.7,-20.8 1.7,-8.33 9.1,-14.06 17.3,-14.06 1.1,0 2.3,0.12 3.5,0.36 l 92.9,19.07 52.4,-34.58 c -8.6,-17.71 -13.5,-37.51 -13.5,-58.5 0,-19.81 4.4,-38.57 12.1,-55.52 l -51.1,-33.63 -92.9,19.2 c -9.5,1.95 -18.8,-4.16 -20.8,-13.68 -1.9,-9.52 4.2,-18.84 13.7,-20.81 l 58.3,-12.06 -38.1,-25.09 c -8.1,-5.34 -10.4,-16.26 -5.1,-24.38 3.4,-5.15 9,-7.94 14.8,-7.94 3.3,0 6.6,0.94 9.6,2.9 l 38.2,25.09 -12.1,-58.35 c -1.9,-9.52 4.2,-18.84 13.7,-20.81 1.2,-0.24 2.4,-0.37 3.6,-0.37 8.2,0 15.5,5.73 17.2,14.05 l 19.2,92.83 50.4,33.14 c 21.1,-25.55 51.5,-43.05 86,-47.59 v -62.81 l -67.1,-67.02 c -6.8,-6.88 -6.8,-18.03 0,-24.9 3.5,-3.44 8,-5.16 12.5,-5.16 4.5,0 9,1.72 12.4,5.16 l 42.2,42.13 v -45.67 c 0,-9.73 7.8,-17.61 17.6,-17.61 9.7,0 17.6,7.88 17.6,17.61 v 45.67 l 42.1,-42.13 c 3.4,-3.44 8,-5.16 12.5,-5.16 4.5,0 9,1.72 12.4,5.16 6.9,6.87 6.9,18.02 0,24.9 l -67,67.02 v 62.81 c 33.3,4.38 62.7,20.95 83.7,45.14 l 46.9,-30.89 19,-92.86 c 1.7,-8.33 9.1,-14.06 17.3,-14.06 1.1,0 2.3,0.12 3.5,0.36 9.6,1.96 15.7,11.26 13.7,20.79 l -12,58.36 43.8,-28.84 c 3,-1.97 6.3,-2.91 9.7,-2.91 5.7,0 11.3,2.79 14.7,7.92 5.3,8.12 3.1,19.04 -5,24.39 l -43.8,28.84 58.4,11.99 c 9.5,1.96 15.6,11.26 13.7,20.79 -2,9.52 -11.3,15.65 -20.8,13.7 l -92.9,-19.07 -46.8,30.88 c 8.6,17.71 13.6,37.51 13.6,58.49 0,22.03 -5.4,42.78 -14.9,61.15 l 48.3,31.71 92.8,-19.19"
         style="fill:#97dfff;fill-opacity:1;fill-rule:nonzero;stroke:none"
         id="path302" /><path
         d="m 9228.28,7010.77 c 0,-10.57 -2.18,-20.63 -6.11,-29.78 l -47.3,31.18 46.3,30.43 c 4.52,-9.69 7.11,-20.45 7.11,-31.83 z M 9166,6936.29 v 49.49 l 41.29,-27.22 c -10.86,-11.37 -25.19,-19.36 -41.29,-22.27 z m -69.87,24.12 42.96,28.24 v -52.36 c -16.96,3.06 -31.93,11.77 -42.96,24.12 z m -19.33,50.36 c 0,10.57 2.19,20.63 6.12,29.78 l 43.01,-28.35 -43.91,-28.86 c -3.32,8.52 -5.22,17.75 -5.22,27.43 z m 62.29,74.47 v -49.49 l -41.29,27.22 c 10.86,11.38 25.18,19.37 41.29,22.27 z m 66.62,-20.6 -39.71,-26.1 v 46.7 c 15.32,-2.76 29.06,-10.1 39.71,-20.6 z m 145.94,2.42 c 0.92,-0.19 1.84,-0.28 2.74,-0.28 6.25,0 11.85,4.38 13.16,10.74 1.51,7.27 -3.17,14.39 -10.45,15.9 l -44.59,9.22 33.46,22 c 6.22,4.08 7.94,12.42 3.86,18.63 -4.09,6.21 -12.43,7.94 -18.64,3.85 l -33.46,-21.99 9.22,44.59 c 1.5,7.28 -3.18,14.4 -10.45,15.9 -7.31,1.51 -14.4,-3.17 -15.91,-10.45 l -14.66,-70.95 -37.46,-24.62 c -15.94,17.57 -37.81,29.58 -62.47,32.83 v 42.86 l 51.22,51.23 c 5.26,5.25 5.26,13.77 0,19.03 -5.24,5.25 -13.77,5.25 -19.02,0 l -32.2,-32.2 v 40.05 c 0,7.43 -6.02,13.45 -13.45,13.45 -7.44,0 -13.46,-6.02 -13.46,-13.45 v -40.05 l -32.2,32.2 c -5.25,5.25 -13.78,5.25 -19.03,0 -5.26,-5.26 -5.26,-13.78 0,-19.03 l 51.23,-51.23 v -42.86 c -25.44,-3.35 -47.94,-16.01 -63.99,-34.5 l -40.11,26.44 -14.58,70.97 c -1.49,7.28 -8.61,11.96 -15.88,10.47 -7.28,-1.49 -11.97,-8.61 -10.47,-15.89 l 9.16,-44.6 -29.15,19.21 c -6.21,4.09 -14.55,2.38 -18.64,-3.83 -4.09,-6.2 -2.38,-14.55 3.83,-18.64 l 29.14,-19.21 -44.6,-9.16 c -7.28,-1.5 -11.97,-8.61 -10.47,-15.89 1.3,-6.36 6.91,-10.75 13.17,-10.75 0.89,0 1.8,0.09 2.72,0.28 l 70.96,14.57 40.1,-26.43 c -6.59,-13.53 -10.39,-28.67 -10.39,-44.7 0,-15.15 3.38,-29.49 9.3,-42.44 l -39.1,-25.7 -70.95,14.67 c -7.29,1.5 -14.4,-3.18 -15.9,-10.45 -1.5,-7.28 3.17,-14.4 10.45,-15.9 l 44.59,-9.22 -29.16,-19.18 c -6.21,-4.08 -7.94,-12.42 -3.85,-18.63 2.58,-3.93 6.87,-6.07 11.25,-6.07 2.54,0 5.1,0.72 7.38,2.22 l 29.17,19.17 -9.22,-44.59 c -1.5,-7.28 3.17,-14.4 10.45,-15.9 0.92,-0.2 1.84,-0.29 2.74,-0.29 6.25,0 11.85,4.38 13.16,10.74 l 14.67,70.94 38.53,25.33 c 16.13,-19.53 39.37,-32.9 65.69,-36.37 v -48 l -51.23,-51.23 c -5.26,-5.25 -5.26,-13.77 0,-19.03 2.63,-2.62 6.07,-3.94 9.52,-3.94 3.44,0 6.89,1.32 9.51,3.94 l 32.2,32.2 v -34.9 c 0,-7.43 6.02,-13.46 13.46,-13.46 7.43,0 13.45,6.03 13.45,13.46 v 34.9 l 32.2,-32.2 c 2.62,-2.62 6.07,-3.94 9.51,-3.94 3.44,0 6.89,1.32 9.51,3.94 5.26,5.26 5.26,13.78 0,19.03 L 9166,6861.1 v 48 c 25.44,3.35 47.94,16.02 63.99,34.5 l 35.81,-23.61 14.58,-70.96 c 1.31,-6.37 6.91,-10.76 13.17,-10.76 0.89,0 1.8,0.09 2.72,0.28 7.28,1.5 11.96,8.61 10.47,15.89 l -9.16,44.6 33.43,-22.04 c 2.29,-1.5 4.86,-2.22 7.4,-2.22 4.37,0 8.66,2.13 11.25,6.05 4.09,6.21 2.37,14.55 -3.83,18.64 l -33.44,22.04 44.6,9.17 c 7.28,1.49 11.97,8.6 10.48,15.88 -1.5,7.28 -8.62,11.97 -15.89,10.48 l -70.97,-14.58 -35.8,23.6 c 6.58,13.54 10.39,28.67 10.39,44.71 0,16.83 -4.15,32.69 -11.37,46.73 l 36.87,24.23 70.95,-14.67"
         style="fill:#97dfff;fill-opacity:1;fill-rule:nonzero;stroke:none"
         id="path304" /><path
         d="m 6191.16,3771.56 c 0,-10.56 -2.19,-20.62 -6.12,-29.77 l -47.29,31.18 46.3,30.43 c 4.52,-9.69 7.11,-20.45 7.11,-31.84 z m -62.29,-74.47 v 49.49 l 41.29,-27.22 c -10.86,-11.37 -25.18,-19.36 -41.29,-22.27 z m -69.87,24.12 42.97,28.24 v -52.36 c -16.96,3.06 -31.93,11.77 -42.97,24.12 z m -19.32,50.35 c 0,10.57 2.19,20.63 6.11,29.79 l 43.01,-28.35 -43.9,-28.86 c -3.33,8.52 -5.22,17.74 -5.22,27.42 z m 62.29,74.48 v -49.49 l -41.29,27.22 c 10.85,11.37 25.18,19.36 41.29,22.27 z m 66.61,-20.6 -39.71,-26.1 v 46.7 c 15.32,-2.76 29.06,-10.1 39.71,-20.6 z m 145.94,2.42 c 0.93,-0.19 1.84,-0.28 2.74,-0.28 6.25,0 11.85,4.38 13.17,10.74 1.51,7.27 -3.18,14.39 -10.45,15.9 l -44.6,9.22 33.47,21.99 c 6.21,4.09 7.93,12.43 3.85,18.64 -4.08,6.21 -12.42,7.93 -18.63,3.85 l -33.47,-21.99 9.22,44.59 c 1.51,7.28 -3.17,14.4 -10.45,15.9 -7.3,1.51 -14.4,-3.18 -15.9,-10.45 l -14.67,-70.95 -37.45,-24.61 c -15.94,17.56 -37.82,29.57 -62.48,32.82 v 42.86 l 51.23,51.22 c 5.26,5.26 5.26,13.78 0,19.04 -5.25,5.25 -13.77,5.25 -19.02,0 l -32.21,-32.2 v 40.05 c 0,7.43 -6.02,13.45 -13.45,13.45 -7.43,0 -13.45,-6.02 -13.45,-13.45 v -40.05 l -32.21,32.2 c -5.25,5.25 -13.77,5.25 -19.03,0 -5.25,-5.26 -5.25,-13.78 0,-19.04 l 51.24,-51.22 v -42.86 c -25.45,-3.35 -47.94,-16.02 -64,-34.49 l -40.11,26.43 -14.57,70.97 c -1.49,7.28 -8.61,11.96 -15.88,10.47 -7.28,-1.49 -11.98,-8.61 -10.48,-15.89 l 9.16,-44.6 -29.14,19.21 c -6.21,4.09 -14.55,2.38 -18.64,-3.83 -4.09,-6.2 -2.38,-14.55 3.82,-18.64 l 29.15,-19.21 -44.6,-9.16 c -7.28,-1.5 -11.97,-8.61 -10.47,-15.89 1.3,-6.37 6.91,-10.75 13.16,-10.75 0.9,0 1.81,0.09 2.72,0.27 l 70.97,14.58 40.09,-26.43 c -6.58,-13.54 -10.38,-28.67 -10.38,-44.71 0,-15.14 3.38,-29.48 9.29,-42.43 l -39.09,-25.7 -70.95,14.67 c -7.29,1.49 -14.4,-3.18 -15.9,-10.45 -1.51,-7.28 3.17,-14.4 10.45,-15.9 l 44.59,-9.23 -29.16,-19.17 c -6.21,-4.08 -7.94,-12.42 -3.86,-18.63 2.59,-3.93 6.88,-6.07 11.26,-6.07 2.53,0 5.1,0.72 7.37,2.21 l 29.18,19.18 -9.23,-44.6 c -1.5,-7.27 3.18,-14.39 10.46,-15.9 0.92,-0.18 1.83,-0.28 2.74,-0.28 6.24,0 11.84,4.38 13.16,10.74 l 14.67,70.94 38.52,25.33 c 16.14,-19.53 39.38,-32.9 65.7,-36.37 v -48 l -51.24,-51.23 c -5.25,-5.25 -5.25,-13.77 0,-19.03 2.63,-2.62 6.08,-3.94 9.52,-3.94 3.44,0 6.89,1.32 9.51,3.94 l 32.21,32.2 v -34.9 c 0,-7.44 6.02,-13.46 13.45,-13.46 7.43,0 13.45,6.02 13.45,13.46 v 34.9 l 32.21,-32.2 c 2.62,-2.62 6.07,-3.94 9.51,-3.94 3.44,0 6.89,1.32 9.51,3.94 5.26,5.26 5.26,13.78 0,19.03 l -51.23,51.23 v 48 c 25.45,3.35 47.94,16.02 64,34.49 l 35.81,-23.6 14.57,-70.97 c 1.31,-6.36 6.92,-10.75 13.17,-10.75 0.9,0 1.81,0.1 2.72,0.28 7.28,1.5 11.97,8.61 10.47,15.89 l -9.16,44.6 33.44,-22.04 c 2.28,-1.5 4.85,-2.22 7.39,-2.22 4.38,0 8.66,2.13 11.25,6.05 4.09,6.21 2.37,14.55 -3.83,18.64 l -33.43,22.04 44.6,9.16 c 7.28,1.5 11.97,8.61 10.47,15.89 -1.49,7.28 -8.61,11.97 -15.88,10.48 l -70.97,-14.58 -35.81,23.6 c 6.59,13.54 10.39,28.67 10.39,44.7 0,16.84 -4.15,32.7 -11.36,46.74 l 36.87,24.23 70.94,-14.67"
         style="fill:#97dfff;fill-opacity:1;fill-rule:nonzero;stroke:none"
         id="path306" /><path
         d="m 1498.49,8612.28 c 0,-16.17 -3.35,-31.55 -9.36,-45.55 l -72.34,47.69 70.82,46.55 c 6.91,-14.83 10.88,-31.29 10.88,-48.69 z m -95.26,-113.9 v 75.68 l 63.14,-41.62 c -16.6,-17.4 -38.51,-29.62 -63.14,-34.06 z m -106.87,36.88 65.71,43.19 v -80.07 c -25.93,4.67 -48.83,18 -65.71,36.88 z m -29.55,77.02 c 0,16.16 3.35,31.55 9.36,45.54 l 65.76,-43.35 -67.14,-44.14 c -5.08,13.03 -7.98,27.14 -7.98,41.95 z m 95.26,113.9 v -75.68 l -63.14,41.62 c 16.6,17.4 38.51,29.62 63.14,34.06 z m 101.89,-31.51 -60.73,-39.91 v 71.42 c 23.43,-4.23 44.44,-15.44 60.73,-31.51 z m 223.21,3.71 c 1.4,-0.29 2.81,-0.43 4.18,-0.43 9.56,0 18.13,6.69 20.14,16.42 2.3,11.13 -4.85,22.02 -15.99,24.32 l -68.2,14.1 51.19,33.64 c 9.49,6.25 12.14,19.01 5.89,28.5 -6.25,9.5 -19.01,12.14 -28.5,5.9 l -51.19,-33.65 14.11,68.2 c 2.29,11.13 -4.86,22.02 -15.99,24.32 -11.16,2.31 -22.02,-4.85 -24.32,-15.98 l -22.44,-108.51 -57.28,-37.65 c -24.37,26.86 -57.83,45.24 -95.54,50.21 v 65.55 l 78.35,78.34 c 8.03,8.04 8.03,21.07 0,29.11 -8.04,8.03 -21.07,8.03 -29.1,0 l -49.25,-49.25 v 61.25 c 0,11.37 -9.21,20.58 -20.58,20.58 -11.37,0 -20.58,-9.21 -20.58,-20.58 v -61.25 l -49.24,49.25 c -8.04,8.03 -21.08,8.03 -29.1,0 -8.05,-8.04 -8.05,-21.07 0,-29.11 l 78.34,-78.34 v -65.55 c -38.91,-5.13 -73.32,-24.5 -97.87,-52.76 l -61.34,40.43 -22.29,108.53 c -2.28,11.14 -13.18,18.3 -24.3,16.03 -11.13,-2.29 -18.31,-13.17 -16.02,-24.3 l 14.01,-68.22 -44.57,29.38 c -9.5,6.26 -22.25,3.64 -28.51,-5.86 -6.25,-9.49 -3.63,-22.25 5.86,-28.5 l 44.57,-29.38 -68.22,-14.02 c -11.13,-2.29 -18.3,-13.17 -16.01,-24.3 2,-9.74 10.56,-16.44 20.13,-16.44 1.38,0 2.77,0.14 4.16,0.42 l 108.54,22.3 61.33,-40.43 c -10.08,-20.7 -15.89,-43.85 -15.89,-68.37 0,-23.16 5.17,-45.09 14.21,-64.91 l -59.79,-39.3 -108.5,22.44 c -11.15,2.29 -22.03,-4.87 -24.33,-15.99 -2.3,-11.13 4.86,-22.02 15.99,-24.32 l 68.2,-14.1 -44.61,-29.32 c -9.5,-6.25 -12.14,-19.01 -5.89,-28.51 3.95,-6.01 10.52,-9.27 17.21,-9.27 3.88,0 7.8,1.09 11.28,3.38 l 44.62,29.33 -14.1,-68.21 c -2.3,-11.13 4.85,-22.02 15.98,-24.32 1.41,-0.28 2.81,-0.43 4.19,-0.43 9.56,0 18.12,6.7 20.13,16.42 l 22.44,108.51 58.92,38.73 c 24.68,-29.86 60.22,-50.32 100.47,-55.62 v -73.41 l -78.34,-78.35 c -8.05,-8.04 -8.05,-21.07 0,-29.1 4.01,-4.02 9.28,-6.03 14.54,-6.03 5.27,0 10.54,2.01 14.56,6.03 l 49.24,49.24 v -53.38 c 0,-11.37 9.21,-20.58 20.58,-20.58 11.37,0 20.58,9.21 20.58,20.58 v 53.38 l 49.25,-49.24 c 4.01,-4.02 9.28,-6.03 14.55,-6.03 5.26,0 10.53,2.01 14.55,6.03 8.03,8.03 8.03,21.06 0,29.1 l -78.35,78.35 v 73.41 c 38.91,5.13 73.32,24.49 97.87,52.76 l 54.77,-36.11 22.29,-108.53 c 2,-9.74 10.58,-16.44 20.14,-16.44 1.37,0 2.77,0.13 4.16,0.42 11.13,2.29 18.31,13.17 16.02,24.3 l -14.01,68.22 51.14,-33.71 c 3.49,-2.3 7.42,-3.4 11.3,-3.4 6.69,0 13.25,3.25 17.21,9.25 6.25,9.49 3.63,22.26 -5.86,28.51 l -51.14,33.71 68.22,14.02 c 11.13,2.28 18.3,13.16 16.01,24.3 -2.28,11.13 -13.16,18.3 -24.29,16.01 l -108.54,-22.29 -54.76,36.1 c 10.07,20.7 15.89,43.84 15.89,68.37 0,25.75 -6.35,50 -17.38,71.47 l 56.39,37.07 108.51,-22.44"
         style="fill:#97dfff;fill-opacity:1;fill-rule:nonzero;stroke:none"
         id="path308" /><path
         d="m 1335.93,4774.22 c 0,-10.99 -2.28,-21.46 -6.37,-30.97 l -49.2,32.43 48.17,31.66 c 4.7,-10.08 7.4,-21.28 7.4,-33.12 z m -64.79,-77.46 v 51.47 l 42.94,-28.31 c -11.29,-11.83 -26.19,-20.14 -42.94,-23.16 z m -72.69,25.08 44.69,29.38 v -54.46 c -17.64,3.18 -33.21,12.24 -44.69,25.08 z m -20.1,52.38 c 0,11 2.28,21.46 6.37,30.98 l 44.73,-29.49 -45.67,-30.01 c -3.46,8.86 -5.43,18.46 -5.43,28.52 z m 64.79,77.47 v -51.47 l -42.94,28.31 c 11.29,11.83 26.19,20.14 42.94,23.16 z m 69.3,-21.43 -41.3,-27.14 v 48.57 c 15.93,-2.87 30.22,-10.5 41.3,-21.43 z m 151.81,2.53 c 0.96,-0.2 1.91,-0.3 2.85,-0.3 6.5,0 12.33,4.56 13.69,11.17 1.57,7.57 -3.3,14.98 -10.87,16.54 l -46.38,9.59 34.8,22.88 c 6.46,4.25 8.26,12.93 4.01,19.39 -4.24,6.45 -12.93,8.25 -19.38,4 l -34.81,-22.88 9.59,46.39 c 1.56,7.57 -3.3,14.98 -10.87,16.54 -7.6,1.57 -14.98,-3.3 -16.54,-10.88 l -15.26,-73.79 -38.96,-25.61 c -16.58,18.27 -39.33,30.77 -64.98,34.15 v 44.58 l 53.28,53.28 c 5.47,5.47 5.47,14.34 0,19.8 -5.46,5.47 -14.33,5.47 -19.79,0 l -33.49,-33.49 v 41.66 c 0,7.73 -6.27,13.99 -14,13.99 -7.73,0 -14,-6.26 -14,-13.99 v -41.66 l -33.49,33.49 c -5.47,5.47 -14.33,5.47 -19.79,0 -5.47,-5.46 -5.47,-14.33 0,-19.8 l 53.28,-53.28 v -44.58 c -26.46,-3.49 -49.86,-16.66 -66.56,-35.89 l -41.72,27.51 -15.16,73.81 c -1.56,7.58 -8.96,12.44 -16.53,10.9 -7.57,-1.56 -12.45,-8.96 -10.89,-16.53 l 9.53,-46.4 -30.32,19.99 c -6.46,4.25 -15.14,2.47 -19.39,-3.99 -4.25,-6.45 -2.47,-15.13 3.98,-19.38 l 30.32,-19.99 -46.4,-9.53 c -7.57,-1.55 -12.45,-8.95 -10.89,-16.52 1.36,-6.63 7.19,-11.19 13.69,-11.19 0.94,0 1.89,0.09 2.83,0.29 l 73.82,15.16 41.71,-27.49 c -6.85,-14.08 -10.8,-29.82 -10.8,-46.51 0,-15.75 3.52,-30.67 9.66,-44.14 l -40.66,-26.73 -73.8,15.26 c -7.59,1.56 -14.98,-3.31 -16.54,-10.88 -1.57,-7.56 3.3,-14.97 10.87,-16.53 l 46.38,-9.6 -30.34,-19.94 c -6.45,-4.24 -8.25,-12.92 -4,-19.38 2.68,-4.09 7.15,-6.32 11.71,-6.32 2.63,0 5.3,0.75 7.67,2.31 l 30.35,19.95 -9.6,-46.39 c -1.56,-7.57 3.31,-14.98 10.87,-16.54 0.96,-0.2 1.91,-0.3 2.85,-0.3 6.5,0 12.33,4.56 13.7,11.17 l 15.26,73.8 40.07,26.34 c 16.78,-20.31 40.96,-34.22 68.33,-37.83 v -49.93 l -53.28,-53.29 c -5.47,-5.46 -5.47,-14.32 0,-19.79 2.73,-2.73 6.31,-4.1 9.89,-4.1 3.58,0 7.17,1.37 9.9,4.1 l 33.49,33.49 v -36.31 c 0,-7.73 6.27,-13.99 14,-13.99 7.73,0 14,6.26 14,13.99 v 36.32 l 33.49,-33.5 c 2.73,-2.73 6.31,-4.1 9.9,-4.1 3.58,0 7.16,1.37 9.89,4.1 5.47,5.47 5.47,14.33 0,19.79 l -53.28,53.29 v 49.93 c 26.46,3.49 49.87,16.66 66.56,35.89 l 37.26,-24.56 15.15,-73.82 c 1.36,-6.62 7.19,-11.18 13.7,-11.18 0.93,0 1.88,0.09 2.83,0.29 7.57,1.55 12.45,8.95 10.89,16.52 l -9.53,46.4 34.78,-22.93 c 2.38,-1.56 5.05,-2.31 7.69,-2.31 4.55,0 9.02,2.21 11.71,6.29 4.25,6.46 2.47,15.14 -3.99,19.4 l -34.78,22.92 46.4,9.53 c 7.57,1.56 12.45,8.96 10.89,16.53 -1.55,7.57 -8.95,12.45 -16.52,10.89 l -73.82,-15.16 -37.24,24.55 c 6.85,14.08 10.8,29.82 10.8,46.5 0,17.52 -4.32,34.01 -11.83,48.61 l 38.36,25.21 73.8,-15.25"
         style="fill:#97dfff;fill-opacity:1;fill-rule:nonzero;stroke:none"
         id="path310" /><path
         d="m 11767.6,3848.32 c 0,-11.55 -2.4,-22.55 -6.7,-32.54 l -51.7,34.07 50.6,33.27 c 5,-10.6 7.8,-22.36 7.8,-34.8 z m -68.1,-81.39 v 54.08 l 45.2,-29.74 c -11.9,-12.43 -27.6,-21.17 -45.2,-24.34 z m -76.3,26.35 46.9,30.87 v -57.22 c -18.5,3.34 -34.9,12.86 -46.9,26.35 z m -21.1,55.04 c 0,11.55 2.4,22.55 6.6,32.55 l 47,-30.98 -47.9,-31.54 c -3.7,9.3 -5.7,19.39 -5.7,29.97 z m 68,81.39 v -54.08 l -45.1,29.74 c 11.9,12.44 27.5,21.17 45.1,24.34 z m 72.8,-22.51 -43.4,-28.53 v 51.04 c 16.8,-3.02 31.8,-11.03 43.4,-22.51 z m 159.5,2.65 c 1,-0.21 2,-0.31 3,-0.31 6.9,0 13,4.78 14.4,11.73 1.7,7.96 -3.4,15.74 -11.4,17.38 l -48.7,10.08 36.5,24.04 c 6.8,4.46 8.7,13.58 4.2,20.37 -4.4,6.78 -13.5,8.67 -20.3,4.21 l -36.6,-24.05 10.1,48.74 c 1.6,7.96 -3.5,15.74 -11.4,17.38 -8,1.65 -15.8,-3.47 -17.4,-11.42 l -16.1,-77.54 -40.9,-26.91 c -17.4,19.2 -41.3,32.33 -68.3,35.88 v 46.84 l 56,55.99 c 5.8,5.74 5.8,15.05 0,20.79 -5.7,5.75 -15,5.75 -20.8,0 l -35.2,-35.19 v 43.78 c 0,8.12 -6.5,14.7 -14.7,14.7 -8.1,0 -14.7,-6.58 -14.7,-14.7 v -43.77 l -35.2,35.18 c -5.7,5.75 -15,5.75 -20.8,0 -5.7,-5.74 -5.7,-15.05 0,-20.79 l 56,-55.99 v -46.84 c -27.8,-3.66 -52.4,-17.5 -69.9,-37.7 l -43.8,28.89 -16,77.56 c -1.6,7.96 -9.4,13.07 -17.3,11.45 -8,-1.63 -13.1,-9.41 -11.5,-17.36 l 10,-48.75 -31.8,20.99 c -6.8,4.47 -15.9,2.6 -20.4,-4.18 -4.5,-6.78 -2.6,-15.9 4.2,-20.37 l 31.8,-21 -48.7,-10.01 c -8,-1.64 -13.1,-9.41 -11.4,-17.37 1.4,-6.96 7.5,-11.75 14.3,-11.75 1,0 2,0.1 3,0.3 l 77.6,15.94 43.8,-28.89 c -7.2,-14.79 -11.4,-31.33 -11.4,-48.86 0,-16.55 3.7,-32.22 10.2,-46.38 l -42.7,-28.08 -77.6,16.03 c -7.9,1.63 -15.7,-3.48 -17.3,-11.43 -1.7,-7.95 3.4,-15.73 11.4,-17.37 l 48.7,-10.08 -31.9,-20.95 c -6.7,-4.46 -8.6,-13.59 -4.2,-20.37 2.8,-4.3 7.5,-6.63 12.3,-6.63 2.8,0 5.6,0.78 8.1,2.42 l 31.9,20.95 -10.1,-48.73 c -1.6,-7.96 3.5,-15.74 11.4,-17.38 1,-0.21 2,-0.31 3,-0.31 6.8,0 13,4.78 14.4,11.73 l 16,77.54 42.1,27.68 c 17.7,-21.34 43.1,-35.96 71.8,-39.75 v -52.46 l -56,-55.99 c -5.7,-5.74 -5.7,-15.05 0,-20.79 2.9,-2.87 6.7,-4.31 10.4,-4.31 3.8,0 7.6,1.44 10.4,4.31 l 35.2,35.19 v -38.15 c 0,-8.12 6.6,-14.71 14.7,-14.71 8.2,0 14.7,6.59 14.7,14.71 v 38.15 l 35.2,-35.19 c 2.9,-2.87 6.7,-4.31 10.4,-4.31 3.8,0 7.6,1.44 10.4,4.31 5.8,5.74 5.8,15.05 0,20.79 l -56,55.99 v 52.46 c 27.8,3.66 52.4,17.5 70,37.7 l 39.1,-25.8 15.9,-77.55 c 1.5,-6.96 7.6,-11.76 14.4,-11.76 1,0 2,0.1 3,0.31 8,1.63 13.1,9.41 11.5,17.36 l -10.1,48.75 36.6,-24.09 c 2.5,-1.64 5.3,-2.43 8.1,-2.43 4.7,0 9.4,2.33 12.3,6.61 4.4,6.79 2.6,15.91 -4.2,20.38 l -36.6,24.09 48.8,10.01 c 7.9,1.63 13.1,9.41 11.4,17.36 -1.6,7.96 -9.4,13.08 -17.3,11.45 l -77.6,-15.93 -39.1,25.79 c 7.2,14.8 11.3,31.33 11.3,48.86 0,18.4 -4.5,35.73 -12.4,51.07 l 40.3,26.49 77.5,-16.03"
         style="fill:#97dfff;fill-opacity:1;fill-rule:nonzero;stroke:none"
         id="path312" /><path
         d="m 8423.95,3941.44 c -18.07,-28.9 -62.99,-149.56 -61.39,-174.51 9.53,1.52 79.39,19.16 116.99,25.62 132.81,22.81 300.44,-35.07 311.47,-25.62 17.9,15.33 -162.14,189.53 -367.07,174.51"
         style="fill:#000000;fill-opacity:1;fill-rule:nonzero;stroke:none"
         id="path314" /><path
         d="m 8563.33,3023.61 c 19.6,-29.48 79.9,-131.18 103.66,-141.56 120.97,175.05 252.61,197.63 252.49,225.93 -0.11,23.98 -299.46,67.47 -356.15,-84.37"
         style="fill:#000000;fill-opacity:1;fill-rule:nonzero;stroke:none"
         id="path316" /><path
         d="m 8337.16,3530.31 c 6.49,-92.64 23.98,-188.15 41.02,-227.17 0,0 138.72,82.44 181.05,99 214.63,83.98 348.61,62.39 359.6,83.09 17.83,33.59 -336.93,147.77 -581.67,45.08"
         style="fill:#000000;fill-opacity:1;fill-rule:nonzero;stroke:none"
         id="path318" /></g></g></svg>
