<svg xmlns="http://www.w3.org/2000/svg" viewBox="0 0 48 48"><title>13-lgbt</title><g id="_13-lgbt" data-name="13-lgbt"><polygon points="31 26 31 31 27 31 27 26 27 23 27 3 27 1 31 1 31 26" style="fill:#f2f6fc"/><polygon points="27 26 27 31 22 31 22 29 25 26 27 26" style="fill:#ff5f96"/><path d="M31,31V26h4l5,5v3h7V45H37l-2,2H21a2.006,2.006,0,0,1-2-2,2.015,2.015,0,0,1,2-2H20a2.006,2.006,0,0,1-2-2,2.015,2.015,0,0,1,2-2H18a2.006,2.006,0,0,1-2-2,2.015,2.015,0,0,1,2-2h1a2.006,2.006,0,0,1-2-2,2.015,2.015,0,0,1,2-2H31Z" style="fill:#ffcfe2"/><rect x="1" y="3" width="26" height="5" style="fill:#ff583e"/><rect x="1" y="8" width="26" height="5" style="fill:#ffa426"/><rect x="1" y="13" width="26" height="5" style="fill:#fff04a"/><rect x="1" y="18" width="26" height="5" style="fill:#a7e340"/><path d="M18.14,11.75a2.341,2.341,0,0,1,0,3.63L14,19,9.86,15.38a2.341,2.341,0,0,1,0-3.63,3.232,3.232,0,0,1,4.14,0A3.232,3.232,0,0,1,18.14,11.75Z" style="fill:#ffcfe2"/><path d="M18.14,11.75a3.243,3.243,0,0,0-3.57-.38,2.917,2.917,0,0,1,.57.38,2.341,2.341,0,0,1,0,3.63L12.5,17.688,14,19l4.14-3.62A2.341,2.341,0,0,0,18.14,11.75Z" style="fill:#ffa1c8"/><path d="M40,35h7V33H41V31a1,1,0,0,0-.293-.707l-5-5A1,1,0,0,0,35,25H32V1a1,1,0,0,0-1-1H27a1,1,0,0,0-1,1V2H1A1,1,0,0,0,0,3V23a1,1,0,0,0,1,1H26v1H25a1,1,0,0,0-.707.293l-3,3A1,1,0,0,0,21,29v1H19a3,3,0,0,0-3,3,2.967,2.967,0,0,0,.4,1.471,2.983,2.983,0,0,0,.819,5.413A2.972,2.972,0,0,0,18.4,43.529,2.967,2.967,0,0,0,18,45a3,3,0,0,0,3,3H35a1,1,0,0,0,.707-.293L37.414,46H47V44H37a1,1,0,0,0-.707.293L34.586,46H21a1,1,0,0,1,0-2h6V42H20a1,1,0,0,1,0-2h7V38H18a1,1,0,0,1,0-2h9V34H19a1,1,0,0,1,0-2H35V30H32V27h2.586L39,31.414V34A1,1,0,0,0,40,35ZM2,22V4H26V22Zm21,7.414L25.414,27H26v3H23ZM28,30V2h2V30Z"/><path d="M18.8,11a4.228,4.228,0,0,0-4.8-.467A4.228,4.228,0,0,0,9.2,11a3.343,3.343,0,0,0,0,5.13l4.142,3.624a1,1,0,0,0,1.318,0L18.8,16.128a3.343,3.343,0,0,0,0-5.13Zm-1.317,3.625L14,17.671l-3.483-3.048a1.345,1.345,0,0,1,0-2.12,2.238,2.238,0,0,1,2.825,0,1,1,0,0,0,1.317,0,2.236,2.236,0,0,1,2.825,0,1.346,1.346,0,0,1,0,2.12Z"/><rect x="13" y="6" width="2" height="3"/><rect x="18.586" y="7" width="2.828" height="2" transform="translate(0.201 16.485) rotate(-45)"/><rect x="7" y="6.586" width="2" height="2.828" transform="translate(-3.314 8) rotate(-45)"/></g></svg>