<?xml version="1.0" encoding="utf-8"?>
<!-- Generator: Adobe Illustrator 19.2.1, SVG Export Plug-In . SVG Version: 6.00 Build 0)  -->
<svg version="1.1" xmlns="http://www.w3.org/2000/svg" xmlns:xlink="http://www.w3.org/1999/xlink" x="0px" y="0px"
	 viewBox="0 0 512 512" style="enable-background:new 0 0 512 512;" xml:space="preserve">
<style type="text/css">
	.st0{display:none;}
	.st1{fill:#75A897;}
	.st2{fill:#D5872A;}
	.st3{fill:#5082A9;}
	.st4{fill:#E09C6F;}
	.st5{fill:#E4C856;}
	.st6{fill:#87B7DD;}
	.st7{fill:#B9BDC2;}
	.st8{fill:#57646E;}
	.st9{fill:#CA6A46;}
	.st10{fill:#1F3049;}
	.st11{fill:#298063;}
	.st12{fill:#C93A3A;}
	.st13{fill:#DA8B80;}
	.st14{fill:#C9402E;}
	.st15{fill:#E29E6F;}
	.st16{fill:#A32929;}
	.st17{fill:#F5F5F5;}
	.st18{fill:#C9553E;}
	.st19{fill:#E09E9A;}
	.st20{fill:#FFFFFF;}
	.st21{fill:#E6A585;}
	.st22{fill:#4E3333;}
	.st23{fill:#2B5F87;}
	.st24{opacity:0.31;fill:#FFFFFF;}
	.st25{fill:#E6CA56;}
	.st26{fill:#4D917B;}
	.st27{fill:#B8B8B8;}
	.st28{fill:#8998A0;}
	.st29{fill:#394755;}
	.st30{fill:#F2D1B4;}
	.st31{fill:#ECE4C7;}
	.st32{fill:#F1CB58;}
	.st33{fill:#E1E1E1;}
</style>
<g id="GUIDELINES" class="st0">
</g>
<g id="Layer_9">
</g>
<g id="ICON">
	<ellipse class="st2" cx="256.4" cy="254.7" rx="256" ry="256"/>
</g>
<g id="Layer_8">
	<g>
		<g>
			<rect x="376" y="218" class="st10" width="29" height="137"/>
			<g>
				<rect x="274.4" y="218" class="st8" width="102.5" height="137"/>
			</g>
			<g>
				<g>
					<g>
						<rect x="278.2" y="242.1" class="st10" width="19.8" height="30.9"/>
						<rect x="281.8" y="245.7" class="st3" width="12.7" height="23.8"/>
						<rect x="279.6" y="256.1" class="st10" width="17.2" height="2.9"/>
					</g>
					<g>
						<rect x="313" y="242.1" class="st10" width="19.8" height="30.9"/>
						<rect x="316.6" y="245.7" class="st3" width="12.7" height="23.8"/>
						<rect x="314.3" y="256.1" class="st10" width="17.2" height="2.9"/>
					</g>
					<g>
						<rect x="347.7" y="242.1" class="st10" width="19.8" height="30.9"/>
						<rect x="351.3" y="245.7" class="st3" width="12.7" height="23.8"/>
						<rect x="349" y="256.1" class="st10" width="17.1" height="2.9"/>
					</g>
				</g>
				<g>
					<g>
						<rect x="278.2" y="294" class="st10" width="19.8" height="30.9"/>
						<rect x="281.8" y="297.5" class="st3" width="12.7" height="23.8"/>
						<rect x="279.6" y="308" class="st10" width="17.2" height="2.9"/>
					</g>
					<g>
						<rect x="313" y="294" class="st10" width="19.8" height="30.9"/>
						<rect x="316.6" y="297.5" class="st3" width="12.7" height="23.8"/>
						<rect x="314.3" y="308" class="st10" width="17.2" height="2.9"/>
					</g>
					<g>
						<rect x="347.7" y="294" class="st10" width="19.8" height="30.9"/>
						<rect x="351.3" y="297.5" class="st3" width="12.7" height="23.8"/>
						<rect x="349" y="308" class="st10" width="17.1" height="2.9"/>
					</g>
				</g>
			</g>
		</g>
		<g>
			<rect x="250.6" y="167.4" class="st7" width="52.7" height="187.6"/>
			<g>
				<rect x="125" y="167.4" class="st20" width="126.5" height="187.6"/>
			</g>
			<polygon class="st3" points="251.9,163 250.6,163 125.4,163 125.4,173.4 250.6,173.4 251.9,173.4 303.4,173.4 303.4,163 			"/>
			<g>
				<g>
					<g>
						<rect x="135.3" y="179.1" class="st9" width="23.5" height="36.7"/>
						<rect x="139.5" y="183.3" class="st6" width="15.1" height="28.2"/>
					</g>
					<g>
						<rect x="176.5" y="179.1" class="st9" width="23.5" height="36.7"/>
						<rect x="180.7" y="183.3" class="st6" width="15.1" height="28.2"/>
					</g>
					<g>
						<rect x="217.7" y="179.1" class="st9" width="23.5" height="36.7"/>
						<rect x="222" y="183.3" class="st6" width="15.1" height="28.2"/>
					</g>
				</g>
				<g>
					<g>
						<rect x="135.3" y="226.3" class="st9" width="23.5" height="36.7"/>
						<rect x="139.5" y="230.6" class="st6" width="15.1" height="28.2"/>
					</g>
					<g>
						<rect x="176.5" y="226.3" class="st9" width="23.5" height="36.7"/>
						<rect x="180.7" y="230.6" class="st6" width="15.1" height="28.2"/>
					</g>
					<g>
						<rect x="217.7" y="226.3" class="st9" width="23.5" height="36.7"/>
						<rect x="222" y="230.6" class="st6" width="15.1" height="28.2"/>
					</g>
				</g>
				<g>
					<g>
						<rect x="135.3" y="273.6" class="st9" width="23.5" height="36.7"/>
						<rect x="139.5" y="277.8" class="st6" width="15.1" height="28.2"/>
					</g>
					<g>
						<rect x="176.5" y="273.6" class="st9" width="23.5" height="36.7"/>
						<rect x="180.7" y="277.8" class="st6" width="15.1" height="28.2"/>
					</g>
					<g>
						<rect x="217.7" y="273.6" class="st9" width="23.5" height="36.7"/>
						<rect x="222" y="277.8" class="st6" width="15.1" height="28.2"/>
					</g>
				</g>
			</g>
			<g>
				<rect x="125" y="163" class="st6" width="126.5" height="10.4"/>
			</g>
			<g>
				<rect x="174.5" y="317.1" class="st7" width="27.4" height="37.9"/>
				<rect x="179.5" y="321.2" class="st8" width="17.5" height="33.8"/>
			</g>
		</g>
	</g>
</g>
</svg>
