<svg id="Layer_1" data-name="Layer 1" xmlns="http://www.w3.org/2000/svg" viewBox="0 0 973.9 899.36"><defs><style>.cls-1{fill:#fefdfc;}.cls-2{fill:#8b1b1c;}.cls-3{fill:#921e1e;}.cls-4{fill:#8d2f25;}.cls-5{fill:#a63824;}.cls-6{fill:#e8d6bc;}.cls-7{fill:#191513;}.cls-8{fill:#90763a;}.cls-9{fill:#7d6629;}.cls-10{fill:#3d1f11;}.cls-11{fill:#a45f28;}.cls-12{fill:#b44c27;}.cls-13{fill:#e3a44a;}.cls-14{fill:#d16a29;}.cls-15{fill:#cfb180;}.cls-16{fill:#603517;}</style></defs><title>stophatebadge</title><path class="cls-1" d="M501.1,52.76q239.79,0,479.58-.2c6.75,0,7.57,1.81,7.57,7.87q-.25,441.84,0,883.66c0,6.17-1,7.84-7.61,7.83q-479.13-.33-958.26,0c-6.94,0-8-1.88-8-8.31q.27-441.37,0-882.77c0-6.5,1.19-8.27,8.06-8.26Q261.76,52.94,501.1,52.76ZM239.86,146.45c-3.9.4-6.7,2.51-8.83,5.67a327,327,0,0,0-71.58,61.3c-13.34,15.17-25.25,31.37-34.75,49-24.59,45.7-40.76,94.12-45.61,146.14-3.45,36.9-5.84,73.62,2,110.32C91,565.56,109.18,609,131.82,650.66c5.45,10,11.7,19.63,17.58,29.43a35,35,0,0,0,7.67,12.18,4.86,4.86,0,0,0,2.24,3.92c10.72,18.6,24.19,35.15,38.14,51.36A37.61,37.61,0,0,0,208,759.92a60.69,60.69,0,0,0,3.57,5,523.49,523.49,0,0,0,80.93,74.82c17.64,13.13,34.18,27.92,54.35,37.38a37.45,37.45,0,0,0,14,7.4l-.14-.08c2.26,3,5.57,3.47,9,3.71l-.12-.06c10.79,5.89,21.91,10.94,34,13.62l.54.61.81-.09c1.4,1.85,3.59,1.94,5.55,2.34,27.31,5.56,54.93,7,82.69,5.55,14.64-.78,29.44-1.25,43.12-7.68l.56-.11c15.78-3.48,29.61-11.66,44.11-18.22l.29-.12a10.71,10.71,0,0,0,7.13-3.26l.07,0c5-1.7,10.24-2.89,13.9-7.17l.15-.34c21.55-6.4,41-17.34,60.6-28l1.66-.68a8.42,8.42,0,0,0,5.54-2.81l1.65-.72c4.46-1.44,8.78-3.15,12.14-6.63,18-8.87,35.08-19.33,52.06-30.05,24-15.18,46.89-31.93,67.34-51.63,23.89-23,44.42-49,62.51-76.71,13.53-20.75,27.34-41.57,34.78-65.47,15.49-49.71,21.43-100.41,14.86-152.38-7.22-57.24-28.65-108.76-61.69-155.65-11.41-16.2-24.33-31.16-37.92-45.63-22.49-23.94-46.5-46.09-72.88-65.66h0c-2.77-3.48-6.49-5.64-10.44-7.48l.12,0c-3.76-5-9.45-7.19-14.71-10l-.26-.53-.59,0c-5.81-4.55-11.57-9.19-18.59-11.83-3,0-4-3-6.23-4.31a521,521,0,0,0-68.59-33.64c-3.42-1.38-6.41-4.29-10.59-3.17-27.62-12-56.49-20.06-86.06-25.24-52.54-9.2-105.28-10-157.92-.7a336.94,336.94,0,0,0-93.59,31.24l-3.57,2A76.15,76.15,0,0,0,252.53,138h0c-4.82,1-8.55,3.82-11.88,7.27A1,1,0,0,0,239.86,146.45Z" transform="translate(-14.36 -52.56)"/><path class="cls-2" d="M157.07,692.27a35,35,0,0,1-7.67-12.18c5-3.78,3.61,3.79,6.59,3.62.61-8.47,1.24-17,1.95-26.87-4.92,3.31-.85,9.49-5.28,9.89-5.27.47-3.59-5.72-5.67-8.45a21,21,0,0,1-3.44-7.94c-.38-1.48-1-3,.78-3.8,8.3-3.58,7.74-10.09,5.81-17.08-.42-1.52-.57-3.15.85-4,7.3-4.39,3.73-8.61-.2-12.65-3.09-3.18-3.61-6.08-1.38-10.25,3.43-6.43,7-13.09,8.64-20.09,1.34-5.75,3.07-6.25,7.52-3.82,3.53,1.92,7.52,2.78,6.07,8.88-.87,3.68-.25,9.1,2,11.89,11.73,14.56,4.1,32.47,9.09,48.37,3.92,12.5,14,19,25.54,11.53,1.74-1.13,3.16-3,5.35-1.11,1.84,1.59,1.54,3.52.82,5.67s-3.76,4.29-.85,7.08c3.9,3.75,6.89,9.27,13.82,6.92,5.85-2,8.29-6.07,7.54-12.23-.13-1,.16-2.44,2.32-2.34,1.67,1.72.88,4.19,1.18,6.38.43,3.11,2.17,4.89,5.34,4.71,4.15-.23,2.28-2.94,2-5.14-.36-3.23,1.24-5.26,4.56-5a3.76,3.76,0,0,1,3.56,5c-.89,3.22-1.44,6.17,2.76,6.77,5.84.84,11,4.54,17.16,3.83,3,5.58,4.76,13.18,14.13,9,.57-.25,1.85,1.09,2.8,1.68,3,3.24,6,6.42,8.93,9.73,24,27.38,52.39,49.84,81.64,71.24,20.63,15.09,43,26.36,68.39,30.95,4,3.14,9.17,2.78,13.39,2.57,17.78-.88,35.5-3.93,53.24-3.94,10.56,0,16.34-2.22,17-13.15,17.14-7.84,34.26-15.72,51.31-23.78,37.42-17.67,73.82-36.89,107.79-60.72,10.63-7.46,20.06-16.34,30.76-23.64,6.15-.18,8.7-4.07,11.16-9.27,11.82-25.06,24.08-49.91,36.3-74.77.37-.77,2-.93,3-1.38,15.64,1.52,16,1.65,21.28-13.16,26.9-75.62,17.16-147.07-27.57-213-30.2-44.5-70.49-79.34-114.84-109.48,3.19-.73,8.75,1.93,9.17-2.07.45-4.33-4.1-4.36-8.51-4.32-4.67.05-6.15-5.54-3.32-8.49,10.94-11.38,0-23.48,1.85-35.05.27-1.69-1.89-2.79-3.7-3.3-2.05-.57-4.31-1.31-3.89-3.94.47-3,3.12-2.94,5.52-3.26,12.4-1.64,23.55-7.61,35.27-11.38,7.22-2.33,15.92-.44,16.56,1.65,2,6.45,8.45,12.15,5.61,19.8-3.22,8.7-.57,12.43,8.71,13.17,7.71.62,15.47-4,23.29.84,2,1.23,4.64-2.28,2.42-4.46-3.36-3.3-4.84-9.22-11.15-9-2,.08-4.87.22-4.77-2.54a12.29,12.29,0,0,1,2.69-7.21c1.59-1.81,3.58.55,5.43,1.25,5.25,2,8.14,6.49,11.93,10.1,3.49,3.33,7.81,3.17,10.65-1.06,3-4.54-1.85-5.19-4.17-6.39-5.06-2.63-8.68-6-9.07-12.05,26.38,19.57,50.39,41.72,72.88,65.66,13.59,14.47,26.51,29.43,37.92,45.63,33,46.89,54.47,98.41,61.69,155.65,6.57,52,.63,102.67-14.86,152.38C893.3,634.39,879.49,655.21,866,676c-18.09,27.75-38.62,53.71-62.51,76.71-20.45,19.7-43.29,36.45-67.34,51.63-17,10.72-34.05,21.18-52.06,30.05-1.82-1-5.39-4-5.14-2.75,1.29,6.49-7.06,4.72-7,9.38l-1.65.72c-2.42-.19-5-.62-5.54,2.81l-1.66.68c-7.62-2.06-14.08,0-20.19,4.86-3.34,2.67-7.43,4.85-12.18,3a3.79,3.79,0,0,0-4.63,1.6c-3.69,5-8.91,4.93-14.3,4.75-3.81-.14-7.65,0-11.46.15-2.46.12-3.68,2.08-3.91,4.13-.37,3.32,2.47,2.61,4.32,2.69,3.56.14,7.13,0,10.78,0-1.71,5.2-8.25,1.44-9,6.74l-.15.34c-5.33,1-10.37,2.64-13.9,7.17l-.07,0c-3.09.5-4.27-5.14-7.56-2.73-2.08,1.52,2.84,3.74.43,6l-.29.12c-3-1.11-7.93,3.33-8.1.62-.21-3.22-.24-3.88-3.16-4-3.68-.12-4.37,2.15-4.46,5.14-.07,2.57-1.46,3.7-4.06,3.26-4-.68-10.15-5.2-7.95,4.88.27,1.24-3.6,3-6.06,2.18A62.93,62.93,0,0,1,540,893c-3.5-1.64-7.61-8.73-10.82-3.53-4.09,6.62,5.26,6.91,8.08,8.08,7.79,3.23-2.7,3.17-.44,4.72l-.56.11c-8.43-2.5-15.19,3.29-22.86,4.58-20.44,3.45-40.95-.16-61.42.69-16,.67-31.37-3.79-47.08-5.48l-.81.09-.54-.61c-1.4-4.38-6.59-2.08-8.81-5l.39-.77-.42.74c-8.82-1.6-15.71-8.81-25.15-8.58l.13.06c-2.25-3-5.63-3.32-9-3.71l.14.08c-3.53-4.6-8.59-6.3-14-7.4-20.17-9.46-36.71-24.25-54.35-37.38a523.49,523.49,0,0,1-80.93-74.82c-1.34-1.53-2.39-3.31-3.57-5-1.27-3.34,5.4-7-.71-10.36-3.27-1.8-5.71-5.38-9.87-2-13.95-16.21-27.42-32.76-38.14-51.36,3.73-.91,6.09.64,7.6,4,.78,1.76,2.06,3,4,1.39,1.69-1.35,1.14-2.94.4-4.67-1.35-3.17-5.2-3.2-7-6.2C161.07,685.11,158.78,688.19,157.07,692.27Zm29.08,10.59c.34-2.4.49-3.82.76-5.22,2-10.58,2.79-11,12.84-7.81,4.25,1.36,9.63-.36,12.51,4.9.6,1.08,2.05.06,2.71-1.05,4.82-8,.92-15.09-8.51-15.57-6.78-.34-13.92-.23-15-9.64-.1-.78-1.57-1.79-2.56-2a2.69,2.69,0,0,0-3.2,2.33c-.36,2.58-.84,5.43-.11,7.81,1.92,6.27,2.13,12-2.13,17.48C181.16,697,181.47,700,186.15,702.86ZM180.59,680c-.18-1.67-1.42-1.68-2.56-1.68s-2.51.06-2.52,1.61,1.38,1.61,2.52,1.61S180.37,681.44,180.59,680Z" transform="translate(-14.36 -52.56)"/><path class="cls-3" d="M273.87,679.92c-6.15.71-11.32-3-17.16-3.83-4.2-.6-3.65-3.55-2.76-6.77a3.76,3.76,0,0,0-3.56-5c-3.32-.28-4.92,1.75-4.56,5,.24,2.2,2.11,4.91-2,5.14-3.17.18-4.91-1.6-5.34-4.71-.3-2.19.49-4.66-1.18-6.38-2.16-.1-2.45,1.33-2.32,2.34.75,6.16-1.69,10.24-7.54,12.23-6.93,2.35-9.92-3.17-13.82-6.92-2.91-2.79.09-4.84.85-7.08s1-4.08-.82-5.67c-2.19-1.9-3.61,0-5.35,1.11-11.5,7.46-21.62,1-25.54-11.53-5-15.9,2.64-33.81-9.09-48.37-2.25-2.79-2.87-8.21-2-11.89,1.45-6.1-2.54-7-6.07-8.88-4.45-2.43-6.18-1.93-7.52,3.82-1.63,7-5.21,13.66-8.64,20.09-2.23,4.17-1.71,7.07,1.38,10.25,3.93,4,7.5,8.26.2,12.65-1.42.85-1.27,2.48-.85,4,1.93,7,2.49,13.5-5.81,17.08-1.76.76-1.16,2.32-.78,3.8a21,21,0,0,0,3.44,7.94c2.08,2.73.4,8.92,5.67,8.45,4.43-.4.36-6.58,5.28-9.89-.71,9.83-1.34,18.4-1.95,26.87-3,.17-1.56-7.4-6.59-3.62-5.88-9.8-12.13-19.4-17.58-29.43C109.18,609,91,565.56,81.07,518.91c-7.82-36.7-5.43-73.42-2-110.32,4.85-52,21-100.44,45.61-146.14,9.5-17.66,21.41-33.86,34.75-49A327,327,0,0,1,231,152.12c3.83,1,6.25-1.77,9.07-3.44h5.33c6.28-.12,8.22,6.08,12.62,8.67,9.28,5.47,9.47,8.36.8,14.59,5.16,5.46,5.16,5.4,12.71,5.32,3,0,6.19.58,7.21,3.9a4.52,4.52,0,0,1-3.45,5.51c-11.35,1.83-22.58,11.87-34.31.84a4.66,4.66,0,0,0-6.51-.09c-1.89,1.57-3.36,3.36-3.05,6,.4,3.36,3,3.25,5.34,3.18,5.6-.17,7.11,3,6.94,7.9s.57,10.09-2.37,14.66c-2,3.07-1.12,6.1,1.69,7.72,5.39,3.12,12.15,3.92,15.87,9.85.23.36,2.44,0,3.2-.59,4.86-4,12.85-5.12,12.4-14.9,4.76,5.24,8.7,9.41,10.76-.38.66-3.14,4.16-2.55,6.76-3,6.21-1.15,7.73-7.33,9.44-11.64.82-2.08,3-8.77-2.81-11.4-7.72-3.52-6.56-8.8-2.36-14.28,1.52-2,2.6-3.91,2.46-6.42-.28-4.67.09-9.25,5.42-10.85s9.94.33,13.06,5c1.89,2.84,4.75,5.29,6.75,1.59,3.42-6.33,7.92-4.84,12.71-3.3a40.19,40.19,0,0,0,14,1.65c9.16-.32,17.82-.62,24.9,7.7,4.41,5.19,11.29,2.57,11.17-4.14-.2-10.77,7.13-2.8,10.4-4.45,3.45-1.75,2.56,3.88,2.81,6.47.69,6.94-5.24,9-9.66,11.24-3.73,1.86-6.5,3.86-7.85,7.66-1.83,5.14-5.17,7-10.34,5-4.06-1.52-5.37.72-5.86,4.17-10.53.64-19,7.43-29,10-6.61,1.7-14.7,4.13-19,11.27l-.13.06c-6.59-1-10.24,6.33-16,6.48-1.89-2.56,2.94-3.57.23-5.75-3.46-.07-4.89,2.89-7.1,4.69-2.59-.83-4.2-4.76-7.64-2.74-1.71,1-1.4,3.12-1.13,4.81.7,4.4,4.32,2.84,7,3.24-4.91,6.8-13.07,9.48-18.95,14.76-5.4,4.86-15.7,1.44-17.55,11.17l-1.71-.5c-3.22-.86-4.26.8-4.41,3.69-.11,2,.06,4.51-3.24,3.82-4.82-1-4.33,2.51-3.33,4.73,1.44,3.2-.57,5.75-.48,8.6h0c-7.48-.17-12.15,5.36-17.84,8.82-1.88-2.62-4.68-1.55-7.16-1.76-2.44.2-3.52,1.53-3.36,3.95.13,2.14,1.5,2.87,3.37,3.07l1.85,1.85c1,3.4,1,6.08-1.7,9.37-4.52,5.57-8.53,11.88-6.86,19.84v.85l-.79.28c-2.22,1.89-3.17,4.05-1.47,6.78l0,.11c-1.4-.24-3.14-.05-4.12-.83-2.13-1.68-4-3.76-6.62-1.11s0,4.35,1,6.68c1.73,3.88,3.08,8.09,2.69,12.54l.15.43-.43.15c-1.32.86-1.5,2.14-1.31,3.56l0,.06c-.63,4.08-8.06,1-7,5.95,1.17,5.3-.74,10.32-.06,15.46l0-.09c-3,1.8-1.91,4.63-1.82,7.21l.06-.13c-5.56,10.61-5.54,22.13-5.51,33.65l-.13,1.9c-3.7,4.27-1.42,9.62-2.49,14.43-2.86,12.87-5.83,25.82-4.57,39.23.31,3.29-.33,6.83,4.65,6.69l.52,3.63c-1.63,3.88,0,7.2,1.79,10.5a35.57,35.57,0,0,1,1.36,4.17c7.62,38.15,23.14,73.08,43.15,106.19a4.85,4.85,0,0,0,2,4.41l1.2,2.65-.19.68.74.11,1.35,2.5c-.34,1.44.39,2,1.71,2.14l.13.15q2.9,5.77,5.77,11.55c3.58,2.42-.27,6.13,2.25,9.66C256,651.24,264.73,665.72,273.87,679.92ZM325.3,198.47c-3.33.45-7.67-1.22-11.29,1.7-2,1.59-5,2.55-4.31,6,.77,3.82,4,2.47,6.4,3,5.66,1.22,10.84-3.72,17-.56,2.64,1.34,4.27-3.27,4.52-6.23.27-3.13-1.94-3.91-4.62-3.88C330.69,198.49,328.33,198.47,325.3,198.47Zm-2.58-3.5c3-.7,8.72,1.45,7.58-4.23-1.07-5.34-1.79-13.84-8.12-13.9-3.74,0-6.22,8.52-7,13.8C314.25,196.49,319.66,194.29,322.72,195Zm-130,148.24c1.4-1.09,2.46-2.49,2.26-4.34-.16-1.45-1.38-1.69-2.6-1.33-1.77.51-1.83,2-1.77,3.49A2,2,0,0,0,192.7,343.21Zm32.18-60.47c.19-2.2-1.14-2.42-2.18-2.34s-2.47.59-2.71,1.27c-.53,1.56,1,1.8,2.11,1.8A10.51,10.51,0,0,0,224.88,282.74Z" transform="translate(-14.36 -52.56)"/><path class="cls-2" d="M366.27,201.93c.49-3.45,1.8-5.69,5.86-4.17,5.17,1.93,8.51.11,10.34-5,1.35-3.8,4.12-5.8,7.85-7.66,4.42-2.21,10.35-4.3,9.66-11.24-.25-2.59.64-8.22-2.81-6.47-3.27,1.65-10.6-6.32-10.4,4.45.12,6.71-6.76,9.33-11.17,4.14-7.08-8.32-15.74-8-24.9-7.7a40.19,40.19,0,0,1-14-1.65c-4.79-1.54-9.29-3-12.71,3.3-2,3.7-4.86,1.25-6.75-1.59-3.12-4.7-7.63-6.65-13.06-5s-5.7,6.18-5.42,10.85c.14,2.51-.94,4.44-2.46,6.42-4.2,5.48-5.36,10.76,2.36,14.28,5.79,2.63,3.63,9.32,2.81,11.4-1.71,4.31-3.23,10.49-9.44,11.64-2.6.48-6.1-.11-6.76,3-2.06,9.79-6,5.62-10.76.38.45,9.78-7.54,10.87-12.4,14.9-.76.64-3,.95-3.2.59-3.72-5.93-10.48-6.73-15.87-9.85-2.81-1.62-3.66-4.65-1.69-7.72,2.94-4.57,2.19-9.66,2.37-14.66s-1.34-8.07-6.94-7.9c-2.34.07-4.94.18-5.34-3.18-.31-2.68,1.16-4.47,3.05-6a4.66,4.66,0,0,1,6.51.09c11.73,11,23,1,34.31-.84a4.52,4.52,0,0,0,3.45-5.51c-1-3.32-4.17-3.93-7.21-3.9-7.55.08-7.55.14-12.71-5.32,8.67-6.23,8.48-9.12-.8-14.59-4.4-2.59-6.34-8.79-12.62-8.67.78-4.62,9.8-3.77,7.1-10.69h0l3.64.12c-.38,9.17,8.5,12.74,12,19.6.89,1.75,3.19,1.48,3.83-.93.73-2.76,2.75-4.46,4.59-6.33s3.51-4.36,2.05-7.06c-1.6-3-4-.8-6.2-.41-2,.36-4.49,1-5.08-1.78-.66-3.1,2.17-2.64,4-3.31,8.27-3.09,9.23-6,4.31-12.33a336.94,336.94,0,0,1,93.59-31.24c52.64-9.33,105.38-8.5,157.92.7,29.57,5.18,58.44,13.2,86.06,25.24-6.79,2.38-13.49,5.12-20.43,7-3,.8-5.37,1.91-5.31,4.77.06,3.57,3.45,2.18,5.54,2.44,6.35.77,13.06-1.44,19.33,2.56-7-1.12-11.74,5.08-18.45,4.72a5.05,5.05,0,0,0-5.21,5.93c1.48,10.46-2.53,21,1,31.43,1.41,4.08-6.94,23.27-10.67,24.11a115.67,115.67,0,0,1-22.5,3c-3.24.08-5.7-.34-7.32,2.85a5.38,5.38,0,0,1-5.33-3.49c2.59-4.5,4.84-9.13,8.22-13.21,5.74-6.93-8.54-7.46-4.94-14.23.61-1.14-1.11-2.6-2.85-2.39a4.64,4.64,0,0,0-2.37,1c-3.93,3.48-5.56,7.69,0,10.54,5.3,2.74,3.63,4.4.7,7.6-4.26,4.67-9.55,3.42-14.68,3.59.19-2.63-2.89-4.27-2.75-6.28.65-9.13-9.3-7.7-12.49-12.94-.43-.7-3.67-.23-3.39,1.39.94,5.51-2.41,6.34-6,5.17-4.1-1.33-10.68.86-11.11-7.06-.22-4.06-2.81-3.23-4.42-.63-1.36,2.2-1.75,5.59-5.47,3.41-2.77-1.62-2.79-4.49-1.73-7.07,2.11-5.15-.32-6.36-4.83-6.19-3.25.11-6.41-.84-9.57-1.17-9-.94-18.43-2.84-25.43,5.68-1.64,2-3.85,3.24-6,.79-2.9-3.37-5.43-3.3-9-.74-3,2.16-7.5,1.73-10.37,4.5-1.4,1.35-1.21,3.25-.2,4.91,6,9.79-.34,7.16-5.88,6-5.86-1.18-11.47-1.08-12.88,6.68-3.19.26-7-1.24-9.49,1C380.9,201.28,373.41,200.81,366.27,201.93Zm-86.21-44.27c-4,.06-6.13,1.73-6,5.37.2,5.86,5.43,5.45,9,6.57a3.55,3.55,0,0,0,4.66-3.86C287.23,161.21,283.82,158.84,280.06,157.66ZM598.33,120c-1.74-4.69-6.65-2.76-9.75-4.56-1.26-.74-3.43-.07-3.25,1.73.43,4.19,4.72,4.68,7.5,6.15C594.54,124.21,597.31,122.69,598.33,120ZM290.52,136c-2.84-1.5-5.69-2.39-9.37.29C284.86,138.63,287.68,138.33,290.52,136Zm279.59,61.38c-.22.49-.43,1-.64,1.47.49.21,1.09.69,1.45.56s.45-.91.66-1.4Z" transform="translate(-14.36 -52.56)"/><path class="cls-3" d="M549.26,209c1.62-3.18,4.08-2.76,7.32-2.84a115.67,115.67,0,0,0,22.5-3c3.73-.84,12.08-20,10.67-24.11-3.58-10.42.43-21-1-31.43a5.05,5.05,0,0,1,5.21-5.93c6.71.36,11.46-5.84,18.45-4.72-6.27-4-13-1.79-19.33-2.56-2.09-.26-5.48,1.13-5.54-2.44-.06-2.86,2.31-4,5.31-4.77,6.94-1.87,13.64-4.61,20.43-7,4.18-1.12,7.17,1.79,10.59,3.17a521,521,0,0,1,68.59,33.64c2.22,1.31,3.19,4.32,6.22,4.31,4.56,6.52,9.51,12.44,18.6,11.83l.59,0,.26.53c1.92,7.71,8.83,8.1,14.71,10l-.12,0c.84,6.19,4.78,8,10.44,7.48h0c.39,6,4,9.42,9.07,12.05,2.32,1.2,7.22,1.85,4.17,6.39-2.84,4.23-7.16,4.39-10.65,1.06-3.79-3.61-6.68-8.1-11.93-10.1-1.85-.7-3.84-3.06-5.43-1.25a12.29,12.29,0,0,0-2.69,7.21c-.1,2.76,2.75,2.62,4.77,2.54,6.31-.26,7.79,5.66,11.15,9,2.22,2.18-.44,5.69-2.42,4.46-7.82-4.85-15.58-.22-23.29-.84-9.28-.74-11.93-4.47-8.71-13.17,2.84-7.65-3.61-13.35-5.61-19.8-.64-2.09-9.34-4-16.56-1.65-11.72,3.77-22.87,9.74-35.27,11.38-2.4.32-5.05.29-5.52,3.26-.42,2.63,1.84,3.37,3.89,3.94,1.81.51,4,1.61,3.7,3.3-1.83,11.57,9.09,23.67-1.85,35.05-2.83,2.95-1.35,8.54,3.32,8.49,4.41,0,9,0,8.51,4.32-.42,4-6,1.34-9.18,2.07-21.69-13.63-44.6-25-67.75-35.83-.3-2.43.75-6.56-2.68-6.33-9.11.61-17-6.2-26.19-3.86a10.06,10.06,0,0,1-6.72-2A11.62,11.62,0,0,0,549.26,209Zm177.68-17.71c-.26-1.78-.69-3.52-3-3.14-.54.09-1.47,1.26-1.34,1.6.8,2.09,2.79,1.33,4.37,1.55.27,1.79.69,3.53,3,3.15.55-.09,1.48-1.26,1.35-1.6C730.52,190.8,728.53,191.56,726.94,191.33ZM609,224.5c8.86,9,19.83,10.88,28.75,16.31,1.11.68,3-.13,3.45-1.84s.51-3.86-1.5-4.47C630,231.51,621.71,224.61,609,224.5Zm106.31-42.05c-.21-1.56-1.42-1.61-2.55-1.6s-2.51.05-2.52,1.6,1.38,1.59,2.51,1.6S715.12,184,715.35,182.45Z" transform="translate(-14.36 -52.56)"/><path class="cls-4" d="M602.46,873.16c.78-5.3,7.32-1.54,9-6.74-3.65,0-7.22.1-10.78,0-1.85-.08-4.69.63-4.32-2.69.23-2.05,1.45-4,3.91-4.13,3.81-.19,7.65-.29,11.46-.15,5.39.18,10.61.28,14.3-4.75a3.79,3.79,0,0,1,4.63-1.6c4.75,1.84,8.84-.34,12.18-3,6.11-4.88,12.57-6.92,20.19-4.86C643.46,855.82,624,866.76,602.46,873.16Z" transform="translate(-14.36 -52.56)"/><path class="cls-3" d="M275.66,125.56c4.92,6.35,4,9.24-4.31,12.33-1.82.67-4.65.21-4,3.31.59,2.82,3.12,2.14,5.08,1.78,2.16-.39,4.6-2.55,6.2.41,1.46,2.7-.08,5-2.05,7.06s-3.86,3.57-4.59,6.33c-.64,2.41-2.94,2.68-3.83.93-3.5-6.86-12.38-10.43-12-19.6,7-1,14.81-.67,15.92-10.53Z" transform="translate(-14.36 -52.56)"/><path class="cls-4" d="M404.89,902.2c15.71,1.69,31.12,6.15,47.08,5.48,20.47-.85,41,2.76,61.42-.69,7.67-1.29,14.43-7.08,22.86-4.58-13.68,6.43-28.48,6.9-43.12,7.68-27.76,1.48-55.38,0-82.69-5.55C408.48,904.14,406.29,904.05,404.89,902.2Z" transform="translate(-14.36 -52.56)"/><path class="cls-4" d="M536.81,902.3c-2.26-1.55,8.23-1.49.44-4.72-2.82-1.17-12.17-1.46-8.08-8.08,3.21-5.2,7.32,1.89,10.82,3.53a62.93,62.93,0,0,0,7.14,3.15c2.46.81,6.33-.94,6.06-2.18-2.2-10.08,4-5.56,7.95-4.88,2.6.44,4-.69,4.06-3.26.09-3,.78-5.26,4.46-5.14,2.92.1,3,.76,3.16,4,.17,2.71,5.1-1.73,8.1-.62C566.42,890.64,552.59,898.82,536.81,902.3Z" transform="translate(-14.36 -52.56)"/><path class="cls-3" d="M157.07,692.27c1.71-4.08,4-7.16,7.3-1.54,1.76,3,5.61,3,7,6.2.74,1.73,1.29,3.32-.4,4.67-2,1.57-3.24.37-4-1.39-1.51-3.38-3.87-4.93-7.6-4A4.86,4.86,0,0,1,157.07,692.27Z" transform="translate(-14.36 -52.56)"/><path class="cls-4" d="M394.73,896.67c2.22,2.93,7.41.63,8.81,5-12.08-2.68-23.2-7.73-34-13.62,9.44-.23,16.33,7,25.15,8.58Z" transform="translate(-14.36 -52.56)"/><path class="cls-5" d="M197.45,747.55c4.16-3.36,6.6.22,9.87,2,6.11,3.38-.56,7,.71,10.36A37.74,37.74,0,0,1,197.45,747.55Z" transform="translate(-14.36 -52.56)"/><path class="cls-4" d="M272.09,127.58c-1.11,9.86-8.94,9.56-15.92,10.53l-3.64-.12A76.15,76.15,0,0,1,272.09,127.58Z" transform="translate(-14.36 -52.56)"/><path class="cls-4" d="M717.23,173.21c-9.09.61-14-5.31-18.6-11.83C705.66,164,711.42,168.66,717.23,173.21Z" transform="translate(-14.36 -52.56)"/><path class="cls-4" d="M252.53,138c2.7,6.92-6.32,6.07-7.1,10.69H242l-1.32-3.42C244,141.81,247.71,139,252.53,138Z" transform="translate(-14.36 -52.56)"/><path class="cls-4" d="M732.79,183.72c-5.88-1.9-12.79-2.29-14.71-10C723.34,176.53,729,178.69,732.79,183.72Z" transform="translate(-14.36 -52.56)"/><path class="cls-4" d="M671.91,841c-.06-4.66,8.29-2.89,7-9.38-.25-1.27,3.32,1.73,5.14,2.75C680.69,837.83,676.37,839.54,671.91,841Z" transform="translate(-14.36 -52.56)"/><path class="cls-4" d="M588.41,880.67c3.53-4.53,8.57-6.12,13.9-7.17C598.65,877.78,593.39,879,588.41,880.67Z" transform="translate(-14.36 -52.56)"/><path class="cls-2" d="M743.11,191.18c-5.66.56-9.6-1.29-10.44-7.48C736.62,185.54,740.34,187.7,743.11,191.18Z" transform="translate(-14.36 -52.56)"/><path class="cls-4" d="M346.88,877.09c5.38,1.1,10.44,2.8,14,7.4A37.45,37.45,0,0,1,346.88,877.09Z" transform="translate(-14.36 -52.56)"/><path class="cls-4" d="M581.21,884c2.41-2.26-2.51-4.48-.43-6,3.29-2.41,4.47,3.23,7.56,2.73A10.67,10.67,0,0,1,581.21,884Z" transform="translate(-14.36 -52.56)"/><path class="cls-4" d="M240.1,148.68c-2.82,1.67-5.24,4.44-9.07,3.44,2.13-3.16,4.93-5.27,8.83-5.67Z" transform="translate(-14.36 -52.56)"/><path class="cls-4" d="M360.71,884.41c3.34.39,6.72.68,9,3.71C366.28,887.88,363,887.42,360.71,884.41Z" transform="translate(-14.36 -52.56)"/><path class="cls-4" d="M664.72,844.51c.58-3.43,3.12-3,5.54-2.81A8.42,8.42,0,0,1,664.72,844.51Z" transform="translate(-14.36 -52.56)"/><path class="cls-2" d="M240.1,148.68l-.24-2.23a1,1,0,0,1,.79-1.19l1.32,3.42Z" transform="translate(-14.36 -52.56)"/><path class="cls-1" d="M549.24,210.81a10.06,10.06,0,0,0,6.72,2c8.9,5.46,19.28,6.7,28.87,10.19,23.15,10.87,46.06,22.2,67.75,35.83,44.36,30.14,84.65,65,114.85,109.48,44.73,65.9,54.47,137.35,27.57,213-5.27,14.81-5.64,14.68-21.28,13.16-1.06-.45-2.1-1-3.19-1.35-16-5.69-32.83-7.26-49.24-10.92A98.59,98.59,0,0,0,688.14,575l-46.88-17.68-29.13-11c-4.42-3.35-9.64-4.82-14.87-6.25-3.65-1.84-7.51-1.43-11.36-1.07-7.25-.84-11.57-6.49-17-10.3l-3.66-3.41c-5-5.28-12.45-8.43-13.27-17.3-.63-6.82-.9-13.24,1.77-19.81,2.27-5.57.17-9.72-6.32-10.46-5.71-.66-7.86,3.35-8.14,7.83-.3,4.93.9,9.94,1,14.92.31,10.77-6.12,15.19-16,11-8.64-3.68-17.12-7.76-25.78-11.4-3.11-1.31-4.73-3.19-4.8-6.49,3.95-22.69,6.95-45.48,7.92-68.52.24-5.9-.22-11.85-5.85-14.73-9.27-4.75-9.38-12.41-8.34-20.93a62,62,0,0,0,.66-9.7,204.47,204.47,0,0,1,5.36-51.61c4.44-19.54,9.2-39.2,14.66-58.59,2-5.35,3.75-10.76,4-16.53.2-1.72.43-3.45.6-5.17,1.56-15.17-1.17-30.41.78-45.57h3.25Z" transform="translate(-14.36 -52.56)"/><path class="cls-1" d="M723.25,679.87c-10.7,7.3-20.13,16.18-30.76,23.64-34,23.83-70.37,43-107.79,60.72-17.05,8.06-34.17,15.94-51.31,23.78-1.74-1.09-1.54-3-2-4.65l-11.76-42.88q-4.77-20.52-9.55-41c-2.42-15.67-7.22-30.79-10.8-46.19-1-5.45-2.14-10.89-3.05-16.36-1-6.18-1.58-12.32,3.7-17.17,7.66-6.29,11.65-15.39,17.56-23l.1-.06c3.21-.44,7.31,1.25,8.71-3.6l0,0c4-1.59,9.65,2.61,12.44-3.45l.11-.09c2.6.06,3.26-2.15,4.26-3.82,3.46-5.82,8.23-8.75,15.16-7.14,6.59,3.88,12.13,9.49,19.61,11.9l-.06.45.45,0a93.42,93.42,0,0,0,25.93,12.79h0c5.47,5.57,12.92,7.31,19.76,10.23,2.06,1.42,4.21,2.55,6.84,2.07,8,3.59,15.69,8,24.56,9.28h.08c6.92,5.45,15.51,7.19,23.37,10.57,4.24,3.46,7.27,8.31,12.43,10.7,9.19,8.38,18.47,16.67,27.51,25.22C721,673.84,725.47,675.15,723.25,679.87Z" transform="translate(-14.36 -52.56)"/><path class="cls-1" d="M449.76,802.53c-25.39-4.59-47.76-15.86-68.39-30.95-29.25-21.4-57.59-43.86-81.64-71.24-2.9-3.31-6-6.49-8.93-9.73.22-1.49.43-3,.65-4.47,6.86-2.46,12.29-7.1,17.77-11.66,3.87-1.68,6.87-4.52,9.66-7.54,9.56-10.38,19.44-20.5,28.47-31.32,13.15-15.78,25.68-32.09,38.47-48.17,7.77-7.94,16.35-15,27.87-15.53,7.93-.39,14.1-3.6,20.07-8.08,3.67.08,5.91,1.2,5.79,5.62s-.93,8.74.89,12.94c.2,2.34.39,4.68.59,7-.64,2.58-.41,5,1.58,7,2.49,7.11,4.61,14.35,10.23,19.93,3.19,3.17,4.29,7.28,4.51,11.93.39,8.43,1.52,16.82,2.34,25.22q0,11.53-.07,23.07c-.27,1.14-.55,2.27-.83,3.41l0,.12c-2.57,6.2-1.57,12.71-1.65,19.13l0,2q-1.9,22.2-3.82,44.4c-2.91,15-4.83,30-1,45.36C453.14,794.4,457.37,800.27,449.76,802.53Z" transform="translate(-14.36 -52.56)"/><path class="cls-5" d="M723.25,679.87c2.22-4.72-2.25-6-4.48-8.14-9-8.55-18.32-16.84-27.5-25.22-4.48-6.58-6.77-14.59-13.93-20.6,5.85-.52,6.41-3.33,5.45-8.13-1.16-5.77,2.58-10.24,7.11-13.2,5-3.28,8.49-8.1,13-11.69,5.55-4.39,9.31-12.23,18.35-10.71,16.41,3.66,33.28,5.23,49.24,10.92,1.09.38,2.13.9,3.19,1.35-1,.45-2.64.61-3,1.38-12.22,24.86-24.48,49.71-36.3,74.77C732,675.8,729.4,679.69,723.25,679.87Z" transform="translate(-14.36 -52.56)"/><path class="cls-5" d="M449.76,802.53c7.61-2.26,3.38-8.13,2.52-11.54-3.85-15.33-1.93-30.31,1-45.36,2.32-3.9,4.73-6.72,8.6-1.33,1,1.33,4,3.1,4.13,2.17,1.27-8.07,8.33-3.7,12.2-6,10.05-6,19.39-4.52,27.76,4.76.32-2,.56-3.14.67-4.28.24-2.58-.32-5.82,3.73-5.64s3.18,3.46,3.37,6c.16,2.1.25,4.2.38,6.55,3.66-1.88,2-6.36,5.54-7.33l11.76,42.88c.45,1.64.25,3.56,2,4.65-.66,10.93-6.44,13.14-17,13.15-17.74,0-35.46,3.06-53.24,3.94C458.93,805.31,453.76,805.67,449.76,802.53Z" transform="translate(-14.36 -52.56)"/><path class="cls-5" d="M291.45,686.14c-.22,1.49-.43,3-.65,4.47-.95-.59-2.23-1.93-2.8-1.68-9.37,4.17-11.09-3.43-14.13-9-9.14-14.2-17.89-28.68-27.71-42.39-2.52-3.53,1.33-7.24-2.25-9.66,8.25-.55,13.68-6.49,20.11-10.52l4.55-1.74a2.73,2.73,0,0,0,3.29-1.55c5.46-2.92,10.38-6.86,16.4-8.72,7.54,5.46,7.29,9.54-2.09,14.74,7,1.38,6,6.41,5.32,10.46-1.66,9.61-1.54,19-.72,28.75C291.52,668.15,293.24,677.15,291.45,686.14Z" transform="translate(-14.36 -52.56)"/><path class="cls-3" d="M186.15,702.86c-4.68-2.83-5-5.83-2.72-8.77,4.26-5.51,4-11.21,2.13-17.48-.73-2.38-.25-5.23.11-7.81a2.69,2.69,0,0,1,3.2-2.33c1,.21,2.46,1.22,2.56,2,1.11,9.41,8.25,9.3,15,9.64,9.43.48,13.33,7.54,8.51,15.57-.66,1.11-2.11,2.13-2.71,1.05-2.88-5.26-8.26-3.54-12.51-4.9-10.05-3.22-10.82-2.77-12.84,7.81C186.64,699,186.49,700.46,186.15,702.86Z" transform="translate(-14.36 -52.56)"/><path class="cls-3" d="M180.59,680c-.22,1.47-1.42,1.55-2.56,1.54s-2.53,0-2.52-1.61,1.38-1.61,2.52-1.61S180.41,678.3,180.59,680Z" transform="translate(-14.36 -52.56)"/><path class="cls-4" d="M394.7,896.64l.42-.74-.39.77Z" transform="translate(-14.36 -52.56)"/><path class="cls-1" d="M268.57,615.61,264,617.35c-8.72,2-17.62,8.44-25.88-1l-.13-.15c.34-1.44-.44-2-1.71-2.14l-1.35-2.5v-.59l-.56-.2-1.2-2.65c.23-1.89.07-3.59-2-4.41-20-33.11-35.53-68-43.15-106.19a35.57,35.57,0,0,0-1.36-4.17,25,25,0,0,0-1.79-10.5l-.52-3.63c-1.4-20.2,1.7-40.23,2.41-60.35l.13-1.9q2.76-16.81,5.51-33.65l-.06.13a8.92,8.92,0,0,0,1.82-7.21l0,.09c2.75-7,6.1-13.81,7-21.41l0-.06c.44-1.19.87-2.38,1.31-3.56l.43-.15-.15-.43c3.65-5.23,5.67-11.12,7.05-17.28l0-.11,1.47-6.78.79-.28v-.85c2.32-.52,3.13-2.5,4.1-4.3,7.86-14.52,17.45-27.87,27.6-40.84h0c11.67-11.52,23.69-22.69,37.09-32.17,12.19-8.62,24.85-16.58,37.3-24.83l.13-.06c22.35-8.19,44-18.67,67.78-22.3,10.92-1.67,21.82-5.39,33.11-2.2l0,.05,2.28,21.13c-1,11.08,1.42,21.83,3.15,32.65-1,6.46.72,12.62,2.12,18.82l.24,3.47.38,3.48c4.79,26.2,7,52.93,15.35,78.39a219.78,219.78,0,0,1,8.37,37c.91,6.29,0,11.29-5.1,15.75-13.48,11.86-22.37,28.12-37.07,38.88-5,3.65-3.44,6.48,1.39,9,7.23,3.78,11.92,1.51,16.34-4.92,3-4.37,6.65-10.09,13.37-7.92,6.55,2.11,8,8.15,8.05,14.36,0,11.5-.09,23-.15,34.52-1.61,2.76.11,6.53-2.91,8.94-9.59,7.66-18.86,15.75-28.74,23-5.56,4.07-10.33,2.22-13.38-4.32-2.25-4.81-2.11-10.35-5.31-14.88-2.53-3.58-4.18-9.05-9.75-6-5.16,2.86-4.42,8-1.3,12.22,12.41,16.87,6.85,32-4.24,46.65-28.38,12.1-56.85,24-83.47,39.78l-10.58,6.58c-6,1.86-10.95,5.8-16.41,8.72C270.47,614,269.22,614.15,268.57,615.61Z" transform="translate(-14.36 -52.56)"/><path class="cls-4" d="M318.17,223.26c-12.45,8.25-25.11,16.21-37.3,24.83-13.4,9.48-25.42,20.65-37.09,32.17-.09-2.85,1.92-5.4.48-8.6-1-2.22-1.49-5.74,3.33-4.73,3.3.69,3.13-1.79,3.24-3.82.15-2.89,1.19-4.55,4.41-3.69l1.71.5c1.85-9.73,12.15-6.31,17.55-11.17,5.88-5.28,14-8,18.95-14.76,2.09-1.26,1.73-3.36,1.81-5.31,2.21-1.8,3.64-4.76,7.1-4.69,2.71,2.18-2.12,3.19-.23,5.75C307.93,229.59,311.58,222.26,318.17,223.26Z" transform="translate(-14.36 -52.56)"/><path class="cls-4" d="M419.19,198.7c-11.29-3.19-22.19.53-33.11,2.2-23.8,3.63-45.43,14.11-67.78,22.3,4.26-7.14,12.35-9.57,19-11.27,10.05-2.57,18.48-9.36,29-10,7.14-1.12,14.63-.65,20.7-6,2.53-2.23,6.3-.73,9.49-1,5.55,0,11.11-.12,16.65,0C415.8,195,419.33,194,419.19,198.7Z" transform="translate(-14.36 -52.56)"/><path class="cls-4" d="M243.79,280.25c-10.15,13-19.74,26.32-27.6,40.84-1,1.8-1.78,3.78-4.1,4.3-1.67-8,2.34-14.27,6.86-19.84,2.66-3.29,2.66-6,1.7-9.37,4.57-.28,5.46-3.3,5.3-7.11C231.64,285.61,236.31,280.08,243.79,280.25Z" transform="translate(-14.36 -52.56)"/><path class="cls-2" d="M325.3,198.47c3,0,5.39,0,7.74,0,2.68,0,4.89.75,4.62,3.88-.25,3-1.88,7.57-4.52,6.23-6.2-3.16-11.38,1.78-17,.56-2.4-.51-5.63.84-6.4-3-.68-3.44,2.34-4.4,4.31-6C317.63,197.25,322,198.92,325.3,198.47Z" transform="translate(-14.36 -52.56)"/><path class="cls-4" d="M186.77,418.84C186.06,439,183,459,184.36,479.19c-5,.14-4.34-3.4-4.65-6.69-1.26-13.41,1.71-26.36,4.57-39.23C185.35,428.46,183.07,423.11,186.77,418.84Z" transform="translate(-14.36 -52.56)"/><path class="cls-2" d="M322.72,195c-3.06-.68-8.47,1.52-7.57-4.33.81-5.28,3.29-13.83,7-13.8,6.33.06,7.05,8.56,8.12,13.9C331.44,196.42,325.76,194.27,322.72,195Z" transform="translate(-14.36 -52.56)"/><path class="cls-4" d="M209.81,333.41c-1.38,6.16-3.4,12-7.05,17.28.39-4.45-1-8.66-2.69-12.54-1-2.33-3.61-4-1-6.68s4.49-.57,6.62,1.11C206.67,333.36,208.41,333.17,209.81,333.41Z" transform="translate(-14.36 -52.56)"/><path class="cls-6" d="M238.14,616.32c8.26,9.47,17.16,3,25.88,1-6.43,4-11.86,10-20.11,10.52Q241,622.1,238.14,616.32Z" transform="translate(-14.36 -52.56)"/><path class="cls-4" d="M201.15,354.89c-.92,7.6-4.27,14.41-7,21.41-.68-5.14,1.23-10.16.06-15.46C193.09,355.87,200.52,359,201.15,354.89Z" transform="translate(-14.36 -52.56)"/><path class="cls-4" d="M192.41,383.29q-2.76,16.83-5.51,33.65C186.87,405.42,186.85,393.9,192.41,383.29Z" transform="translate(-14.36 -52.56)"/><path class="cls-2" d="M295.26,228.68c-.08,1.95.28,4-1.81,5.31-2.64-.4-6.26,1.16-7-3.24-.27-1.69-.58-3.81,1.13-4.81C291.06,223.92,292.67,227.85,295.26,228.68Z" transform="translate(-14.36 -52.56)"/><path class="cls-2" d="M226,289.07c.16,3.81-.73,6.83-5.3,7.11l-1.85-1.85c0-2.34,0-4.68,0-7C221.27,287.52,224.07,286.45,226,289.07Z" transform="translate(-14.36 -52.56)"/><path class="cls-4" d="M192.7,343.21a2,2,0,0,1-2.11-2.18c-.06-1.45,0-3,1.77-3.49,1.22-.36,2.44-.12,2.6,1.33C195.16,340.72,194.1,342.12,192.7,343.21Z" transform="translate(-14.36 -52.56)"/><path class="cls-4" d="M184.88,482.82a25,25,0,0,1,1.79,10.5C184.89,490,183.25,486.7,184.88,482.82Z" transform="translate(-14.36 -52.56)"/><path class="cls-4" d="M218.79,287.31c0,2.34,0,4.68,0,7-1.87-.2-3.24-.93-3.37-3.07C215.27,288.84,216.35,287.51,218.79,287.31Z" transform="translate(-14.36 -52.56)"/><path class="cls-4" d="M224.88,282.74a10.51,10.51,0,0,1-2.78.73c-1.06,0-2.64-.24-2.11-1.8.24-.68,1.74-1.18,2.71-1.27S225.07,280.54,224.88,282.74Z" transform="translate(-14.36 -52.56)"/><path class="cls-4" d="M211.3,326.52l-1.47,6.78C208.13,330.57,209.08,328.41,211.3,326.52Z" transform="translate(-14.36 -52.56)"/><path class="cls-4" d="M194.17,376.21a8.92,8.92,0,0,1-1.82,7.21C192.26,380.84,191.19,378,194.17,376.21Z" transform="translate(-14.36 -52.56)"/><path class="cls-6" d="M231.18,603.68c2.09.82,2.25,2.52,2,4.41A4.85,4.85,0,0,1,231.18,603.68Z" transform="translate(-14.36 -52.56)"/><path class="cls-4" d="M202.48,351.27c-.44,1.18-.87,2.37-1.31,3.56C201,353.41,201.16,352.13,202.48,351.27Z" transform="translate(-14.36 -52.56)"/><path class="cls-6" d="M236.3,614c1.27.15,2,.7,1.71,2.14C236.69,616.06,236,615.47,236.3,614Z" transform="translate(-14.36 -52.56)"/><polygon class="cls-6" points="220.04 558.18 220.6 558.38 220.59 558.97 219.86 558.86 220.04 558.18"/><path class="cls-3" d="M419.19,198.7c.14-4.71-3.39-3.75-6.08-3.8-5.54-.09-11.1,0-16.65,0,1.41-7.76,7-7.86,12.88-6.68,5.54,1.12,11.84,3.75,5.88-6-1-1.66-1.2-3.56.2-4.91,2.87-2.77,7.35-2.34,10.37-4.5,3.59-2.56,6.12-2.63,9,.74,2.11,2.45,4.32,1.22,6-.79,7-8.52,16.46-6.62,25.43-5.68,3.16.33,6.32,1.28,9.57,1.17,4.51-.17,6.94,1,4.83,6.19-1.06,2.58-1,5.45,1.73,7.07,3.72,2.18,4.11-1.21,5.47-3.41,1.61-2.6,4.2-3.43,4.42.63.43,7.92,7,5.73,11.11,7.06,3.59,1.17,6.94.34,6-5.17-.28-1.62,3-2.09,3.39-1.39,3.19,5.24,13.14,3.81,12.49,12.94-.14,2,2.94,3.65,2.75,6.28l0,0c-4.29-.43-7.53,2.19-11.12,3.81l-3.24,0c-5.46,10.28-14.5,11.4-24.94,10.59-6.22-.49-13-1.87-18.73,2.74-.91.73-3.37.86-4.18.17-5.34-4.54-11-2.49-16.72-1.41-4.87.91-9.85,1.21-14.77,1.88-7.94,1.08-11.54-2.21-11.18-10.31.12-2.81,1.61-7-3.82-7.17Z" transform="translate(-14.36 -52.56)"/><path class="cls-3" d="M528,198.44c5.13-.17,10.42,1.08,14.68-3.59,2.93-3.2,4.6-4.86-.7-7.6-5.51-2.85-3.88-7.06,0-10.54a4.64,4.64,0,0,1,2.37-1c1.74-.21,3.46,1.25,2.85,2.39-3.6,6.77,10.68,7.3,4.94,14.23-3.38,4.08-5.63,8.71-8.22,13.21-5.77-1.38-14.39,3.68-16-7.09Z" transform="translate(-14.36 -52.56)"/><path class="cls-3" d="M280.06,157.66c3.76,1.18,7.17,3.55,7.7,8.08a3.55,3.55,0,0,1-4.66,3.86c-3.61-1.12-8.84-.71-9-6.57C273.93,159.39,276.05,157.72,280.06,157.66Z" transform="translate(-14.36 -52.56)"/><path class="cls-4" d="M527.93,198.47c1.61,10.77,10.23,5.71,16,7.09a5.38,5.38,0,0,0,5.33,3.49,11.51,11.51,0,0,1,0,1.76l-32.43-8.53C520.4,200.66,523.64,198,527.93,198.47Z" transform="translate(-14.36 -52.56)"/><path class="cls-3" d="M598.33,120c-1,2.71-3.79,4.23-5.5,3.32-2.78-1.47-7.07-2-7.5-6.15-.18-1.8,2-2.47,3.25-1.73C591.68,117.22,596.59,115.29,598.33,120Z" transform="translate(-14.36 -52.56)"/><path class="cls-3" d="M290.52,136c-2.84,2.29-5.66,2.59-9.37.29C284.83,133.65,287.68,134.54,290.52,136Z" transform="translate(-14.36 -52.56)"/><path class="cls-3" d="M570.11,197.42l1.47.63c-.21.49-.31,1.26-.66,1.4s-1-.35-1.45-.56C569.68,198.4,569.89,197.91,570.11,197.42Z" transform="translate(-14.36 -52.56)"/><path class="cls-2" d="M609,224.5c12.67.11,21,7,30.7,10,2,.61,2,2.68,1.5,4.47s-2.34,2.52-3.45,1.84C628.87,235.38,617.9,233.46,609,224.5Z" transform="translate(-14.36 -52.56)"/><path class="cls-4" d="M584.83,223c-9.59-3.49-20-4.73-28.87-10.19,9.22-2.34,17.08,4.47,26.19,3.86C585.58,216.45,584.53,220.58,584.83,223Z" transform="translate(-14.36 -52.56)"/><path class="cls-4" d="M715.35,182.45c-.23,1.53-1.42,1.6-2.56,1.6s-2.51,0-2.51-1.6,1.39-1.59,2.52-1.6S715.14,180.89,715.35,182.45Z" transform="translate(-14.36 -52.56)"/><path class="cls-2" d="M726.94,191.33c1.59.23,3.58-.53,4.38,1.56.13.34-.8,1.51-1.35,1.6-2.35.38-2.77-1.36-3-3.15Z" transform="translate(-14.36 -52.56)"/><path class="cls-2" d="M726.93,191.34c-1.58-.22-3.57.54-4.37-1.55-.13-.34.8-1.51,1.34-1.6,2.35-.38,2.78,1.36,3,3.14Z" transform="translate(-14.36 -52.56)"/><path class="cls-7" d="M427,274.82l-.24-3.47c15.93-3.66,32.51.42,48.3-3.85a30.07,30.07,0,0,1,18.17.42c4.9,1.66,9.86,1.66,14.88,1.62-5.46,19.39-10.22,39-14.66,58.59a204.47,204.47,0,0,0-5.36,51.61,62,62,0,0,1-.66,9.7c-1,8.52-.93,16.18,8.34,20.93,5.63,2.88,6.09,8.83,5.85,14.73-1,23-4,45.83-7.92,68.51-2.13.35-.32,4.47-3.28,3.68-2.33-.63-3.27-2.82-3.67-5.13.17-7.89,2.92-16-2.08-23.64-1.8,9.11-6.64,17.35-6.2,26.84.07,2.36-1.45,5.07,1.5,6.79l-.18,2.26a3.67,3.67,0,0,0-3.17,2.76c-2.93.46-1.95-1.81-2.23-3.19q-.8-4.38-1.58-8.76c3.7-8.07,2.57-16.21,1.58-26.22-7,9.17-3.54,17.9-4.94,25.9.84,4.35-6.77,6.13-4,10.23,2.65,3.87,1.45,7.67,2.13,11.47l-1,7.2-4.18-.23c-2.23-1.48-2.83-3.6-2.37-6.12-.27-.88-.53-1.77-.79-2.66a2,2,0,0,1-.78-1.55c2.37-7.56,3.83-15.13.13-22.72,7-6.86,5.16-15,3.84-23.11-4.12,7-4.56,14.74-5.46,22.39-1.26,1.83-2.54,3.63-3.76,5.48-.92,1.42-1.81,3.29-3.79,2.52s-1.17-2.9-1.52-4.47c.06-11.51.2-23,.15-34.52,0-6.21-1.5-12.25-8.05-14.36-6.72-2.17-10.37,3.55-13.37,7.92-4.42,6.43-9.11,8.7-16.34,4.92-4.83-2.53-6.37-5.36-1.39-9,14.7-10.76,23.59-27,37.07-38.88,5.07-4.46,6-9.46,5.1-15.75a219.78,219.78,0,0,0-8.37-37c-8.32-25.46-10.56-52.19-15.35-78.39C428.81,277,428.53,275.83,427,274.82Z" transform="translate(-14.36 -52.56)"/><path class="cls-8" d="M486.77,492.16c.4,2.31,1.34,4.5,3.67,5.13,3,.79,1.15-3.33,3.28-3.68.07,3.31,1.69,5.19,4.8,6.5,8.66,3.64,17.14,7.72,25.78,11.4,9.88,4.2,16.31-.22,16-11-.14-5-1.34-10-1-14.92.28-4.48,2.43-8.49,8.14-7.83,6.49.74,8.59,4.89,6.32,10.46-2.67,6.57-2.4,13-1.77,19.81.82,8.87,8.26,12,13.27,17.3-4.3-.53-6.85.95-8.72,5.3-5.38,12.55-10.77,25.16-17.4,37.06-3.13,5.61-1.17,7,3.13,8.8-5.28,2.09-10.79-.78-16.1.76l-7,.29c-3-.24-5.75-3.09-9-.92-3.52-.12-6.78-2.36-10.45-1.31-8.17.81-14.27-2.63-18.71-9.27-1.4-2.08-1.78-4.48-.17-6.63,2.3-3.07,3.77.28,5.7.67,4.05.83,6.48,5.6,11.2,4.3,3.16.54,6.33,1.56,9.47,1.49,2.64-.06,5-1.48,4.83-5-.15-3,.1-6.34-3.61-7-2.8-.54-5.81,0-8.73.08-4.05-.11-7.89-1.21-11.82-2.06-5.38-1.17-11.08-4.16-16.42.4-.86-2.42.47-5.57-2.43-7.32.54-2.5-1.22-5.6,1.95-7.41l10.81,2.07c.62,1.65,2.16,1.65,3.51,2,4.59,1.68,9.1,3.62,13.79,4.91,1.82.5,4.64,4.53,6.12-.59,2.72-1.18,5.29-2.5,5.77-5.87,2.42-5-.19-6.91-4.71-7.27-4-.31-8-.23-12-.33l-3.17-.72c-6.75-4-14.21-2.86-21.5-2.94,0-2.2-1.67-3.46-2.92-5q.5-3.6,1-7.2l.77-.14.78.11c4.68,3.24,9.76.89,14.66,1l12.1,2.62c5.08,2,10.75,2.19,15.25,6a4.28,4.28,0,0,0,6.78-1.52c1.79-3.44-1.41-4.77-3.59-5.81-3.93-1.87-8.13-3.2-12.22-4.75l-.38-.27c-.81-2-2.26-2.67-4.32-2-3.31-1.46-6-5.3-10.36-2.72-3.28-1.41-2.22-7.24-7.13-7-2.95-1.72-1.43-4.43-1.5-6.8C481.75,495.6,484.65,494.9,486.77,492.16Z" transform="translate(-14.36 -52.56)"/><path class="cls-9" d="M542.23,576.5c-4.3-1.78-6.26-3.19-3.13-8.8,6.63-11.9,12-24.51,17.4-37.06,1.87-4.35,4.42-5.83,8.72-5.3l3.66,3.41c3,7.87,7.78,12.76,17,10.3,3.85-.36,7.71-.77,11.36,1.07.4,6.72-4.56,1.64-6.69,3-1.42.87-4.71-1-4.27,2.54.26,2.11-.44,5.29,2.6,5.94,4.61,1,9.19,4,14.05-.34,2.48-2.22,5.42-4.59,9.18-4.84l29.13,11c-3.21,0-6.44-.14-9.65,0-2.47.13-5.13-.85-7.22,1.79-10.32,13-11.56,29.31-16.63,44.23l-3.54.3h0c-6.67-8.28-16.5-10.12-25.93-12.79l-.45,0,.06-.45c-2.53-10.28-10.7-12.39-19.56-13.5l-.35-.21c-1.8-3.08-3.87-4.89-7.06-1.51Z" transform="translate(-14.36 -52.56)"/><path class="cls-10" d="M508.13,269.54c-5,0-10,0-14.88-1.62a30.07,30.07,0,0,0-18.17-.42c-15.79,4.27-32.37.19-48.3,3.85-1.4-6.2-3.07-12.36-2.12-18.82.12-3.23.34-6.46.34-9.7,0-3,.8-4.88,4.34-5.28,14.08-1.57,28-4.74,42.35-3.66,8.78.66,17.89,1.29,26.4-.35,5-1,9-3,13.39.64l.7,18.83C511.88,258.78,510.13,264.19,508.13,269.54Z" transform="translate(-14.36 -52.56)"/><path class="cls-11" d="M607.76,603.37c5.07-14.92,6.31-31.26,16.63-44.23,2.09-2.64,4.75-1.66,7.22-1.79,3.21-.17,6.44,0,9.65,0L688.14,575c-9.34,2.42-17.6-3.37-26.6-3.43-2.21,0-5.24-.6-5.24,3,0,2.9,2.31,4.11,4.86,4,5.51-.24,9.13,3.15,15,6.46-13.05,1.28-19.18,6.83-21,18.49-1.17,7.49-.68,14.51.18,21.74-8.87-1.27-16.56-5.69-24.56-9.28.61-.41,2.83-.53,1.38-1.35-2.3-1.31-5.29-1.39-8-2l-.56-.56c-.45-.43-.89-.87-1.33-1.31l-.32-.32c-2.18-7.27-8-7.18-13.88-6.81Z" transform="translate(-14.36 -52.56)"/><path class="cls-12" d="M655.38,625.25c-.86-7.23-1.35-14.25-.18-21.74,1.82-11.66,7.95-17.21,21-18.49-5.91-3.31-9.53-6.7-15-6.46-2.55.11-4.85-1.1-4.86-4,0-3.59,3-3,5.24-3,9,.06,17.26,5.85,26.6,3.43a98.59,98.59,0,0,1,33.15,7.18c-9-1.52-12.8,6.32-18.35,10.71-4.55,3.59-8,8.41-13,11.69-4.53,3-8.27,7.43-7.11,13.2,1,4.8.4,7.61-5.45,8.13,7.16,6,9.45,14,13.93,20.6-5.17-2.39-8.2-7.24-12.44-10.7-4.65-10.47-13.41-11.85-23.37-10.57Z" transform="translate(-14.36 -52.56)"/><path class="cls-4" d="M512.18,253q-.36-9.42-.7-18.84c4.19-10.3-7.16-11.12-11-18.54.27,9.2-5.33,7.64-10,7.65-15.61,0-31.3.89-46.82-.36-7.32-.59-15.26.91-22.23-3l-2.28-21.13c5.43.14,3.94,4.36,3.82,7.17-.36,8.1,3.24,11.39,11.18,10.31,4.92-.67,9.9-1,14.77-1.88,5.75-1.08,11.38-3.13,16.72,1.41.81.69,3.27.56,4.18-.17,5.76-4.61,12.51-3.23,18.73-2.74,10.44.81,19.48-.31,24.94-10.59-2,15.17.77,30.41-.79,45.58C512.61,249.56,512.38,251.29,512.18,253Z" transform="translate(-14.36 -52.56)"/><path class="cls-8" d="M612.13,546.37c-3.76.25-6.7,2.62-9.18,4.84-4.86,4.37-9.44,1.32-14.05.34-3-.65-2.34-3.83-2.6-5.94-.44-3.56,2.85-1.67,4.27-2.54,2.13-1.31,7.09,3.77,6.69-3C602.49,541.55,607.71,543,612.13,546.37Z" transform="translate(-14.36 -52.56)"/><path class="cls-8" d="M585.9,539.05c-9.24,2.46-14-2.43-17-10.3C574.33,532.56,578.65,538.21,585.9,539.05Z" transform="translate(-14.36 -52.56)"/><path class="cls-13" d="M441,589.42c-.2-2.34-.39-4.68-.59-7,2.75-3,6-3.92,10.16-3.85,16.19.27,32.39.15,48.58.17,3.17,8.34,9.06,11.95,18,10.35,2.71.31,5.36.52,5.16-3.49l.11-.21c3,.89,4.74-1.53,7.07-2.59,6.58-3,10.1-.32,9.42,6.7l-.11.09c-4.41.2-9.63-2.53-12.44,3.45l0,0c-3.23.41-7.91-2.68-8.71,3.6l-.1.06c-1.39.14-3.49-.24-4.06.52-5.27,7-11.35,13.6-13.5,22.5-5.28,4.85-4.73,11-3.7,17.17.91,5.47,2,10.91,3.05,16.36-4.34-4.27-3.67-10.3-5.43-15.48-.75-2.21-1-5.23-2.55-6.44-8.37-6.44-23.7-.31-27.53,10.17-1.44,4,.25,9-4.09,12-.82-8.4-1.95-16.79-2.34-25.22-.22-4.65-1.32-8.76-4.51-11.93-5.62-5.58-7.74-12.82-10.23-19.93C442.75,593.91,443.43,591.31,441,589.42Z" transform="translate(-14.36 -52.56)"/><path class="cls-14" d="M459.69,653.46c4.34-2.91,2.65-8,4.09-12,3.83-10.48,19.16-16.61,27.53-10.17,1.57,1.21,1.8,4.23,2.55,6.44,1.76,5.18,1.09,11.21,5.43,15.48,3.58,15.4,8.38,30.52,10.8,46.19-4.3-.23-2.5,4.79-5.51,6.27-2.22-1.35-.83-6-4.09-5.91-5.53.12-11.15-4.24-16.71,1.07-3.07,2.92-8.72,3.89-11.59,1.21-6.79-6.34-8.39-1.83-9.85,5.33-1.92-3.35-2.23-6.23-5.26-6.19,0-.68,0-1.36,0-2,2.9-6.17,1.57-12.71,1.65-19.13l0-.12c1.43-.86,2.16-1.88.83-3.41Q459.65,665,459.69,653.46Z" transform="translate(-14.36 -52.56)"/><path class="cls-12" d="M457.08,701.23c3,0,3.34,2.84,5.26,6.19,1.46-7.16,3.06-11.67,9.85-5.33,2.87,2.68,8.52,1.71,11.59-1.21,5.56-5.31,11.18-1,16.71-1.07,3.26-.07,1.87,4.56,4.09,5.91,3-1.48,1.21-6.5,5.51-6.27q4.79,20.52,9.55,41c-3.56,1-1.88,5.45-5.54,7.33-.13-2.35-.22-4.45-.38-6.55-.19-2.51.64-5.8-3.37-6s-3.49,3.06-3.73,5.64c-.11,1.14-.35,2.27-.67,4.28-8.37-9.28-17.71-10.8-27.76-4.76-3.87,2.32-10.93-2.05-12.2,6-.14.93-3.17-.84-4.13-2.17-3.87-5.39-6.28-2.57-8.6,1.33Q455.18,723.43,457.08,701.23Z" transform="translate(-14.36 -52.56)"/><path class="cls-15" d="M538.9,589.48c.68-7-2.84-9.68-9.42-6.7-2.33,1.06-4,3.48-7.07,2.6-.71-3.6,7-3.35,3.72-8.12,5.31-1.54,10.82,1.33,16.1-.76l8.73-1.29,7.06,1.5.35.21c0,.54,0,1.07,0,1.6-6.93-1.61-11.7,1.32-15.16,7.14C542.16,587.33,541.5,589.54,538.9,589.48Z" transform="translate(-14.36 -52.56)"/><path class="cls-8" d="M558.32,578.52c0-.53,0-1.06,0-1.6,8.86,1.11,17,3.22,19.56,13.5C570.45,588,564.91,582.4,558.32,578.52Z" transform="translate(-14.36 -52.56)"/><path class="cls-11" d="M655.46,625.24c10-1.28,18.72.1,23.37,10.57C671,632.43,662.38,630.69,655.46,625.24Z" transform="translate(-14.36 -52.56)"/><path class="cls-15" d="M499.94,619.73c2.15-8.9,8.23-15.48,13.5-22.5.57-.76,2.67-.38,4.06-.52C511.59,604.34,507.6,613.44,499.94,619.73Z" transform="translate(-14.36 -52.56)"/><path class="cls-8" d="M578.32,590.89c9.43,2.67,19.26,4.51,25.93,12.79A93.42,93.42,0,0,1,578.32,590.89Z" transform="translate(-14.36 -52.56)"/><path class="cls-8" d="M604.22,603.67l3.54-.3.36.26A35.09,35.09,0,0,0,622,610.44l.31.32,1.34,1.31.55.55c-.08.43-.15.86-.22,1.28C617.14,611,609.69,609.24,604.22,603.67Z" transform="translate(-14.36 -52.56)"/><path class="cls-15" d="M526.35,593c2.81-6,8-3.25,12.44-3.45C536,595.63,530.38,591.43,526.35,593Z" transform="translate(-14.36 -52.56)"/><path class="cls-15" d="M517.6,596.65c.8-6.28,5.48-3.19,8.71-3.6C524.91,597.9,520.81,596.21,517.6,596.65Z" transform="translate(-14.36 -52.56)"/><path class="cls-9" d="M624,613.9c.07-.42.14-.85.22-1.28,2.71.61,5.7.69,8,2,1.45.82-.77.94-1.38,1.35C628.19,616.45,626,615.32,624,613.9Z" transform="translate(-14.36 -52.56)"/><path class="cls-16" d="M298.85,598.76C325.47,583,353.94,571.08,382.32,559c3.2,2.73-.16,5.22-.16,7.78,0,7-5.68,15.28,3.66,20.69-12.79,16.08-25.32,32.39-38.47,48.17-9,10.82-18.91,20.94-28.47,31.32-2.79,3-5.79,5.86-9.66,7.54-1-.82-1.66-2.18-.8-3.05,8.13-8.3,10.41-17.28,3.62-27.51a2.31,2.31,0,0,1-.24-1.71c3.16-10.34-.81-21.22,2.54-31.6,1.47-4.53-.15-7.36-5.65-7.16C304.79,603.59,300,604.85,298.85,598.76Z" transform="translate(-14.36 -52.56)"/><path class="cls-10" d="M385.82,587.45c-9.34-5.41-3.67-13.64-3.66-20.69,0-2.56,3.36-5,.16-7.78,11.09-14.67,16.65-29.78,4.24-46.65-3.12-4.25-3.86-9.36,1.3-12.22,5.57-3.09,7.22,2.38,9.75,6,3.2,4.53,3.06,10.07,5.31,14.88,3.05,6.54,7.82,8.39,13.38,4.32,9.88-7.25,19.15-15.34,28.74-23,3-2.41,1.3-6.18,2.91-8.94.35,1.57-.33,3.75,1.52,4.47s2.87-1.1,3.79-2.52c1.22-1.85,2.5-3.65,3.76-5.48l1.62.72c3.7,7.59,2.24,15.16-.13,22.72a7,7,0,0,0-7.29,5.34c-.77,6.66-5.36,11.45-7.38,16,2.46,5.23,9.43-5.87,8.34,3.4-.57,4.82-4,8.65,1.28,12.77.91.69-.46,2.69-1.73,3.63a5.85,5.85,0,0,0-5.22.85c-6.34-4.33-4.68-11.52-6.3-17.55-.79-2.94-1.85-6-5.75-5.18-4.29.93-4.42,4.37-3.3,7.64a51.23,51.23,0,0,0,5,11.24c3.38,5.21,2.23,9-2.36,12.44-6,4.48-12.14,7.69-20.07,8.08C402.17,572.49,393.59,579.51,385.82,587.45Zm59.84-70.55c-3.79.73-5.66,3.54-7.82,5.85-.6.63-.48,2.11-.34,3.16a2.65,2.65,0,0,0,2.16.42C442.56,523.89,447.28,522.46,445.66,516.9Z" transform="translate(-14.36 -52.56)"/><path class="cls-15" d="M433.76,563.84c4.59-3.42,5.74-7.23,2.36-12.44a51.23,51.23,0,0,1-5-11.24c-1.12-3.27-1-6.71,3.3-7.64,3.9-.83,5,2.24,5.75,5.18,1.62,6,0,13.22,6.3,17.55-.17,3.66-1.59,7.67,3,9.94,1.85.92,3.6.74,4.52-1,2-3.79,1.56-7.24-2.29-9.77,1.27-.94,2.64-2.94,1.73-3.63-5.32-4.12-1.85-7.95-1.28-12.77,1.09-9.27-5.88,1.83-8.34-3.4,2-4.57,6.61-9.36,7.38-16a7,7,0,0,1,7.29-5.34,2,2,0,0,0,.77,1.55c.27.89.53,1.78.8,2.66-.46,2.52.14,4.64,2.37,6.11-.79,3.32-3,6.34-2.13,10-2.16,4.75.09,8.83,2,13q.4,4,.82,7.92c-1.89,5,1.77,6.46,5.12,6.07,4.17-.49,2.78-3.38.94-5.67.76-.87,1.51-1.75,2.26-2.62,5.34-4.56,11-1.57,16.42-.4,3.93.85,7.77,1.95,11.82,2-.77,3.48-2.91,6.7-2,10.5-4.72,1.3-7.15-3.47-11.2-4.3-1.93-.39-3.4-3.74-5.7-.67-1.61,2.15-1.23,4.55.17,6.63,4.44,6.64,10.54,10.08,18.71,9.27l-.51,3.4c-16.19,0-32.39.1-48.58-.17-4.14-.07-7.41.89-10.16,3.85-1.82-4.2-1-8.64-.89-12.94S437.43,563.92,433.76,563.84Z" transform="translate(-14.36 -52.56)"/><path class="cls-4" d="M298.85,598.76c1.1,6.09,5.94,4.83,9.84,4.69,5.5-.2,7.12,2.63,5.65,7.16-3.35,10.38.62,21.26-2.54,31.6a2.31,2.31,0,0,0,.24,1.71c6.79,10.23,4.51,19.21-3.62,27.51-.86.87-.24,2.23.8,3.05-5.48,4.56-10.91,9.2-17.77,11.66,1.79-9,.07-18-.68-26.85-.82-9.71-.94-19.14.72-28.75.71-4,1.71-9.08-5.32-10.46,9.38-5.2,9.63-9.28,2.09-14.74Z" transform="translate(-14.36 -52.56)"/><path class="cls-13" d="M458.77,680.06c-.08,6.42,1.25,13-1.65,19.13C457.2,692.77,456.2,686.26,458.77,680.06Z" transform="translate(-14.36 -52.56)"/><path class="cls-15" d="M441,589.42c2.4,1.89,1.72,4.49,1.58,7C440.62,594.39,440.39,592,441,589.42Z" transform="translate(-14.36 -52.56)"/><path class="cls-13" d="M459.62,676.53c1.33,1.53.6,2.55-.83,3.41C459.07,678.8,459.35,677.67,459.62,676.53Z" transform="translate(-14.36 -52.56)"/><path class="cls-6" d="M268.57,615.61c.65-1.46,1.9-1.66,3.29-1.55A2.73,2.73,0,0,1,268.57,615.61Z" transform="translate(-14.36 -52.56)"/><path class="cls-16" d="M421.51,219.88c7,4,14.91,2.45,22.23,3,15.52,1.25,31.21.4,46.82.36,4.63,0,10.23,1.55,10-7.65,3.8,7.42,15.15,8.24,11,18.54-4.38-3.63-8.42-1.59-13.39-.63-8.51,1.64-17.62,1-26.4.35-14.38-1.08-28.27,2.09-42.35,3.66-3.54.4-4.33,2.25-4.34,5.28,0,3.24-.22,6.47-.34,9.7C422.93,241.71,420.51,231,421.51,219.88Z" transform="translate(-14.36 -52.56)"/><path class="cls-10" d="M427,274.82c1.51,1,1.79,2.16.38,3.48Z" transform="translate(-14.36 -52.56)"/><path class="cls-6" d="M486.77,492.16c-2.12,2.74-5,3.44-8.28,3.19-.44-9.48,4.4-17.72,6.2-26.83C489.69,476.17,486.94,484.27,486.77,492.16Z" transform="translate(-14.36 -52.56)"/><path class="cls-15" d="M483.86,517.61c-4.9-.15-10,2.2-14.66-1,3.07-2.32,1.79-5.73,2.07-8.7.2-2.16.28-4,3.14-3.9.28,1.39-.7,3.66,2.23,3.21,2.23.43,3.47-.3,3.17-2.77l.18-2.26c4.91-.26,3.85,5.57,7.13,7C483.37,510.93,483.31,514.16,483.86,517.61Z" transform="translate(-14.36 -52.56)"/><path class="cls-6" d="M469.47,494.9c1.4-8-2-16.73,4.94-25.9,1,10,2.12,18.15-1.58,26.22Z" transform="translate(-14.36 -52.56)"/><path class="cls-6" d="M458.64,490.52,457,489.8c.9-7.65,1.34-15.41,5.46-22.39C463.8,475.51,465.62,483.66,458.64,490.52Z" transform="translate(-14.36 -52.56)"/><path class="cls-10" d="M469.47,494.9l3.36.32q.78,4.38,1.58,8.76c-2.86-.15-2.94,1.73-3.14,3.89-.28,3,1,6.38-2.07,8.7l-.78-.11-.77.14c-.68-3.8.52-7.6-2.13-11.47C462.7,501,470.31,499.25,469.47,494.9Z" transform="translate(-14.36 -52.56)"/><path class="cls-10" d="M460.32,533.57c-.86-3.67,1.34-6.69,2.13-10l4.18.24c1.26,1.49,2.89,2.75,2.93,5a2,2,0,0,0-.54,1.53C466,531.16,463.76,533.9,460.32,533.57Z" transform="translate(-14.36 -52.56)"/><path class="cls-8" d="M479.81,504.41c.3,2.47-.94,3.2-3.17,2.77A3.67,3.67,0,0,1,479.81,504.41Z" transform="translate(-14.36 -52.56)"/><path class="cls-10" d="M460.08,517.45c-.27-.88-.53-1.77-.8-2.66C459.55,515.68,459.81,516.57,460.08,517.45Z" transform="translate(-14.36 -52.56)"/><path class="cls-6" d="M499.18,578.72l.51-3.4c3.67-1.05,6.93,1.19,10.45,1.31,2.74,2.89,5.81,2.53,9,.92l7-.29c3.28,4.77-4.43,4.52-3.72,8.12l-.11.2c-2.48,0-4,1.45-5.16,3.49C508.24,590.67,502.35,587.06,499.18,578.72Z" transform="translate(-14.36 -52.56)"/><path class="cls-15" d="M494.23,532.41c4,.1,8,0,12,.33,4.52.36,7.13,2.27,4.71,7.27-1-3.36-3.48-5.63-6.36-3.33-3.16,2.54-2.1,6.26.59,9.2-1.48,5.12-4.3,1.09-6.12.59-4.69-1.29-9.2-3.23-13.79-4.91C491.05,541.25,496.33,540.44,494.23,532.41Z" transform="translate(-14.36 -52.56)"/><path class="cls-6" d="M497.71,564.39c-.95-3.8,1.19-7,2-10.5,2.92-.06,5.93-.61,8.73-.07,3.71.7,3.46,4,3.61,7,.17,3.54-2.19,5-4.83,5C504,566,500.87,564.93,497.71,564.39Z" transform="translate(-14.36 -52.56)"/><path class="cls-6" d="M483.86,517.61c-.55-3.45-.49-6.68,3.26-8.48,4.37-2.58,7.05,1.26,10.36,2.72.77,2.12,2.15,2.9,4.32,2l.38.27c-.72,3.42-2.53,5.73-6.22,6.12Z" transform="translate(-14.36 -52.56)"/><path class="cls-15" d="M496,520.23c3.69-.39,5.5-2.7,6.22-6.12,4.09,1.55,8.29,2.88,12.22,4.75,2.18,1,5.38,2.37,3.59,5.81a4.28,4.28,0,0,1-6.78,1.52C506.71,522.42,501,522.19,496,520.23Z" transform="translate(-14.36 -52.56)"/><path class="cls-6" d="M460.32,533.57c3.44.33,5.72-2.41,8.7-3.29,2.8,1.83,2.14,4.59,1.93,7.23-3.17,1.81-1.41,4.91-1.94,7.41a8.35,8.35,0,0,1-6.72,1.62C460.41,542.4,458.16,538.32,460.32,533.57Z" transform="translate(-14.36 -52.56)"/><path class="cls-15" d="M471,537.51c.21-2.64.87-5.4-1.93-7.23a2,2,0,0,1,.54-1.53c7.29.08,14.75-1.1,21.5,2.94-5.35,0-10.84-.21-9.3,7.89Z" transform="translate(-14.36 -52.56)"/><path class="cls-6" d="M481.76,539.58c-1.54-8.1,3.95-7.91,9.3-7.89l3.17.72c2.1,8-3.18,8.84-9,9.15C483.92,541.23,482.38,541.23,481.76,539.58Z" transform="translate(-14.36 -52.56)"/><path class="cls-10" d="M462.29,546.54a8.35,8.35,0,0,0,6.72-1.62c2.89,1.75,1.56,4.9,2.42,7.32-.75.87-1.5,1.75-2.26,2.62l-6.06-.4Q462.69,550.5,462.29,546.54Z" transform="translate(-14.36 -52.56)"/><path class="cls-6" d="M505.18,545.88c-2.69-2.94-3.75-6.66-.59-9.2,2.88-2.3,5.37,0,6.36,3.33C510.47,543.38,507.9,544.7,505.18,545.88Z" transform="translate(-14.36 -52.56)"/><path class="cls-15" d="M519.15,577.55c-3.2,1.61-6.27,2-9-.92C513.4,574.46,516.14,577.31,519.15,577.55Z" transform="translate(-14.36 -52.56)"/><path class="cls-15" d="M501.8,513.84c-2.17.91-3.55.13-4.32-2C499.54,511.17,501,511.8,501.8,513.84Z" transform="translate(-14.36 -52.56)"/><path class="cls-8" d="M558,576.71l-7.06-1.5C554.15,571.82,556.22,573.63,558,576.71Z" transform="translate(-14.36 -52.56)"/><path class="cls-9" d="M622,610.44a35.09,35.09,0,0,1-13.88-6.81C614,603.26,619.82,603.17,622,610.44Z" transform="translate(-14.36 -52.56)"/><path class="cls-9" d="M623.65,612.07l-1.34-1.31Z" transform="translate(-14.36 -52.56)"/><path class="cls-15" d="M517.14,589.07c1.13-2,2.68-3.46,5.16-3.49C522.5,589.59,519.85,589.38,517.14,589.07Z" transform="translate(-14.36 -52.56)"/><path class="cls-6" d="M451.73,554.4c3.85,2.53,4.27,6,2.29,9.77-.92,1.76-2.67,1.94-4.52,1-4.58-2.27-3.16-6.28-3-9.94A5.85,5.85,0,0,1,451.73,554.4Z" transform="translate(-14.36 -52.56)"/><path class="cls-15" d="M445.66,516.9c1.62,5.56-3.1,7-6,9.43a2.65,2.65,0,0,1-2.16-.42c-.14-1-.26-2.53.34-3.16C440,520.44,441.87,517.63,445.66,516.9Z" transform="translate(-14.36 -52.56)"/><path class="cls-6" d="M463.11,554.46l6.06.4c1.84,2.29,3.23,5.18-.94,5.67C464.88,560.92,461.22,559.51,463.11,554.46Z" transform="translate(-14.36 -52.56)"/></svg>